musPoisonMothsLairStart:

musPoisonMothsLairChannel1:
	vibrato $f1
	env $0 $00
	cmdf2
	duty $02
musicf1dc1:
	vol $7
	note e4  $24
	note b4  $24
	note e4  $24
	note ds4 $24
	note as4 $0d
	rest $01
	vol $3
	note as4 $05
	rest $01
	vol $2
	note as4 $04
	rest $03
	vol $1
	note as4 $04
	rest $29
	vol $7
	note b2  $03
	note d4  $03
	note f5  $03
	rest $04
	vol $3
	note b2  $03
	note d4  $03
	note f5  $03
	rest $05
	vol $1
	note b2  $03
	note d4  $03
	note f5  $03
	vol $7
	note gs2 $03
	note b3  $03
	note d5  $03
	rest $04
	vol $3
	note gs2 $03
	note b3  $03
	note d5  $03
	rest $05
	vol $1
	note gs2 $03
	note b3  $03
	note d5  $03
	rest $48
	vol $7
	note e4  $24
	note b4  $24
	note e5  $24
	note ds5 $24
	note as5 $06
	rest $03
	vol $3
	note as5 $03
	rest $06
	vol $2
	note as5 $03
	rest $03
	vol $1
	note as5 $03
	rest $03
	vol $1
	note as5 $03
	rest $4b
	vol $7
	note b2  $03
	note d4  $03
	note f5  $03
	rest $04
	vol $3
	note b2  $03
	note d4  $03
	note f5  $03
	rest $05
	vol $1
	note b2  $03
	note d4  $03
	note f5  $03
	vol $7
	note gs2 $03
	note b3  $03
	note d5  $03
	rest $04
	vol $3
	note gs2 $03
	note b3  $03
	note d5  $03
	rest $05
	vol $1
	note gs2 $03
	note b3  $03
	note d5  $03
	rest $24
	vol $7
	note gs1 $03
	note b2  $03
	note d4  $03
	rest $04
	vol $3
	note gs1 $03
	note b2  $03
	note d4  $03
	rest $05
	vol $1
	note gs1 $03
	note b2  $03
	note d4  $03
	vol $7
	note f1  $03
	note gs2 $03
	note b3  $03
	rest $04
	vol $3
	note f1  $03
	note gs2 $03
	note b3  $03
	rest $05
	vol $1
	note f1  $03
	note gs2 $03
	note b3  $03
	rest $24
	vol $7
	note as2 $03
	note cs4 $03
	note e5  $03
	rest $04
	vol $3
	note as2 $03
	note cs4 $03
	note e5  $03
	rest $05
	vol $1
	note as2 $03
	note cs4 $03
	note e5  $03
	vol $7
	note g2  $03
	note as3 $03
	note cs5 $03
	rest $04
	vol $3
	note g2  $03
	note as3 $03
	note cs5 $03
	rest $05
	vol $1
	note g2  $03
	note as3 $03
	note cs5 $03
	rest $24
	vol $7
	note f1  $03
	note gs2 $03
	note b3  $03
	rest $04
	vol $3
	note f1  $03
	note gs2 $03
	note b3  $03
	rest $05
	vol $1
	note f1  $03
	note gs2 $03
	note b3  $03
	vol $7
	note d1  $03
	note f2  $03
	note gs3 $03
	rest $04
	vol $3
	note d1  $03
	note f2  $03
	note gs3 $03
	rest $05
	vol $1
	note d1  $03
	note f2  $03
	note gs3 $03
	rest $48
	vol $4
	note a3  $0c
	note ds3 $0c
	note d3  $0c
	note ds3 $0c
	note a3  $0c
	vol $4
	note ds3 $0c
	note d3  $0c
	note ds3 $0c
	note d3  $0c
	note ds3 $0c
	vol $2
	note ds3 $0c
	vol $1
	note ds3 $0c
	vol $5
	note gs4 $0c
	vol $2
	note a4  $0c
	rest $03
	vol $1
	note a4  $0c
	rest $21
	vol $5
	note b3  $0c
	note f3  $0c
	note e3  $0c
	note f3  $0c
	note b3  $0c
	note f3  $0c
	note e3  $0c
	note f3  $0c
	note e3  $0c
	note f3  $0c
	rest $18
	note as4 $0c
	vol $3
	note b4  $0c
	rest $03
	vol $1
	note b4  $0c
	rest $21
	vol $4
	note c4  $0c
	vol $4
	note fs3 $0c
	vol $5
	note f3  $0c
	vol $5
	note fs3 $0c
	rest $06
	vol $2
	note fs3 $0c
	rest $06
	vol $5
	note cs4 $0c
	vol $5
	note g3  $0c
	vol $5
	note fs3 $0c
	vol $5
	note g3  $0c
	rest $06
	vol $2
	note g3  $0c
	rest $06
	vol $5
	note d4  $0c
	vol $6
	note gs3 $0c
	vol $6
	note a3  $0c
	vol $6
	note ds4 $0c
	vol $7
	note a3  $0c
	vol $7
	note as3 $0c
	vol $7
	note fs4 $04
	vol $5
	note a4  $05
	rest $09
	vol $6
	note f4  $04
	vol $5
	note gs4 $05
	rest $09
	vol $6
	note e4  $04
	vol $4
	note g4  $05
	rest $09
	vol $6
	note ds4 $04
	vol $4
	note fs4 $05
	rest $09
	vol $6
	note d4  $04
	vol $4
	note f4  $05
	rest $09
	vol $6
	note cs4 $04
	vol $4
	note e4  $05
	rest $09
	vol $6
	note c4  $04
	vol $4
	note ds4 $05
	rest $09
	vol $5
	note b3  $04
	vol $4
	note d4  $05
	rest $0f
	vol $5
	note as3 $04
	vol $4
	note cs4 $04
	rest $07
	vol $3
	note cs4 $03
	rest $36
	vol $6
	note a3  $06
	rest $03
	vol $2
	note c4  $06
	rest $03
	vol $1
	note c4  $06
	rest $2e
	vol $5
	note gs3 $09
	rest $01
	vol $2
	note b3  $07
	rest $03
	vol $1
	note b3  $06
	rest $4e
	goto musicf1dc1
	cmdff

musPoisonMothsLairChannel0:
	vibrato $00
	env $0 $00
	cmdf2
	duty $02
musicf1ffc:
	vol $7
	note gs3 $24
	note b3  $24
	note gs3 $24
	note g3  $24
	note as3 $0c
	rest $03
	vol $2
	note as3 $03
	rest $03
	vol $2
	note as3 $03
	rest $03
	vol $1
	note as3 $03
	rest $2a
	vol $4
	note b4  $09
	rest $03
	vol $1
	note b4  $03
	rest $03
	vol $1
	note b4  $03
	rest $03
	vol $1
	note b4  $03
	rest $09
	vol $5
	note gs4 $04
	rest $01
	vol $2
	note gs4 $04
	rest $06
	vol $1
	note gs4 $03
	rest $06
	vol $1
	note gs4 $03
	rest $51
	vol $7
	note gs3 $24
	note b3  $24
	note gs3 $24
	note g3  $24
	vol $6
	note as3 $06
	rest $03
	vol $2
	note as3 $03
	rest $03
	vol $2
	note as3 $03
	rest $03
	vol $1
	note as3 $03
	rest $03
	vol $1
	note as3 $03
	rest $4e
	vol $4
	note b4  $09
	rest $03
	vol $3
	note b4  $03
	rest $03
	vol $1
	note b4  $03
	rest $0f
	vol $4
	note gs4 $09
	rest $03
	vol $3
	note gs4 $03
	rest $03
	vol $1
	note gs4 $03
	rest $33
	vol $2
	note f3  $09
	rest $03
	vol $4
	note f3  $03
	rest $03
	vol $1
	note f3  $03
	rest $0f
	vol $3
	note d3  $09
	rest $03
	vol $4
	note d3  $03
	rest $03
	vol $1
	note d3  $03
	rest $33
	vol $5
	note as4 $06
	rest $03
	vol $3
	note as4 $03
	rest $06
	vol $1
	note as4 $03
	rest $0f
	vol $3
	note g4  $06
	rest $03
	vol $5
	note g4  $03
	rest $06
	vol $1
	note g4  $03
	rest $33
	vol $3
	note d3  $09
	rest $03
	vol $5
	note d3  $03
	rest $03
	vol $2
	note d3  $03
	rest $0f
	vol $3
	note b2  $09
	rest $03
	vol $4
	note b2  $03
	rest $03
	vol $2
	note b2  $03
	rest $57
	vol $5
	note d2  $75
	rest $63
	vol $6
	note ds2 $75
	rest $63
	vol $5
	note ds2 $48
	vol $6
	note e2  $48
	vol $6
	note f2  $24
	vol $6
	note fs2 $24
	note a3  $04
	rest $0e
	vol $6
	note gs3 $04
	rest $0e
	vol $6
	note g3  $04
	rest $0e
	vol $6
	note fs3 $04
	rest $0e
	vol $6
	note f3  $04
	rest $0e
	vol $5
	note e3  $04
	rest $0e
	vol $5
	note ds3 $04
	rest $0e
	vol $5
	note d3  $04
	rest $14
	vol $4
	note cs3 $06
	rest $42
	vol $4
	note c3  $04
	rest $42
	vol $3
	note b2  $05
	rest $63
	goto musicf1ffc
	cmdff

.define musPoisonMothsLairChannel4 MUSIC_CHANNEL_FALLBACK EXPORT
.define musPoisonMothsLairChannel6 MUSIC_CHANNEL_FALLBACK EXPORT
