sndSubrosianShopStart:

sndSubrosianShopChannel1:
	vibrato $00
	env $0 $00
	duty $01
musicf59c8:
	vol $6
	note ds5 $0e
	note d5  $07
	rest $03
	vol $3
	note d5  $04
	vol $6
	note cs5 $07
	rest $03
	vol $3
	note cs5 $04
	vol $6
	note c5  $07
	rest $03
	vol $3
	note c5  $07
	rest $04
	vol $1
	note c5  $07
	vol $6
	note b4  $0e
	note c5  $07
	rest $03
	vol $3
	note c5  $04
	vol $6
	note cs5 $07
	rest $03
	vol $3
	note cs5 $04
	vol $6
	note ds5 $0e
	note fs5 $07
	rest $03
	vol $3
	note fs5 $04
	vol $6
	note ds5 $07
	note d5  $07
	note cs5 $07
	note b4  $07
	rest $07
	vol $3
	note b4  $07
	vol $6
	note b4  $0e
	note c5  $07
	rest $03
	vol $3
	note c5  $04
	vol $6
	note cs5 $07
	rest $03
	vol $3
	note cs5 $04
	vol $6
	note ds5 $0e
	note d5  $07
	rest $03
	vol $3
	note d5  $04
	vol $6
	note cs5 $07
	rest $03
	vol $3
	note cs5 $04
	vol $6
	note c5  $07
	rest $03
	vol $3
	note c5  $07
	rest $04
	vol $1
	note c5  $07
	vol $6
	note b4  $0e
	note c5  $07
	rest $03
	vol $3
	note c5  $04
	vol $6
	note cs5 $07
	rest $03
	vol $3
	note cs5 $07
	rest $04
	vol $1
	note cs5 $07
	duty $02
	vol $7
	note fs6 $07
	rest $03
	vol $3
	note fs6 $04
	vol $7
	note fs6 $07
	vol $6
	note f6  $07
	note fs6 $07
	note f6  $07
	vol $6
	note fs6 $07
	rest $03
	vol $3
	note fs6 $04
	vol $6
	note f6  $07
	rest $03
	vol $3
	note f6  $04
	vol $6
	note fs6 $07
	rest $03
	vol $3
	note fs6 $07
	rest $04
	vol $1
	note fs6 $07
	duty $01
	vol $6
	note ds5 $0e
	note d5  $07
	rest $03
	vol $3
	note d5  $04
	vol $6
	note cs5 $07
	rest $03
	vol $3
	note cs5 $04
	vol $6
	note c5  $07
	rest $03
	vol $3
	note c5  $07
	rest $04
	vol $1
	note c5  $07
	vol $6
	note b4  $0e
	note c5  $07
	rest $03
	vol $3
	note c5  $04
	vol $6
	note cs5 $07
	rest $03
	vol $3
	note cs5 $04
	vol $6
	note ds5 $0e
	note fs5 $07
	rest $03
	vol $3
	note fs5 $04
	vol $6
	note ds5 $07
	note d5  $07
	note cs5 $07
	note b4  $07
	rest $03
	vol $3
	note b4  $07
	rest $04
	vol $6
	note b4  $0e
	note c5  $07
	rest $03
	vol $3
	note c5  $04
	vol $6
	note cs5 $07
	rest $03
	vol $3
	note cs5 $04
	vol $6
	note ds5 $0e
	note d5  $07
	rest $03
	vol $3
	note d5  $04
	vol $6
	note cs5 $07
	rest $03
	vol $3
	note cs5 $04
	vol $6
	note c5  $07
	rest $03
	vol $3
	note c5  $07
	rest $04
	vol $1
	note c5  $07
	vol $6
	note b4  $07
	rest $03
	vol $3
	note b4  $04
	vol $6
	note c5  $07
	note cs5 $07
	vol $6
	note d5  $07
	note ds5 $07
	rest $0e
	duty $02
	vol $7
	note as6 $07
	rest $03
	vol $3
	note as6 $04
	vol $7
	note as6 $07
	vol $6
	note a6  $07
	note as6 $07
	note a6  $07
	vol $6
	note as6 $07
	rest $03
	vol $3
	note as6 $04
	vol $6
	note a6  $07
	rest $03
	vol $3
	note a6  $04
	vol $6
	note as6 $07
	rest $03
	vol $3
	note as6 $07
	rest $04
	vol $1
	note as6 $06
	rest $01
	duty $01
	goto musicf59c8
	cmdff

sndSubrosianShopChannel0:
	vibrato $00
	env $0 $00
	duty $01
musicf5b5b:
	vol $0
	note gs3 $0e
	vol $6
	note gs3 $0e
	note b3  $0e
	note ds4 $07
	rest $03
	vol $3
	note ds4 $07
	rest $04
	vol $1
	note ds4 $07
	vol $6
	note gs3 $0e
	note b3  $0e
	note ds4 $07
	rest $03
	vol $3
	note ds4 $07
	rest $04
	vol $1
	note ds4 $07
	vol $6
	note gs3 $0e
	note b3  $0e
	note ds4 $07
	rest $03
	vol $3
	note ds4 $07
	rest $04
	vol $1
	note ds4 $07
	vol $6
	note gs3 $0e
	note b3  $0e
	note ds4 $07
	rest $03
	vol $3
	note ds4 $07
	rest $04
	vol $1
	note ds4 $07
	vol $6
	note gs3 $0e
	note b3  $0e
	note ds4 $07
	rest $03
	vol $3
	note ds4 $07
	rest $04
	vol $1
	note ds4 $07
	vol $6
	note gs3 $0e
	note b3  $0e
	note ds4 $07
	rest $03
	vol $3
	note ds4 $07
	rest $04
	vol $1
	note ds4 $07
	duty $02
	vol $6
	note ds6 $07
	rest $03
	vol $3
	note ds6 $04
	vol $6
	note ds6 $07
	note d6  $07
	note ds6 $07
	note d6  $07
	note ds6 $07
	rest $03
	vol $3
	note ds6 $04
	vol $6
	note d6  $07
	rest $03
	vol $3
	note d6  $04
	vol $6
	note ds6 $07
	rest $03
	vol $3
	note ds6 $07
	rest $04
	vol $1
	note ds6 $07
	rest $0e
	duty $01
	vol $6
	note gs3 $0e
	note b3  $0e
	note ds4 $07
	rest $03
	vol $3
	note ds4 $07
	rest $04
	vol $1
	note ds4 $07
	vol $6
	note gs3 $0e
	note b3  $0e
	note ds4 $07
	rest $03
	vol $3
	note ds4 $07
	rest $04
	vol $1
	note ds4 $07
	vol $6
	note gs3 $0e
	note b3  $0e
	note ds4 $07
	rest $03
	vol $3
	note ds4 $07
	rest $04
	vol $1
	note ds4 $07
	vol $6
	note gs3 $0e
	note b3  $0e
	note ds4 $07
	rest $03
	vol $3
	note ds4 $07
	rest $04
	vol $1
	note ds4 $07
	vol $6
	note gs3 $0e
	note b3  $0e
	note ds4 $07
	rest $03
	vol $3
	note ds4 $07
	rest $04
	vol $1
	note ds4 $07
	vol $6
	note gs3 $0e
	note b3  $0e
	note ds4 $07
	rest $03
	vol $3
	note ds4 $07
	rest $04
	vol $1
	note ds4 $07
	duty $02
	vol $6
	note fs6 $07
	rest $03
	vol $3
	note fs6 $04
	vol $6
	note fs6 $07
	note f6  $07
	note fs6 $07
	note f6  $07
	note fs6 $07
	rest $03
	vol $3
	note fs6 $04
	vol $6
	note f6  $07
	rest $03
	vol $3
	note f6  $04
	vol $6
	note fs6 $07
	rest $03
	vol $3
	note fs6 $07
	rest $04
	vol $1
	note fs6 $06
	rest $01
	duty $01
	goto musicf5b5b
	cmdff

sndSubrosianShopChannel4:
musicf5c94:
	duty $0e
	note e3  $05
	duty $0f
	note e3  $0f
	rest $08
	duty $0e
	note b3  $05
	duty $0f
	note b3  $0f
	rest $08
	duty $0e
	note b2  $05
	duty $0f
	note b2  $0f
	rest $08
	duty $0e
	note b3  $05
	duty $0f
	note b3  $0f
	rest $08
	duty $0e
	note e3  $05
	duty $0f
	note e3  $0f
	rest $08
	duty $0e
	note b3  $05
	duty $0f
	note b3  $0f
	rest $08
	duty $0e
	note b2  $05
	duty $0f
	note b2  $0f
	rest $08
	duty $0e
	note b3  $05
	duty $0f
	note b3  $0f
	rest $08
	duty $0e
	note e3  $05
	duty $0f
	note e3  $0f
	rest $08
	duty $0e
	note b3  $05
	duty $0f
	note b3  $0f
	rest $08
	duty $0e
	note b2  $05
	duty $0f
	note b2  $0f
	rest $08
	duty $0e
	note b3  $05
	duty $0f
	note b3  $0f
	rest $08
	duty $0e
	note e3  $15
	duty $0f
	note e3  $07
	duty $0e
	note b2  $07
	duty $0f
	note b2  $07
	duty $0e
	note e3  $15
	duty $0f
	note e3  $07
	duty $0e
	note ds3 $07
	duty $0f
	note ds3 $07
	duty $0e
	note e3  $07
	duty $0f
	note e3  $0e
	rest $07
	duty $0e
	note e3  $05
	duty $0f
	note e3  $0f
	rest $08
	duty $0e
	note b3  $05
	duty $0f
	note b3  $0f
	rest $08
	duty $0e
	note b2  $05
	duty $0f
	note b2  $0f
	rest $08
	duty $0e
	note b3  $05
	duty $0f
	note b3  $0f
	rest $08
	duty $0e
	note e3  $05
	duty $0f
	note e3  $0f
	rest $08
	duty $0e
	note b3  $05
	duty $0f
	note b3  $0f
	rest $08
	duty $0e
	note b2  $05
	duty $0f
	note b2  $0f
	rest $08
	duty $0e
	note b3  $05
	duty $0f
	note b3  $0f
	rest $08
	duty $0e
	note e3  $05
	duty $0f
	note e3  $0f
	rest $08
	duty $0e
	note b3  $05
	duty $0f
	note b3  $0f
	rest $08
	duty $0e
	note b2  $05
	duty $0f
	note b2  $0f
	rest $08
	duty $0e
	note b3  $05
	duty $0f
	note b3  $0f
	rest $08
	duty $0e
	note e3  $15
	duty $0f
	note e3  $07
	duty $0e
	note b2  $07
	duty $0f
	note b2  $07
	duty $0e
	note e3  $1c
	duty $0e
	note b2  $07
	duty $0f
	note b2  $07
	duty $0e
	note e3  $07
	duty $0f
	note e3  $0e
	rest $07
	goto musicf5c94
	cmdff

.define sndSubrosianShopChannel6 MUSIC_CHANNEL_FALLBACK EXPORT
