musUnicornsCaveStart:

musUnicornsCaveChannel1:
	vibrato $e1
	env $0 $00
	cmdf2
	duty $02
	vol $6
	note fs3 $07
	rest $03
	vol $3
	note fs3 $04
	vol $6
	note fs3 $03
	vol $3
	note fs3 $04
	vol $6
	note fs3 $03
	vol $3
	note fs3 $04
musicf1423:
	vol $6
	note cs4 $38
	note c4  $07
	rest $03
	vol $3
	note c4  $07
	rest $0b
	vol $6
	note a3  $0b
	rest $06
	vol $3
	note a3  $04
	vol $6
	note fs3 $07
	note e4  $38
	note ds4 $07
	rest $03
	vol $3
	note ds4 $07
	rest $0b
	vol $6
	note fs3 $07
	rest $03
	vol $3
	note fs3 $04
	vol $6
	note fs3 $03
	rest $01
	vol $3
	note fs3 $03
	vol $6
	note fs3 $03
	rest $01
	vol $3
	note fs3 $03
	vol $6
	note cs4 $38
	note c4  $07
	rest $07
	vol $3
	note c4  $07
	rest $07
	vol $6
	note a3  $0b
	rest $06
	vol $3
	note a3  $04
	vol $6
	note fs3 $07
	note e3  $2e
	note fs3 $05
	note e3  $05
	note ds3 $07
	rest $03
	vol $3
	note ds3 $07
	rest $0b
	vol $6
	note cs4 $07
	rest $03
	vol $3
	note cs4 $04
	vol $6
	note cs4 $03
	rest $01
	vol $3
	note cs4 $03
	vol $6
	note cs4 $03
	rest $01
	vol $3
	note cs4 $03
	vol $6
	note gs4 $38
	note a4  $07
	rest $03
	vol $3
	note a4  $07
	rest $0b
	vol $6
	note cs5 $07
	rest $03
	vol $3
	note cs5 $07
	rest $04
	vol $6
	note gs5 $07
	note f5  $1c
	note a4  $03
	rest $01
	vol $3
	note a4  $03
	vol $6
	note a4  $03
	rest $01
	vol $3
	note a4  $03
	vol $6
	note a4  $03
	rest $01
	vol $3
	note a4  $03
	vol $6
	note a4  $03
	rest $01
	vol $3
	note a4  $03
	vol $6
	note ds4 $11
	vol $3
	note ds4 $0b
	vol $6
	note a3  $07
	rest $03
	vol $3
	note a3  $04
	vol $6
	note a3  $07
	note fs3 $07
	note cs4 $38
	note c4  $07
	rest $03
	vol $3
	note c4  $07
	rest $0b
	vol $6
	note a3  $07
	rest $03
	vol $3
	note a3  $07
	rest $04
	vol $6
	note gs4 $07
	note ds4 $1c
	note a3  $03
	rest $01
	vol $3
	note a3  $03
	vol $6
	note a3  $03
	rest $01
	vol $3
	note a3  $03
	vol $6
	note a3  $03
	rest $01
	vol $3
	note a3  $03
	vol $6
	note a3  $03
	rest $01
	vol $3
	note a3  $03
	vol $6
	note ds3 $0e
	vol $3
	note ds3 $0e
	rest $1c
	vol $6
	note c4  $0e
	vol $5
	note b3  $07
	rest $03
	vol $2
	note b3  $04
	vol $6
	note c4  $0e
	vol $5
	note b3  $07
	rest $03
	vol $2
	note b3  $07
	rest $35
	vol $6
	note d4  $0e
	vol $5
	note cs4 $07
	rest $03
	vol $2
	note cs4 $04
	vol $6
	note d4  $0e
	vol $5
	note cs4 $07
	rest $03
	vol $2
	note cs4 $07
	rest $35
	vol $7
	note e4  $0e
	vol $6
	note ds4 $07
	rest $03
	vol $2
	note ds4 $04
	vol $6
	note g4  $07
	rest $03
	vol $3
	note g4  $04
	vol $6
	note fs4 $07
	rest $03
	vol $3
	note fs4 $04
	vol $6
	note f4  $07
	rest $03
	vol $3
	note f4  $04
	vol $5
	note e4  $07
	rest $03
	vol $2
	note e4  $04
	vol $5
	note ds4 $07
	rest $03
	vol $2
	note ds4 $04
	vol $5
	note e4  $07
	rest $03
	vol $2
	note e4  $04
	vol $5
	note f4  $07
	rest $03
	vol $2
	note f4  $04
	vol $5
	note fs4 $07
	rest $03
	vol $2
	note fs4 $04
	vol $5
	note g4  $07
	rest $03
	vol $2
	note g4  $04
	vol $6
	note gs4 $07
	rest $03
	vol $2
	note gs4 $04
	vol $6
	note a4  $07
	rest $03
	vol $3
	note a4  $04
	vol $6
	note as4 $07
	rest $03
	vol $3
	note as4 $04
	vol $6
	note b4  $07
	rest $03
	vol $3
	note b4  $04
	vol $6
	note c5  $07
	rest $03
	vol $3
	note c5  $04
	rest $1c
	vol $6
	note fs4 $0e
	vol $6
	note f4  $07
	rest $03
	vol $3
	note f4  $04
	vol $6
	note a4  $0e
	vol $6
	note gs4 $07
	rest $03
	vol $3
	note gs4 $07
	rest $0b
	vol $6
	note fs4 $07
	rest $03
	vol $3
	note fs4 $04
	vol $6
	note fs4 $0e
	vol $5
	note f4  $07
	rest $03
	vol $2
	note f4  $04
	vol $6
	note a4  $0e
	vol $5
	note gs4 $07
	rest $03
	vol $2
	note gs4 $04
	vol $6
	note g4  $0e
	vol $6
	note fs4 $07
	rest $03
	vol $3
	note fs4 $07
	rest $0b
	vol $6
	note a4  $07
	rest $03
	vol $3
	note a4  $04
	vol $6
	note a4  $0e
	vol $6
	note gs4 $07
	rest $03
	vol $3
	note gs4 $04
	vol $6
	note d5  $0e
	vol $6
	note cs5 $07
	rest $03
	vol $3
	note cs5 $04
	vol $6
	note c5  $07
	rest $03
	vol $3
	note c5  $04
	vol $6
	note b4  $07
	rest $03
	vol $3
	note b4  $04
	vol $6
	note as4 $07
	rest $03
	vol $3
	note as4 $04
	vol $5
	note a4  $07
	rest $03
	vol $2
	note a4  $04
	vol $5
	note gs4 $07
	rest $03
	vol $2
	note gs4 $04
	vol $5
	note g4  $07
	rest $03
	vol $2
	note g4  $04
	vol $5
	note fs4 $07
	rest $03
	vol $2
	note fs4 $04
	vol $6
	note f4  $07
	rest $03
	vol $2
	note f4  $04
	vol $6
	note e4  $07
	rest $03
	vol $3
	note e4  $04
	rest $0e
	vol $6
	note fs3 $07
	rest $03
	vol $3
	note fs3 $04
	vol $6
	note fs3 $03
	rest $01
	vol $3
	note fs3 $03
	vol $6
	note fs3 $03
	rest $01
	vol $3
	note fs3 $03
	goto musicf1423
	cmdff

musUnicornsCaveChannel0:
	vol $0
	note gs3 $1c
	vibrato $00
	env $0 $00
	cmdf2
	duty $02
musicf16a7:
	rest $1c
	vol $6
	note fs3 $11
	rest $04
	note fs3 $03
	rest $04
	note f3  $07
	rest $03
	vol $3
	note f3  $04
	vol $6
	note f3  $07
	rest $03
	vol $3
	note f3  $04
	rest $2a
	vol $6
	note e3  $07
	rest $07
	note e3  $03
	rest $01
	vol $3
	note e3  $03
	vol $6
	note e3  $03
	rest $01
	vol $3
	note e3  $03
	vol $6
	note e3  $03
	rest $01
	vol $3
	note e3  $03
	vol $6
	note e3  $03
	rest $01
	vol $3
	note e3  $03
	vol $6
	note f3  $07
	rest $03
	vol $3
	note f3  $04
	vol $6
	note f3  $07
	rest $03
	vol $3
	note f3  $04
	rest $38
	vol $6
	note fs3 $11
	rest $04
	note fs3 $03
	rest $04
	note f3  $07
	rest $03
	vol $3
	note f3  $04
	vol $6
	note f3  $07
	rest $03
	vol $3
	note f3  $04
	rest $2a
	vol $6
	note e3  $07
	rest $03
	vol $3
	note e3  $04
	vol $6
	note e3  $03
	rest $01
	vol $3
	note e3  $03
	vol $6
	note e3  $03
	rest $01
	vol $3
	note e3  $03
	vol $6
	note e3  $03
	rest $01
	vol $3
	note e3  $03
	vol $6
	note e3  $03
	rest $01
	vol $3
	note e3  $03
	vol $6
	note f3  $07
	rest $03
	vol $3
	note f3  $04
	vol $6
	note f3  $07
	rest $03
	vol $3
	note f3  $04
	rest $38
	vol $6
	note cs3 $11
	rest $04
	note cs3 $03
	rest $04
	note c3  $07
	rest $03
	vol $3
	note c3  $04
	vol $6
	note c3  $07
	rest $03
	vol $3
	note c3  $04
	rest $2a
	vol $6
	note b2  $07
	rest $03
	vol $3
	note b2  $04
	vol $6
	note b2  $03
	rest $01
	vol $3
	note b2  $03
	vol $6
	note b2  $03
	rest $01
	vol $3
	note b2  $03
	vol $6
	note b2  $03
	rest $01
	vol $3
	note b2  $03
	vol $6
	note b2  $03
	rest $01
	vol $3
	note b2  $03
	vol $6
	note c3  $07
	rest $03
	vol $3
	note c3  $04
	vol $6
	note c3  $07
	rest $03
	vol $3
	note c3  $04
	rest $38
	vol $6
	note cs3 $11
	rest $04
	note cs3 $03
	rest $04
	note c3  $07
	rest $03
	vol $3
	note c3  $04
	vol $6
	note c3  $07
	rest $03
	vol $3
	note c3  $04
	rest $2a
	vol $6
	note b2  $07
	rest $03
	vol $3
	note b2  $04
	vol $6
	note b2  $03
	rest $01
	vol $3
	note b2  $03
	vol $6
	note b2  $03
	rest $01
	vol $3
	note b2  $03
	vol $6
	note b2  $03
	rest $01
	vol $3
	note b2  $03
	vol $6
	note b2  $03
	rest $01
	vol $3
	note b2  $03
	vol $6
	note c3  $07
	rest $03
	vol $3
	note c3  $04
	vol $6
	note c3  $07
	rest $03
	vol $3
	note c3  $04
	rest $1c
	vol $6
	note a3  $0e
	vol $6
	note gs3 $07
	rest $03
	vol $3
	note gs3 $04
	vol $6
	note a3  $0e
	vol $6
	note gs3 $07
	rest $03
	vol $3
	note gs3 $07
	rest $35
	vol $6
	note b3  $0e
	vol $5
	note as3 $07
	rest $03
	vol $2
	note as3 $04
	vol $6
	note b3  $0e
	vol $5
	note as3 $07
	rest $03
	vol $2
	note as3 $07
	rest $35
	vol $6
	note c4  $0e
	vol $6
	note b3  $07
	rest $03
	vol $2
	note b3  $04
	vol $6
	note e4  $07
	rest $03
	vol $3
	note e4  $04
	vol $6
	note ds4 $07
	rest $03
	vol $3
	note ds4 $04
	vol $5
	note d4  $07
	rest $03
	vol $2
	note d4  $04
	vol $5
	note cs4 $07
	rest $03
	vol $2
	note cs4 $04
	vol $5
	note c4  $07
	rest $03
	vol $2
	note c4  $04
	vol $5
	note cs4 $07
	rest $03
	vol $2
	note cs4 $04
	vol $5
	note d4  $07
	rest $03
	vol $2
	note d4  $04
	vol $5
	note ds4 $07
	rest $03
	vol $2
	note ds4 $04
	vol $6
	note e4  $07
	rest $03
	vol $2
	note e4  $04
	vol $6
	note f4  $07
	rest $03
	vol $3
	note f4  $04
	vol $6
	note fs4 $07
	rest $03
	vol $3
	note fs4 $04
	vol $6
	note g4  $07
	rest $03
	vol $3
	note g4  $04
	vol $6
	note gs4 $07
	rest $03
	vol $3
	note gs4 $04
	vol $7
	note a4  $07
	rest $03
	vol $3
	note a4  $04
	rest $1c
	vol $6
	note d4  $0e
	vol $5
	note cs4 $07
	rest $03
	vol $2
	note cs4 $04
	vol $6
	note fs4 $0e
	vol $5
	note f4  $07
	rest $03
	vol $2
	note f4  $07
	rest $0b
	vol $6
	note d4  $07
	rest $03
	vol $3
	note d4  $04
	vol $6
	note d4  $0e
	vol $5
	note cs4 $07
	rest $03
	vol $2
	note cs4 $04
	vol $6
	note fs4 $0e
	vol $5
	note f4  $07
	rest $03
	vol $2
	note f4  $04
	vol $6
	note e4  $0e
	vol $6
	note ds4 $07
	rest $03
	vol $3
	note ds4 $07
	rest $35
	vol $6
	note f4  $0e
	vol $6
	note e4  $07
	rest $03
	vol $3
	note e4  $04
	vol $6
	note ds4 $07
	rest $03
	vol $3
	note ds4 $04
	vol $6
	note d4  $07
	rest $03
	vol $3
	note d4  $04
	vol $6
	note cs4 $07
	rest $03
	vol $3
	note cs4 $04
	vol $6
	note c4  $07
	rest $03
	vol $3
	note c4  $04
	vol $6
	note b3  $07
	rest $03
	vol $3
	note b3  $04
	vol $6
	note as3 $07
	rest $03
	vol $2
	note as3 $04
	vol $5
	note a3  $07
	rest $03
	vol $2
	note a3  $04
	vol $6
	note gs3 $07
	rest $03
	vol $3
	note gs3 $04
	vol $6
	note g3  $07
	rest $03
	vol $3
	note g3  $04
	rest $2a
	goto musicf16a7
	cmdff

musUnicornsCaveChannel4:
	rest $1c
	cmdf2
musicf1941:
	duty $0e
	note fs2 $0e
	duty $0c
	note fs2 $0e
	duty $0e
	note fs2 $0e
	duty $0c
	note fs2 $07
	duty $0e
	note fs2 $03
	duty $0c
	note fs2 $04
	duty $0e
	note fs2 $03
	duty $0c
	note fs2 $0b
	duty $0e
	note fs2 $03
	duty $0c
	note fs2 $07
	rest $20
	duty $0e
	note fs2 $07
	duty $0c
	note fs2 $07
	duty $0e
	note fs2 $07
	duty $0c
	note fs2 $07
	duty $0e
	note fs2 $03
	duty $0c
	note fs2 $04
	duty $0e
	note fs2 $03
	duty $0c
	note fs2 $04
	duty $0e
	note fs2 $03
	duty $0c
	note fs2 $04
	duty $0e
	note fs2 $03
	duty $0c
	note fs2 $04
	duty $0e
	note fs2 $07
	duty $0c
	note fs2 $07
	duty $0e
	note fs2 $07
	duty $0c
	note fs2 $07
	rest $1c
	duty $0e
	note fs2 $0e
	duty $0c
	note fs2 $0e
	duty $0e
	note fs2 $0e
	duty $0c
	note fs2 $07
	duty $0e
	note fs2 $03
	duty $0c
	note fs2 $04
	duty $0e
	note fs2 $03
	duty $0c
	note fs2 $0b
	duty $0e
	note fs2 $03
	duty $0c
	note fs2 $07
	rest $20
	duty $0e
	note fs2 $07
	duty $0c
	note fs2 $07
	duty $0e
	note fs2 $07
	duty $0c
	note fs2 $07
	duty $0e
	note fs2 $03
	duty $0c
	note fs2 $04
	duty $0e
	note fs2 $03
	duty $0c
	note fs2 $04
	duty $0e
	note fs2 $03
	duty $0c
	note fs2 $04
	duty $0e
	note fs2 $03
	duty $0c
	note fs2 $04
	duty $0e
	note fs2 $07
	duty $0c
	note fs2 $07
	duty $0e
	note fs2 $07
	duty $0c
	note fs2 $07
	rest $1c
	duty $0e
	note fs2 $0e
	duty $0c
	note fs2 $0e
	duty $0e
	note fs2 $0e
	duty $0c
	note fs2 $07
	duty $0e
	note fs2 $03
	duty $0c
	note fs2 $04
	duty $0e
	note fs2 $03
	duty $0c
	note fs2 $0b
	duty $0e
	note fs2 $03
	duty $0c
	note fs2 $07
	rest $20
	duty $0e
	note fs2 $07
	duty $0c
	note fs2 $07
	duty $0e
	note fs2 $07
	duty $0c
	note fs2 $07
	duty $0e
	note fs2 $03
	duty $0c
	note fs2 $04
	duty $0e
	note fs2 $03
	duty $0c
	note fs2 $04
	duty $0e
	note fs2 $03
	duty $0c
	note fs2 $04
	duty $0e
	note fs2 $03
	duty $0c
	note fs2 $04
	duty $0e
	note fs2 $07
	duty $0c
	note fs2 $07
	duty $0e
	note fs2 $07
	duty $0c
	note fs2 $07
	rest $1c
	duty $0e
	note fs2 $0e
	duty $0c
	note fs2 $0e
	duty $0e
	note fs2 $0e
	duty $0c
	note fs2 $07
	duty $0e
	note fs2 $03
	duty $0c
	note fs2 $04
	duty $0e
	note fs2 $03
	duty $0c
	note fs2 $0b
	duty $0e
	note fs2 $03
	duty $0c
	note fs2 $07
	rest $20
	duty $0e
	note fs2 $07
	duty $0c
	note fs2 $07
	duty $0e
	note fs2 $07
	duty $0c
	note fs2 $07
	duty $0e
	note fs2 $03
	duty $0c
	note fs2 $04
	duty $0e
	note fs2 $03
	duty $0c
	note fs2 $04
	duty $0e
	note fs2 $03
	duty $0c
	note fs2 $04
	duty $0e
	note fs2 $03
	duty $0c
	note fs2 $04
	duty $0e
	note fs2 $07
	duty $0c
	note fs2 $07
	duty $0e
	note fs2 $07
	duty $0c
	note fs2 $07
	rest $62
	duty $0e
	note fs2 $07
	duty $0c
	note fs2 $07
	duty $0e
	note fs2 $03
	duty $0c
	note fs2 $04
	duty $0e
	note fs2 $03
	duty $0c
	note fs2 $04
	duty $0e
	note fs2 $03
	duty $0c
	note fs2 $07
	rest $2e
	duty $0e
	note fs2 $07
	duty $0c
	note fs2 $07
	rest $0e
	duty $0e
	note fs2 $07
	duty $0c
	note fs2 $07
	duty $0e
	note fs2 $03
	duty $0c
	note fs2 $04
	duty $0e
	note fs2 $03
	duty $0c
	note fs2 $04
	duty $0e
	note fs2 $03
	duty $0c
	note fs2 $07
	rest $20
	duty $0e
	note e3  $07
	duty $0c
	note e3  $07
	duty $0e
	note ds3 $07
	duty $0c
	note ds3 $07
	duty $0e
	note d3  $07
	duty $0c
	note d3  $07
	duty $0e
	note cs3 $07
	duty $0c
	note cs3 $07
	duty $0e
	note c3  $07
	duty $0c
	note c3  $07
	duty $0e
	note cs3 $07
	duty $0c
	note cs3 $07
	duty $0e
	note d3  $07
	duty $0c
	note d3  $07
	duty $0e
	note ds3 $07
	duty $0c
	note ds3 $07
	duty $0e
	note e3  $07
	duty $0c
	note e3  $07
	duty $0e
	note f3  $07
	duty $0c
	note f3  $07
	duty $0e
	note fs3 $07
	duty $0c
	note fs3 $07
	duty $0e
	note g3  $07
	duty $0c
	note g3  $07
	duty $0e
	note gs3 $07
	duty $0c
	note gs3 $07
	duty $0e
	note a3  $07
	duty $0c
	note a3  $07
	duty $0e
	note b1  $03
	duty $0c
	note b1  $04
	duty $0e
	note b1  $03
	duty $0c
	note b1  $04
	duty $0e
	note b1  $03
	duty $0c
	note b1  $07
	rest $3c
	duty $0e
	note b2  $03
	duty $0c
	note b2  $0b
	duty $0e
	note b1  $03
	duty $0c
	note b1  $0b
	duty $0e
	note b1  $03
	duty $0c
	note b1  $04
	duty $0e
	note b1  $03
	duty $0c
	note b1  $04
	duty $0e
	note b1  $03
	duty $0c
	note b1  $04
	rest $31
	duty $0e
	note b2  $03
	duty $0c
	note b2  $07
	rest $12
	duty $0e
	note b1  $03
	duty $0c
	note b1  $0b
	duty $0e
	note b1  $03
	duty $0c
	note b1  $04
	duty $0e
	note b1  $03
	duty $0c
	note b1  $04
	duty $0e
	note b1  $03
	duty $0c
	note b1  $0b
	rest $62
	duty $0e
	note cs2 $07
	duty $0c
	note cs2 $15
	duty $0e
	note cs2 $07
	duty $0c
	note cs2 $07
	duty $0e
	note cs2 $03
	duty $0c
	note cs2 $04
	duty $0e
	note cs2 $03
	duty $0c
	note cs2 $04
	duty $0e
	note cs2 $03
	duty $0c
	note cs2 $04
	duty $0e
	note cs2 $03
	duty $0c
	note cs2 $07
	rest $19
	goto musicf1941
	cmdff

musUnicornsCaveChannel6:
	rest $1c
	cmdf2
musicf1c58:
	vol $5
	note $26 $1c
	vol $4
	note $24 $0e
	vol $3
	note $26 $07
	vol $4
	note $26 $07
	vol $4
	note $26 $07
	vol $5
	note $26 $07
	vol $5
	note $26 $0e
	vol $4
	note $24 $1c
	note $24 $0e
	note $26 $0e
	vol $2
	note $26 $07
	vol $3
	note $26 $07
	vol $3
	note $26 $07
	vol $3
	note $26 $07
	vol $4
	note $26 $07
	vol $4
	note $26 $07
	vol $4
	note $26 $1c
	note $24 $0e
	vol $5
	note $26 $1c
	vol $4
	note $24 $0e
	vol $3
	note $26 $07
	vol $4
	note $26 $07
	vol $4
	note $26 $07
	vol $5
	note $26 $07
	vol $5
	note $26 $0e
	vol $4
	note $24 $1c
	note $24 $0e
	note $26 $0e
	vol $2
	note $26 $07
	vol $3
	note $26 $07
	vol $3
	note $26 $07
	vol $3
	note $26 $07
	vol $4
	note $26 $07
	vol $4
	note $26 $07
	vol $4
	note $26 $1c
	note $24 $0e
	vol $5
	note $26 $1c
	vol $4
	note $24 $0e
	vol $3
	note $26 $07
	vol $4
	note $26 $07
	vol $4
	note $26 $07
	vol $5
	note $26 $07
	vol $5
	note $26 $0e
	vol $4
	note $24 $1c
	note $24 $0e
	note $26 $0e
	vol $2
	note $26 $07
	vol $3
	note $26 $07
	vol $3
	note $26 $07
	vol $3
	note $26 $07
	vol $4
	note $26 $07
	vol $4
	note $26 $07
	vol $4
	note $26 $1c
	note $24 $0e
	note $24 $0e
	note $26 $0e
	vol $2
	note $26 $07
	vol $3
	note $26 $07
	vol $3
	note $26 $07
	vol $3
	note $26 $07
	vol $4
	note $26 $07
	vol $4
	note $26 $07
	vol $4
	note $26 $1c
	note $24 $0e
	note $24 $0e
	note $26 $0e
	vol $2
	note $26 $07
	vol $3
	note $26 $07
	vol $3
	note $26 $07
	vol $3
	note $26 $07
	vol $4
	note $26 $07
	vol $4
	note $26 $07
	vol $4
	note $26 $2a
	rest $46
	note $26 $0e
	vol $3
	note $26 $07
	vol $3
	note $26 $07
	vol $4
	note $26 $07
	vol $4
	note $26 $07
	rest $2a
	vol $4
	note $26 $1c
	note $26 $0e
	vol $3
	note $26 $07
	vol $4
	note $26 $07
	vol $4
	note $26 $07
	vol $4
	note $26 $07
	rest $1c
	vol $4
	note $2a $0e
	note $2a $0e
	note $2a $0e
	note $2a $0e
	note $2a $0e
	note $2a $0e
	note $2a $0e
	note $2a $0e
	note $2a $0e
	note $2a $0e
	note $2a $0e
	note $2a $0e
	note $2a $0e
	note $2a $0e
	note $26 $2a
	note $26 $1c
	note $26 $0e
	vol $4
	note $26 $07
	vol $4
	note $26 $07
	note $26 $0e
	vol $4
	note $26 $07
	vol $4
	note $26 $07
	vol $4
	note $26 $1c
	vol $4
	note $26 $1c
	note $26 $0e
	vol $3
	note $26 $07
	vol $4
	note $26 $07
	vol $4
	note $26 $0e
	vol $3
	note $26 $07
	vol $4
	note $26 $07
	vol $4
	note $26 $0e
	vol $2
	note $2a $0e
	note $2a $0e
	note $2a $0e
	vol $2
	note $2a $0e
	note $2a $0e
	note $2a $0e
	note $2a $0e
	vol $4
	note $26 $0e
	vol $2
	note $2a $0e
	vol $4
	note $26 $0e
	note $26 $07
	note $26 $07
	note $26 $07
	note $26 $23
	goto musicf1c58
	cmdff
