musBossStart:

musBossChannel1:
	vibrato $00
	env $0 $00
.ifdef ROM_SEASONS
	cmdf2
.endif
	duty $02
musicf9f6b:
	vol $6
	note b4  $0c
	note e4  $06
	note b4  $0c
	note e4  $06
	note b4  $24
	vol $3
	note b4  $18
	vol $6
	note as4 $0c
	note fs4 $06
	note as4 $0c
	note fs4 $06
	note as4 $24
	vol $3
	note as4 $18
	vol $6
	note b4  $0c
	note e4  $06
	note b4  $0c
	note e4  $06
	note b4  $24
	vol $3
	note b4  $18
	vol $6
	note as4 $06
	note b4  $06
	rest $03
	vol $3
	note b4  $03
	vol $6
	note c5  $06
	note cs5 $06
	rest $03
	vol $3
	note cs5 $03
	vol $6
	note d5  $06
	note ds5 $06
	rest $03
	vol $3
	note ds5 $03
	vol $6
	note e5  $06
	note f5  $06
	rest $03
	vol $3
	note f5  $03
	vol $6
	note fs5 $06
	note g5  $06
	note gs5 $06
	note a5  $06
	note b4  $0c
	note e4  $06
	note b4  $0c
	note e4  $06
	note b4  $24
	vol $3
	note b4  $18
	vol $6
	note as4 $0c
	note fs4 $06
	note as4 $0c
	note fs4 $06
	note as4 $24
	vol $3
	note as4 $18
	vol $6
	note b4  $0c
	note e4  $06
	note b4  $0c
	note e4  $06
	note b4  $24
	vol $3
	note b4  $18
	vol $6
	note a4  $06
	note as4 $06
	rest $03
	vol $3
	note as4 $03
	vol $6
	note b4  $06
	note c5  $06
	vol $6
	note cs5 $06
	note d5  $06
	note ds5 $06
	note e5  $1e
	vol $3
	note e5  $0c
	rest $06
	vol $6
	note c5  $12
	note g4  $12
	note c5  $0c
	note b4  $12
	note fs4 $06
	rest $03
	vol $3
	note fs4 $06
	rest $03
	vol $1
	note fs4 $06
	rest $06
	vol $6
	note c5  $12
	vol $6
	note g4  $12
	note c5  $0c
	note cs5 $12
	note gs5 $06
	rest $03
	vol $3
	note gs5 $06
	rest $03
	vol $1
	note gs5 $06
	rest $06
	vol $6
	note c5  $12
	note g4  $12
	note c5  $0c
	note b4  $18
	note ds5 $18
	note d5  $06
	note cs5 $06
	rest $03
	vol $3
	note cs5 $03
	vol $6
	note c5  $06
	note b4  $06
	rest $03
	vol $3
	note b4  $03
	vol $6
	note as4 $06
	note a4  $06
	rest $03
	vol $3
	note a4  $03
	vol $6
	note gs4 $06
	note g4  $06
	rest $03
	vol $3
	note g4  $03
	vol $6
	note g4  $06
	note fs4 $06
	note f4  $06
	note e4  $06
	note ds4 $48
	vol $3
	note ds4 $18
	rest $60
	goto musicf9f6b
	cmdff

musBossChannel0:
	vibrato $00
	env $0 $00
.ifdef ROM_SEASONS
	cmdf2
.endif
	duty $02
musicfa087:
	vol $6
	note g4  $0c
	note b3  $06
	note g4  $0c
	note b3  $06
	note g4  $18
	note b3  $0c
	note e4  $0c
	note g4  $0c
	note fs4 $0c
	note as3 $06
	note fs4 $0c
	note as3 $06
	note fs4 $18
	note as4 $0c
	note a4  $0c
	note gs4 $0c
	note g4  $0c
	note b3  $06
	note g4  $0c
	note b3  $06
	note g4  $24
	vol $3
	note g4  $18
	vol $6
	note d4  $06
	note cs4 $06
	rest $03
	vol $3
	note cs4 $03
	vol $6
	note c4  $06
	note b3  $06
	rest $03
	vol $3
	note b3  $03
	vol $6
	note as3 $06
	note a3  $06
	rest $03
	vol $3
	note a3  $03
	vol $6
	note gs3 $06
	note g3  $06
	rest $03
	vol $3
	note g3  $03
	vol $6
	note fs3 $06
	note f3  $06
	note e3  $06
	note d3  $06
	note g4  $0c
	note b3  $06
	note g4  $0c
	note b3  $06
	note g4  $18
	note b3  $0c
	note e4  $0c
	note g4  $0c
	note fs4 $0c
	note as3 $06
	note fs4 $0c
	note as3 $06
	note fs4 $18
	note as4 $0c
	note a4  $0c
	note gs4 $0c
	note g4  $0c
	note b3  $06
	note g4  $0c
	note b3  $06
	note g4  $18
	note b3  $0c
	note e4  $0c
	note g4  $0c
	rest $60
	note g4  $12
	note e4  $12
	note g4  $0c
	note fs4 $12
	note ds4 $06
	rest $03
	vol $3
	note ds4 $06
	rest $03
	vol $1
	note ds4 $06
	rest $06
	vol $6
	note g4  $12
	note e4  $12
	note g4  $0c
	note fs4 $12
	note b4  $06
	rest $03
	vol $3
	note b4  $06
	rest $03
	vol $1
	note b4  $06
	rest $06
	vol $6
	note g4  $12
	note e4  $12
	note c4  $0c
	note b3  $0c
	note ds4 $0c
	note fs4 $0c
	note b4  $0c
	rest $60
	note ds4 $06
	note d4  $06
	rest $03
	vol $3
	note d4  $03
	vol $6
	note cs4 $06
	note c4  $06
	rest $03
	vol $3
	note c4  $03
	vol $6
	note b3  $06
	note as3 $06
	rest $03
	vol $3
	note as3 $03
	vol $6
	note a3  $06
	note gs3 $06
	rest $03
	vol $3
	note gs3 $03
	vol $6
	note g3  $06
	note fs3 $06
	note f3  $06
	note e3  $06
	rest $60
	goto musicfa087
	cmdff

musBossChannel4:
.ifdef ROM_SEASONS
	cmdf2
.endif
musicfa18c:
	duty $12
	note e2  $04
	duty $17
	note e2  $02
	duty $12
	note b2  $04
	duty $17
	note b2  $02
	duty $12
	note e3  $04
	duty $17
	note e3  $02
	duty $12
	note b2  $04
	duty $17
	note b2  $02
	duty $12
	note e2  $04
	duty $17
	note e2  $02
	duty $12
	note b2  $04
	duty $17
	note b2  $02
	duty $12
	note e3  $04
	duty $17
	note e3  $02
	duty $12
	note b2  $04
	duty $17
	note b2  $02
	duty $12
	note e2  $04
	duty $17
	note e2  $02
	duty $12
	note b2  $04
	duty $17
	note b2  $02
	duty $12
	note e3  $04
	duty $17
	note e3  $02
	duty $12
	note b2  $04
	duty $17
	note b2  $02
	duty $12
	note e2  $04
	duty $17
	note e2  $02
	duty $12
	note b2  $04
	duty $17
	note b2  $02
	duty $12
	note e3  $04
	duty $17
	note e3  $02
	duty $12
	note b2  $04
	duty $17
	note b2  $02
	duty $12
	note ds2 $04
	duty $17
	note ds2 $02
	duty $12
	note as2 $04
	duty $17
	note as2 $02
	duty $12
	note ds3 $04
	duty $17
	note ds3 $02
	duty $12
	note as2 $04
	duty $17
	note as2 $02
	duty $12
	note ds2 $04
	duty $17
	note ds2 $02
	duty $12
	note as2 $04
	duty $17
	note as2 $02
	duty $12
	note ds3 $04
	duty $17
	note ds3 $02
	duty $12
	note as2 $04
	duty $17
	note as2 $02
	duty $12
	note ds2 $04
	duty $17
	note ds2 $02
	duty $12
	note as2 $04
	duty $17
	note as2 $02
	duty $12
	note ds3 $04
	duty $17
	note ds3 $02
	duty $12
	note as2 $04
	duty $17
	note as2 $02
	duty $12
	note ds2 $04
	duty $17
	note ds2 $02
	duty $12
	note as2 $04
	duty $17
	note as2 $02
	duty $12
	note ds3 $04
	duty $17
	note ds3 $02
	duty $12
	note as2 $04
	duty $17
	note as2 $02
	duty $12
	note e2  $04
	duty $17
	note e2  $02
	duty $12
	note b2  $04
	duty $17
	note b2  $02
	duty $12
	note e3  $04
	duty $17
	note e3  $02
	duty $12
	note b2  $04
	duty $17
	note b2  $02
	duty $12
	note e2  $04
	duty $17
	note e2  $02
	duty $12
	note b2  $04
	duty $17
	note b2  $02
	duty $12
	note e3  $04
	duty $17
	note e3  $02
	duty $12
	note b2  $04
	duty $17
	note b2  $02
	duty $12
	note e2  $04
	duty $17
	note e2  $02
	duty $12
	note b2  $04
	duty $17
	note b2  $02
	duty $12
	note e3  $04
	duty $17
	note e3  $02
	duty $12
	note b2  $04
	duty $17
	note b2  $02
	duty $12
	note e2  $04
	duty $17
	note e2  $02
	duty $12
	note b2  $04
	duty $17
	note b2  $02
	duty $12
	note e3  $04
	duty $17
	note e3  $02
	duty $12
	note b2  $04
	duty $17
	note b2  $02
	duty $12
	note b3  $04
	duty $17
	note b3  $02
	duty $12
	note as3 $04
	duty $17
	note as3 $08
	duty $12
	note a3  $04
	duty $17
	note a3  $02
	duty $12
	note gs3 $04
	duty $17
	note gs3 $08
	duty $12
	note g3  $04
	duty $17
	note g3  $02
	duty $12
	note fs3 $04
	duty $17
	note fs3 $08
	duty $12
	note f3  $04
	duty $17
	note f3  $02
	duty $12
	note e3  $04
	duty $17
	note e3  $08
	duty $12
	note ds3 $04
	duty $17
	note ds3 $02
	duty $12
	note d3  $04
	duty $17
	note d3  $02
	duty $12
	note cs3 $04
	duty $17
	note cs3 $02
	duty $12
	note c3  $04
	duty $17
	note c3  $02
	duty $12
	note e2  $04
	duty $17
	note e2  $02
	duty $12
	note b2  $04
	duty $17
	note b2  $02
	duty $12
	note e3  $04
	duty $17
	note e3  $02
	duty $12
	note b2  $04
	duty $17
	note b2  $02
	duty $12
	note e2  $04
	duty $17
	note e2  $02
	duty $12
	note b2  $04
	duty $17
	note b2  $02
	duty $12
	note e3  $04
	duty $17
	note e3  $02
	duty $12
	note b2  $04
	duty $17
	note b2  $02
	duty $12
	note e2  $04
	duty $17
	note e2  $02
	duty $12
	note b2  $04
	duty $17
	note b2  $02
	duty $12
	note e3  $04
	duty $17
	note e3  $02
	duty $12
	note b2  $04
	duty $17
	note b2  $02
	duty $12
	note e2  $04
	duty $17
	note e2  $02
	duty $12
	note b2  $04
	duty $17
	note b2  $02
	duty $12
	note e3  $04
	duty $17
	note e3  $02
	duty $12
	note b2  $04
	duty $17
	note b2  $02
	duty $12
	note ds2 $04
	duty $17
	note ds2 $02
	duty $12
	note as2 $04
	duty $17
	note as2 $02
	duty $12
	note ds3 $04
	duty $17
	note ds3 $02
	duty $12
	note as2 $04
	duty $17
	note as2 $02
	duty $12
	note ds2 $04
	duty $17
	note ds2 $02
	duty $12
	note as2 $04
	duty $17
	note as2 $02
	duty $12
	note ds3 $04
	duty $17
	note ds3 $02
	duty $12
	note as2 $04
	duty $17
	note as2 $02
	duty $12
	note ds2 $04
	duty $17
	note ds2 $02
	duty $12
	note as2 $04
	duty $17
	note as2 $02
	duty $12
	note ds3 $04
	duty $17
	note ds3 $02
	duty $12
	note as2 $04
	duty $17
	note as2 $02
	duty $12
	note ds2 $04
	duty $17
	note ds2 $02
	duty $12
	note as2 $04
	duty $17
	note as2 $02
	duty $12
	note ds3 $04
	duty $17
	note ds3 $02
	duty $12
	note as2 $04
	duty $17
	note as2 $02
	duty $12
	note e2  $04
	duty $17
	note e2  $02
	duty $12
	note b2  $04
	duty $17
	note b2  $02
	duty $12
	note e3  $04
	duty $17
	note e3  $02
	duty $12
	note b2  $04
	duty $17
	note b2  $02
	duty $12
	note e2  $04
	duty $17
	note e2  $02
	duty $12
	note b2  $04
	duty $17
	note b2  $02
	duty $12
	note e3  $04
	duty $17
	note e3  $02
	duty $12
	note b2  $04
	duty $17
	note b2  $02
	duty $12
	note e2  $04
	duty $17
	note e2  $02
	duty $12
	note b2  $04
	duty $17
	note b2  $02
	duty $12
	note e3  $04
	duty $17
	note e3  $02
	duty $12
	note b2  $04
	duty $17
	note b2  $02
	duty $12
	note e2  $04
	duty $17
	note e2  $02
	duty $12
	note b2  $04
	duty $17
	note b2  $02
	duty $12
	note e3  $04
	duty $17
	note e3  $02
	duty $12
	note b2  $04
	duty $17
	note b2  $02
	duty $12
	note b2  $04
	duty $17
	note b2  $02
	duty $12
	note as2 $04
	duty $17
	note as2 $08
	duty $12
	note a2  $04
	duty $17
	note a2  $02
	duty $12
	note gs2 $04
	duty $17
	note gs2 $02
	duty $12
	note g2  $04
	duty $17
	note g2  $02
	duty $12
	note fs2 $04
	duty $17
	note fs2 $02
	duty $12
	note f2  $04
	duty $17
	note f2  $02
	duty $12
	note e2  $04
	duty $17
	note e2  $02
	duty $12
	note b2  $04
	duty $17
	note b2  $02
	duty $12
	note e3  $04
	duty $17
	note e3  $02
	duty $12
	note b2  $04
	duty $17
	note b2  $02
	duty $12
	note e2  $04
	duty $17
	note e2  $02
	duty $12
	note b2  $04
	duty $17
	note b2  $02
	duty $12
	note e3  $04
	duty $17
	note e3  $02
	duty $12
	note b2  $04
	duty $17
	note b2  $02
	duty $12
	note c2  $04
	duty $17
	note c2  $02
	duty $12
	note g2  $04
	duty $17
	note g2  $02
	duty $12
	note c3  $04
	duty $17
	note c3  $02
	duty $12
	note g2  $04
	duty $17
	note g2  $02
	duty $12
	note c2  $04
	duty $17
	note c2  $02
	duty $12
	note g2  $04
	duty $17
	note g2  $02
	duty $12
	note c3  $04
	duty $17
	note c3  $02
	duty $12
	note g2  $04
	duty $17
	note g2  $02
	duty $12
	note b1  $04
	duty $17
	note b1  $02
	duty $12
	note fs2 $04
	duty $17
	note fs2 $02
	duty $12
	note b2  $04
	duty $17
	note b2  $02
	duty $12
	note fs2 $04
	duty $17
	note fs2 $02
	duty $12
	note b1  $04
	duty $17
	note b1  $02
	duty $12
	note fs2 $04
	duty $17
	note fs2 $02
	duty $12
	note b2  $04
	duty $17
	note b2  $02
	duty $12
	note fs2 $04
	duty $17
	note fs2 $02
	duty $12
	note c2  $04
	duty $17
	note c2  $02
	duty $12
	note g2  $04
	duty $17
	note g2  $02
	duty $12
	note c3  $04
	duty $17
	note c3  $02
	duty $12
	note g2  $04
	duty $17
	note g2  $02
	duty $12
	note c2  $04
	duty $17
	note c2  $02
	duty $12
	note g2  $04
	duty $17
	note g2  $02
	duty $12
	note c3  $04
	duty $17
	note c3  $02
	duty $12
	note g2  $04
	duty $17
	note g2  $02
	duty $12
	note b1  $04
	duty $17
	note b1  $02
	duty $12
	note fs2 $04
	duty $17
	note fs2 $02
	duty $12
	note b2  $04
	duty $17
	note b2  $02
	duty $12
	note fs2 $04
	duty $17
	note fs2 $02
	duty $12
	note b1  $04
	duty $17
	note b1  $02
	duty $12
	note fs2 $04
	duty $17
	note fs2 $02
	duty $12
	note b2  $04
	duty $17
	note b2  $02
	duty $12
	note fs2 $04
	duty $17
	note fs2 $02
	duty $12
	note c2  $04
	duty $17
	note c2  $02
	duty $12
	note g2  $04
	duty $17
	note g2  $02
	duty $12
	note c3  $04
	duty $17
	note c3  $02
	duty $12
	note g2  $04
	duty $17
	note g2  $02
	duty $12
	note c2  $04
	duty $17
	note c2  $02
	duty $12
	note g2  $04
	duty $17
	note g2  $02
	duty $12
	note c3  $04
	duty $17
	note c3  $02
	duty $12
	note g2  $04
	duty $17
	note g2  $02
	duty $12
	note b1  $04
	duty $17
	note b1  $02
	duty $12
	note fs2 $04
	duty $17
	note fs2 $02
	duty $12
	note b2  $04
	duty $17
	note b2  $02
	duty $12
	note fs2 $04
	duty $17
	note fs2 $02
	duty $12
	note b1  $04
	duty $17
	note b1  $02
	duty $12
	note fs2 $04
	duty $17
	note fs2 $02
	duty $12
	note b2  $04
	duty $17
	note b2  $02
	duty $12
	note fs2 $04
	duty $17
	note fs2 $02
	duty $12
	note g2  $04
	duty $17
	note g2  $02
	duty $12
	note fs2 $04
	duty $17
	note fs2 $08
	duty $12
	note f2  $04
	duty $17
	note f2  $02
	duty $12
	note e2  $04
	duty $17
	note e2  $08
	duty $12
	note ds2 $04
	duty $17
	note ds2 $02
	duty $12
	note d2  $04
	duty $17
	note d2  $08
	duty $12
	note cs2 $04
	duty $17
	note cs2 $02
	duty $12
	note c2  $04
	duty $17
	note c2  $08
	duty $12
	note b1  $04
	duty $17
	note b1  $02
	duty $12
	note c2  $04
	duty $17
	note c2  $02
	duty $12
	note as2 $04
	duty $17
	note as2 $02
	duty $12
	note b2  $04
	duty $17
	note b2  $02
	duty $12
	note ds3 $05
	duty $17
	note ds3 $13
	duty $12
	note b1  $48
	rest $60
	goto musicfa18c
	cmdff

musBossChannel6:
.ifdef ROM_SEASONS
	cmdf2
.endif
musicfa756:
	vol $5
	vol $8
	note $28 $01
	vol $2
	note $27 $05
	vol $8
	note $28 $01
	vol $2
	note $27 $0b
	vol $8
	note $28 $01
	vol $2
	note $27 $05
	vol $8
	note $28 $01
	vol $2
	note $27 $05
	vol $8
	note $28 $01
	vol $2
	note $27 $0b
	vol $8
	note $28 $01
	vol $2
	note $27 $05
	vol $8
	note $28 $01
	vol $2
	note $27 $05
	vol $8
	note $28 $01
	vol $2
	note $27 $0b
	vol $8
	note $28 $01
	vol $2
	note $27 $05
	vol $8
	note $28 $01
	vol $2
	note $27 $05
	vol $8
	note $28 $01
	vol $2
	note $27 $05
	vol $8
	note $28 $01
	vol $2
	note $27 $05
	vol $8
	note $28 $01
	vol $2
	note $27 $05
	vol $8
	note $28 $01
	vol $2
	note $27 $05
	vol $8
	note $28 $01
	vol $2
	note $27 $0b
	vol $8
	note $28 $01
	vol $2
	note $27 $05
	vol $8
	note $28 $01
	vol $2
	note $27 $05
	vol $8
	note $28 $01
	vol $2
	note $27 $0b
	vol $8
	note $28 $01
	vol $2
	note $27 $05
	vol $8
	note $28 $01
	vol $2
	note $27 $05
	vol $8
	note $28 $01
	vol $2
	note $27 $0b
	vol $8
	note $28 $01
	vol $2
	note $27 $05
	vol $8
	note $28 $01
	vol $2
	note $27 $05
	vol $8
	note $28 $01
	vol $2
	note $27 $0b
	vol $8
	note $28 $01
	vol $2
	note $27 $05
	vol $8
	note $28 $01
	vol $2
	note $27 $05
	vol $8
	note $28 $01
	vol $2
	note $27 $0b
	vol $8
	note $28 $01
	vol $2
	note $27 $05
	vol $8
	note $28 $01
	vol $2
	note $27 $05
	vol $8
	note $28 $01
	vol $2
	note $27 $0b
	vol $8
	note $28 $01
	vol $2
	note $27 $05
	vol $8
	note $28 $01
	vol $2
	note $27 $05
	vol $8
	note $28 $01
	vol $2
	note $27 $0b
	vol $8
	note $28 $01
	vol $2
	note $27 $05
	vol $8
	note $28 $01
	vol $2
	note $27 $05
	vol $8
	note $28 $01
	vol $2
	note $27 $0b
	vol $8
	note $28 $01
	vol $2
	note $27 $05
	vol $8
	note $28 $01
	vol $2
	note $27 $05
	vol $8
	note $28 $01
	vol $2
	note $27 $0b
	vol $8
	note $28 $01
	vol $2
	note $27 $05
	vol $8
	note $28 $01
	vol $2
	note $27 $05
	vol $8
	note $28 $01
	vol $2
	note $27 $0b
	vol $8
	note $28 $01
	vol $2
	note $27 $05
	vol $8
	note $28 $01
	vol $2
	note $27 $05
	vol $8
	note $28 $01
	vol $2
	note $27 $0b
	vol $8
	note $28 $01
	vol $2
	note $27 $05
	vol $8
	note $28 $01
	vol $2
	note $27 $05
	vol $8
	note $28 $01
	vol $2
	note $27 $05
	vol $8
	note $28 $01
	vol $2
	note $27 $05
	vol $8
	note $28 $01
	vol $2
	note $27 $05
	vol $8
	note $28 $01
	vol $2
	note $27 $05
	vol $8
	note $28 $01
	vol $2
	note $27 $0b
	vol $8
	note $28 $01
	vol $2
	note $27 $05
	vol $8
	note $28 $01
	vol $2
	note $27 $05
	vol $8
	note $28 $01
	vol $2
	note $27 $0b
	vol $8
	note $28 $01
	vol $2
	note $27 $05
	vol $8
	note $28 $01
	vol $2
	note $27 $05
	vol $8
	note $28 $01
	vol $2
	note $27 $0b
	vol $8
	note $28 $01
	vol $2
	note $27 $05
	vol $8
	note $28 $01
	vol $2
	note $27 $05
	vol $8
	note $28 $01
	vol $2
	note $27 $05
	vol $8
	note $28 $01
	vol $2
	note $27 $05
	vol $8
	note $28 $01
	vol $2
	note $27 $05
	vol $8
	note $28 $01
	vol $2
	note $27 $05
	vol $8
	note $28 $01
	vol $2
	note $27 $0b
	vol $8
	note $28 $01
	vol $2
	note $27 $05
	vol $8
	note $28 $01
	vol $2
	note $27 $05
	vol $8
	note $28 $01
	vol $2
	note $27 $0b
	vol $8
	note $28 $01
	vol $2
	note $27 $05
	vol $8
	note $28 $01
	vol $2
	note $27 $05
	vol $8
	note $28 $01
	vol $2
	note $27 $0b
	vol $8
	note $28 $01
	vol $2
	note $27 $05
	vol $8
	note $28 $01
	vol $2
	note $27 $05
	vol $8
	note $28 $01
	vol $2
	note $27 $0b
	vol $8
	note $28 $01
	vol $2
	note $27 $05
	vol $8
	note $28 $01
	vol $2
	note $27 $05
	vol $8
	note $28 $01
	vol $2
	note $27 $0b
	vol $8
	note $28 $01
	vol $2
	note $27 $05
	vol $8
	note $28 $01
	vol $2
	note $27 $05
	vol $8
	note $28 $01
	vol $2
	note $27 $0b
	vol $8
	note $28 $01
	vol $2
	note $27 $05
	vol $8
	note $28 $01
	vol $2
	note $27 $05
	vol $8
	note $28 $01
	vol $2
	note $27 $0b
	vol $8
	note $28 $01
	vol $2
	note $27 $05
	vol $8
	note $28 $01
	vol $2
	note $27 $05
	vol $8
	note $28 $01
	vol $2
	note $27 $05
	vol $8
	note $28 $01
	vol $2
	note $27 $05
	vol $8
	note $28 $01
	vol $2
	note $27 $0b
	vol $8
	note $28 $01
	vol $2
	note $27 $0b
	vol $8
	note $28 $01
	vol $2
	note $27 $05
	vol $8
	note $28 $01
	vol $2
	note $27 $05
	vol $8
	note $28 $01
	vol $2
	note $27 $0b
	vol $8
	note $28 $01
	vol $2
	note $27 $05
	vol $8
	note $28 $01
	vol $2
	note $27 $05
	vol $8
	note $28 $01
	vol $2
	note $27 $0b
	vol $8
	note $28 $01
	vol $2
	note $27 $05
	vol $8
	note $28 $01
	vol $2
	note $27 $05
	vol $8
	note $28 $01
	vol $2
	note $27 $0b
	vol $8
	note $28 $01
	vol $2
	note $27 $05
	vol $8
	note $28 $01
	vol $2
	note $27 $05
	vol $8
	note $28 $01
	vol $2
	note $27 $0b
	vol $8
	note $28 $01
	vol $2
	note $27 $05
	vol $8
	note $28 $01
	vol $2
	note $27 $05
	vol $8
	note $28 $01
	vol $2
	note $27 $0b
	vol $8
	note $28 $01
	vol $2
	note $27 $05
	vol $8
	note $28 $01
	vol $2
	note $27 $05
	vol $8
	note $28 $01
	vol $2
	note $27 $0b
	vol $8
	note $28 $01
	vol $2
	note $27 $05
	vol $8
	note $28 $01
	vol $2
	note $27 $05
	vol $8
	note $28 $01
	vol $2
	note $27 $0b
	vol $8
	note $28 $01
	vol $2
	note $27 $05
	vol $8
	note $28 $01
	vol $2
	note $27 $05
	vol $8
	note $28 $01
	vol $2
	note $27 $0b
	vol $8
	note $28 $01
	vol $2
	note $27 $05
	vol $8
	note $28 $01
	vol $2
	note $27 $05
	vol $8
	note $28 $01
	vol $2
	note $27 $0b
	vol $8
	note $28 $01
	vol $2
	note $27 $05
	vol $8
	note $28 $01
	vol $2
	note $27 $05
	vol $8
	note $28 $01
	vol $2
	note $27 $0b
	vol $8
	note $28 $01
	vol $2
	note $27 $05
	vol $8
	note $28 $01
	vol $2
	note $27 $05
	vol $8
	note $28 $01
	vol $2
	note $27 $05
	vol $8
	note $28 $01
	vol $2
	note $27 $05
	vol $8
	note $28 $01
	vol $2
	note $27 $05
	vol $8
	note $28 $01
	vol $2
	note $27 $05
	vol $8
	note $28 $01
	vol $2
	note $27 $0b
	vol $8
	note $28 $01
	vol $2
	note $27 $05
	vol $8
	note $28 $01
	vol $2
	note $27 $05
	vol $8
	note $28 $01
	vol $2
	note $27 $0b
	vol $8
	note $28 $01
	vol $2
	note $27 $05
	vol $8
	note $28 $01
	vol $2
	note $27 $05
	vol $8
	note $28 $01
	vol $2
	note $27 $0b
	vol $8
	note $28 $01
	vol $2
	note $27 $05
	vol $8
	note $28 $01
	vol $2
	note $27 $05
	vol $8
	note $28 $01
	vol $2
	note $27 $0b
	vol $8
	note $28 $01
	vol $2
	note $27 $05
	vol $8
	note $28 $01
	vol $2
	note $27 $05
	vol $8
	note $28 $01
	vol $2
	note $27 $0b
	vol $8
	note $28 $01
	vol $2
	note $27 $05
	vol $8
	note $28 $01
	vol $2
	note $27 $05
	vol $8
	note $28 $01
	vol $2
	note $27 $0b
	vol $8
	note $28 $01
	vol $2
	note $27 $05
	vol $8
	note $28 $01
	vol $2
	note $27 $05
	vol $8
	note $28 $01
	vol $2
	note $27 $0b
	vol $8
	note $28 $01
	vol $2
	note $27 $05
	vol $8
	note $28 $01
	vol $2
	note $27 $05
	vol $8
	note $28 $01
	vol $2
	note $27 $05
	vol $8
	note $28 $01
	vol $2
	note $27 $05
	vol $8
	note $28 $01
	vol $2
	note $27 $05
	vol $8
	note $28 $01
	vol $2
	note $27 $05
	vol $8
	note $28 $01
	vol $2
	note $27 $0b
	vol $8
	note $28 $01
	vol $2
	note $27 $05
	vol $8
	note $28 $01
	vol $2
	note $27 $05
	vol $8
	note $28 $01
	vol $2
	note $27 $0b
	vol $8
	note $28 $01
	vol $2
	note $27 $05
	vol $8
	note $28 $01
	vol $2
	note $27 $05
	vol $8
	note $28 $01
	vol $2
	note $27 $0b
	vol $8
	note $28 $01
	vol $2
	note $27 $05
	vol $8
	note $28 $01
	vol $2
	note $27 $05
	vol $5
	vol $8
	note $28 $01
	vol $2
	note $27 $05
	vol $4
	vol $8
	note $28 $01
	vol $2
	note $27 $05
	vol $4
	vol $8
	note $28 $01
	vol $2
	note $27 $05
	vol $2
	note $2a $06
	note $2a $0c
	note $2a $06
	note $2a $0c
	note $2a $06
	note $2a $0c
	vol $2
	note $2a $06
	note $2a $0c
	note $2a $06
	note $2a $06
	note $2a $06
	note $2a $06
	goto musicfa756
	cmdff
