musCredits1Start:

musCredits1Channel1:
	vibrato $e1
	env $0 $00
	duty $02
	vol $6
	note g4  $18
	vol $3
	note g4  $08
	vol $6
	note g4  $0a
	note d4  $0b
	note g4  $0b
	note f4  $18
	vol $3
	note f4  $08
	vol $6
	note f4  $0a
	note g4  $0b
	note a4  $0b
	note as4 $18
	vol $3
	note as4 $08
	vol $6
	note as4 $0a
	note g4  $0b
	note as4 $0b
	note a4  $18
	vol $3
	note a4  $08
	vol $6
	note a4  $0a
	note as4 $0b
	note c5  $0b
	note d5  $40
	vibrato $01
	vol $3
	note d5  $20
	vibrato $e1
	vol $6
	note c5  $08
	rest $02
	note c5  $08
	rest $02
	note c5  $09
	rest $03
	note d5  $50
	vibrato $01
	vol $3
	note d5  $10
	vibrato $e1
	vol $6
	note c5  $0a
	note b4  $0b
	note a4  $0b
musicfaba1:
	note g4  $08
	rest $04
	vol $3
	note g4  $08
	rest $04
	vol $1
	note g4  $08
	vol $6
	note d4  $20
	vol $3
	note d4  $10
	vol $6
	note g4  $08
	rest $04
	vol $3
	note g4  $04
	vol $6
	note g4  $08
	note a4  $08
	note b4  $08
	note c5  $08
	note d5  $40
	vibrato $01
	vol $3
	note d5  $10
	vibrato $e1
	vol $6
	note d5  $08
	rest $04
	vol $3
	note d5  $04
	vol $6
	note d5  $0a
	note ds5 $0b
	note f5  $0b
	note g5  $40
	vibrato $01
	vol $3
	note g5  $10
	vibrato $e1
	vol $6
	note g5  $10
	note f5  $10
	note ds5 $10
	note f5  $08
	rest $04
	vol $3
	note f5  $08
	rest $04
	vol $6
	note ds5 $08
	note d5  $28
	vibrato $01
	vol $3
	note d5  $18
	vibrato $e1
	vol $6
	note d5  $0a
	note ds5 $0b
	note d5  $0b
	note c5  $08
	rest $04
	vol $3
	note c5  $04
	vol $6
	note c5  $08
	note d5  $08
	vol $6
	note ds5 $28
	vol $3
	note ds5 $08
	vol $6
	note ds5 $10
	note d5  $10
	note c5  $10
	note as4 $08
	rest $04
	vol $3
	note as4 $04
	vol $6
	note as4 $08
	note c5  $08
	note d5  $20
	vol $3
	note d5  $10
	vol $6
	note d5  $10
	note c5  $10
	note as4 $10
	note a4  $08
	rest $04
	vol $3
	note a4  $04
	vol $6
	note a4  $08
	note b4  $08
	note cs5 $20
	vibrato $01
	vol $3
	note cs5 $10
	vibrato $e1
	vol $6
	note cs5 $08
	note d5  $08
	note e5  $08
	note fs5 $08
	note g5  $08
	note a5  $08
	note fs5 $08
	rest $04
	vol $3
	note fs5 $04
	vol $6
	note d5  $02
	rest $02
	note d5  $04
	rest $02
	note d5  $02
	rest $04
	note e5  $08
	rest $02
	note e5  $08
	rest $02
	note e5  $09
	rest $03
	note fs5 $28
	vibrato $01
	vol $3
	note fs5 $18
	vibrato $e1
	vol $6
	note g4  $08
	rest $04
	vol $3
	note g4  $08
	rest $04
	vol $1
	note g4  $08
	vol $6
	note d4  $28
	vol $3
	note d4  $08
	vol $6
	note g4  $08
	rest $04
	vol $3
	note g4  $04
	vol $6
	note g4  $08
	note a4  $08
	note b4  $08
	note c5  $08
	note d5  $40
	vibrato $01
	vol $3
	note d5  $10
	vibrato $e1
	vol $6
	note d5  $08
	rest $04
	vol $3
	note d5  $04
	vol $6
	note d5  $0a
	note ds5 $0b
	note f5  $0b
	note g5  $48
	vibrato $01
	vol $3
	note g5  $08
	vibrato $e1
	vol $6
	note a5  $08
	note as5 $08
	note c6  $08
	note as5 $08
	note a5  $08
	note g5  $08
	note g5  $08
	rest $04
	vol $3
	note g5  $08
	rest $04
	vol $6
	note a5  $08
	note f5  $28
	vibrato $01
	env $0 $00
	vol $3
	note f5  $18
	vibrato $e1
	vol $6
	note d5  $0a
	note ds5 $0b
	note d5  $0b
	note c5  $08
	rest $04
	vol $3
	note c5  $04
	vol $6
	note c5  $08
	note d5  $08
	note ds5 $28
	vol $3
	note ds5 $08
	vol $6
	note ds5 $10
	note d5  $10
	note c5  $10
	note as4 $0a
	note a4  $0b
	note as4 $0b
	note c5  $0a
	note as4 $0b
	note c5  $0b
	note d5  $08
	rest $04
	vol $3
	note d5  $08
	rest $01
	vol $6
	note cs5 $08
	rest $03
	note d5  $0a
	note g5  $0b
	note as5 $0b
	rest $20
	note d5  $20
	note d6  $28
	note c6  $08
	note as5 $08
	note a5  $08
	note g5  $40
	vibrato $01
	vol $3
	note g5  $20
	vibrato $e1
	duty $00
	vol $8
	note d5  $0a
	note ds5 $0b
	note f5  $0b
	note g5  $08
	rest $04
	vol $3
	note g5  $08
	rest $04
	vol $1
	note g5  $08
	vol $8
	note d5  $20
	vibrato $01
	vol $3
	note d5  $18
	vibrato $e1
	vol $8
	note g5  $04
	rest $04
	note g5  $08
	note a5  $08
	note as5 $08
	note c6  $08
	note a5  $08
	rest $04
	vol $3
	note a5  $08
	rest $04
	vol $8
	note f5  $08
	note c5  $20
	vol $3
	note c5  $10
	vol $8
	note c5  $08
	note d5  $08
	note f5  $08
	note ds5 $08
	note d5  $08
	note c5  $08
	note d5  $08
	rest $04
	vol $3
	note d5  $08
	rest $04
	vol $1
	note d5  $08
	vol $8
	note g4  $20
	vol $3
	note g4  $10
	vol $8
	note g4  $08
	note fs4 $08
	note g4  $08
	note a4  $08
	note as4 $08
	note c5  $08
	note d5  $40
	vibrato $01
	vol $3
	note d5  $10
	vibrato $e1
	vol $8
	note d5  $10
	note cs5 $10
	note d5  $08
	rest $04
	vol $3
	note d5  $04
	vol $8
	note as5 $08
	rest $04
	vol $3
	note as5 $08
	rest $04
	vol $8
	note a5  $08
	note g5  $20
	vol $1
	note g5  $0a
	vol $8
	note d5  $06
	rest $05
	note d5  $05
	rest $06
	note d5  $0a
	note as4 $0b
	note g5  $0b
	note gs5 $08
	rest $04
	vol $3
	note gs5 $08
	rest $04
	vol $8
	note as5 $08
	note c6  $20
	vol $3
	note c6  $0a
	vol $8
	note c6  $08
	rest $02
	note d6  $09
	rest $03
	note ds6 $0a
	note f6  $0b
	note ds6 $0b
	note d6  $2a
	rest $06
	note d6  $05
	rest $03
	note d6  $05
	rest $03
	note d6  $2a
	rest $06
	note d6  $05
	rest $03
	note d6  $05
	rest $03
	note d6  $10
	vol $3
	note d6  $10
	duty $02
	vol $8
	note e5  $05
	rest $05
	note e5  $06
	rest $05
	note e5  $05
	rest $06
	note f5  $1a
	rest $06
	note fs5 $05
	rest $05
	note fs5 $06
	rest $05
	note fs5 $05
	rest $06
	goto musicfaba1
	cmdff

musCredits1Channel0:
	vibrato $00
	env $0 $00
	duty $02
	vol $6
	note as3 $40
	note a3  $40
	note g3  $40
	note f3  $40
	note ds3 $20
	note g3  $08
	rest $02
	note g3  $08
	rest $02
	note g3  $09
	rest $03
	note d4  $20
	note ds3 $08
	rest $02
	note ds3 $08
	rest $02
	note ds3 $09
	rest $03
	note d3  $10
	note g3  $08
	note a3  $08
	note d4  $10
	note g3  $08
	note a3  $08
	note d3  $1d
	rest $03
	note d3  $08
	rest $02
	note d3  $08
	rest $02
	note d3  $09
	rest $03
musicfae87:
	vol $0
	note gs3 $15
	note b3  $05
	rest $02
	vol $3
	note b3  $04
	vol $6
	note b3  $08
	note c4  $08
	note b3  $08
	note a3  $08
	note b3  $40
	vol $6
	note f4  $10
	note g4  $10
	note a4  $10
	note b4  $10
	note c5  $10
	note b4  $08
	rest $04
	vol $3
	note b4  $04
	vol $6
	note b4  $0a
	note c5  $0b
	note d5  $0b
	note ds5 $10
	vol $3
	note ds5 $05
	vol $6
	note as4 $05
	rest $02
	vol $3
	note as4 $04
	vol $6
	note as4 $08
	note c5  $08
	note as4 $08
	note a4  $08
	note as4 $0a
	rest $02
	vol $3
	note as4 $04
	vol $6
	note as4 $10
	note a4  $10
	note g4  $10
	note a4  $08
	rest $04
	vol $3
	note a4  $08
	rest $04
	vol $6
	note g4  $08
	note f4  $08
	rest $02
	note f4  $0b
	note g4  $0b
	note gs4 $10
	note g4  $10
	note f4  $0a
	note ds4 $0b
	note d4  $0b
	note ds4 $20
	vol $3
	note ds4 $10
	vol $6
	note ds4 $08
	note f4  $08
	note g4  $08
	rest $04
	vol $3
	note g4  $04
	vol $6
	note g4  $10
	note f4  $10
	note ds4 $10
	note d4  $20
	vol $3
	note d4  $10
	vol $6
	note d4  $08
	note ds4 $08
	note f4  $0a
	rest $06
	note f4  $10
	note ds4 $10
	note d4  $10
	note cs4 $20
	vol $3
	note cs4 $10
	vol $6
	note cs4 $08
	note d4  $08
	note e4  $10
	note fs4 $10
	vol $6
	note g4  $10
	vol $6
	note a4  $10
	note as4 $20
	note a4  $08
	rest $04
	vol $3
	note a4  $08
	rest $04
	vol $1
	note a4  $08
	vol $6
	note as4 $20
	note a4  $08
	rest $04
	vol $3
	note a4  $08
	rest $04
	vol $1
	note a4  $08
	vol $6
	note g5  $40
	note d5  $20
	note c5  $20
	note b4  $10
	note g4  $08
	rest $04
	vol $3
	note g4  $04
	vol $6
	note g4  $08
	note a4  $08
	note b4  $08
	note c5  $08
	note d5  $10
	note b4  $08
	rest $04
	vol $3
	note b4  $04
	vol $6
	note b4  $0a
	note c5  $0b
	note d5  $0b
	note ds5 $20
	note as4 $10
	note g4  $10
	note ds4 $10
	note as4 $10
	note a4  $10
	note g4  $10
	note a4  $08
	rest $04
	vol $3
	note a4  $08
	rest $04
	vol $6
	note g4  $08
	note f4  $05
	rest $03
	note f4  $10
	note g4  $08
	note f4  $30
	vol $3
	note f4  $10
	vol $6
	note ds4 $20
	vol $3
	note ds4 $10
	vol $6
	note f4  $10
	note g4  $08
	rest $04
	vol $3
	note g4  $04
	vol $6
	note g4  $10
	note f4  $10
	note ds4 $10
	note d4  $20
	note e4  $20
	note fs4 $20
	note g4  $20
	note a4  $10
	note as4 $10
	note a4  $10
	note g4  $10
	note fs4 $10
	note ds5 $10
	note d5  $10
	note fs4 $10
	note as4 $10
	note c5  $10
	note as4 $10
	note a4  $10
	note g4  $08
	rest $04
	vol $3
	note g4  $04
	vol $6
	note g3  $08
	note a3  $08
	note as3 $08
	note c4  $08
	note d4  $05
	note ds4 $05
	note f4  $06
	note as4 $08
	rest $04
	vol $3
	note as4 $08
	rest $04
	vol $6
	note a4  $08
	note g4  $20
	vol $3
	note g4  $18
	vol $6
	note d4  $08
	note g4  $08
	note f4  $08
	note g4  $08
	note a4  $08
	note c5  $08
	rest $04
	vol $3
	note c5  $08
	rest $04
	vol $6
	note as4 $08
	note a4  $08
	note as4 $08
	note a4  $08
	note g4  $08
	note f4  $30
	vol $3
	note f4  $10
	vol $6
	note g4  $18
	vol $3
	note g4  $08
	vol $6
	note d4  $20
	note c4  $20
	note f4  $10
	note g4  $10
	note d4  $18
	vol $3
	note d4  $08
	vol $6
	note g4  $08
	note a4  $08
	note as4 $08
	note c5  $08
	note d5  $10
	note as4 $10
	note a4  $10
	note as4 $10
	note d5  $08
	rest $04
	vol $3
	note d5  $08
	rest $04
	vol $6
	note c5  $08
	note as4 $18
	vol $3
	note as4 $10
	rest $02
	vol $6
	note as4 $06
	rest $05
	note as4 $05
	rest $06
	note as4 $0a
	note g4  $0b
	note d4  $0b
	note c4  $08
	rest $04
	vol $3
	note c4  $08
	rest $01
	vol $6
	note gs3 $08
	rest $03
	note gs3 $0a
	note ds3 $0b
	note gs3 $0b
	note c4  $0a
	note gs3 $0b
	note c4  $0b
	note ds4 $0a
	note c4  $0b
	note ds4 $0b
	note d4  $10
	note g4  $08
	note a4  $08
	note d5  $10
	note g4  $08
	note a4  $08
	note d4  $10
	note g3  $08
	note a3  $08
	note d3  $10
	note g2  $08
	note a2  $08
	note d3  $04
	note e3  $04
	vol $6
	note fs3 $04
	note g3  $04
	note a3  $04
	note as3 $04
	note c4  $04
	note d4  $04
	note g4  $05
	rest $05
	note g4  $06
	rest $05
	note g4  $05
	rest $06
	note a4  $1a
	rest $06
	note as4 $05
	rest $05
	note as4 $06
	rest $05
	note as4 $05
	rest $06
	goto musicfae87
	cmdff

musCredits1Channel4:
	duty $0e
	rest $ff
	rest $ff
	rest $02
musicfb0de:
	duty $0e
	note g3  $80
	note f3  $80
	note ds3 $40
	note f3  $20
	note ds3 $20
	note d3  $40
	note g3  $40
	note c3  $30
	note g3  $10
	note c4  $30
	duty $17
	note c4  $10
	duty $0e
	note as2 $30
	note g3  $10
	note as3 $28
	duty $17
	note as3 $18
	duty $0e
	note a2  $20
	note b2  $20
	note c3  $20
	note cs3 $20
	note d3  $20
	rest $40
	note d2  $08
	rest $02
	note d2  $08
	rest $02
	note d2  $09
	rest $03
	note g2  $08
	duty $17
	note g2  $08
	duty $0e
	note g2  $18
	duty $17
	note g2  $08
	duty $0e
	note g2  $18
	duty $17
	note g2  $08
	duty $0e
	note g2  $18
	duty $17
	note g2  $08
	duty $0e
	note g2  $10
	duty $0e
	note f2  $08
	duty $17
	note f2  $08
	duty $0e
	note f2  $18
	duty $17
	note f2  $08
	duty $0e
	note f2  $18
	duty $17
	note f2  $08
	duty $0e
	note f2  $18
	duty $17
	note f2  $08
	duty $0e
	note f2  $10
	duty $0e
	note ds2 $08
	duty $17
	note ds2 $08
	duty $0e
	note ds2 $18
	duty $17
	note ds2 $08
	duty $0e
	note ds2 $10
	duty $0e
	note f2  $08
	duty $17
	note f2  $08
	duty $0e
	note f2  $1c
	duty $17
	note f2  $04
	duty $0e
	note ds2 $10
	duty $0e
	note d2  $08
	duty $17
	note d2  $08
	duty $0e
	note a2  $20
	note d3  $20
	note a2  $10
	note f2  $10
	note d2  $10
	note c2  $08
	note d2  $08
	note ds2 $18
	note d2  $08
	note ds2 $08
	note f2  $08
	note g2  $08
	note fs2 $08
	note g2  $08
	note a2  $08
	note as2 $08
	note c3  $08
	note as2 $08
	note a2  $08
	note g2  $10
	note gs2 $08
	note g2  $08
	note fs2 $10
	note g2  $08
	note fs2 $08
	note f2  $10
	note fs2 $08
	note f2  $08
	note e2  $10
	note f2  $08
	note e2  $08
	note ds2 $08
	duty $17
	note ds2 $08
	duty $0e
	note ds2 $1c
	duty $17
	note ds2 $04
	duty $0e
	note ds2 $05
	note f2  $05
	note ds2 $06
	duty $0e
	note d2  $14
	duty $17
	note d2  $0c
	duty $0e
	note d2  $08
	note a2  $08
	note d3  $08
	note d2  $08
	duty $0e
	note g2  $10
	duty $17
	note g2  $10
	duty $0e
	note g2  $08
	note a2  $08
	note g2  $08
	note fs2 $08
	note g2  $08
	note a2  $08
	note as2 $08
	note c3  $08
	note d3  $08
	note ds3 $08
	note f3  $08
	note g3  $08
	duty $0e
	note ds3 $20
	duty $17
	note ds3 $08
	duty $0e
	note as2 $08
	note ds3 $08
	note d3  $08
	note ds3 $10
	note as2 $10
	note a2  $10
	note g2  $10
	duty $0e
	note d2  $20
	duty $17
	note d2  $08
	duty $0e
	note f3  $04
	duty $17
	note f3  $04
	duty $0e
	note f3  $08
	note ds3 $08
	note d3  $20
	note d2  $20
	duty $0e
	note g2  $08
	duty $17
	note g2  $08
	duty $0e
	note g2  $1c
	duty $17
	note g2  $04
	duty $0e
	note g2  $10
	duty $0e
	note f2  $0c
	duty $17
	note f2  $04
	duty $0e
	note f2  $1c
	duty $17
	note f2  $04
	duty $0e
	note f2  $10
	duty $0e
	note e2  $08
	duty $17
	note e2  $08
	duty $0e
	note e2  $10
	duty $17
	note e2  $08
	duty $0e
	note e2  $08
	note f2  $08
	note e2  $08
	duty $0e
	note ds2 $1d
	duty $17
	note ds2 $03
	duty $0e
	note d2  $1d
	duty $17
	note d2  $03
	duty $0e
	note c2  $28
	note g2  $08
	note c3  $08
	note b2  $08
	note as2 $20
	note a2  $20
	note gs2 $0a
	note ds2 $0b
	note gs2 $0b
	note c3  $0a
	note gs2 $0b
	note c3  $0b
	note ds3 $0a
	note c3  $0b
	note ds3 $0b
	note gs3 $0a
	note ds3 $0b
	note gs3 $0b
	duty $0e
	note d3  $08
	duty $17
	note d3  $08
	duty $0e
	note d2  $18
	duty $17
	note d2  $08
	duty $0e
	note d2  $18
	duty $17
	note d2  $08
	duty $0e
	note d2  $18
	duty $17
	note d2  $08
	duty $0e
	note d2  $08
	duty $17
	note d2  $08
	duty $0e
	note d2  $20
	duty $0e
	note e2  $05
	duty $17
	note e2  $05
	duty $0e
	note e2  $06
	duty $17
	note e2  $05
	duty $0e
	note e2  $05
	duty $17
	note e2  $06
	duty $0e
	note f2  $1a
	duty $17
	note f2  $06
	duty $0e
	note fs2 $05
	duty $17
	note fs2 $05
	duty $0e
	note fs2 $06
	duty $17
	note fs2 $05
	duty $0e
	note fs2 $05
	duty $17
	note fs2 $06
	goto musicfb0de
	cmdff

musCredits1Channel6:
	vol $6
	note $26 $38
	vol $4
	note $26 $02
	vol $5
	note $26 $02
	vol $5
	note $26 $04
	vol $7
	note $26 $10
	vol $6
	note $26 $20
	note $26 $10
	note $26 $38
	vol $4
	note $26 $02
	vol $5
	note $26 $02
	vol $5
	note $26 $04
	vol $7
	note $26 $10
	vol $6
	note $26 $20
	note $26 $10
	vol $7
	note $26 $30
	vol $4
	note $26 $05
	vol $5
	note $26 $05
	vol $5
	note $26 $06
	vol $6
	note $26 $10
	vol $6
	note $26 $20
	note $26 $10
	note $26 $10
	vol $4
	note $26 $05
	vol $5
	note $26 $05
	vol $6
	note $26 $06
	vol $6
	note $26 $10
	vol $4
	note $26 $05
	vol $5
	note $26 $05
	vol $6
	note $26 $06
	vol $6
	note $26 $10
	vol $5
	note $26 $05
	vol $5
	note $26 $05
	vol $6
	note $26 $06
	vol $6
	note $26 $04
	vol $5
	note $26 $04
	vol $4
	note $26 $04
	vol $4
	note $26 $04
	note $26 $04
	vol $4
	note $26 $04
	vol $5
	note $26 $04
	vol $7
	note $26 $04
musicfb3a3:
	vol $6
	note $26 $18
	vol $5
	note $26 $08
	vol $6
	note $26 $10
	vol $5
	note $26 $08
	note $26 $08
	vol $6
	note $26 $10
	vol $5
	note $26 $10
	note $26 $10
	vol $5
	note $26 $05
	vol $5
	note $26 $05
	vol $6
	note $26 $06
	vol $6
	note $26 $20
	note $26 $20
	note $26 $10
	vol $5
	note $26 $20
	vol $5
	note $26 $05
	vol $5
	note $26 $05
	vol $6
	note $26 $06
	vol $6
	note $26 $18
	vol $5
	note $26 $08
	vol $6
	note $26 $10
	vol $5
	note $26 $08
	note $26 $08
	vol $6
	note $26 $10
	vol $5
	note $26 $10
	note $26 $10
	vol $5
	note $26 $05
	vol $5
	note $26 $05
	vol $6
	note $26 $06
	vol $6
	note $26 $10
	vol $4
	note $26 $05
	vol $4
	note $26 $05
	vol $5
	note $26 $06
	vol $6
	note $26 $10
	vol $5
	note $26 $05
	vol $6
	note $26 $05
	vol $6
	note $26 $06
	vol $6
	note $26 $10
	vol $5
	note $26 $10
	note $26 $10
	vol $5
	note $26 $05
	vol $5
	note $26 $05
	vol $6
	note $26 $06
	vol $6
	note $26 $18
	vol $5
	note $26 $08
	vol $6
	note $26 $10
	vol $5
	note $26 $08
	note $26 $08
	vol $6
	note $26 $10
	vol $5
	note $26 $10
	note $26 $10
	vol $5
	note $26 $05
	vol $5
	note $26 $05
	vol $6
	note $26 $06
	vol $6
	note $26 $20
	note $26 $20
	note $26 $10
	vol $5
	note $26 $20
	vol $5
	note $26 $05
	vol $5
	note $26 $05
	vol $6
	note $26 $06
	vol $6
	note $26 $18
	vol $5
	note $26 $08
	vol $6
	note $26 $10
	vol $5
	note $26 $08
	note $26 $08
	vol $6
	note $26 $10
	vol $5
	note $26 $10
	note $26 $10
	vol $5
	note $26 $05
	vol $5
	note $26 $05
	vol $6
	note $26 $06
	vol $6
	note $26 $10
	vol $4
	note $26 $05
	vol $4
	note $26 $05
	vol $5
	note $26 $06
	vol $6
	note $26 $10
	vol $5
	note $26 $05
	vol $6
	note $26 $05
	vol $6
	note $26 $06
	vol $6
	note $26 $10
	vol $5
	note $26 $10
	note $26 $10
	vol $5
	note $26 $05
	vol $5
	note $26 $05
	vol $6
	note $26 $06
	vol $6
	note $26 $10
	vol $5
	note $26 $08
	note $26 $08
	vol $6
	note $26 $10
	vol $5
	note $26 $08
	note $26 $08
	vol $6
	note $26 $10
	vol $5
	note $26 $10
	note $26 $10
	vol $5
	note $26 $05
	vol $5
	note $26 $05
	vol $6
	note $26 $06
	vol $6
	note $26 $10
	vol $5
	note $26 $08
	note $26 $08
	vol $6
	note $26 $10
	vol $5
	note $26 $08
	note $26 $08
	vol $6
	note $26 $10
	vol $5
	note $26 $10
	note $26 $10
	vol $5
	note $26 $05
	vol $5
	note $26 $05
	vol $6
	note $26 $06
	vol $6
	note $26 $10
	vol $5
	note $26 $08
	note $26 $08
	vol $6
	note $26 $10
	vol $5
	note $26 $08
	note $26 $08
	vol $6
	note $26 $10
	vol $5
	note $26 $10
	note $26 $10
	vol $5
	note $26 $05
	vol $5
	note $26 $05
	vol $6
	note $26 $06
	vol $6
	note $26 $10
	vol $5
	note $26 $08
	note $26 $08
	vol $6
	note $26 $10
	vol $5
	note $26 $08
	note $26 $08
	vol $6
	note $26 $10
	vol $5
	note $26 $10
	note $26 $10
	vol $5
	note $26 $05
	vol $5
	note $26 $05
	vol $6
	note $26 $06
	vol $6
	note $26 $10
	vol $5
	note $26 $08
	note $26 $08
	vol $6
	note $26 $10
	vol $5
	note $26 $08
	note $26 $08
	vol $6
	note $26 $10
	vol $5
	note $26 $10
	note $26 $10
	vol $5
	note $26 $05
	vol $5
	note $26 $05
	vol $6
	note $26 $06
	vol $6
	note $26 $10
	vol $5
	note $26 $08
	note $26 $08
	vol $6
	note $26 $10
	vol $5
	note $26 $08
	note $26 $08
	vol $6
	note $26 $10
	vol $5
	note $26 $10
	note $26 $10
	vol $5
	note $26 $05
	vol $5
	note $26 $05
	vol $6
	note $26 $06
	vol $6
	note $26 $10
	vol $5
	note $26 $08
	note $26 $08
	vol $6
	note $26 $10
	vol $5
	note $26 $08
	note $26 $08
	vol $6
	note $26 $10
	vol $5
	note $26 $10
	note $26 $10
	vol $5
	note $26 $05
	vol $5
	note $26 $05
	vol $6
	note $26 $06
	vol $6
	note $26 $10
	note $26 $08
	note $26 $08
	note $26 $10
	note $26 $08
	note $26 $08
	note $26 $20
	note $26 $05
	vol $5
	note $26 $05
	vol $4
	note $26 $06
	vol $4
	note $26 $05
	vol $4
	note $26 $05
	vol $6
	note $26 $06
	vol $6
	note $26 $10
	vol $5
	note $26 $08
	note $26 $08
	vol $6
	note $26 $10
	vol $5
	note $26 $08
	note $26 $08
	vol $6
	note $26 $10
	vol $5
	note $26 $20
	vol $6
	note $26 $05
	note $26 $05
	note $26 $06
	note $26 $10
	vol $5
	note $26 $08
	note $26 $08
	vol $6
	note $26 $10
	vol $5
	note $26 $08
	note $26 $08
	vol $6
	note $26 $10
	vol $5
	note $26 $20
	vol $6
	note $26 $05
	note $26 $05
	note $26 $06
	note $26 $10
	vol $5
	note $26 $08
	note $26 $08
	vol $6
	note $26 $10
	vol $5
	note $26 $08
	note $26 $08
	vol $6
	note $26 $10
	vol $5
	note $26 $20
	vol $6
	note $26 $05
	note $26 $05
	note $26 $06
	note $26 $10
	vol $5
	note $26 $08
	note $26 $08
	vol $6
	note $26 $10
	vol $5
	note $26 $08
	note $26 $08
	vol $6
	note $26 $10
	vol $5
	note $26 $20
	vol $6
	note $26 $05
	note $26 $05
	note $26 $06
	note $26 $10
	vol $5
	note $26 $08
	note $26 $08
	vol $6
	note $26 $10
	vol $5
	note $26 $08
	note $26 $08
	vol $6
	note $26 $10
	vol $5
	note $26 $20
	vol $6
	note $26 $05
	note $26 $05
	note $26 $06
	note $26 $10
	vol $5
	note $26 $08
	note $26 $08
	vol $6
	note $26 $10
	vol $5
	note $26 $08
	note $26 $08
	vol $6
	note $26 $10
	vol $5
	note $26 $20
	vol $6
	note $26 $05
	note $26 $05
	note $26 $06
	note $26 $10
	vol $4
	note $26 $04
	vol $5
	note $26 $04
	vol $5
	note $26 $04
	vol $6
	note $26 $04
	vol $6
	note $26 $10
	vol $5
	note $26 $04
	vol $5
	note $26 $04
	vol $6
	note $26 $04
	vol $6
	note $26 $04
	vol $6
	note $26 $10
	vol $5
	note $26 $04
	vol $5
	note $26 $04
	vol $6
	note $26 $04
	vol $6
	note $26 $04
	vol $6
	note $26 $10
	note $26 $10
	note $26 $20
	note $26 $04
	vol $6
	note $26 $04
	vol $5
	note $26 $04
	vol $5
	note $26 $04
	note $26 $04
	vol $5
	note $26 $04
	vol $6
	note $26 $04
	vol $6
	note $26 $04
	vol $6
	note $26 $20
	note $26 $0a
	note $26 $0b
	note $26 $0b
	goto musicfb3a3
	cmdff
