musEssenceStart:

musEssenceChannel1:
; Measure 1
	vibrato $d1
	env $0 $00
	duty $02
	vol $5
	note d7  $02
	vol $4
	note b6  $02
	vol $4
	note g6  $02
	note f6  $02
	vol $4
	note d6  $02
	note b5  $02
	vol $4
	note a5  $02
	vol $4
	note f5  $02
	vol $4
	note d5  $02
	vol $3
	note b4  $02
	vol $3
	note g4  $02
	vol $3
	note f4  $01
	rest $01

	duty $01
	vol $6
	note b4  $04
	rest $01
	vol $3
	note b4  $03

	vol $6
	note b4  $04
	rest $01
	vol $3
	note b4  $03

	vol $6
	note c5  $04
	rest $01
	vol $3
	note c5  $03

	vol $6
	note d5  $10
; Measure 2
	vol $3
	note b4  $04
	note d5  $04

	vol $6
	note g5  $10
	note gs5 $04
	note a5  $04
	note as5 $0c
	vol $3
	note fs5 $04

	vol $6
	note gs5 $04
	vol $3
	note as5 $04

	vol $6
	note fs5 $08
; Measure 3
	note cs5 $04
	vol $3
	note fs5 $04

	vol $6
	note f5  $04
	vol $3
	note cs5 $04

	vol $6
	note ds5 $14
	note f5  $02
	note fs5 $02
	note gs5 $0c
	vol $3
	note ds5 $04

	vol $6
	note gs5 $04
	note as5 $04
; Measure 4
	note b5  $08
	note a5  $04
	vol $3
	note b5  $04

	vol $6
	note g5  $04
	vol $3
	note a5  $04

	vol $6
	note d6  $08
	note cs6 $04
	vol $3
	note g5  $04

	vol $6
	note b5  $04
	vol $3
	note d6  $04

	vol $6
	note cs6 $08
	note b5  $04
	vol $3
	note cs6 $04
; Measure 5
	vol $6
	note a5  $04
	vol $3
	note b5  $04

	vol $6
	note e6  $08
	note cs6 $04
	note a5  $04

	note gs5 $04
	note e5  $04
	note b4  $04
	note cs5 $04

	note ds5 $04
	note fs5 $04
	note b5  $04
	note cs6 $04

	note ds6 $04
	note e6  $04
; Measure 6
	note ds6 $04
	note e6  $04
	note ds6 $04
	note e6  $04
	note fs6 $27
	rest $01
	vibrato $01
	env $0 $00
	vol $3
	note fs6 $04
	rest $01
	vol $2
	note fs6 $04
	rest $01
	vol $1
	note fs6 $04
	cmdff

musEssenceChannel0:
; Measure 1
	vol $0
	note gs3 $03
	vibrato $d1
	env $0 $00
	duty $02
	vol $3
	note d7  $02
	vol $2
	note b6  $02
	note g6  $02
	note f6  $02
	vol $2
	note d6  $02
	note b5  $02
	vol $2
	note a5  $02
	note f5  $02
	vol $2
	note d5  $02
	vol $2
	note b4  $02
	vol $2
	note g4  $01

	vol $3
	note d5  $02
	vol $3
	note b4  $02
	vol $3
	note a4  $02
	vol $3
	note f4  $02

	vol $3
	note d4  $02
	vol $2
	note b3  $01
	rest $01

	duty $01
	vol $4
	note d3  $0c
	vol $5
	note f3  $0c
; Measure 2
	vol $5
	note a3  $0c
	vol $6
	note b3  $0c
	vol $6
	note d4  $0c

	vol $5
	note fs4 $18
	vol $6
	note cs4 $18
; Measure 3
	vol $5
	note c4  $20
	vol $3
	note c4  $08

	vol $3
	note ds4 $02
	vol $3
	note gs4 $02
	vol $3
	note c5  $02
	vol $4
	note ds5 $02
; Measure 4
	vol $6
	note d6  $04
	vol $6
	note g5  $04
	vol $5
	note e5  $04
	vol $5
	note d5  $04

	vol $4
	note b4  $04
	vol $3
	note g4  $04
	note b5  $04
	vol $3
	note g5  $04

	vol $3
	note e5  $04
	vol $3
	note d5  $04
	vol $2
	note b4  $04
	vol $2
	note g4  $04

	vol $6
	note e6  $04
	vol $6
	note a5  $04
	vol $5
	note e5  $04
	vol $5
	note cs5 $04
; Measure 5
	vol $4
	note a4  $04
	vol $3
	note e4  $04
	vol $3
	note cs6 $04
	vol $3
	note a5  $04

	vol $3
	note e5  $04
	vol $3
	note cs5 $04
	vol $2
	note a4  $04
	vol $2
	note e4  $04

	vol $6
	note fs3 $10

	vol $3
	note fs3 $08
	vol $6
	note b3  $04
	note cs4 $04
; Measure 6
	note ds4 $04
	note fs4 $04
	note b4  $04
	note cs5 $04

	note ds5 $28
	rest $01
	vol $3
	note ds5 $03
	rest $01
	vol $2
	note ds5 $03
	rest $01
	vol $1
	note ds5 $03
	cmdff

musEssenceChannel4:
; Measure 1
	duty $0e
	note g2  $60
; Measure 2c
	note ds2 $20
; Measure 3
	note f2  $08
	note fs2 $08
	note gs2 $30
; Measure 4
	note e2  $20
	note fs2 $08
	note g2  $08
	note a2  $30
; Measure 5b
	note b2  $10
	duty $0f
	note b2  $08
	duty $0e
	note fs2 $10
; Measure 6a
	duty $0f
	note fs2 $08
	duty $0e
	note b2  $26
	duty $0f
	note b2  $07
	cmdff

.define musEssenceChannel6 MUSIC_CHANNEL_FALLBACK EXPORT
