musEssenceRoomStart:

musEssenceRoomChannel1:
	vibrato $00
	env $0 $03
	duty $02
musiced519:
	vol $6
	note a2  $09
	vol $6
	note e3  $09
	note g3  $09
	note c4  $09
	note b3  $09
	note d4  $09
	note g4  $09
	note c5  $09
	note b4  $09
	note g4  $09
	note d4  $09
	note c4  $09
	note b3  $09
	note g3  $09
	note d3  $09
	note c3  $09
	note b2  $09
	note fs3 $09
	note g3  $09
	note d4  $09
	note b3  $09
	note fs4 $09
	note g4  $09
	note d5  $09
	note cs5 $09
	note g4  $09
	note fs4 $09
	note d4  $09
	note cs4 $09
	note g3  $09
	note fs3 $09
	note cs3 $09
	note c3  $09
	note g3  $09
	note as3 $09
	note ds4 $09
	note c4  $09
	note g4  $09
	note as4 $09
	note ds5 $09
	note d5  $09
	note as4 $09
	note f4  $09
	note ds4 $09
	note d4  $09
	note as3 $09
	note f3  $09
	note ds3 $09
	note d3  $09
	note g3  $09
	note a3  $09
	note c4  $09
	note d4  $09
	note g4  $09
	note c5  $09
	note f5  $09
	note e5  $09
	note c5  $09
	note g4  $09
	note f4  $09
	note e4  $09
	note c4  $09
	note g3  $09
	note e3  $09
	goto musiced519
	cmdff

musEssenceRoomChannel0:
	vibrato $00
	env $0 $03
	duty $02
	vol $1
	note a2  $09
	note e3  $04
musiced5aa:
	vol $4
	note a2  $09
	vol $4
	note e3  $09
	note g3  $09
	note c4  $09
	note b3  $09
	note d4  $09
	note g4  $09
	note c5  $09
	note b4  $09
	note g4  $09
	note d4  $09
	note c4  $09
	note b3  $09
	note g3  $09
	note d3  $09
	note c3  $09
	note b2  $09
	note fs3 $09
	note g3  $09
	note d4  $09
	note b3  $09
	note fs4 $09
	note g4  $09
	note d5  $09
	note cs5 $09
	note g4  $09
	note fs4 $09
	note d4  $09
	note cs4 $09
	note g3  $09
	note fs3 $09
	note cs3 $09
	note c3  $09
	note g3  $09
	note as3 $09
	note ds4 $09
	note c4  $09
	note g4  $09
	note as4 $09
	note ds5 $09
	note d5  $09
	note as4 $09
	note f4  $09
	note ds4 $09
	note d4  $09
	note as3 $09
	note f3  $09
	note ds3 $09
	note d3  $09
	note g3  $09
	note a3  $09
	note c4  $09
	note d4  $09
	note g4  $09
	note c5  $09
	note f5  $09
	note e5  $09
	note c5  $09
	note g4  $09
	note f4  $09
	note e4  $09
	note c4  $09
	note g3  $09
	note e3  $09
	goto musiced5aa
	cmdff

musEssenceRoomChannel4:
	duty $08
	note a2  $09
	note e3  $09
	note g3  $09
musiced638:
	note a2  $09
	note e3  $09
	note g3  $09
	note c4  $09
	note b3  $09
	note d4  $09
	note g4  $09
	note c5  $09
	note b4  $09
	note g4  $09
	note d4  $09
	note c4  $09
	note b3  $09
	note g3  $09
	note d3  $09
	note c3  $09
	note b2  $09
	note fs3 $09
	note g3  $09
	note d4  $09
	note b3  $09
	note fs4 $09
	note g4  $09
	note d5  $09
	note cs5 $09
	note g4  $09
	note fs4 $09
	note d4  $09
	note cs4 $09
	note g3  $09
	note fs3 $09
	note cs3 $09
	note c3  $09
	note g3  $09
	note as3 $09
	note ds4 $09
	note c4  $09
	note g4  $09
	note as4 $09
	note ds5 $09
	note d5  $09
	note as4 $09
	note f4  $09
	note ds4 $09
	note d4  $09
	note as3 $09
	note f3  $09
	note ds3 $09
	note d3  $09
	note g3  $09
	note a3  $09
	note c4  $09
	note d4  $09
	note g4  $09
	note c5  $09
	note f5  $09
	note e5  $09
	note c5  $09
	note g4  $09
	note f4  $09
	note e4  $09
	note c4  $09
	note g3  $09
	note e3  $09
	goto musiced638
	cmdff

.define musEssenceRoomChannel6 MUSIC_CHANNEL_FALLBACK EXPORT
