musCrescentStart:

musCrescentChannel1:
	vibrato $e1
	env $0 $00
	cmdf2
	duty $02
musiceeb82:
	vol $6
	note ds4 $1b
	vol $6
	note e4  $09
	note c4  $09
	rest $04
	vol $4
	note c4  $05
	vol $6
	note g3  $09
	rest $04
	vol $4
	note g3  $05
	vol $6
	note as3 $09
	rest $04
	vol $4
	note as3 $05
	vol $6
	note as3 $09
	rest $04
	vol $4
	note as3 $05
	vol $6
	note a3  $09
	rest $04
	vol $4
	note a3  $05
	vol $6
	note g3  $09
	rest $04
	vol $4
	note g3  $05
	vol $6
	note fs3 $12
	note g3  $09
	rest $04
	vol $4
	note g3  $09
	rest $05
	vol $2
	note g3  $09
	vol $6
	note fs3 $12
	note g3  $09
	rest $04
	vol $4
	note g3  $09
	rest $05
	vol $2
	note g3  $09
	rest $12
	vol $6
	note ds4 $2d
	note e4  $09
	note c4  $09
	rest $04
	vol $4
	note c4  $05
	vol $6
	note g3  $09
	rest $04
	vol $4
	note g3  $05
	vol $6
	note as3 $09
	rest $04
	vol $4
	note as3 $05
	vol $6
	note as3 $09
	rest $04
	vol $4
	note as3 $05
	vol $6
	note c4  $09
	rest $04
	vol $4
	note c4  $05
	vol $6
	note d4  $09
	rest $04
	vol $4
	note d4  $05
	vol $6
	note f4  $12
	note e4  $09
	rest $04
	vol $4
	note e4  $05
	vol $6
	note ds4 $09
	rest $04
	vol $4
	note ds4 $05
	vol $6
	note d4  $09
	rest $04
	vol $4
	note d4  $09
	rest $05
	vol $2
	note d4  $09
	rest $24
	vol $6
	note f4  $1b
	vol $4
	note f4  $09
	vol $6
	note f4  $09
	rest $04
	vol $4
	note f4  $05
	vol $6
	note e4  $09
	rest $04
	vol $4
	note e4  $05
	vol $6
	note d4  $09
	rest $04
	vol $4
	note d4  $05
	rest $36
	vol $6
	note ds4 $1b
	vol $4
	note ds4 $09
	vol $6
	note ds4 $09
	rest $04
	vol $4
	note ds4 $05
	vol $6
	note d4  $09
	rest $04
	vol $4
	note d4  $05
	vol $6
	note c4  $09
	rest $04
	vol $4
	note c4  $09
	rest $05
	vol $2
	note c4  $09
	rest $24
	vol $6
	note as4 $1b
	vol $4
	note as4 $09
	vol $6
	note as4 $12
	note a4  $09
	rest $04
	vol $4
	note a4  $09
	rest $05
	vol $2
	note a4  $09
	vol $6
	note gs4 $12
	note g4  $09
	rest $04
	vol $4
	note g4  $09
	rest $05
	vol $2
	note g4  $09
	vol $6
	note fs4 $09
	rest $04
	vol $4
	note fs4 $05
	vol $6
	note fs4 $04
	rest $0e
	note g4  $09
	rest $04
	vol $4
	note g4  $05
	vol $6
	note fs4 $12
	note g4  $09
	rest $04
	vol $4
	note g4  $05
	vol $6
	note ds4 $12
	note c4  $12
	note as3 $12
	note g3  $12
	vol $6
	note fs3 $12
	note g3  $09
	rest $04
	vol $4
	note g3  $09
	rest $05
	vol $2
	note g3  $09
	vol $6
	note fs3 $12
	note g3  $09
	rest $04
	vol $4
	note g3  $09
	rest $05
	vol $2
	note g3  $09
	rest $b4
	goto musiceeb82
	cmdff

musCrescentChannel0:
	vibrato $e1
	env $0 $00
	cmdf2
	duty $02
musiceece7:
	vol $6
	note g3  $24
	vol $6
	note a3  $24
	note fs3 $24
	note g3  $24
	note ds4 $12
	note e4  $09
	rest $04
	vol $4
	note e4  $05
	vol $6
	note g5  $03
	rest $01
	vol $4
	note g5  $03
	rest $02
	vol $2
	note g5  $03
	rest $06
	vol $6
	note ds4 $12
	note e4  $09
	rest $04
	vol $4
	note e4  $05
	vol $6
	note g5  $03
	rest $01
	vol $4
	note g5  $03
	rest $02
	vol $2
	note g5  $03
	rest $06
	vol $6
	note as3 $09
	note a3  $09
	note gs3 $09
	note g3  $09
	note e3  $24
	note g3  $24
	note ds3 $24
	note e3  $24
	note d3  $24
	note a3  $12
	note as3 $12
	vol $6
	note d6  $03
	rest $03
	vol $5
	note d6  $03
	rest $03
	vol $4
	note d6  $03
	rest $03
	vol $6
	note g5  $03
	rest $03
	vol $5
	note g5  $03
	rest $03
	vol $4
	note g5  $03
	rest $03
	vol $6
	note b4  $09
	note as4 $09
	note a4  $09
	note g4  $09
	rest $36
	note f5  $1b
	vol $4
	note f5  $09
	vol $6
	note f5  $09
	rest $04
	vol $4
	note f5  $05
	vol $6
	note e5  $09
	rest $04
	vol $4
	note e5  $05
	vol $6
	note d5  $09
	rest $04
	vol $4
	note d5  $09
	rest $05
	vol $2
	note d5  $09
	rest $33
	vol $6
	note ds5 $03
	note e5  $12
	note g5  $09
	rest $04
	vol $4
	note g5  $05
	vol $6
	note a5  $09
	note g5  $09
	note ds5 $09
	note c5  $09
	rest $12
	note g5  $12
	note fs5 $09
	rest $04
	vol $4
	note fs5 $09
	rest $05
	vol $2
	note fs5 $09
	vol $6
	note f5  $12
	note e5  $09
	rest $04
	vol $4
	note e5  $09
	rest $05
	vol $2
	note e5  $09
	vol $6
	note ds5 $09
	rest $04
	vol $4
	note ds5 $05
	vol $6
	note cs5 $12
	note d5  $09
	rest $04
	vol $4
	note d5  $05
	vol $6
	note cs5 $12
	note d5  $09
	rest $04
	vol $4
	note d5  $05
	vol $6
	note c4  $12
	note g3  $12
	note f3  $12
	note d3  $12
	note b2  $12
	note c3  $09
	rest $04
	vol $4
	note c3  $09
	rest $05
	vol $2
	note c3  $09
	vol $6
	note b2  $12
	vol $7
	note c3  $09
	rest $04
	vol $4
	note c3  $09
	rest $05
	vol $2
	note c3  $09
	rest $b4
	goto musiceece7
	cmdff

musCrescentChannel4:
musiceee03:
	duty $0e
	note c3  $09
	duty $0f
	note c3  $09
	rest $12
	duty $0e
	note ds3 $09
	duty $0f
	note ds3 $09
	duty $0e
	note e3  $09
	duty $0f
	note e3  $09
	duty $0e
	note g2  $09
	duty $0f
	note g2  $09
	rest $12
	duty $0e
	note as2 $09
	duty $0f
	note as2 $09
	duty $0e
	note as2 $09
	duty $0f
	note as2 $09
	duty $0e
	note c3  $09
	duty $0f
	note c3  $09
	rest $12
	duty $0e
	note ds3 $12
	note e3  $09
	duty $0f
	note e3  $09
	duty $0e
	note g2  $09
	duty $0f
	note g2  $09
	rest $12
	duty $0e
	note g2  $09
	duty $0f
	note g2  $09
	duty $0e
	note as2 $09
	duty $0f
	note as2 $09
	duty $0e
	note c3  $12
	duty $0f
	note c3  $12
	duty $0e
	note ds3 $09
	duty $0f
	note ds3 $09
	duty $0e
	note e3  $09
	duty $0f
	note e3  $09
	duty $0e
	note c3  $09
	duty $0f
	note c3  $09
	rest $12
	duty $0e
	note c3  $09
	duty $0f
	note c3  $09
	duty $0e
	note c3  $09
	duty $0f
	note c3  $09
	duty $0e
	note g2  $1b
	duty $0f
	note g2  $09
	duty $0e
	note cs3 $09
	duty $0f
	note cs3 $09
	duty $0e
	note d3  $09
	duty $0f
	note d3  $09
	duty $0e
	note b2  $09
	note as2 $09
	note a2  $09
	note gs2 $09
	note g2  $09
	duty $0f
	note g2  $09
	duty $0e
	note g2  $09
	duty $0f
	note g2  $09
	duty $0e
	note f2  $1b
	duty $0f
	note f2  $09
	duty $0e
	note a2  $09
	duty $0f
	note a2  $09
	duty $0e
	note c3  $09
	duty $0f
	note c3  $09
	duty $0e
	note f2  $1b
	duty $0f
	note f2  $09
	duty $0e
	note f2  $09
	duty $0f
	note f2  $09
	duty $0e
	note f2  $09
	duty $0f
	note f2  $09
	duty $0e
	note c3  $1b
	duty $0f
	note c3  $09
	duty $0e
	note ds3 $09
	duty $0f
	note ds3 $09
	duty $0e
	note e3  $09
	duty $0f
	note e3  $09
	duty $0e
	note c3  $1b
	duty $0f
	note c3  $09
	duty $0e
	note c3  $09
	duty $0f
	note c3  $09
	duty $0e
	note c3  $09
	duty $0f
	note c3  $09
	duty $0e
	note g2  $12
	duty $0f
	note g2  $12
	duty $0e
	note g2  $09
	duty $0f
	note g2  $09
	duty $0e
	note g2  $09
	duty $0f
	note g2  $09
	duty $0e
	note d3  $1b
	duty $0f
	note d3  $09
	duty $0e
	note g2  $09
	duty $0f
	note g2  $09
	duty $0e
	note g2  $09
	duty $0f
	note g2  $09
	rest $12
	duty $0e
	note g3  $09
	duty $0f
	note g3  $09
	duty $0e
	note fs3 $09
	duty $0f
	note fs3 $09
	duty $0e
	note f3  $09
	duty $0f
	note f3  $09
	duty $0e
	note e3  $09
	duty $0f
	note e3  $09
	duty $0e
	note ds3 $09
	duty $0f
	note ds3 $09
	duty $0e
	note d3  $09
	duty $0f
	note d3  $09
	duty $0e
	note cs3 $09
	duty $0f
	note cs3 $09
	duty $0e
	note c2  $09
	duty $0f
	note c2  $09
	rest $12
	duty $0e
	note ds3 $09
	duty $0f
	note ds3 $09
	duty $0e
	note e3  $09
	duty $0f
	note e3  $09
	duty $0e
	note g2  $09
	duty $0f
	note g2  $09
	rest $12
	duty $0e
	note as2 $09
	duty $0f
	note as2 $09
	duty $0e
	note as2 $09
	duty $0f
	note as2 $09
	duty $0e
	note c2  $09
	duty $0f
	note c2  $09
	rest $12
	duty $0e
	note ds3 $12
	note e3  $09
	duty $0f
	note e3  $09
	duty $0e
	note c3  $09
	duty $0f
	note c3  $09
	duty $0e
	note g2  $09
	duty $0f
	note g2  $09
	duty $0e
	note g2  $09
	duty $0f
	note g2  $09
	duty $0e
	note as2 $09
	duty $0f
	note as2 $09
	goto musiceee03
	cmdff

musCrescentChannel6:
musiceeffd:
	vol $6
	note $24 $24
	note $24 $12
	note $24 $12
	note $24 $24
	note $26 $24
	note $24 $24
	note $24 $12
	note $24 $12
	note $24 $24
	note $26 $24
	note $24 $24
	note $24 $12
	note $24 $12
	note $24 $24
	note $26 $24
	note $24 $24
	note $24 $12
	note $24 $12
	note $24 $24
	note $26 $24
	note $24 $24
	note $24 $12
	note $24 $12
	note $24 $24
	note $26 $24
	note $24 $24
	note $24 $12
	note $24 $12
	note $24 $24
	note $26 $12
	note $26 $09
	note $26 $09
	note $24 $24
	note $24 $12
	note $24 $12
	note $24 $24
	note $24 $24
	note $24 $24
	note $24 $12
	note $24 $12
	note $24 $12
	note $24 $12
	note $24 $12
	note $24 $12
	note $24 $24
	note $24 $12
	note $24 $12
	note $24 $24
	note $26 $24
	note $24 $24
	note $24 $12
	note $24 $12
	note $24 $12
	note $24 $12
	note $26 $12
	note $24 $12
	goto musiceeffd
	cmdff
