musMakuPathStart:

musMakuPathChannel1:
	vibrato $00
	env $0 $00
	cmdf2
	duty $02
musicef646:
	vol $6
	note g5  $0a
	note e5  $0b
	note c5  $0b
	note g4  $08
	rest $04
	vol $3
	note g4  $08
	rest $04
	vol $2
	note g4  $08
	vol $6
	note as4 $15
	note a4  $0b
	note g4  $08
	rest $04
	vol $3
	note g4  $08
	rest $04
	vol $2
	note g4  $08
	vol $6
	note g5  $0a
	note e5  $0b
	note c5  $0b
	note g4  $08
	rest $04
	vol $3
	note g4  $08
	rest $01
	vol $6
	note g4  $0b
	note as4 $15
	note a4  $0b
	note g4  $08
	rest $04
	vol $3
	note g4  $08
	rest $04
	vol $2
	note g4  $08
	vol $6
	note g5  $0a
	note e5  $0b
	note c5  $0b
	note g4  $08
	rest $04
	vol $3
	note g4  $08
	rest $04
	vol $2
	note g4  $08
	vol $6
	note as4 $15
	note a4  $0b
	note g4  $05
	rest $07
	vol $3
	note g4  $04
	vol $6
	note e4  $05
	rest $07
	vol $3
	note e4  $04
	vol $6
	note f4  $05
	rest $07
	vol $3
	note f4  $04
	vol $6
	note fs4 $05
	rest $07
	vol $3
	note fs4 $04
	vol $6
	note g4  $05
	rest $07
	vol $3
	note g4  $04
	vol $6
	note a4  $05
	rest $07
	vol $3
	note a4  $04
	vol $6
	note as4 $08
	rest $04
	vol $3
	note as4 $08
	rest $04
	vol $2
	note as4 $08
	rest $20
	vol $6
	note g5  $0a
	note e5  $0b
	note c5  $0b
	note g4  $08
	rest $04
	vol $3
	note g4  $08
	rest $04
	vol $2
	note g4  $08
	vol $6
	note as4 $15
	note a4  $0b
	note g4  $08
	rest $04
	vol $3
	note g4  $08
	rest $04
	vol $2
	note g4  $08
	vol $6
	note g5  $0a
	note e5  $0b
	note c5  $0b
	note g4  $08
	rest $04
	vol $3
	note g4  $08
	rest $04
	vol $2
	note g4  $08
	vol $6
	note as4 $08
	note c5  $08
	note as4 $08
	note a4  $08
	note g4  $08
	rest $04
	vol $3
	note g4  $08
	rest $04
	vol $2
	note g4  $08
	vol $6
	note g5  $0a
	note e5  $0b
	note c5  $0b
	note g4  $08
	rest $04
	vol $3
	note g4  $08
	rest $04
	vol $2
	note g4  $08
	vol $6
	note as4 $15
	note a4  $0b
	note g4  $08
	rest $04
	vol $3
	note g4  $04
	vol $6
	note a4  $08
	rest $04
	vol $3
	note a4  $04
	vol $6
	note b4  $08
	rest $04
	vol $3
	note b4  $04
	vol $6
	note c5  $08
	rest $04
	vol $3
	note c5  $04
	vol $6
	note d5  $08
	rest $04
	vol $3
	note d5  $04
	vol $6
	note e5  $08
	rest $04
	vol $3
	note e5  $04
	vol $6
	note f5  $08
	rest $04
	vol $3
	note f5  $08
	rest $04
	vol $2
	note f5  $08
	vol $6
	note fs5 $08
	rest $04
	vol $3
	note fs5 $08
	rest $04
	vol $2
	note fs5 $08
	goto musicef646
	cmdff

musMakuPathChannel0:
	vibrato $00
	env $0 $00
	cmdf2
	duty $02
musicef79b:
	vol $0
	note gs3 $40
	vol $6
	note g4  $15
	note f4  $0b
	note e4  $08
	rest $04
	vol $3
	note e4  $08
	rest $04
	vol $2
	note e4  $08
	rest $40
	vol $6
	note g4  $15
	note f4  $0b
	note e4  $08
	rest $04
	vol $3
	note e4  $08
	rest $04
	vol $2
	note e4  $08
	rest $40
	vol $6
	note g4  $15
	note f4  $0b
	note e4  $05
	rest $07
	vol $3
	note e4  $04
	vol $6
	note c4  $05
	rest $07
	vol $3
	note c4  $04
	vol $6
	note d4  $05
	rest $07
	vol $3
	note d4  $04
	vol $6
	note ds4 $05
	rest $07
	vol $3
	note ds4 $04
	vol $6
	note e4  $05
	rest $07
	vol $3
	note e4  $04
	vol $6
	note f4  $05
	rest $07
	vol $3
	note f4  $04
	vol $6
	note fs4 $08
	rest $04
	vol $3
	note fs4 $08
	rest $04
	vol $2
	note fs4 $08
	rest $60
	vol $6
	note g4  $15
	note f4  $0b
	note e4  $08
	rest $04
	vol $3
	note e4  $08
	rest $04
	vol $2
	note e4  $08
	rest $20
	vol $6
	note e4  $08
	rest $04
	vol $3
	note e4  $08
	rest $04
	vol $2
	note e4  $08
	vol $6
	note g4  $08
	note gs4 $08
	note g4  $08
	note f4  $08
	note e4  $08
	rest $04
	vol $3
	note e4  $08
	rest $04
	vol $2
	note e4  $08
	rest $20
	vol $6
	note e4  $08
	rest $04
	vol $3
	note e4  $08
	rest $04
	vol $2
	note e4  $08
	vol $6
	note g4  $15
	note f4  $0b
	note e4  $08
	rest $04
	vol $3
	note e4  $04
	vol $6
	note f4  $08
	rest $04
	vol $3
	note f4  $04
	vol $6
	note g4  $08
	rest $04
	vol $3
	note g4  $04
	vol $6
	note a4  $08
	rest $04
	vol $3
	note a4  $04
	vol $6
	note b4  $08
	rest $04
	vol $3
	note b4  $04
	vol $6
	note c5  $08
	rest $04
	vol $3
	note c5  $04
	vol $6
	note cs5 $08
	rest $04
	vol $3
	note cs5 $08
	rest $04
	vol $2
	note cs5 $08
	vol $6
	note d5  $08
	rest $04
	vol $3
	note d5  $08
	rest $04
	vol $2
	note d5  $08
	goto musicef79b
	cmdff

musMakuPathChannel4:
	cmdf2
musicef89e:
	rest $20
	duty $0e
	note c3  $08
	duty $0f
	note c3  $08
	rest $10
	duty $0e
	note g3  $08
	duty $0f
	note g3  $08
	rest $10
	duty $0e
	note g2  $08
	duty $0f
	note g2  $08
	rest $10
	duty $0e
	note as2 $08
	duty $0f
	note as2 $08
	rest $10
	duty $0e
	note c3  $08
	duty $0f
	note c3  $08
	rest $10
	duty $0e
	note g3  $08
	duty $0f
	note g3  $08
	rest $10
	duty $0e
	note g2  $08
	duty $0f
	note g2  $08
	rest $10
	duty $0e
	note as2 $08
	duty $0f
	note as2 $08
	rest $10
	duty $0e
	note c3  $08
	duty $0f
	note c3  $08
	rest $10
	duty $0e
	note g3  $08
	duty $0f
	note g3  $08
	rest $10
	duty $0e
	note g2  $08
	duty $0f
	note g2  $08
	duty $0e
	note a2  $08
	duty $0f
	note a2  $08
	duty $0e
	note as2 $08
	duty $0f
	note as2 $08
	duty $0e
	note b2  $08
	duty $0f
	note b2  $08
	duty $0e
	note c3  $08
	duty $0f
	note c3  $08
	duty $0e
	note d3  $08
	duty $0f
	note d3  $08
	duty $0e
	note ds3 $08
	duty $0f
	note ds3 $08
	rest $50
	duty $0e
	note c3  $08
	duty $0f
	note c3  $08
	rest $10
	duty $0e
	note g3  $08
	duty $0f
	note g3  $08
	rest $10
	duty $0e
	note g2  $08
	duty $0f
	note g2  $08
	rest $10
	duty $0e
	note g2  $0a
	note as2 $0b
	note b2  $0b
	note c3  $08
	duty $0f
	note c3  $08
	rest $10
	duty $0e
	note g3  $08
	duty $0f
	note g3  $08
	rest $10
	duty $0e
	note g2  $08
	duty $0f
	note g2  $08
	rest $10
	duty $0e
	note g2  $0a
	note as2 $0b
	note b2  $0b
	note c3  $08
	duty $0f
	note c3  $08
	rest $10
	duty $0e
	note g3  $08
	duty $0f
	note g3  $08
	rest $10
	duty $0e
	note g2  $08
	duty $0f
	note g2  $08
	rest $10
	duty $0e
	note a2  $08
	duty $0f
	note a2  $08
	rest $10
	duty $0e
	note b2  $08
	duty $0f
	note b2  $08
	duty $0e
	note cs3 $08
	duty $0f
	note cs3 $08
	duty $0e
	note d3  $08
	duty $0f
	note d3  $08
	rest $10
	duty $0e
	note ds3 $08
	duty $0f
	note ds3 $08
	rest $10
	goto musicef89e
	cmdff

.define musMakuPathChannel6 MUSIC_CHANNEL_FALLBACK EXPORT
