musRalphStart:

musRalphChannel1:
	vibrato $e1
	env $0 $00
	duty $01
	vol $6
	note ds4 $04
	note as3 $05
	note ds4 $05
	note gs4 $04
	note cs4 $05
	note gs4 $05
	note cs5 $04
	note fs4 $05
	note cs5 $05
	note fs5 $04
	note b4  $05
	note fs5 $05
	note f5  $1c
	vibrato $01
	vol $3
	note f5  $07
	rest $15
	vibrato $e1
musicf275f:
	vol $6
	note ds4 $07
	rest $03
	vol $3
	note ds4 $04
	vol $6
	note ds4 $03
	vol $3
	note ds4 $04
	vol $6
	note ds4 $03
	vol $3
	note ds4 $04
	vol $6
	note as4 $11
	vol $3
	note as4 $07
	rest $04
	vol $6
	note a4  $07
	rest $03
	vol $3
	note a4  $04
	vol $6
	note a4  $07
	note fs4 $07
	note d4  $07
	rest $03
	vol $3
	note d4  $04
	vol $6
	note a4  $07
	rest $03
	vol $3
	note a4  $04
	vol $6
	note ds4 $07
	rest $03
	vol $3
	note ds4 $04
	vol $6
	note ds4 $03
	vol $3
	note ds4 $04
	vol $6
	note ds4 $03
	vol $3
	note ds4 $04
	vol $6
	note as4 $11
	vol $3
	note as4 $07
	rest $04
	vol $6
	note a4  $07
	rest $03
	vol $3
	note a4  $04
	vol $6
	note a4  $03
	vol $3
	note a4  $04
	vol $6
	note a4  $03
	vol $3
	note a4  $04
	vol $6
	note d5  $07
	rest $03
	vol $3
	note d5  $04
	vol $6
	note a4  $07
	rest $03
	vol $3
	note a4  $04
	vol $6
	note gs4 $07
	rest $03
	vol $3
	note gs4 $04
	vol $6
	note gs4 $03
	vol $3
	note gs4 $04
	vol $6
	note gs4 $03
	vol $3
	note gs4 $04
	vol $6
	note cs5 $07
	rest $03
	vol $3
	note cs5 $04
	vol $6
	note gs4 $07
	rest $03
	vol $3
	note gs4 $04
	vol $6
	note g4  $07
	rest $03
	vol $3
	note g4  $04
	vol $6
	note g4  $03
	vol $3
	note g4  $04
	vol $6
	note g4  $07
	note c5  $07
	rest $03
	vol $3
	note c5  $04
	vol $6
	note g4  $07
	rest $03
	vol $3
	note g4  $04
	vol $6
	note fs4 $07
	rest $03
	vol $3
	note fs4 $04
	vol $6
	note b4  $07
	rest $03
	vol $3
	note b4  $04
	vol $6
	note f4  $07
	rest $03
	vol $3
	note f4  $04
	vol $6
	note as4 $07
	rest $03
	vol $3
	note as4 $04
	vol $6
	note e4  $07
	note ds4 $07
	note d4  $07
	note cs4 $07
	note c4  $11
	vol $3
	note c4  $07
	rest $04
	vol $6
	note ds4 $07
	rest $03
	vol $3
	note ds4 $04
	vol $6
	note ds4 $03
	vol $3
	note ds4 $04
	vol $6
	note ds4 $07
	note as4 $0e
	vol $3
	note as4 $07
	rest $07
	vol $6
	note a4  $03
	vol $3
	note a4  $04
	vol $6
	note a4  $03
	vol $3
	note a4  $04
	vol $6
	note a4  $07
	rest $03
	vol $3
	note a4  $04
	vol $6
	note d4  $0e
	note cs4 $07
	rest $03
	vol $3
	note cs4 $04
	vol $6
	note ds4 $07
	rest $03
	vol $3
	note ds4 $04
	vol $6
	note ds4 $03
	vol $3
	note ds4 $04
	vol $6
	note ds4 $07
	note as4 $0e
	vol $3
	note as4 $07
	rest $07
	vol $6
	note a4  $03
	vol $3
	note a4  $04
	vol $6
	note a4  $03
	vol $3
	note a4  $04
	vol $6
	note a4  $07
	rest $03
	vol $3
	note a4  $04
	vol $6
	note e5  $07
	note ds5 $07
	note d5  $07
	vol $3
	note d5  $07
	vol $6
	note c5  $07
	rest $03
	vol $3
	note c5  $04
	vol $6
	note c5  $03
	rest $04
	note c5  $07
	note g4  $07
	rest $03
	vol $3
	note g4  $04
	vol $6
	note c5  $07
	rest $03
	vol $3
	note c5  $04
	vol $6
	note b4  $07
	rest $03
	vol $3
	note b4  $04
	vol $6
	note b4  $03
	vol $3
	note b4  $04
	vol $6
	note b4  $03
	vol $3
	note b4  $04
	vol $6
	note e5  $07
	rest $03
	vol $3
	note e5  $04
	vol $6
	note b4  $07
	rest $03
	vol $3
	note b4  $04
	vol $6
	note as4 $0e
	vol $3
	note as4 $07
	rest $07
	vol $6
	note as4 $07
	note a4  $07
	note gs4 $07
	note g4  $07
	note fs4 $07
	rest $03
	vol $3
	note fs4 $07
	rest $04
	vol $1
	note fs4 $07
	vol $6
	note as4 $11
	vol $3
	note as4 $07
	rest $04
	goto musicf275f
	cmdff

musRalphChannel0:
	vol $0
	note gs3 $07
	vibrato $e1
	env $0 $00
	duty $01
	vol $5
	note ds4 $04
	note as3 $05
	note ds4 $05
	note gs4 $04
	note cs4 $05
	note gs4 $05
	note cs5 $04
	note fs4 $05
	note cs5 $05
	note fs5 $04
	note b4  $05
	note fs5 $05
	note f5  $1c
	vibrato $01
	vol $2
	note f5  $07
	rest $0e
	vibrato $e1
musicf294f:
	vol $6
	note g3  $07
	rest $03
	vol $3
	note g3  $04
	vol $6
	note g3  $03
	vol $3
	note g3  $04
	vol $6
	note g3  $03
	vol $3
	note g3  $04
	vol $6
	note ds4 $11
	vol $3
	note ds4 $07
	rest $04
	vol $6
	note fs4 $07
	rest $03
	vol $3
	note fs4 $04
	vol $6
	note fs4 $07
	note d4  $07
	note a3  $07
	rest $03
	vol $3
	note a3  $04
	vol $6
	note d4  $07
	rest $03
	vol $3
	note d4  $04
	vol $6
	note g3  $07
	rest $03
	vol $3
	note g3  $04
	vol $6
	note g3  $03
	rest $04
	note g3  $03
	rest $04
	note ds4 $11
	vol $3
	note ds4 $07
	rest $04
	vol $6
	note e4  $07
	rest $03
	vol $3
	note e4  $04
	vol $6
	note e4  $03
	vol $3
	note e4  $04
	vol $6
	note e4  $03
	vol $3
	note e4  $04
	vol $6
	note a4  $07
	rest $03
	vol $3
	note a4  $04
	vol $6
	note e4  $07
	rest $03
	vol $3
	note e4  $04
	vol $6
	note cs4 $07
	rest $03
	vol $3
	note cs4 $04
	vol $6
	note cs4 $03
	vol $3
	note cs4 $04
	vol $6
	note cs4 $03
	vol $3
	note cs4 $04
	vol $6
	note gs4 $07
	note f4  $07
	note cs4 $07
	rest $03
	vol $3
	note cs4 $04
	vol $6
	note c4  $07
	rest $03
	vol $3
	note c4  $04
	vol $6
	note c4  $03
	vol $3
	note c4  $04
	vol $6
	note c4  $03
	vol $3
	note c4  $04
	vol $6
	note a4  $07
	note f4  $07
	note b3  $07
	rest $03
	vol $3
	note b3  $04
	vol $6
	note ds4 $07
	rest $03
	vol $3
	note ds4 $04
	vol $6
	note g4  $07
	rest $03
	vol $3
	note g4  $04
	vol $6
	note d4  $07
	rest $03
	vol $3
	note d4  $04
	vol $6
	note fs4 $07
	rest $03
	vol $3
	note fs4 $04
	vol $6
	note cs4 $07
	note c4  $07
	note b3  $07
	note as3 $07
	note a3  $11
	vol $3
	note a3  $07
	rest $04
	vol $6
	note as3 $07
	rest $03
	vol $3
	note as3 $04
	vol $6
	note as3 $03
	vol $3
	note as3 $04
	vol $6
	note as3 $03
	vol $3
	note as3 $04
	rest $07
	vol $6
	note as3 $07
	note ds4 $07
	note g4  $07
	vol $6
	note fs4 $03
	vol $3
	note fs4 $04
	vol $6
	note fs4 $03
	vol $3
	note fs4 $04
	vol $6
	note fs4 $03
	vol $3
	note fs4 $04
	vol $6
	note e4  $07
	note a3  $07
	note as3 $07
	note b3  $07
	note a3  $07
	note g3  $07
	rest $03
	vol $3
	note g3  $04
	vol $6
	note g3  $03
	vol $3
	note g3  $04
	vol $6
	note g3  $03
	vol $3
	note g3  $04
	vol $6
	note g3  $07
	note as3 $07
	note g3  $07
	note as3 $07
	note fs4 $03
	vol $3
	note fs4 $04
	vol $6
	note fs4 $03
	vol $3
	note fs4 $04
	vol $6
	note fs4 $07
	rest $03
	vol $3
	note fs4 $04
	vol $6
	note d4  $07
	rest $03
	vol $3
	note d4  $04
	vol $6
	note a4  $07
	rest $03
	vol $3
	note a4  $04
	vol $6
	note g4  $07
	rest $03
	vol $3
	note g4  $04
	vol $6
	note g4  $03
	vol $3
	note g4  $04
	vol $6
	note g4  $03
	vol $3
	note g4  $04
	vol $6
	note c4  $07
	note e4  $07
	note g4  $07
	vol $3
	note g4  $07
	vol $6
	note ds4 $07
	rest $03
	vol $3
	note ds4 $04
	vol $6
	note ds4 $03
	vol $3
	note ds4 $04
	vol $6
	note ds4 $03
	vol $3
	note ds4 $04
	vol $6
	note g4  $07
	note e4  $07
	note b3  $07
	vol $3
	note b3  $07
	vol $6
	note fs4 $0e
	vol $3
	note fs4 $07
	rest $07
	vol $6
	note fs4 $07
	note f4  $07
	note e4  $07
	note ds4 $07
	note d4  $07
	vol $3
	note d4  $07
	rest $0e
	vol $6
	note d4  $11
	vol $3
	note d4  $07
	rest $04
	goto musicf294f
	cmdff

musRalphChannel4:
	rest $70
musicf2b0e:
	duty $0e
	note ds2 $07
	rest $0e
	note ds2 $07
	note as2 $07
	rest $07
	note ds2 $07
	rest $07
	note d2  $07
	rest $0e
	note fs2 $07
	note a2  $07
	rest $07
	note d2  $07
	rest $07
	note ds2 $07
	rest $0e
	note ds2 $07
	note as2 $07
	rest $07
	note ds2 $07
	rest $07
	note d2  $07
	rest $0e
	note fs2 $07
	note a2  $07
	rest $07
	note d2  $07
	rest $07
	note cs2 $0e
	rest $07
	note cs2 $07
	note gs2 $07
	rest $07
	note cs2 $07
	rest $07
	note c2  $0e
	rest $07
	note c2  $07
	note g2  $07
	rest $07
	note c2  $07
	rest $07
	note gs2 $07
	rest $07
	note g2  $07
	rest $07
	note fs2 $07
	rest $07
	note f2  $07
	rest $23
	note as1 $15
	note c2  $03
	note d2  $04
	note ds2 $0e
	rest $07
	note ds2 $07
	note as2 $0e
	rest $07
	note as2 $07
	note d2  $0e
	rest $07
	note fs2 $07
	note a2  $0e
	rest $07
	note a2  $07
	note ds2 $0e
	rest $07
	note ds2 $07
	note as2 $0e
	rest $07
	note ds2 $07
	note b2  $0e
	rest $07
	note gs2 $07
	note e2  $0e
	rest $07
	note gs2 $07
	note c3  $0e
	rest $07
	note c3  $07
	note fs2 $07
	rest $07
	note b2  $07
	note fs2 $07
	note b2  $0e
	rest $07
	note b2  $07
	note f2  $07
	rest $07
	note as2 $07
	note f2  $07
	note b1  $0e
	rest $0e
	note b1  $07
	note c2  $07
	note cs2 $07
	note d2  $07
	note ds2 $07
	rest $15
	note as1 $15
	note c2  $03
	note d2  $04
	goto musicf2b0e
	cmdff

musRalphChannel6:
	rest $69
	vol $6
	note $26 $03
	vol $5
	note $26 $04
musicf2be8:
	vol $6
	note $24 $07
	vol $2
	note $2a $07
	note $2e $07
	rest $07
	vol $6
	note $26 $07
	vol $2
	note $2a $07
	note $2e $07
	rest $07
	vol $6
	note $24 $07
	vol $2
	note $2a $07
	note $2e $07
	rest $07
	vol $6
	note $26 $07
	vol $2
	note $2a $07
	note $2e $07
	rest $07
	vol $6
	note $24 $07
	vol $2
	note $2a $07
	note $2e $07
	rest $07
	vol $6
	note $26 $07
	vol $2
	note $2a $07
	note $2e $07
	rest $07
	vol $6
	note $24 $07
	vol $2
	note $2a $07
	note $2e $07
	rest $07
	vol $6
	note $26 $07
	vol $2
	note $2a $07
	note $2e $07
	rest $07
	vol $6
	note $24 $07
	vol $2
	note $2a $07
	note $2e $07
	rest $07
	vol $6
	note $26 $07
	vol $2
	note $2a $07
	note $2e $07
	rest $07
	vol $6
	note $24 $07
	vol $2
	note $2a $07
	note $2e $07
	rest $07
	vol $6
	note $26 $07
	vol $2
	note $2a $07
	note $2e $07
	rest $07
	note $2a $07
	rest $07
	note $2a $07
	rest $07
	note $2a $07
	rest $07
	note $2a $07
	rest $07
	note $2e $07
	rest $15
	vol $6
	note $24 $07
	rest $0e
	note $26 $03
	vol $5
	note $26 $04
	vol $6
	note $24 $07
	vol $2
	note $2a $07
	note $2a $07
	note $2e $07
	vol $6
	note $26 $07
	vol $2
	note $2a $07
	note $2a $07
	note $2e $07
	vol $6
	note $24 $07
	vol $2
	note $2a $07
	note $2a $07
	note $2e $07
	vol $6
	note $26 $07
	vol $2
	note $2a $07
	note $2a $07
	note $2e $07
	vol $6
	note $24 $07
	vol $2
	note $2a $07
	note $2a $07
	note $2e $07
	vol $6
	note $26 $07
	vol $2
	note $2a $07
	note $2a $07
	note $2e $07
	vol $6
	note $24 $07
	vol $2
	note $2a $07
	note $2a $07
	note $2e $07
	vol $6
	note $26 $07
	vol $2
	note $2a $07
	note $2a $07
	note $2e $07
	vol $6
	note $24 $07
	vol $2
	note $2a $07
	note $2a $07
	note $2e $07
	vol $6
	note $26 $07
	vol $2
	note $2a $07
	note $2a $07
	note $2e $07
	vol $6
	note $24 $07
	vol $2
	note $2a $07
	note $2a $07
	note $2e $07
	vol $6
	note $26 $07
	vol $2
	note $2a $07
	note $2a $07
	note $2e $07
	note $2e $07
	rest $07
	note $2a $07
	note $2a $07
	note $2a $07
	note $2a $07
	note $2a $07
	note $2a $07
	note $2a $07
	rest $07
	vol $6
	note $26 $04
	vol $5
	note $26 $05
	vol $4
	note $26 $05
	vol $6
	note $26 $07
	rest $07
	vol $2
	note $2a $07
	note $2a $07
	goto musicf2be8
	cmdff
