musSymmetryPresentStart:

musSymmetryPresentChannel1:
	vibrato $00
	env $0 $00
	cmdf2
musicef9db:
	vol $0
	note gs3 $ff
	note gs3 $21
	duty $01
	vol $6
	note e5  $12
	note fs5 $09
	note gs5 $09
	note a5  $12
	note gs5 $09
	note fs5 $09
	note e5  $24
	vol $6
	note fs5 $09
	rest $04
	vol $3
	note fs5 $05
	vol $6
	note cs5 $09
	rest $04
	vol $3
	note cs5 $05
	vol $6
	note fs4 $12
	vol $6
	note b3  $09
	note d4  $09
	note e4  $1b
	vol $3
	note e4  $09
	vol $6
	note fs4 $06
	rest $03
	note fs4 $09
	rest $04
	vol $3
	note fs4 $05
	vol $6
	note fs4 $09
	note b3  $09
	rest $04
	vol $3
	note b3  $05
	vol $6
	note d4  $09
	rest $04
	vol $3
	note d4  $05
	vol $6
	note b4  $24
	note cs5 $09
	rest $04
	vol $3
	note cs5 $05
	vol $5
	note e5  $09
	rest $04
	vol $3
	note e5  $05
	vol $6
	note cs5 $1b
	vol $5
	note e5  $09
	vol $7
	note fs5 $09
	rest $04
	vol $3
	note fs5 $09
	rest $05
	vol $2
	note fs5 $09
	rest $12
	duty $02
	vol $6
	note c5  $03
	rest $03
	vol $5
	note c5  $03
	rest $03
	vol $3
	note c5  $03
	rest $03
	vol $6
	note b5  $03
	rest $03
	vol $5
	note c6  $03
	rest $03
	vol $4
	note c6  $03
	rest $03
	vol $4
	note c6  $03
	rest $21
	vol $6
	note c5  $03
	rest $03
	vol $5
	note c5  $03
	rest $03
	vol $3
	note c5  $03
	rest $03
	vol $6
	note b5  $03
	rest $03
	vol $5
	note c6  $03
	rest $03
	vol $4
	note c6  $03
	rest $03
	vol $3
	note c6  $03
	rest $21
	vol $6
	note f5  $03
	rest $03
	vol $5
	note f5  $03
	rest $03
	vol $3
	note f5  $03
	rest $03
	vol $6
	note e6  $03
	rest $03
	vol $5
	note f6  $03
	rest $03
	vol $4
	note f6  $03
	rest $03
	vol $4
	note f6  $03
	rest $21
	vol $6
	note f5  $03
	rest $03
	vol $5
	note f5  $03
	rest $03
	vol $3
	note f5  $03
	rest $03
	vol $6
	note e6  $03
	rest $03
	vol $5
	note f6  $03
	rest $03
	vol $4
	note f6  $03
	rest $03
	vol $3
	note f6  $03
	rest $b1
	vol $6
	note g5  $03
	rest $03
	vol $5
	note g5  $03
	rest $03
	vol $3
	note g5  $03
	rest $03
	vol $6
	note fs6 $03
	rest $03
	vol $5
	note g6  $03
	rest $03
	vol $4
	note g6  $03
	rest $03
	vol $4
	note g6  $03
	rest $21
	vol $6
	note c6  $03
	rest $03
	vol $5
	note c6  $03
	rest $03
	vol $3
	note c6  $03
	rest $03
	vol $6
	note b6  $03
	rest $03
	vol $5
	note c7  $03
	rest $03
	vol $4
	note c7  $03
	rest $03
	vol $3
	note c7  $03
	rest $0f
	duty $01
	goto musicef9db
	cmdff

musSymmetryPresentChannel0:
	vibrato $00
	env $0 $00
	cmdf2
	duty $02
musicefb34:
	vol $0
	note gs3 $12
	vol $6
	note c5  $03
	rest $03
	vol $5
	note c5  $03
	rest $03
	vol $3
	note c5  $03
	rest $03
	vol $6
	note b5  $03
	rest $03
	vol $5
	note c6  $03
	rest $03
	vol $4
	note c6  $03
	rest $03
	vol $4
	note c6  $03
	rest $21
	vol $6
	note c5  $03
	rest $03
	vol $5
	note c5  $03
	rest $03
	vol $3
	note c5  $03
	rest $03
	vol $6
	note b5  $03
	rest $03
	vol $5
	note c6  $03
	rest $03
	vol $4
	note c6  $03
	rest $03
	vol $3
	note c6  $03
	rest $0f
	duty $01
	vol $4
	note c3  $12
	note ds3 $09
	note e3  $09
	note f3  $12
	note a3  $12
	note b3  $09
	rest $04
	vol $2
	note b3  $05
	vol $4
	note g3  $09
	note d3  $09
	note g3  $11
	rest $01
	duty $02
	note c5  $03
	rest $03
	vol $3
	note c5  $03
	rest $03
	vol $2
	note c5  $03
	rest $15
	vol $6
	note b4  $03
	rest $03
	vol $5
	note b4  $03
	rest $03
	vol $3
	note b4  $03
	rest $03
	vol $6
	note a5  $03
	rest $03
	vol $5
	note b5  $03
	rest $03
	vol $4
	note b5  $03
	rest $03
	vol $4
	note b5  $03
	rest $21
	vol $6
	note b4  $03
	rest $03
	vol $5
	note b4  $03
	rest $03
	vol $3
	note b4  $03
	rest $03
	vol $6
	note a5  $03
	rest $03
	vol $5
	note b5  $03
	rest $03
	vol $4
	note b5  $03
	rest $03
	vol $3
	note b5  $03
	rest $0f
	duty $01
	vol $4
	note b2  $12
	note d3  $12
	note e3  $12
	note g3  $12
	note a3  $12
	note fs3 $09
	note cs3 $09
	note fs3 $12
	duty $02
	note b4  $03
	rest $03
	vol $3
	note b4  $03
	rest $03
	vol $2
	note b4  $03
	rest $15
	vol $6
	note cs5 $03
	rest $03
	vol $5
	note cs5 $03
	rest $03
	vol $3
	note cs5 $03
	rest $03
	vol $6
	note c6  $03
	rest $03
	vol $5
	note cs6 $03
	rest $03
	vol $4
	note cs6 $03
	rest $03
	vol $4
	note cs6 $03
	rest $21
	vol $6
	note cs5 $03
	rest $03
	vol $5
	note cs5 $03
	rest $03
	vol $3
	note cs5 $03
	rest $03
	vol $6
	note c6  $03
	rest $03
	vol $5
	note cs6 $03
	rest $03
	vol $4
	note cs6 $03
	rest $03
	vol $3
	note cs6 $03
	rest $0f
	duty $01
	vol $4
	note c3  $12
	note ds3 $12
	note f3  $12
	note g3  $12
	note a3  $12
	note e3  $09
	note f3  $09
	note e3  $12
	duty $02
	note c5  $03
	rest $03
	vol $3
	note c5  $03
	rest $03
	vol $2
	note c5  $03
	rest $03
	duty $01
	vol $7
	note f3  $09
	note g3  $09
	note a3  $09
	note as3 $09
	note c4  $09
	rest $04
	vol $4
	note c4  $09
	rest $05
	vol $2
	note c4  $09
	vol $4
	note f5  $09
	note g5  $09
	note a5  $09
	note as5 $09
	note c6  $09
	rest $04
	vol $2
	note c6  $09
	rest $05
	vol $1
	note c6  $09
	rest $12
	duty $02
	vol $6
	note c5  $03
	rest $03
	vol $5
	note c5  $03
	rest $03
	vol $3
	note c5  $03
	rest $03
	vol $6
	note b5  $03
	rest $03
	vol $5
	note c6  $03
	rest $03
	vol $4
	note c6  $03
	rest $03
	vol $4
	note c6  $03
	rest $21
	vol $6
	note c5  $03
	rest $03
	vol $5
	note c5  $03
	rest $03
	vol $3
	note c5  $03
	rest $03
	vol $6
	note b5  $03
	rest $03
	vol $5
	note c6  $03
	rest $03
	vol $4
	note c6  $03
	rest $03
	vol $3
	note c6  $03
	rest $0f
	duty $01
	vol $4
	note c3  $12
	note ds3 $12
	note f3  $12
	note gs3 $12
	note as3 $12
	note g4  $09
	note f4  $09
	note g4  $12
	duty $02
	note c5  $03
	rest $03
	vol $3
	note c5  $03
	rest $03
	vol $2
	note c5  $03
	rest $03
	goto musicefb34
	cmdff

musSymmetryPresentChannel4:
	cmdf2
musicefd1a:
	duty $0e
	note f3  $09
	duty $0f
	note f3  $09
	rest $12
	duty $0e
	note as3 $12
	note c4  $09
	duty $0f
	note c4  $09
	duty $0e
	note c3  $09
	duty $0f
	note c3  $09
	duty $0e
	note ds4 $09
	note d4  $09
	note c4  $09
	duty $0f
	note c4  $09
	rest $12
	duty $0e
	note f3  $12
	note as3 $12
	note c4  $12
	note ds4 $12
	note d4  $12
	note as3 $09
	note g3  $09
	note c4  $12
	duty $0f
	note c4  $12
	duty $0e
	note e3  $09
	duty $0f
	note e3  $09
	rest $12
	duty $0e
	note a3  $12
	note b3  $09
	duty $0f
	note b3  $09
	duty $0e
	note b2  $09
	duty $0f
	note b2  $09
	duty $0e
	note d4  $09
	note cs4 $09
	note b3  $09
	duty $0f
	note b3  $09
	rest $12
	duty $0e
	note e3  $12
	note a3  $12
	note b3  $12
	note d4  $12
	note cs4 $12
	note a3  $09
	note fs3 $09
	note b3  $12
	duty $0f
	note b3  $12
	duty $0e
	note fs2 $12
	duty $0f
	note fs2 $12
	duty $0e
	note b2  $09
	duty $0f
	note b2  $09
	duty $0e
	note cs3 $09
	duty $0f
	note cs3 $09
	duty $0e
	note cs2 $09
	duty $0f
	note cs2 $09
	rest $12
	duty $0e
	note cs3 $09
	duty $0f
	note cs3 $09
	rest $12
	duty $0e
	note a5  $1b
	note g5  $09
	note c5  $09
	duty $0f
	note c5  $09
	duty $0e
	note ds5 $09
	duty $0f
	note ds5 $09
	duty $0e
	note f5  $12
	note g5  $09
	note a5  $09
	note g5  $09
	duty $0f
	note g5  $09
	duty $0e
	note a4  $09
	note g4  $09
	note a3  $1b
	note g3  $09
	note f3  $09
	duty $0f
	note f3  $09
	duty $0e
	note c3  $09
	duty $0f
	note c3  $09
	duty $0e
	note ds3 $09
	duty $0f
	note ds3 $09
	duty $0e
	note ds3 $09
	duty $0f
	note ds3 $09
	duty $0e
	note f3  $09
	note c3  $09
	note c4  $09
	note a3  $09
	note f3  $09
	duty $0f
	note f3  $09
	rest $12
	duty $0e
	note as3 $12
	note c4  $09
	duty $0f
	note c4  $09
	duty $0e
	note c3  $09
	duty $0f
	note c3  $09
	duty $0e
	note ds4 $09
	note d4  $09
	note c4  $09
	duty $0f
	note c4  $09
	rest $12
	duty $0e
	note f3  $12
	note as3 $12
	note c4  $12
	note ds4 $12
	note d4  $12
	note as3 $09
	note g3  $09
	note c4  $12
	duty $0f
	note c4  $12
	goto musicefd1a
	cmdff

.define musSymmetryPresentChannel6 MUSIC_CHANNEL_FALLBACK EXPORT
