musUnderwaterStart:
musUnderwaterChannel1:
	vibrato $e1
	env $0 $00
	duty $02
musice776c:
	vol $0
	note gs3 $18
	vol $6
	note g5  $0c
	note a5  $0c
	note as5 $0c
	note c6  $0c
	note a5  $06
	rest $03
	vol $4
	note a5  $06
	rest $03
	vol $2
	note a5  $06
	vol $6
	note fs5 $18
	vibrato $01
	vol $4
	note fs5 $0c
	rest $06
	vibrato $e1
	vol $6
	note c5  $06
	note d5  $06
	rest $04
	vol $4
	note d5  $06
	rest $02
	vol $6
	note a5  $03
	rest $03
	note a5  $48
	note d6  $04
	vol $6
	note d7  $04
	rest $02
	vol $5
	note d7  $04
	rest $02
	vol $4
	note d7  $04
	rest $34
	vol $6
	note g5  $0c
	note a5  $0c
	note as5 $0c
	note c6  $0c
	note a5  $06
	rest $03
	vol $4
	note a5  $06
	rest $03
	vol $2
	note a5  $06
	vol $6
	note fs5 $18
	vibrato $01
	vol $4
	note fs5 $0c
	rest $06
	vibrato $e1
	vol $6
	note c5  $06
	vol $6
	note d5  $06
	rest $0c
	note d6  $03
	rest $03
	vol $6
	note d6  $30
	rest $18
	vol $7
	note c7  $04
	rest $02
	vol $6
	note d7  $04
	rest $02
	vol $5
	note d7  $04
	rest $02
	vol $4
	note d7  $04
	rest $02
	vol $6
	note c6  $04
	rest $02
	vol $4
	note c6  $04
	rest $02
	vol $2
	note c6  $04
	vol $6
	note c6  $08
	note d6  $20
	vibrato $01
	vol $4
	note d6  $0c
	rest $04
	vibrato $e1
	vol $6
	note c6  $04
	rest $02
	vol $4
	note c6  $04
	rest $02
	vol $2
	note c6  $04
	vol $6
	note c6  $08
	note d6  $20
	vibrato $01
	vol $4
	note d6  $0c
	rest $04
	vibrato $e1
	vol $6
	note c6  $04
	rest $02
	vol $4
	note c6  $04
	rest $02
	vol $2
	note c6  $04
	vol $6
	note c6  $08
	note e6  $08
	note d6  $08
	note c6  $08
	note d6  $54
	vibrato $01
	vol $4
	note d6  $0c
	vibrato $e1
	vol $6
	note c6  $04
	rest $02
	vol $4
	note c6  $04
	rest $02
	vol $2
	note c6  $04
	vol $6
	note c6  $08
	note d6  $28
	vibrato $01
	vol $4
	note d6  $08
	vibrato $e1
	vol $6
	note c6  $10
	note a5  $08
	note d6  $28
	vibrato $01
	vol $4
	note d6  $08
	vibrato $e1
	vol $6
	note c6  $08
	note a5  $08
	note c6  $08
	note e6  $08
	note d6  $08
	note c6  $08
	note d6  $3c
	vibrato $01
	vol $4
	note d6  $0c
	vibrato $e1
	vol $6
	note a6  $18
	note g6  $18
	goto musice776c
	cmdff

musUnderwaterChannel0:
	vibrato $00
	env $0 $00
	duty $02
musice789b:
	vol $9
	note fs3 $18
	note a3  $06
	rest $03
	vol $5
	note a3  $06
	rest $03
	vol $3
	note a3  $06
	vol $9
	note a3  $06
	rest $03
	vol $5
	note a3  $06
	rest $03
	vol $3
	note a3  $06
	vol $9
	note fs3 $18
	note a3  $06
	rest $03
	vol $5
	note a3  $06
	rest $03
	vol $3
	note a3  $06
	vol $9
	note a3  $06
	rest $03
	vol $5
	note a3  $06
	rest $03
	vol $3
	note a3  $06
	vol $9
	note fs3 $18
	note a3  $06
	rest $03
	vol $5
	note a3  $06
	rest $03
	vol $3
	note a3  $06
	vol $9
	note a3  $06
	rest $03
	vol $5
	note a3  $06
	rest $03
	vol $3
	note a3  $06
	vol $9
	note fs3 $18
	note a3  $06
	rest $03
	vol $5
	note a3  $06
	rest $03
	vol $3
	note a3  $06
	vol $9
	note a3  $06
	rest $03
	vol $5
	note a3  $06
	rest $03
	vol $3
	note a3  $06
	vol $9
	note fs3 $18
	note a3  $06
	rest $03
	vol $5
	note a3  $06
	rest $03
	vol $3
	note a3  $06
	vol $9
	note a3  $06
	rest $03
	vol $5
	note a3  $06
	rest $03
	vol $3
	note a3  $06
	vol $9
	note fs3 $18
	note a3  $06
	rest $03
	vol $5
	note a3  $06
	rest $03
	vol $3
	note a3  $06
	vol $9
	note a3  $06
	rest $03
	vol $5
	note a3  $06
	rest $03
	vol $3
	note a3  $06
	vol $9
	note fs3 $18
	note a3  $06
	rest $03
	vol $5
	note a3  $06
	rest $03
	vol $3
	note a3  $06
	vol $9
	note a3  $06
	rest $03
	vol $5
	note a3  $06
	rest $03
	vol $3
	note a3  $06
	vol $9
	note fs3 $18
	note a3  $06
	rest $03
	vol $5
	note a3  $06
	rest $03
	vol $3
	note a3  $06
	vol $6
	note g5  $04
	rest $02
	vol $4
	note g5  $04
	rest $02
	vol $2
	note g5  $04
	vol $6
	note g5  $08
	note a5  $12
	vol $4
	note a5  $06
	vol $6
	note a5  $04
	rest $02
	vol $4
	note a5  $02
	vol $6
	note e5  $04
	rest $02
	vol $4
	note e5  $02
	vol $6
	note a5  $04
	rest $02
	vol $4
	note a5  $02
	vol $6
	note g5  $04
	rest $02
	vol $4
	note g5  $04
	rest $02
	vol $2
	note g5  $04
	vol $6
	note g5  $08
	note a5  $12
	vol $4
	note a5  $06
	vol $6
	note e5  $04
	rest $02
	vol $4
	note e5  $02
	vol $6
	note g5  $04
	rest $02
	vol $4
	note g5  $02
	vol $6
	note a5  $04
	rest $02
	vol $4
	note a5  $02
	vol $6
	note g5  $04
	rest $02
	vol $4
	note g5  $04
	rest $02
	vol $2
	note g5  $04
	vol $6
	note g5  $08
	note b5  $08
	note a5  $08
	note g5  $08
	note a5  $18
	note fs3 $0c
	note g3  $0c
	note gs3 $0c
	note a3  $0c
	note as3 $0c
	note b3  $0c
	note g5  $04
	rest $02
	vol $4
	note g5  $04
	rest $02
	vol $2
	note g5  $04
	vol $6
	note g5  $08
	note a5  $18
	note e5  $06
	rest $03
	vol $4
	note e5  $06
	rest $01
	vol $6
	note e5  $08
	vol $6
	note g5  $10
	note e5  $08
	note a5  $18
	vol $6
	note e5  $08
	note d5  $08
	note e5  $08
	vol $6
	note g5  $08
	note e5  $08
	note g5  $08
	note b5  $08
	note a5  $08
	note g5  $08
	note a5  $18
	note d5  $08
	note a4  $08
	note d5  $08
	note a5  $08
	note e5  $08
	note a5  $08
	note e6  $08
	note a5  $08
	note e6  $08
	note d6  $08
	note a5  $08
	note d6  $08
	goto musice789b
	cmdff

musUnderwaterChannel4:
musice7a42:
	duty $0e
	note d2  $18
	duty $0f
	note d2  $06
	rest $2a
	duty $0e
	note c2  $18
	duty $0f
	note c2  $06
	rest $2a
	duty $0e
	note d2  $18
	duty $0f
	note d2  $06
	rest $2a
	duty $0e
	note c2  $18
	duty $0f
	note c2  $06
	rest $2a
	duty $0e
	note d2  $18
	duty $0f
	note d2  $06
	rest $2a
	duty $0e
	note c2  $18
	duty $0f
	note c2  $06
	rest $2a
	duty $0e
	note d2  $18
	duty $0f
	note d2  $06
	rest $2a
	duty $0e
	note c2  $18
	duty $0f
	note c2  $06
	rest $2a
	duty $0e
	note a1  $0c
	duty $0f
	note a1  $0c
	duty $0e
	note a2  $18
	duty $0f
	note a2  $18
	duty $0e
	note a1  $0c
	duty $0f
	note a1  $0c
	duty $0e
	note a2  $18
	duty $0f
	note a2  $18
	duty $0e
	note a1  $0c
	duty $0f
	note a1  $0c
	duty $0e
	note a2  $18
	duty $0f
	note a2  $18
	duty $0e
	note a1  $0c
	duty $0f
	note a1  $0c
	duty $0e
	note a2  $18
	duty $0f
	note a2  $18
	duty $0e
	note a1  $0c
	rest $04
	note a1  $08
	note a2  $18
	note g2  $08
	note e2  $08
	note g2  $08
	note a1  $0c
	rest $04
	note a1  $08
	note a2  $0c
	rest $04
	note a2  $08
	note e2  $08
	note g2  $08
	note e2  $08
	note a1  $0c
	rest $04
	note a1  $08
	note a2  $0c
	rest $04
	note a2  $08
	note g2  $08
	note e2  $08
	note g2  $08
	note a1  $08
	note as1 $08
	note a1  $08
	note e2  $08
	note a2  $08
	note e2  $08
	note a2  $08
	note e3  $08
	note a2  $08
	goto musice7a42
	cmdff

musUnderwaterChannel6:
musice7b1c:
	vol $6
	note $24 $03
	rest $15
	note $26 $03
	rest $15
	note $26 $03
	rest $15
	note $24 $03
	rest $15
	note $26 $03
	rest $15
	note $26 $03
	rest $15
	note $24 $03
	rest $15
	note $26 $03
	rest $15
	note $26 $03
	rest $15
	note $24 $03
	rest $15
	note $26 $03
	rest $09
	note $26 $03
	rest $09
	note $26 $03
	rest $15
	note $24 $03
	rest $15
	note $26 $03
	rest $15
	note $26 $03
	rest $15
	note $24 $03
	rest $15
	note $26 $03
	rest $15
	note $26 $03
	rest $15
	note $24 $03
	rest $15
	note $26 $03
	rest $15
	note $26 $03
	rest $15
	note $24 $03
	rest $15
	note $26 $03
	rest $09
	note $26 $03
	rest $09
	note $26 $03
	rest $15
	note $24 $03
	rest $0d
	note $24 $03
	rest $05
	note $26 $03
	rest $15
	note $26 $03
	rest $05
	note $26 $03
	rest $05
	note $26 $03
	rest $05
	note $24 $03
	rest $0d
	note $24 $03
	rest $05
	note $26 $03
	rest $15
	note $26 $03
	rest $05
	note $26 $03
	rest $05
	note $26 $03
	rest $05
	note $24 $03
	rest $0d
	note $24 $03
	rest $05
	note $26 $03
	rest $15
	note $26 $03
	rest $05
	note $26 $03
	rest $05
	note $26 $03
	rest $05
	note $26 $03
	rest $0d
	note $26 $03
	rest $05
	note $26 $03
	rest $0d
	note $26 $03
	rest $05
	note $26 $03
	rest $05
	note $26 $03
	rest $05
	note $26 $03
	rest $05
	note $26 $03
	rest $0d
	note $26 $03
	rest $05
	note $26 $03
	rest $0d
	note $26 $03
	rest $05
	note $26 $03
	rest $05
	note $26 $03
	rest $05
	note $26 $03
	rest $05
	note $26 $03
	rest $0d
	note $26 $03
	rest $05
	note $26 $03
	rest $0d
	note $26 $03
	rest $05
	note $26 $03
	rest $05
	note $26 $03
	rest $05
	note $26 $03
	rest $05
	note $26 $03
	rest $0d
	note $26 $03
	rest $05
	note $26 $03
	rest $0d
	note $26 $03
	rest $05
	note $26 $03
	rest $05
	note $26 $03
	rest $05
	note $26 $03
	rest $05
	note $26 $03
	rest $05
	note $26 $03
	rest $05
	note $26 $03
	rest $05
	note $26 $03
	rest $05
	note $26 $03
	rest $05
	note $26 $03
	rest $05
	note $26 $03
	rest $05
	note $26 $03
	rest $05
	note $26 $03
	rest $05
	goto musice7b1c
	cmdff