musZoraVillageStart:

musZoraVillageChannel1:
	vibrato $00
	env $0 $00
	duty $02
musicfbb21:
	vol $6
	note a5  $0b
	vol $3
	note a5  $0b
	vol $6
	note fs5 $0b
	vol $3
	note fs5 $0b
	vol $6
	note a5  $0b
	vol $3
	note a5  $0b
	vol $6
	note fs5 $0b
	vol $3
	note fs5 $0b
	vol $6
	note b5  $0b
	rest $0b
	note gs5 $0b
	rest $03
	vol $3
	note gs5 $05
	rest $06
	vol $2
	note gs5 $05
	rest $06
	vol $1
	note gs5 $05
	rest $19
	vol $6
	note g5  $0b
	vol $3
	note e5  $0b
	vol $6
	note e5  $0b
	vol $3
	note e5  $0b
	vol $6
	note a5  $0b
	vol $3
	note a5  $0b
	vol $6
	note fs5 $0b
	vol $4
	note fs5 $05
	rest $06
	vol $3
	note fs5 $05
	rest $06
	vol $3
	note fs5 $05
	rest $48
	vol $6
	note f5  $0b
	vol $3
	note f5  $0b
	vol $6
	note d5  $0b
	vol $3
	note d5  $0b
	vol $6
	note f5  $0b
	vol $3
	note f5  $0b
	vol $6
	note d5  $0b
	vol $3
	note d5  $0b
	rest $0b
	vol $6
	note e5  $0b
	note f5  $0b
	note g5  $0b
	rest $07
	vol $3
	note g5  $05
	rest $05
	vol $3
	note g5  $06
	rest $05
	vol $1
	note g5  $06
	rest $0a
	vol $6
	note b5  $07
	rest $04
	vol $3
	note b5  $07
	rest $04
	vol $6
	note a5  $07
	rest $04
	vol $3
	note a5  $07
	rest $04
	vol $6
	note b5  $07
	rest $04
	vol $3
	note b5  $07
	rest $04
	vol $6
	note a5  $07
	rest $04
	vol $3
	note a5  $07
	rest $04
	vol $6
	note gs5 $05
	rest $09
	vol $4
	note gs5 $03
	rest $08
	vol $3
	note gs5 $03
	rest $08
	vol $2
	note gs5 $03
	rest $05
	vol $6
	note g5  $05
	rest $09
	vol $3
	note g5  $03
	rest $08
	vol $2
	note g5  $03
	rest $08
	vol $1
	note g5  $03
	rest $05
	vol $7
	note b5  $0b
	rest $05
	vol $3
	note b5  $06
	vol $6
	note d6  $0b
	rest $05
	vol $3
	note d6  $06
	vol $6
	note e6  $0b
	rest $05
	vol $3
	note e6  $06
	vol $6
	note cs6 $0b
	rest $05
	vol $3
	note cs6 $06
	vol $6
	note e5  $07
	rest $07
	vol $3
	note e5  $01
	rest $0a
	vol $2
	note e5  $05
	rest $0e
	vol $6
	note cs5 $07
	rest $07
	vol $3
	note cs5 $01
	rest $1d
	vol $6
	note a5  $0b
	rest $05
	vol $3
	note a5  $06
	vol $6
	note b5  $0b
	rest $05
	vol $3
	note b5  $06
	vol $6
	note d6  $0b
	rest $05
	vol $3
	note d6  $06
	vol $6
	note cs6 $0b
	rest $05
	vol $3
	note cs6 $06
	vol $6
	note b5  $0b
	rest $03
	vol $2
	note b5  $05
	rest $06
	vol $1
	note b5  $05
	rest $3a
	vol $6
	note g5  $0b
	rest $05
	vol $3
	note g5  $06
	vol $6
	note a5  $0b
	rest $05
	vol $3
	note a5  $06
	vol $6
	note b5  $0b
	rest $05
	vol $3
	note b5  $06
	rest $05
	vol $2
	note b5  $06
	rest $0b
	vol $6
	note a5  $0b
	rest $05
	vol $3
	note a5  $06
	vol $6
	note e5  $0b
	rest $05
	vol $3
	note e5  $06
	vol $6
	note d6  $0b
	rest $05
	vol $3
	note d6  $06
	rest $0b
	vol $6
	note cs6 $05
	note c6  $06
	vol $6
	note b5  $6e
	rest $42
	goto musicfbb21
	cmdff

musZoraVillageChannel0:
	vibrato $00
	env $0 $00
	duty $02
musicfbcac:
	rest $0b
	vol $6
	note d5  $0b
	rest $05
	vol $3
	note d5  $06
	vol $6
	note d5  $0b
	rest $0b
	note d5  $0b
	rest $05
	vol $3
	note d5  $06
	vol $6
	note d5  $0b
	rest $0b
	note d5  $0b
	rest $05
	vol $4
	note d5  $06
	rest $03
	vol $3
	note d5  $05
	rest $06
	vol $2
	note d5  $05
	rest $2f
	vol $6
	note c5  $0b
	rest $07
	vol $3
	note c5  $06
	vol $6
	note c5  $0b
	rest $05
	vol $3
	note c5  $04
	vol $6
	note d5  $0b
	rest $05
	vol $3
	note d5  $06
	vol $6
	note d5  $0b
	rest $05
	vol $3
	note d5  $06
	rest $05
	vol $3
	note d5  $06
	rest $05
	vol $2
	note d5  $06
	rest $42
	vol $6
	note c5  $0b
	rest $07
	vol $3
	note c5  $06
	vol $6
	note c5  $0b
	rest $03
	vol $3
	note c5  $06
	vol $6
	note c5  $0b
	rest $05
	vol $3
	note c5  $06
	vol $6
	note c5  $0b
	rest $05
	vol $4
	note c5  $06
	rest $05
	vol $3
	note c5  $06
	rest $05
	vol $2
	note c5  $06
	rest $0b
	vol $6
	note d6  $0b
	note e6  $0b
	note f6  $0b
	note g6  $0b
	rest $03
	vol $4
	note g6  $05
	rest $06
	vol $2
	note g6  $05
	rest $19
	vol $6
	note g5  $0b
	rest $03
	vol $4
	note g5  $05
	rest $19
	vol $6
	note c6  $05
	rest $06
	note c6  $05
	rest $06
	vol $4
	note c6  $05
	rest $06
	vol $2
	note c6  $05
	rest $06
	vol $6
	note b5  $05
	rest $06
	note b5  $05
	rest $06
	vol $4
	note b5  $05
	rest $06
	vol $2
	note b5  $05
	rest $11
	vol $6
	note b4  $0b
	rest $03
	vol $3
	note b4  $05
	rest $03
	vol $6
	note d5  $0b
	rest $03
	vol $3
	note d5  $05
	rest $03
	vol $6
	note e5  $0b
	rest $03
	vol $3
	note e5  $05
	rest $03
	vol $6
	note cs5 $0b
	rest $03
	vol $3
	note cs5 $05
	rest $03
	vol $6
	note b6  $03
	rest $03
	vol $2
	note b6  $05
	vol $6
	note g6  $07
	rest $04
	vol $3
	note g6  $05
	rest $11
	vol $6
	note b6  $03
	rest $03
	vol $3
	note b6  $05
	vol $6
	note g6  $07
	rest $04
	vol $3
	note g6  $05
	rest $11
	vol $6
	note fs5 $0b
	rest $03
	vol $3
	note fs5 $05
	rest $03
	vol $6
	note e5  $0b
	rest $05
	vol $3
	note e5  $06
	vol $6
	note g5  $0b
	rest $05
	vol $3
	note g5  $06
	vol $6
	note a5  $0b
	rest $03
	vol $3
	note a5  $05
	rest $03
	vol $6
	note fs5 $03
	rest $03
	vol $6
	note fs5 $05
	vol $6
	note d5  $03
	rest $03
	vol $6
	note d5  $05
	vol $5
	note fs5 $05
	rest $01
	vol $3
	note fs5 $05
	vol $6
	note cs5 $03
	rest $03
	vol $3
	note cs5 $05
	vol $7
	note fs5 $05
	rest $01
	vol $3
	note fs5 $05
	vol $6
	note b4  $03
	rest $03
	vol $3
	note b4  $05
	vol $6
	note fs5 $05
	rest $01
	vol $3
	note fs5 $05
	rest $0b
	vol $6
	note e5  $0b
	note fs5 $03
	rest $03
	vol $3
	note fs5 $05
	vol $6
	note e5  $03
	rest $03
	vol $3
	note e5  $05
	vol $4
	note e5  $0b
	vol $6
	note fs5 $0b
	note e5  $0b
	note b4  $0b
	rest $05
	vol $3
	note b4  $06
	vol $6
	note d5  $0b
	rest $05
	vol $3
	note d5  $06
	vol $6
	note a4  $0b
	rest $05
	vol $3
	note a4  $06
	vol $6
	note e5  $07
	vol $4
	note e5  $04
	vol $5
	note a4  $07
	note a4  $04
	rest $07
	vol $2
	note cs5 $03
	rest $01
	vol $7
	note gs4 $05
	rest $06
	vol $3
	note gs4 $05
	rest $06
	vol $6
	note cs5 $05
	rest $06
	vol $3
	note cs5 $05
	rest $06
	vol $7
	note gs5 $05
	rest $06
	vol $3
	note gs5 $05
	rest $06
	vol $7
	note cs5 $05
	rest $06
	vol $3
	note cs5 $05
	rest $06
	vol $7
	note gs5 $05
	rest $06
	vol $3
	note gs5 $05
	rest $06
	vol $6
	note cs6 $05
	rest $06
	vol $3
	note cs6 $05
	rest $06
	vol $6
	note gs6 $05
	rest $06
	vol $3
	note gs6 $05
	rest $06
	vol $7
	note cs6 $05
	rest $06
	vol $3
	note cs6 $05
	rest $06
	goto musicfbcac
	cmdff

.define musZoraVillageChannel4 MUSIC_CHANNEL_FALLBACK EXPORT
.define musZoraVillageChannel6 MUSIC_CHANNEL_FALLBACK EXPORT
