musDisasterStart:

musDisasterChannel1:
	vibrato $e1
	env $0 $00
	duty $02
musicf47e4:
	vol $6
	note d4  $07
	rest $03
	vol $3
	note d4  $04
	vol $6
	note d4  $03
	vol $3
	note d4  $04
	vol $6
	note d4  $03
	vol $3
	note d4  $04
	vol $6
	note f4  $54
	vibrato $01
	env $0 $00
	vol $5
	note f4  $1c
	vol $1
	note f4  $1c
	vibrato $e1
	env $0 $00
	vol $6
	note e4  $2a
	vol $3
	note e4  $0e
	vol $6
	note ds4 $0e
	note a3  $07
	rest $03
	vol $3
	note a3  $04
	note ds4 $0e
	note a3  $07
	rest $03
	vol $1
	note a3  $04
	note ds4 $0e
	note a3  $07
	rest $03
	vol $0
	note a3  $04
	note ds4 $0e
	note a3  $07
	rest $03
	vol $0
	note a3  $04
	vol $6
	note ds4 $0e
	note a4  $07
	rest $03
	vol $3
	note a4  $04
	vol $5
	note ds5 $0e
	note a5  $07
	rest $03
	vol $2
	note a5  $04
	vol $3
	note ds4 $0e
	note a4  $07
	rest $03
	vol $1
	note a4  $04
	vol $2
	note ds5 $0e
	note a5  $07
	rest $03
	vol $1
	note a5  $04
	vol $6
	note f4  $07
	rest $03
	vol $3
	note f4  $04
	vol $6
	note f4  $03
	vol $3
	note f4  $04
	vol $6
	note f4  $03
	vol $3
	note f4  $04
	vol $6
	note gs4 $54
	vibrato $01
	env $0 $00
	vol $4
	note gs4 $38
	vol $2
	note gs4 $1c
	vibrato $e1
	env $0 $00
	vol $6
	note g4  $0e
	note gs4 $07
	note g4  $07
	note fs4 $0e
	note cs4 $07
	rest $03
	vol $3
	note cs4 $04
	note fs4 $0e
	note cs4 $07
	rest $03
	vol $1
	note cs4 $04
	note fs4 $0e
	note cs4 $07
	rest $03
	vol $0
	note cs4 $04
	note fs4 $0e
	note cs4 $07
	rest $03
	vol $0
	note cs4 $04
	vol $6
	note g4  $0e
	note cs4 $07
	rest $03
	vol $3
	note cs4 $04
	note g4  $0e
	note cs4 $07
	rest $03
	vol $1
	note cs4 $04
	vol $6
	note g4  $0e
	note cs5 $07
	rest $03
	vol $3
	note cs5 $04
	note g4  $0e
	note cs5 $07
	rest $03
	vol $1
	note cs5 $04
	vol $6
	note a4  $07
	note e5  $07
	note a5  $07
	rest $03
	vol $3
	note a5  $04
	vol $6
	note a4  $07
	note e5  $07
	note a5  $07
	rest $03
	vol $3
	note a5  $04
	vol $6
	note as4 $07
	note f5  $07
	note as5 $07
	rest $03
	vol $3
	note as5 $07
	rest $19
	vol $6
	note a4  $07
	note e5  $07
	note a5  $07
	rest $03
	vol $3
	note a5  $04
	vol $6
	note a4  $07
	note e5  $07
	note a5  $07
	rest $03
	vol $3
	note a5  $04
	vol $6
	note gs5 $07
	note gs4 $03
	rest $04
	note gs4 $07
	rest $03
	vol $3
	note gs4 $07
	rest $19
	vol $6
	note a4  $07
	note e5  $07
	vol $6
	note a5  $07
	rest $03
	vol $3
	note a5  $04
	vol $6
	note as4 $07
	note f5  $07
	note as5 $07
	rest $03
	vol $3
	note as5 $04
	vol $6
	note b4  $07
	note fs5 $07
	note b5  $07
	rest $03
	vol $3
	note b5  $04
	vol $6
	note c5  $07
	note g5  $07
	note c6  $07
	rest $03
	vol $3
	note c6  $04
	vol $6
	note d6  $07
	note cs6 $07
	note ds6 $07
	note d6  $07
	note cs6 $07
	note c6  $07
	note d6  $07
	note cs6 $07
	note c6  $07
	note b5  $07
	note cs6 $07
	note c6  $07
	note b5  $07
	note as5 $07
	note c6  $07
	note b5  $07
	goto musicf47e4
	cmdff

musDisasterChannel0:
	vibrato $e1
	env $0 $00
	duty $02
musicf497c:
	vol $6
	note a2  $07
	rest $07
	note b2  $07
	vol $3
	note a2  $07
	vol $6
	note c3  $07
	vol $3
	note b2  $07
	vol $6
	note d3  $07
	vol $3
	note c3  $07
	vol $6
	note ds3 $07
	vol $3
	note d3  $07
	vol $6
	note d3  $07
	vol $3
	note ds3 $07
	vol $6
	note c3  $07
	vol $3
	note d3  $07
	vol $6
	note b2  $07
	vol $3
	note c3  $07
	vol $6
	note a2  $07
	vol $3
	note b2  $07
	vol $6
	note b2  $07
	vol $3
	note a2  $07
	vol $6
	note c3  $07
	vol $3
	note b2  $07
	vol $6
	note d3  $07
	vol $3
	note c3  $07
	vol $6
	note ds3 $07
	vol $3
	note d3  $07
	vol $6
	note d3  $07
	vol $3
	note ds3 $07
	vol $6
	note c3  $07
	vol $3
	note d3  $07
	vol $6
	note b2  $07
	vol $3
	note c3  $07
	vol $6
	note a2  $07
	vol $3
	note b2  $07
	vol $6
	note b2  $07
	vol $3
	note a2  $07
	vol $6
	note c3  $07
	vol $3
	note b2  $07
	vol $6
	note d3  $07
	vol $3
	note c3  $07
	vol $6
	note ds3 $07
	vol $3
	note d3  $07
	vol $6
	note d3  $07
	vol $3
	note ds3 $07
	vol $6
	note c3  $07
	vol $3
	note d3  $07
	vol $6
	note b2  $07
	vol $3
	note c3  $07
	vol $6
	note a2  $07
	vol $3
	note b2  $07
	vol $6
	note b2  $07
	vol $3
	note a2  $07
	vol $6
	note c3  $07
	vol $3
	note b2  $07
	vol $6
	note d3  $07
	vol $3
	note c3  $07
	vol $6
	note ds3 $07
	vol $3
	note d3  $07
	vol $6
	note d3  $07
	vol $3
	note ds3 $07
	vol $6
	note c3  $07
	vol $3
	note d3  $07
	vol $6
	note b2  $07
	vol $3
	note c3  $07
	vol $6
	note a2  $07
	vol $3
	note b2  $07
	vol $6
	note b2  $07
	vol $3
	note a2  $07
	vol $6
	note c3  $07
	vol $3
	note b2  $07
	vol $6
	note d3  $07
	vol $3
	note c3  $07
	vol $6
	note ds3 $07
	vol $3
	note d3  $07
	vol $6
	note d3  $07
	vol $3
	note ds3 $07
	vol $6
	note c3  $07
	vol $3
	note d3  $07
	vol $6
	note b2  $07
	vol $3
	note c3  $07
	vol $6
	note a2  $07
	vol $3
	note b2  $07
	vol $6
	note b2  $07
	vol $3
	note a2  $07
	vol $6
	note c3  $07
	vol $3
	note b2  $07
	vol $6
	note d3  $07
	vol $3
	note c3  $07
	vol $6
	note ds3 $07
	vol $3
	note d3  $07
	vol $6
	note d3  $07
	vol $3
	note ds3 $07
	vol $6
	note c3  $07
	vol $3
	note d3  $07
	vol $6
	note b2  $07
	vol $3
	note c3  $07
	vol $6
	note a2  $07
	vol $3
	note b2  $07
	vol $6
	note b2  $07
	vol $3
	note a2  $07
	vol $6
	note c3  $07
	vol $3
	note b2  $07
	vol $6
	note d3  $07
	vol $3
	note c3  $07
	vol $6
	note ds3 $07
	vol $3
	note d3  $07
	vol $6
	note d3  $07
	vol $3
	note ds3 $07
	vol $6
	note c3  $07
	vol $3
	note d3  $07
	vol $6
	note b2  $07
	vol $3
	note c3  $07
	vol $6
	note a2  $07
	vol $3
	note b2  $07
	vol $6
	note b2  $07
	vol $3
	note a2  $07
	vol $6
	note c3  $07
	vol $3
	note b2  $07
	vol $6
	note d3  $07
	vol $3
	note c3  $07
	vol $6
	note ds3 $07
	vol $3
	note d3  $07
	vol $6
	note d3  $07
	vol $3
	note ds3 $07
	vol $6
	note c3  $07
	vol $3
	note d3  $07
	vol $6
	note b2  $07
	vol $3
	note c3  $07
	vol $6
	note cs3 $07
	vol $3
	note b2  $07
	vol $6
	note ds3 $07
	note e3  $07
	note cs3 $07
	note e3  $07
	note ds3 $07
	note e3  $07
	note d3  $07
	note f3  $07
	note e3  $07
	note f3  $07
	note d3  $07
	note f3  $07
	note e3  $07
	note f3  $07
	note cs3 $07
	note e3  $07
	note ds3 $07
	note e3  $07
	note cs3 $07
	note e3  $07
	note ds3 $07
	note e3  $07
	note c3  $07
	note ds3 $07
	note d3  $07
	note ds3 $07
	note c3  $07
	note ds3 $07
	note d3  $07
	note ds3 $07
	note cs3 $07
	note e3  $07
	note ds3 $07
	note e3  $07
	note d3  $07
	note f3  $07
	note e3  $07
	note f3  $07
	note ds3 $07
	note fs3 $07
	note f3  $07
	note fs3 $07
	note e3  $07
	note g3  $07
	vol $6
	note fs3 $07
	note g3  $07
	note as5 $07
	note a5  $07
	note b5  $07
	note as5 $07
	note a5  $07
	note gs5 $07
	note as5 $07
	note a5  $07
	note gs5 $07
	note g5  $07
	note a5  $07
	note gs5 $07
	note g5  $07
	note fs5 $07
	note gs5 $07
	note g5  $07
	goto musicf497c
	cmdff

musDisasterChannel4:
musicf4b82:
	duty $0e
	note d2  $0e
	note e2  $0e
	note f2  $0e
	note g2  $0e
	note gs2 $0e
	note g2  $0e
	note f2  $0e
	note e2  $0e
	note d2  $0e
	note e2  $0e
	note f2  $0e
	note g2  $0e
	note gs2 $0e
	note g2  $0e
	note f2  $0e
	note e2  $0e
	note d2  $0e
	note e2  $0e
	note f2  $0e
	note g2  $0e
	note gs2 $0e
	note g2  $0e
	note f2  $0e
	note e2  $0e
	note d2  $0e
	note e2  $0e
	note f2  $0e
	note g2  $0e
	note gs2 $0e
	note g2  $0e
	note f2  $0e
	note e2  $0e
	note d2  $0e
	note e2  $0e
	note f2  $0e
	note g2  $0e
	note gs2 $0e
	note g2  $0e
	note f2  $0e
	note e2  $0e
	note d2  $0e
	note e2  $0e
	note f2  $0e
	note g2  $0e
	note gs2 $0e
	note g2  $0e
	note f2  $0e
	note e2  $0e
	note d2  $0e
	note e2  $0e
	note f2  $0e
	note g2  $0e
	note gs2 $0e
	note g2  $0e
	note f2  $0e
	note e2  $0e
	note d2  $0e
	note e2  $0e
	note f2  $0e
	note g2  $0e
	note gs2 $0e
	note g2  $0e
	note f2  $0e
	note e2  $0e
	note a1  $03
	rest $04
	note a1  $03
	rest $0b
	note a1  $03
	rest $04
	note a1  $03
	rest $04
	note a1  $07
	rest $07
	note a1  $03
	rest $04
	note as1 $03
	rest $04
	note as1 $07
	rest $07
	note as1 $03
	rest $04
	note as1 $03
	rest $04
	note as1 $02
	rest $05
	note as1 $02
	rest $05
	note as1 $03
	rest $04
	note a1  $03
	rest $04
	note a1  $03
	rest $0b
	note a1  $03
	rest $04
	note a1  $03
	rest $04
	note a1  $07
	rest $07
	note a1  $03
	rest $04
	note gs1 $03
	rest $04
	note gs1 $07
	rest $07
	note gs1 $03
	rest $04
	note gs1 $03
	rest $04
	note gs1 $02
	rest $05
	note gs1 $02
	rest $05
	note gs1 $03
	rest $04
	note a1  $03
	rest $04
	note a1  $07
	rest $07
	note a1  $03
	rest $04
	note as1 $03
	rest $04
	note as1 $07
	rest $07
	note as1 $03
	rest $04
	note b1  $03
	rest $04
	note b1  $07
	rest $07
	note b1  $03
	rest $04
	note c2  $03
	rest $04
	note c2  $07
	rest $07
	note c2  $07
	note cs2 $07
	note d2  $07
	note c2  $07
	note cs2 $07
	note b1  $07
	note c2  $07
	note as1 $07
	note b1  $07
	note a1  $07
	note as1 $07
	note gs1 $07
	note a1  $07
	note g1  $07
	note gs1 $07
	note fs1 $07
	note g1  $07
	goto musicf4b82
	cmdff

musDisasterChannel6:
musicf4cbe:
	vol $2
	note $2a $07
	note $2a $07
	vol $2
	note $2a $07
	note $2a $07
	vol $3
	note $2a $07
	vol $2
	note $2a $07
	note $2a $07
	note $2a $07
	vol $2
	note $2a $07
	note $2a $07
	vol $2
	note $2a $07
	note $2a $07
	vol $3
	note $2a $07
	vol $2
	note $2a $07
	note $2a $07
	note $2a $07
	vol $2
	note $2a $07
	note $2a $07
	vol $2
	note $2a $07
	note $2a $07
	vol $3
	note $2a $07
	vol $2
	note $2a $07
	note $2a $07
	note $2a $07
	vol $2
	note $2a $07
	note $2a $07
	vol $2
	note $2a $07
	note $2a $07
	vol $3
	note $2a $07
	vol $2
	note $2a $07
	note $2a $07
	note $2a $07
	vol $2
	note $2a $07
	note $2a $07
	vol $2
	note $2a $07
	note $2a $07
	vol $2
	note $2a $07
	vol $2
	note $2a $07
	note $2a $07
	note $2a $07
	vol $2
	note $2a $07
	note $2a $07
	vol $2
	note $2a $07
	note $2a $07
	vol $3
	note $2a $07
	vol $2
	note $2a $07
	note $2a $07
	note $2a $07
	vol $2
	note $2a $07
	note $2a $07
	vol $2
	note $2a $07
	note $2a $07
	vol $2
	note $2a $07
	vol $2
	note $2a $07
	note $2a $07
	note $2a $07
	vol $2
	note $2a $07
	note $2a $07
	vol $2
	note $2a $07
	note $2a $07
	vol $3
	note $2a $07
	vol $2
	note $2a $07
	note $2a $07
	note $2a $07
	vol $2
	note $2a $07
	note $2a $07
	vol $2
	note $2a $07
	note $2a $07
	vol $2
	note $2a $07
	vol $2
	note $2a $07
	note $2a $07
	note $2a $07
	vol $2
	note $2a $07
	note $2a $07
	vol $2
	note $2a $07
	note $2a $07
	vol $2
	note $2a $07
	vol $2
	note $2a $07
	note $2a $07
	note $2a $07
	vol $2
	note $2a $07
	note $2a $07
	vol $2
	note $2a $07
	note $2a $07
	vol $2
	note $2a $07
	vol $2
	note $2a $07
	note $2a $07
	note $2a $07
	vol $2
	note $2a $07
	note $2a $07
	vol $2
	note $2a $07
	note $2a $07
	vol $3
	note $2a $07
	vol $2
	note $2a $07
	note $2a $07
	note $2a $07
	vol $2
	note $2a $07
	note $2a $07
	vol $2
	note $2a $07
	note $2a $07
	vol $3
	note $2a $07
	vol $2
	note $2a $07
	note $2a $07
	note $2a $07
	vol $2
	note $2a $07
	note $2a $07
	vol $2
	note $2a $07
	note $2a $07
	vol $3
	note $2a $07
	vol $2
	note $2a $07
	note $2a $07
	note $2a $07
	vol $2
	note $2a $07
	note $2a $07
	vol $2
	note $2a $07
	note $2a $07
	vol $2
	note $2a $07
	vol $2
	note $2a $07
	note $2a $07
	note $2a $07
	vol $2
	note $2a $07
	note $2a $07
	vol $2
	note $2a $07
	note $2a $07
	vol $2
	note $2a $07
	vol $2
	note $2a $07
	note $2a $07
	note $2a $07
	vol $4
	note $26 $07
	vol $3
	note $26 $0e
	vol $3
	note $26 $07
	vol $4
	note $26 $07
	vol $3
	note $26 $0e
	note $26 $07
	vol $4
	note $26 $07
	vol $3
	note $26 $0e
	vol $3
	note $26 $07
	vol $3
	note $26 $07
	vol $3
	note $26 $07
	vol $4
	note $26 $07
	vol $4
	note $26 $07
	note $26 $07
	vol $3
	note $26 $0e
	vol $3
	note $26 $07
	vol $4
	note $26 $07
	vol $3
	note $26 $0e
	note $26 $07
	vol $4
	note $26 $07
	vol $3
	note $26 $0e
	vol $3
	note $26 $07
	vol $3
	note $26 $07
	vol $3
	note $26 $07
	vol $4
	note $26 $07
	vol $4
	note $26 $07
	note $26 $07
	vol $3
	note $26 $0e
	vol $3
	note $26 $07
	vol $4
	note $26 $07
	vol $3
	note $26 $0e
	note $26 $07
	vol $4
	note $26 $07
	vol $3
	note $26 $0e
	vol $3
	note $26 $07
	vol $3
	note $26 $07
	vol $3
	note $26 $07
	vol $4
	note $26 $07
	vol $4
	note $26 $07
	note $26 $07
	vol $3
	note $26 $0e
	vol $3
	note $26 $07
	vol $4
	note $26 $07
	vol $3
	note $26 $0e
	note $26 $07
	vol $4
	note $26 $07
	vol $3
	note $26 $0e
	vol $3
	note $26 $07
	vol $3
	note $26 $07
	vol $3
	note $26 $07
	vol $4
	note $26 $07
	vol $4
	note $26 $07
	goto musicf4cbe
	cmdff
