musFinalBossStart:

musFinalBossChannel1:
	vibrato $e1
	env $0 $00
	duty $02
musice6c42:
	vol $6
	note gs3 $3c
	vibrato $01
	env $0 $00
	vol $3
	note gs3 $0c
	vibrato $e1
	env $0 $00
	vol $6
	note gs3 $08
	note a3  $08
	note as3 $08
	note b3  $48
	vibrato $01
	env $0 $00
	vol $3
	note b3  $18
	vibrato $e1
	env $0 $00
	vol $6
	note gs4 $3c
	vibrato $01
	env $0 $00
	vol $3
	note gs4 $0c
	vibrato $e1
	env $0 $00
	vol $6
	note gs4 $08
	note a4  $08
	note as4 $08
	note b4  $48
	vibrato $01
	env $0 $00
	vol $3
	note b4  $18
	vibrato $e1
	env $0 $00
	vol $6
	note as3 $3c
	vibrato $01
	env $0 $00
	vol $3
	note as3 $0c
	vibrato $e1
	env $0 $00
	vol $6
	note as3 $08
	note b3  $08
	note c4  $08
	note cs4 $48
	vibrato $01
	env $0 $00
	vol $3
	note cs4 $18
	vibrato $e1
	env $0 $00
	vol $6
	note as4 $3c
	vibrato $01
	env $0 $00
	vol $3
	note as4 $0c
	vibrato $e1
	env $0 $00
	vol $6
	note as4 $08
	note b4  $08
	note c5  $08
	note cs5 $48
	vibrato $01
	env $0 $00
	vol $3
	note cs5 $18
	vibrato $e1
	env $0 $00
	vol $6
	note ds5 $12
	note d5  $06
	rest $03
	vol $3
	note d5  $06
	rest $03
	vol $1
	note d5  $06
	rest $06
	vol $6
	note cs5 $12
	note c5  $06
	rest $03
	vol $3
	note c5  $06
	rest $03
	vol $1
	note c5  $06
	rest $06
	vol $6
	note ds5 $06
	rest $03
	vol $3
	note ds5 $03
	vol $6
	note ds5 $06
	note d5  $06
	rest $03
	vol $3
	note d5  $06
	rest $03
	vol $1
	note d5  $06
	rest $06
	vol $6
	note cs5 $03
	rest $03
	vol $6
	note cs5 $03
	rest $03
	vol $6
	note cs5 $06
	note c5  $06
	rest $03
	vol $3
	note c5  $06
	rest $03
	vol $1
	note c5  $06
	rest $06
	vol $6
	note e5  $12
	note ds5 $06
	vol $4
	note c5  $06
	note b4  $06
	note as4 $06
	note a4  $06
	vol $6
	note d5  $12
	note cs5 $06
	vol $4
	note fs4 $06
	note f4  $06
	note e4  $06
	note ds4 $06
	vol $6
	note e5  $06
	rest $03
	vol $3
	note e5  $03
	vol $6
	note e5  $06
	note ds5 $06
	vol $4
	note cs5 $06
	note c5  $06
	note b4  $06
	note as4 $06
	vol $6
	note d5  $03
	rest $03
	vol $6
	note d5  $03
	rest $03
	vol $6
	note d5  $06
	note cs5 $06
	vol $4
	note fs4 $04
	note g4  $04
	note gs4 $04
	note a4  $04
	note as4 $04
	note b4  $04
	vol $6
	note d5  $06
	rest $03
	vol $3
	note d5  $06
	rest $03
	vol $6
	note as5 $06
	note a5  $30
	note f5  $18
	note cs5 $06
	note c5  $06
	note b4  $06
	note as4 $06
	note a4  $06
	note gs4 $06
	note g4  $06
	note fs4 $06
	note f4  $06
	note e4  $06
	note ds4 $06
	note d4  $06
	note cs4 $06
	note c4  $06
	note b3  $06
	note as3 $06
	goto musice6c42
	cmdff

musFinalBossChannel0:
	vibrato $e1
	env $0 $00
	duty $02
musice6da9:
	vol $6
	note d3  $3c
	vibrato $01
	env $0 $00
	vol $3
	note d3  $0c
	vibrato $e1
	env $0 $00
	vol $6
	note d3  $08
	note ds3 $08
	note e3  $08
	note f3  $06
	note b2  $06
	vol $0
	note b2  $03
	vol $3
	note b2  $03
	vol $6
	note f3  $06
	note b2  $06
	vol $0
	note b2  $03
	vol $3
	note b2  $03
	vol $6
	note f3  $06
	note b2  $06
	vol $0
	note b2  $03
	vol $3
	note b2  $03
	vol $6
	note f3  $06
	note b2  $06
	note f2  $06
	note b2  $06
	note f3  $06
	note b2  $06
	note f2  $06
	note d3  $3c
	vibrato $01
	env $0 $00
	vol $3
	note d3  $0c
	vibrato $e1
	env $0 $00
	vol $6
	note d3  $08
	note ds3 $08
	note e3  $08
	note f3  $06
	note b2  $06
	vol $0
	note b2  $03
	vol $3
	note b2  $03
	vol $6
	note f3  $06
	note b2  $06
	vol $0
	note b2  $03
	vol $3
	note b2  $03
	vol $6
	note f3  $06
	note b2  $06
	vol $0
	note b2  $03
	vol $3
	note b2  $03
	vol $6
	note f3  $06
	note b2  $06
	note f2  $06
	note b2  $06
	note f3  $06
	note b2  $06
	note f2  $06
	note e3  $3c
	vibrato $01
	env $0 $00
	vol $3
	note e3  $0c
	vibrato $e1
	env $0 $00
	vol $6
	note e3  $08
	note f3  $08
	note fs3 $08
	note g3  $06
	note cs3 $06
	vol $0
	note cs3 $03
	vol $3
	note cs3 $03
	vol $6
	note g3  $06
	note cs3 $06
	vol $0
	note cs3 $03
	vol $3
	note cs3 $03
	vol $6
	note g3  $06
	note cs3 $06
	vol $0
	note cs3 $03
	vol $3
	note cs3 $03
	vol $6
	note g3  $06
	note cs3 $06
	note g2  $06
	note cs3 $06
	note g3  $06
	note cs3 $06
	note g2  $06
	note e3  $3c
	vibrato $01
	env $0 $00
	vol $3
	note e3  $0c
	vibrato $e1
	env $0 $00
	vol $6
	note e3  $08
	note f3  $08
	note fs3 $08
	note g3  $06
	note cs3 $06
	vol $0
	note cs3 $03
	vol $3
	note cs3 $03
	vol $6
	note g3  $06
	note cs3 $06
	vol $0
	note cs3 $03
	vol $3
	note cs3 $03
	vol $6
	note g3  $06
	note cs3 $06
	vol $0
	note cs3 $03
	vol $3
	note cs3 $03
	vol $6
	note g3  $06
	note cs3 $06
	note g2  $06
	note cs3 $06
	note g3  $06
	note cs4 $06
	note g4  $06
	note as4 $12
	note a4  $06
	note as3 $06
	note a3  $06
	note gs3 $06
	note g3  $06
	note gs4 $12
	note g4  $06
	note gs3 $06
	note g3  $06
	note fs3 $06
	note f3  $06
	note as4 $06
	vol $0
	note as4 $03
	vol $3
	note as4 $03
	vol $6
	note as4 $06
	note a4  $06
	note as3 $06
	note a3  $06
	note gs3 $06
	note g3  $06
	note gs4 $03
	vol $0
	note gs4 $03
	vol $6
	note gs4 $03
	vol $0
	note gs4 $03
	vol $6
	note gs4 $06
	note g4  $06
	note gs3 $06
	note g3  $06
	note fs3 $06
	note f3  $06
	note b4  $12
	note as4 $06
	note b3  $06
	note as3 $06
	note a3  $06
	note gs3 $06
	note a4  $12
	note gs4 $06
	note a3  $06
	note gs3 $06
	note g3  $06
	note fs3 $06
	note b4  $06
	vol $0
	note b4  $03
	vol $3
	note b4  $03
	vol $6
	note b4  $06
	note as4 $06
	note b3  $06
	note as3 $06
	note a3  $06
	note gs3 $06
	note a4  $03
	vol $0
	note a4  $03
	vol $6
	note a4  $03
	vol $0
	note a4  $03
	vol $6
	note a4  $06
	note gs4 $06
	note a3  $04
	note as3 $04
	note b3  $04
	note c4  $04
	note cs4 $04
	note d4  $04
	note ds4 $04
	note e4  $04
	note f4  $04
	note fs4 $04
	note g4  $04
	note gs4 $04
	note a4  $04
	note as4 $04
	note b4  $04
	note c5  $04
	note cs5 $04
	note d5  $04
	note ds5 $04
	note e5  $04
	note f5  $04
	note fs5 $04
	note g5  $04
	note gs5 $04
	vol $6
	note a5  $60
	vol $6
	note as5 $04
	vol $6
	note b5  $04
	vol $5
	note c6  $04
	vol $5
	note cs6 $04
	vol $4
	note d6  $04
	vol $4
	note e6  $04
	goto musice6da9
	cmdff

musFinalBossChannel4:
musice6f81:
	duty $12
	note gs2 $04
	duty $0f
	note gs2 $02
	duty $12
	note gs2 $04
	duty $0f
	note gs2 $08
	duty $12
	note gs2 $04
	duty $0f
	note gs2 $02
	duty $12
	note gs2 $04
	duty $0f
	note gs2 $08
	duty $12
	note gs2 $04
	duty $0f
	note gs2 $02
	duty $12
	note gs2 $04
	duty $0f
	note gs2 $08
	duty $12
	note gs2 $04
	duty $0f
	note gs2 $02
	duty $12
	note gs2 $04
	duty $0f
	note gs2 $08
	duty $12
	note gs2 $04
	duty $0f
	note gs2 $08
	duty $12
	note d2  $04
	duty $0f
	note d2  $08
	duty $12
	note gs2 $04
	duty $0f
	note gs2 $02
	duty $12
	note gs2 $04
	duty $0f
	note gs2 $08
	duty $12
	note gs2 $04
	duty $0f
	note gs2 $02
	duty $12
	note gs2 $04
	duty $0f
	note gs2 $08
	duty $12
	note gs2 $04
	duty $0f
	note gs2 $02
	duty $12
	note gs2 $04
	duty $0f
	note gs2 $08
	duty $12
	note gs2 $04
	duty $0f
	note gs2 $02
	duty $12
	note gs2 $04
	duty $0f
	note gs2 $08
	duty $12
	note gs2 $04
	duty $0f
	note gs2 $02
	duty $12
	note d2  $04
	duty $0f
	note d2  $02
	duty $12
	note gs2 $04
	duty $0f
	note gs2 $02
	duty $12
	note d2  $04
	duty $0f
	note d2  $02
	duty $12
	note gs2 $04
	duty $0f
	note gs2 $02
	duty $12
	note gs2 $04
	duty $0f
	note gs2 $08
	duty $12
	note gs2 $04
	duty $0f
	note gs2 $02
	duty $12
	note gs2 $04
	duty $0f
	note gs2 $08
	duty $12
	note gs2 $04
	duty $0f
	note gs2 $02
	duty $12
	note gs2 $04
	duty $0f
	note gs2 $08
	duty $12
	note gs2 $04
	duty $0f
	note gs2 $02
	duty $12
	note gs2 $04
	duty $0f
	note gs2 $08
	duty $12
	note gs2 $04
	duty $0f
	note gs2 $08
	duty $12
	note d2  $04
	duty $0f
	note d2  $08
	duty $12
	note gs2 $04
	duty $0f
	note gs2 $02
	duty $12
	note gs2 $04
	duty $0f
	note gs2 $08
	duty $12
	note gs2 $04
	duty $0f
	note gs2 $02
	duty $12
	note gs2 $04
	duty $0f
	note gs2 $08
	duty $12
	note gs2 $04
	duty $0f
	note gs2 $02
	duty $12
	note gs2 $04
	duty $0f
	note gs2 $08
	duty $12
	note gs2 $04
	duty $0f
	note gs2 $02
	duty $12
	note gs2 $04
	duty $0f
	note gs2 $08
	duty $12
	note gs2 $04
	duty $0f
	note gs2 $02
	duty $12
	note d2  $04
	duty $0f
	note d2  $02
	duty $12
	note gs2 $04
	duty $0f
	note gs2 $02
	duty $12
	note d2  $04
	duty $0f
	note d2  $02
	duty $12
	note as2 $04
	duty $0f
	note as2 $02
	duty $12
	note as2 $04
	duty $0f
	note as2 $08
	duty $12
	note as2 $04
	duty $0f
	note as2 $02
	duty $12
	note as2 $04
	duty $0f
	note as2 $08
	duty $12
	note as2 $04
	duty $0f
	note as2 $02
	duty $12
	note as2 $04
	duty $0f
	note as2 $08
	duty $12
	note as2 $04
	duty $0f
	note as2 $02
	duty $12
	note as2 $04
	duty $0f
	note as2 $08
	duty $12
	note as2 $04
	duty $0f
	note as2 $08
	duty $12
	note e2  $04
	duty $0f
	note e2  $08
	duty $12
	note as2 $04
	duty $0f
	note as2 $02
	duty $12
	note as2 $04
	duty $0f
	note as2 $08
	duty $12
	note as2 $04
	duty $0f
	note as2 $02
	duty $12
	note as2 $04
	duty $0f
	note as2 $08
	duty $12
	note as2 $04
	duty $0f
	note as2 $02
	duty $12
	note as2 $04
	duty $0f
	note as2 $08
	duty $12
	note as2 $04
	duty $0f
	note as2 $02
	duty $12
	note as2 $04
	duty $0f
	note as2 $08
	duty $12
	note as2 $04
	duty $0f
	note as2 $02
	duty $12
	note e2  $04
	duty $0f
	note e2  $02
	duty $12
	note as2 $04
	duty $0f
	note as2 $02
	duty $12
	note e2  $04
	duty $0f
	note e2  $02
	duty $12
	note as2 $04
	duty $0f
	note as2 $02
	duty $12
	note as2 $04
	duty $0f
	note as2 $08
	duty $12
	note as2 $04
	duty $0f
	note as2 $02
	duty $12
	note as2 $04
	duty $0f
	note as2 $08
	duty $12
	note as2 $04
	duty $0f
	note as2 $02
	duty $12
	note as2 $04
	duty $0f
	note as2 $08
	duty $12
	note as2 $04
	duty $0f
	note as2 $02
	duty $12
	note as2 $04
	duty $0f
	note as2 $08
	duty $12
	note as2 $04
	duty $0f
	note as2 $08
	duty $12
	note e2  $04
	duty $0f
	note e2  $08
	duty $12
	note as2 $04
	duty $0f
	note as2 $02
	duty $12
	note as2 $04
	duty $0f
	note as2 $08
	duty $12
	note as2 $04
	duty $0f
	note as2 $02
	duty $12
	note as2 $04
	duty $0f
	note as2 $08
	duty $12
	note as2 $04
	duty $0f
	note as2 $02
	duty $12
	note as2 $04
	duty $0f
	note as2 $08
	duty $12
	note as2 $04
	duty $0f
	note as2 $02
	duty $12
	note as2 $04
	duty $0f
	note as2 $08
	duty $12
	note as2 $04
	duty $0f
	note as2 $02
	duty $12
	note e2  $04
	duty $0f
	note e2  $02
	duty $12
	note as2 $04
	duty $0f
	note as2 $02
	duty $12
	note e2  $04
	duty $0f
	note e2  $02
	duty $12
	note e3  $12
	note ds3 $06
	duty $0f
	note ds3 $18
	duty $12
	note d3  $12
	note cs3 $06
	duty $0f
	note cs3 $18
	duty $12
	note e3  $06
	duty $0f
	note e3  $06
	duty $12
	note e3  $06
	note ds3 $06
	duty $0f
	note ds3 $18
	duty $12
	note d3  $03
	duty $0f
	note d3  $03
	duty $12
	note d3  $03
	duty $0f
	note d3  $03
	duty $12
	note d3  $06
	note cs3 $06
	note f2  $06
	note e2  $06
	note ds2 $06
	note d2  $06
	note cs2 $06
	note d2  $06
	note ds2 $06
	note e2  $06
	note f2  $06
	note e2  $06
	note ds2 $06
	note cs2 $06
	note d2  $06
	note ds2 $06
	note e2  $06
	note fs2 $06
	note g2  $06
	note gs2 $06
	note a2  $06
	note as2 $06
	note b2  $06
	note c3  $06
	note cs3 $06
	note b2  $06
	note as2 $06
	note a2  $06
	note gs2 $06
	note g2  $06
	note gs2 $06
	note a2  $06
	note gs2 $06
	note g2  $06
	note fs2 $04
	note g2  $04
	note gs2 $04
	note a2  $04
	note as2 $04
	note b2  $04
	note ds2 $06
	duty $0f
	note ds2 $0c
	duty $12
	note cs3 $06
	note c3  $30
	note d4  $06
	note cs4 $06
	note c4  $06
	note b3  $06
	note as3 $06
	note a3  $06
	note gs3 $06
	note g3  $06
	note fs3 $06
	note f3  $06
	note e3  $06
	note ds3 $06
	note d3  $06
	note cs3 $06
	note c3  $06
	note b2  $06
	note as2 $04
	note a2  $04
	note gs2 $04
	note ds2 $04
	note d2  $04
	note b1  $04
	goto musice6f81
	cmdff

musFinalBossChannel6:
musice7305:
	vol $5
	note $24 $18
	vol $b
	note $28 $01
	vol $3
	note $27 $17
	vol $5
	note $24 $18
	vol $b
	note $28 $01
	vol $3
	note $27 $17
	vol $5
	note $24 $18
	vol $b
	note $28 $01
	vol $3
	note $27 $17
	vol $5
	note $24 $18
	vol $b
	note $28 $01
	vol $3
	note $27 $0b
	vol $6
	note $28 $01
	vol $3
	note $27 $03
	vol $6
	note $28 $01
	vol $3
	note $27 $03
	vol $6
	note $28 $01
	vol $3
	note $27 $03
	vol $5
	note $24 $18
	vol $b
	note $28 $01
	vol $3
	note $27 $17
	vol $5
	note $24 $18
	vol $b
	note $28 $01
	vol $3
	note $27 $17
	vol $5
	note $24 $18
	vol $b
	note $28 $01
	vol $3
	note $27 $17
	vol $5
	note $24 $18
	vol $b
	note $28 $01
	vol $3
	note $27 $0b
	vol $6
	note $28 $01
	vol $3
	note $27 $03
	vol $6
	note $28 $01
	vol $3
	note $27 $03
	vol $6
	note $28 $01
	vol $3
	note $27 $03
	vol $5
	note $24 $18
	vol $b
	note $28 $01
	vol $3
	note $27 $17
	vol $5
	note $24 $18
	vol $b
	note $28 $01
	vol $3
	note $27 $17
	vol $5
	note $24 $18
	vol $b
	note $28 $01
	vol $3
	note $27 $17
	vol $5
	note $24 $18
	vol $b
	note $28 $01
	vol $3
	note $27 $0b
	vol $6
	note $28 $01
	vol $3
	note $27 $03
	vol $6
	note $28 $01
	vol $3
	note $27 $03
	vol $6
	note $28 $01
	vol $3
	note $27 $03
	vol $5
	note $24 $18
	vol $b
	note $28 $01
	vol $3
	note $27 $17
	vol $5
	note $24 $18
	vol $b
	note $28 $01
	vol $3
	note $27 $17
	vol $5
	note $24 $18
	vol $b
	note $28 $01
	vol $3
	note $27 $17
	vol $5
	note $24 $18
	vol $b
	note $28 $01
	vol $3
	note $27 $0b
	vol $6
	note $28 $01
	vol $3
	note $27 $03
	vol $6
	note $28 $01
	vol $3
	note $27 $03
	vol $6
	note $28 $01
	vol $3
	note $27 $03
	vol $5
	note $24 $18
	vol $b
	note $28 $01
	vol $3
	note $27 $17
	vol $5
	note $24 $18
	vol $b
	note $28 $01
	vol $3
	note $27 $0b
	vol $6
	note $28 $01
	vol $3
	note $27 $03
	vol $6
	note $28 $01
	vol $3
	note $27 $03
	vol $6
	note $28 $01
	vol $3
	note $27 $03
	vol $5
	note $24 $18
	vol $b
	note $28 $01
	vol $3
	note $27 $17
	vol $5
	note $24 $18
	vol $b
	note $28 $01
	vol $3
	note $27 $0b
	vol $6
	note $28 $01
	vol $3
	note $27 $03
	vol $6
	note $28 $01
	vol $3
	note $27 $03
	vol $6
	note $28 $01
	vol $3
	note $27 $03
	vol $5
	note $24 $18
	vol $b
	note $28 $01
	vol $3
	note $27 $17
	vol $5
	note $24 $18
	vol $b
	note $28 $01
	vol $3
	note $27 $0b
	vol $6
	note $28 $01
	vol $3
	note $27 $03
	vol $6
	note $28 $01
	vol $3
	note $27 $03
	vol $6
	note $28 $01
	vol $3
	note $27 $03
	vol $5
	note $24 $18
	vol $b
	note $28 $01
	vol $3
	note $27 $17
	vol $5
	note $24 $18
	vol $b
	note $28 $01
	vol $3
	note $27 $05
	vol $8
	note $28 $01
	vol $3
	note $27 $05
	vol $8
	note $28 $01
	vol $3
	note $27 $05
	vol $8
	note $28 $01
	vol $3
	note $27 $05
	vol $5
	note $24 $12
	vol $8
	note $28 $01
	vol $3
	note $27 $05
	vol $6
	note $26 $0c
	vol $6
	note $28 $01
	vol $3
	note $27 $03
	vol $6
	note $28 $01
	vol $3
	note $27 $03
	vol $6
	note $28 $01
	vol $3
	note $27 $03
	vol $8
	note $28 $01
	vol $3
	note $27 $05
	vol $6
	note $26 $0c
	vol $8
	note $28 $01
	vol $3
	note $27 $05
	vol $6
	note $26 $0c
	vol $6
	note $28 $01
	vol $3
	note $27 $03
	vol $6
	note $28 $01
	vol $3
	note $27 $03
	vol $6
	note $28 $01
	vol $3
	note $27 $03
	vol $8
	note $28 $01
	vol $3
	note $27 $05
	vol $8
	note $28 $01
	vol $3
	note $27 $05
	vol $8
	note $28 $01
	vol $3
	note $27 $05
	vol $8
	note $28 $01
	vol $3
	note $27 $05
	vol $6
	note $26 $0c
	vol $6
	note $28 $01
	vol $3
	note $27 $05
	vol $6
	note $28 $01
	vol $3
	note $27 $05
	vol $6
	note $28 $01
	vol $3
	note $27 $05
	vol $6
	note $28 $01
	vol $3
	note $27 $05
	vol $6
	note $28 $01
	vol $3
	note $27 $05
	vol $6
	note $28 $01
	vol $3
	note $27 $05
	vol $6
	note $28 $01
	vol $3
	note $27 $05
	vol $6
	note $28 $01
	vol $3
	note $27 $05
	vol $6
	note $28 $01
	vol $3
	note $27 $01
	vol $6
	note $28 $01
	vol $3
	note $27 $01
	vol $7
	note $28 $01
	vol $3
	note $27 $01
	vol $8
	note $28 $01
	vol $3
	note $27 $01
	vol $9
	note $28 $01
	vol $3
	note $27 $01
	vol $a
	note $28 $01
	vol $3
	note $27 $01
	goto musice7305
	cmdff
