musFinalDungeonStart:

musFinalDungeonChannel1:
musicf54c8:
	vibrato $00
	env $0 $05
	duty $02
	vol $6
	note ds5 $0f
	note a4  $0f
	note gs4 $0f
	note ds4 $0f
	note gs4 $0f
	note a4  $0f
	note ds5 $0f
	note a4  $0f
	note gs4 $0f
	note ds4 $0f
	note gs4 $0f
	note a4  $0f
	note ds5 $0f
	note a4  $0f
	note gs4 $0f
	note ds4 $0f
	note gs4 $0f
	note a4  $0f
	note ds5 $0f
	note a4  $0f
	note gs4 $0f
	note ds4 $0f
	note gs4 $0f
	note a4  $0f
	note cs5 $0f
	note g4  $0f
	note fs4 $0f
	note cs4 $0f
	note fs4 $0f
	note g4  $0f
	note cs5 $0f
	note g4  $0f
	note fs4 $0f
	note cs4 $0f
	note fs4 $0f
	note g4  $0f
	note cs5 $0f
	note g4  $0f
	note fs4 $0f
	note cs4 $0f
	note fs4 $0f
	note g4  $0f
	note cs5 $0f
	note g4  $0f
	note fs4 $0f
	note cs4 $0f
	note fs4 $0f
	note g4  $0f
	note ds5 $0f
	note a4  $0f
	note gs4 $0f
	note ds4 $0f
	note gs4 $0f
	note a4  $0f
	note ds5 $0f
	note a4  $0f
	note gs4 $0f
	note ds4 $0f
	note gs4 $0f
	note a4  $0f
	note ds5 $0f
	note a4  $0f
	note gs4 $0f
	note ds4 $0f
	note gs4 $0f
	note a4  $0f
	note ds5 $0f
	note a4  $0f
	note gs4 $0f
	note ds4 $0f
	note gs4 $0f
	note a4  $0f
	note cs5 $0f
	note g4  $0f
	note fs4 $0f
	note cs4 $0f
	note fs4 $0f
	note g4  $0f
	note cs5 $0f
	note g4  $0f
	note fs4 $0f
	note cs4 $0f
	note fs4 $0f
	note g4  $0f
	note cs5 $0f
	note g4  $0f
	note fs4 $0f
	note cs4 $0f
	note fs4 $0f
	note g4  $0f
	note cs5 $0f
	note g4  $0f
	note fs4 $0f
	note cs4 $0f
	note fs4 $0f
	note g4  $0f
	vibrato $e1
	env $0 $00
	note e4  $4b
	vibrato $01
	env $0 $00
	vol $3
	note e4  $0f
	vibrato $e1
	env $0 $00
	vol $6
	note ds4 $4b
	vibrato $01
	env $0 $00
	vol $3
	note ds4 $0f
	vibrato $e1
	env $0 $00
	vol $6
	note d4  $4b
	vibrato $01
	env $0 $00
	vol $3
	note d4  $0f
	vibrato $e1
	env $0 $00
	vol $6
	note cs4 $4b
	vibrato $01
	env $0 $00
	vol $3
	note cs4 $0f
	vibrato $00
	env $0 $03
	vol $6
	note c4  $0f
	note g3  $0f
	note fs3 $0f
	note c4  $0f
	note g3  $0f
	note fs3 $0f
	vol $5
	note c5  $0f
	note g4  $0f
	note fs4 $0f
	note c5  $0f
	note g4  $0f
	note fs4 $0f
	env $0 $04
	vol $4
	note c6  $0f
	note g5  $0f
	vol $4
	note fs5 $0f
	vol $4
	note c6  $0f
	note g5  $0f
	vol $4
	note fs5 $0f
	env $0 $05
	vol $3
	note c7  $0f
	note g6  $0f
	note fs6 $0f
	vol $3
	note c7  $0f
	note g6  $0f
	note fs6 $0f
	vibrato $e1
	env $0 $00
	vol $6
	note d4  $4b
	vibrato $01
	env $0 $00
	vol $3
	note d4  $0f
	vibrato $e1
	env $0 $00
	vol $6
	note cs4 $4b
	vibrato $01
	env $0 $00
	vol $3
	note cs4 $0f
	vibrato $e1
	env $0 $00
	vol $6
	note c4  $4b
	vibrato $01
	env $0 $00
	vol $3
	note c4  $0f
	vibrato $e1
	env $0 $00
	vol $6
	note b3  $4b
	vibrato $01
	env $0 $00
	vol $3
	note b3  $0f
	vibrato $00
	env $0 $03
	vol $6
	note a3  $0f
	note e3  $0f
	note ds3 $0f
	note a3  $0f
	note e3  $0f
	note ds3 $0f
	vol $5
	note a4  $0f
	note e4  $0f
	note ds4 $0f
	note a4  $0f
	note e4  $0f
	note ds4 $0f
	env $0 $04
	vol $4
	note a5  $0f
	note e5  $0f
	note ds5 $0f
	note a5  $0f
	note e5  $0f
	note ds5 $0f
	env $0 $05
	vol $3
	note a6  $0f
	note e6  $0f
	note ds6 $0f
	note a6  $0f
	note e6  $0f
	note ds6 $0f
	goto musicf54c8
	cmdff

musFinalDungeonChannel0:
musicf567e:
	vibrato $00
	env $0 $05
	duty $02
	vol $1
	note ds5 $0f
	vol $3
	note ds5 $0f
	note a4  $0f
	note gs4 $0f
	note ds4 $0f
	note gs4 $0f
	note a4  $0f
	note ds5 $0f
	note a4  $0f
	note gs4 $0f
	note ds4 $0f
	note gs4 $0f
	note a4  $0f
	note ds5 $0f
	note a4  $0f
	note gs4 $0f
	note ds4 $0f
	note gs4 $0f
	note a4  $0f
	note ds5 $0f
	note a4  $0f
	note gs4 $0f
	note ds4 $0f
	note gs4 $0f
	note a4  $0f
	note cs5 $0f
	note g4  $0f
	note fs4 $0f
	note cs4 $0f
	note fs4 $0f
	note g4  $0f
	note cs5 $0f
	note g4  $0f
	note fs4 $0f
	note cs4 $0f
	note fs4 $0f
	vol $4
	note g4  $0f
	note cs5 $0f
	note g4  $0f
	note fs4 $0f
	note cs4 $0f
	note fs4 $0f
	note g4  $0f
	note cs5 $0f
	note g4  $0f
	note fs4 $0f
	note cs4 $0f
	note fs4 $0f
	note g4  $0f
	note ds5 $0f
	note a4  $0f
	note gs4 $0f
	note ds4 $0f
	note gs4 $0f
	note a4  $0f
	note ds5 $0f
	note a4  $0f
	note gs4 $0f
	note ds4 $0f
	note gs4 $0f
	note a4  $0f
	note ds5 $0f
	note a4  $0f
	note gs4 $0f
	note ds4 $0f
	note gs4 $0f
	note a4  $0f
	note ds5 $0f
	note a4  $0f
	note gs4 $0f
	note ds4 $0f
	note gs4 $0f
	note a4  $0f
	note cs5 $0f
	vol $4
	note g4  $0f
	note fs4 $0f
	note cs4 $0f
	note fs4 $0f
	note g4  $0f
	note cs5 $0f
	note g4  $0f
	note fs4 $0f
	note cs4 $0f
	note fs4 $0f
	note g4  $0f
	note cs5 $0f
	note g4  $0f
	note fs4 $0f
	note cs4 $0f
	note fs4 $0f
	note g4  $0f
	note cs5 $0f
	note g4  $0f
	note fs4 $0f
	note cs4 $0f
	note fs4 $0f
	vibrato $e1
	env $0 $00
	vol $6
	note b3  $3c
	vibrato $01
	env $0 $00
	vol $3
	note b3  $1e
	vibrato $e1
	env $0 $00
	vol $6
	note as3 $3c
	vibrato $01
	env $0 $00
	vol $3
	note as3 $1e
	vibrato $e1
	env $0 $00
	vol $6
	note a3  $3c
	vibrato $01
	env $0 $00
	vol $3
	note a3  $1e
	vibrato $e1
	env $0 $00
	vol $6
	note gs3 $3c
	vibrato $01
	env $0 $00
	vol $3
	note gs3 $1e
	rest $0f
	vibrato $00
	env $0 $03
	vol $4
	note c4  $0f
	note g3  $0f
	note fs3 $0f
	note c4  $0f
	note g3  $0f
	note fs3 $0f
	vol $3
	note c5  $0f
	vol $3
	note g4  $0f
	note fs4 $0f
	note c5  $0f
	note g4  $0f
	note fs4 $0f
	vol $2
	note c6  $0f
	vol $2
	note g5  $0f
	note fs5 $0f
	note c6  $0f
	note g5  $0f
	note fs5 $0f
	vol $1
	note c7  $0f
	vol $1
	note g6  $0f
	vol $1
	note fs6 $0f
	vol $1
	note c7  $0f
	vol $1
	note g6  $0f
	vibrato $e1
	env $0 $00
	vol $6
	note as2 $3c
	vibrato $01
	env $0 $00
	vol $3
	note as2 $1e
	vibrato $e1
	env $0 $00
	vol $6
	note a2  $3c
	vibrato $01
	env $0 $00
	vol $3
	note a2  $1e
	vibrato $e1
	env $0 $00
	vol $6
	note gs2 $3c
	vibrato $01
	env $0 $00
	vol $3
	note gs2 $1e
	vibrato $e1
	env $0 $00
	vol $6
	note g2  $3c
	vibrato $01
	env $0 $00
	vol $3
	note g2  $1e
	rest $0b
	vibrato $00
	env $0 $03
	vol $3
	note a3  $0f
	note e3  $0f
	note ds3 $0f
	note a3  $0f
	note e3  $0f
	vol $2
	note ds3 $0f
	note a4  $0f
	note e4  $0f
	note ds4 $0f
	note a4  $0f
	note e4  $0f
	note ds4 $0f
	vol $2
	note a5  $0f
	note e5  $0f
	note ds5 $0f
	vol $2
	note a5  $0f
	note e5  $0f
	note ds5 $0f
	vol $1
	note a6  $0f
	note e6  $0f
	vol $1
	note ds6 $0f
	note a6  $0f
	vol $1
	note e6  $0f
	note ds6 $04
	goto musicf567e
	cmdff

musFinalDungeonChannel4:
musicf5837:
	duty $0e
	note gs2 $a5
	note ds2 $0f
	duty $0e
	note gs2 $08
	duty $0f
	note gs2 $07
	duty $0e
	note gs2 $08
	duty $0f
	note gs2 $07
	duty $0e
	rest $96
	note g2  $a5
	note cs2 $0f
	duty $0e
	note g2  $08
	duty $0f
	note g2  $07
	duty $0e
	note g2  $08
	duty $0f
	note g2  $07
	duty $0e
	rest $96
	note gs2 $a5
	note ds3 $0f
	duty $0e
	note gs2 $08
	duty $0f
	note gs2 $07
	duty $0e
	note gs2 $08
	duty $0f
	note gs2 $07
	duty $0e
	rest $96
	note g2  $a5
	note cs3 $0f
	duty $0e
	note g2  $08
	duty $0f
	note g2  $07
	duty $0e
	note g2  $08
	duty $0f
	note g2  $07
	duty $0e
	rest $96
	note gs2 $2a
	rest $03
	note gs2 $0f
	rest $0f
	note gs2 $07
	rest $08
	note gs2 $07
	rest $08
	note gs2 $19
	rest $05
	note gs2 $19
	rest $05
	note gs2 $07
	rest $08
	note gs2 $07
	rest $08
	note gs2 $19
	rest $05
	note gs2 $19
	rest $05
	note gs2 $07
	rest $08
	note gs2 $07
	rest $08
	note gs2 $19
	rest $05
	note gs2 $19
	rest $05
	note gs2 $0f
	note fs2 $2a
	rest $03
	note fs2 $0f
	rest $0f
	note fs2 $07
	rest $08
	note fs2 $07
	rest $08
	note fs2 $19
	rest $05
	note fs2 $19
	rest $05
	note fs2 $07
	rest $08
	note fs2 $07
	rest $08
	note fs2 $19
	rest $05
	note fs2 $19
	rest $05
	note fs2 $07
	rest $08
	note fs2 $07
	rest $08
	note fs2 $19
	rest $05
	note fs2 $19
	rest $05
	note fs2 $0f
	note f3  $07
	rest $08
	note f3  $19
	rest $05
	note f3  $19
	rest $05
	note f3  $0f
	note e3  $07
	rest $08
	note e3  $19
	rest $05
	note e3  $19
	rest $05
	note e3  $07
	rest $08
	note ds3 $07
	rest $08
	note ds3 $19
	rest $05
	note ds3 $19
	rest $05
	note ds3 $07
	rest $08
	note d3  $07
	rest $08
	note d3  $19
	rest $05
	note d3  $19
	rest $05
	note d3  $07
	rest $08
	note fs2 $07
	rest $08
	note fs2 $19
	rest $05
	note fs2 $19
	rest $05
	note fs2 $07
	rest $08
	note fs2 $07
	rest $08
	note fs2 $19
	rest $05
	note fs2 $19
	rest $05
	note fs2 $07
	rest $08
	note fs2 $07
	rest $08
	note fs2 $19
	rest $05
	note fs2 $19
	rest $05
	note fs2 $07
	rest $08
	note fs2 $07
	rest $08
	note fs2 $19
	rest $05
	note fs2 $19
	rest $05
	note fs2 $07
	rest $08
	goto musicf5837
	cmdff

.define musFinalDungeonChannel6 MUSIC_CHANNEL_FALLBACK EXPORT
