musGoronCaveStart:

musGoronCaveChannel1:
	vibrato $00
	env $0 $00
.ifdef ROM_SEASONS
	cmdf2
.endif
	duty $02
musicf83e8:
	vol $0
	note gs3 $30
	vol $6
	note e4  $0d
	rest $03
	vol $3
	note e4  $02
	rest $02
	vol $6
	note e4  $04
	rest $04
	vol $3
	note e4  $04
	rest $10
	vol $6
	note d4  $08
	rest $02
	vol $3
	note d4  $04
	rest $02
	vol $6
	note c4  $08
	rest $02
	vol $3
	note c4  $04
	rest $02
	vol $3
	note c4  $02
	rest $ae
	vol $6
	note e4  $05
	rest $03
	vol $6
	note e4  $05
	rest $03
	vol $6
	note e4  $05
	rest $05
	vol $3
	note e4  $04
	rest $02
	vol $6
	note e4  $05
	rest $05
	vol $3
	note e4  $04
	rest $02
	vol $6
	note d4  $05
	rest $03
	vol $3
	note d4  $04
	rest $04
	vol $6
	note c4  $05
	rest $03
	vol $3
	note c4  $04
	rest $04
	vol $2
	note c4  $02
	rest $5e
	vol $6
	note as3 $08
	rest $02
	vol $3
	note as3 $04
	rest $02
	vol $6
	note c4  $04
	rest $04
	vol $3
	note c4  $04
	rest $04
	vol $2
	note c4  $02
	rest $2e
	vol $6
	note e4  $0d
	rest $03
	note e4  $02
	rest $02
	vol $3
	note e4  $04
	rest $04
	vol $3
	note e4  $04
	rest $10
	vol $6
	note d4  $08
	rest $02
	vol $3
	note d4  $04
	rest $02
	vol $6
	note c4  $08
	rest $02
	vol $3
	note c4  $04
	rest $04
	vol $1
	note c4  $02
	rest $ac
	vol $6
	note e4  $05
	rest $03
	vol $6
	note e4  $05
	rest $03
	vol $6
	note e4  $05
	rest $05
	vol $3
	note e4  $04
	rest $02
	vol $6
	note e4  $05
	rest $05
	vol $3
	note e4  $04
	rest $02
	vol $6
	note d4  $05
	rest $03
	vol $3
	note d4  $04
	rest $04
	vol $6
	note c4  $05
	rest $03
	vol $3
	note c4  $04
	rest $04
	vol $2
	note c4  $02
	rest $5e
	vol $6
	note as3 $08
	rest $02
	vol $3
	note as3 $04
	rest $02
	vol $6
	note c4  $04
	rest $04
	vol $3
	note c4  $04
	rest $04
	vol $1
	note c4  $02
	rest $5e
	vol $6
	note as3 $08
	rest $02
	vol $3
	note as3 $02
	rest $04
	vol $6
	note c4  $04
	rest $04
	vol $3
	note c4  $02
	rest $06
	vol $6
	note as3 $08
	rest $02
	vol $3
	note as3 $02
	rest $04
	vol $6
	note c4  $04
	rest $04
	vol $3
	note c4  $02
	rest $46
	vol $6
	note as3 $08
	rest $02
	vol $3
	note as3 $02
	rest $04
	vol $6
	note c4  $04
	rest $04
	vol $3
	note c4  $02
	rest $06
	vol $1
	note c4  $02
	rest $5e
	vol $6
	note as3 $08
	rest $02
	vol $3
	note as3 $02
	rest $04
	vol $6
	note c4  $04
	rest $04
	vol $3
	note c4  $02
	rest $06
	vol $6
	note d4  $08
	rest $02
	vol $3
	note d4  $02
	rest $04
	vol $6
	note c4  $04
	rest $04
	vol $3
	note c4  $02
	rest $06
	vol $6
	note as3 $08
	rest $02
	vol $3
	note as3 $02
	rest $04
	vol $6
	note c4  $04
	rest $04
	vol $3
	note c4  $02
	rest $06
	vol $1
	note c4  $02
	rest $ff
	rest $ff
	rest $10
	vol $6
	note g4  $08
	rest $02
	vol $3
	note g4  $02
	rest $04
	vol $6
	note a4  $08
	rest $02
	vol $3
	note a4  $02
	rest $04
	vol $6
	note g4  $08
	rest $02
	vol $3
	note g4  $02
	rest $04
	vol $6
	note a4  $08
	rest $02
	vol $3
	note a4  $02
	rest $04
	vol $6
	note g4  $08
	rest $02
	vol $3
	note g4  $02
	rest $04
	vol $6
	note as4 $0c
	rest $01
	vol $3
	note as4 $03
	rest $02
	note as4 $02
	rest $0c
	vol $6
	note as4 $0a
	rest $02
	vol $1
	note as4 $04
	rest $02
	vol $3
	note as4 $02
	rest $06
	vol $2
	note as4 $02
	rest $04
	vol $6
	note a4  $08
	rest $02
	vol $3
	note a4  $02
	rest $04
	vol $6
	note g4  $08
	rest $02
	vol $3
	note g4  $02
	rest $34
	vol $6
	note g4  $08
	rest $02
	vol $3
	note g4  $02
	rest $04
	vol $6
	note a4  $08
	rest $02
	vol $3
	note a4  $02
	rest $04
	vol $6
	note g4  $08
	rest $02
	vol $3
	note g4  $02
	rest $04
	vol $6
	note a4  $08
	rest $02
	vol $3
	note a4  $02
	rest $04
	vol $6
	note g4  $08
	rest $02
	vol $3
	note g4  $02
	rest $04
	vol $6
	note a4  $08
	rest $02
	vol $3
	note a4  $02
	rest $04
	vol $6
	note g4  $08
	rest $02
	vol $3
	note g4  $02
	rest $04
	vol $6
	note as4 $0c
	rest $01
	vol $3
	note as4 $03
	rest $05
	vol $3
	note as4 $03
	rest $02
	vol $3
	note as4 $02
	rest $04
	vol $6
	note as4 $10
	rest $02
	vol $3
	note as4 $02
	rest $06
	note as4 $02
	rest $04
	vol $6
	note a4  $08
	rest $02
	vol $3
	note a4  $02
	rest $04
	vol $6
	note g4  $08
	rest $02
	vol $3
	note g4  $02
	vol $0
	rest $ff
	vol $0
	rest $ff
	rest $36
	vol $6
	note e4  $0d
	rest $03
	note e4  $02
	rest $02
	vol $4
	note e4  $04
	rest $04
	vol $3
	note e4  $04
	rest $10
	vol $6
	note d4  $08
	rest $02
	vol $3
	note d4  $04
	rest $02
	vol $6
	note c4  $08
	rest $02
	vol $3
	note c4  $04
	rest $04
	vol $2
	note c4  $02
	rest $ac
	vol $6
	note e4  $05
	rest $03
	vol $6
	note e4  $05
	rest $03
	vol $6
	note e4  $05
	rest $05
	vol $3
	note e4  $04
	rest $02
	vol $6
	note e4  $05
	rest $05
	vol $3
	note e4  $04
	rest $02
	vol $6
	note d4  $05
	rest $03
	vol $3
	note d4  $04
	rest $04
	vol $6
	note c4  $05
	rest $03
	vol $3
	note c4  $04
	rest $04
	vol $2
	note c4  $02
	rest $4e
	vol $6
	note g4  $08
	rest $02
	vol $3
	note g4  $02
	rest $04
	vol $6
	note a4  $08
	rest $02
	vol $3
	note a4  $02
	rest $04
	vol $6
	note g4  $08
	rest $02
	vol $3
	note g4  $02
	rest $04
	vol $6
	note a4  $08
	rest $02
	vol $3
	note a4  $02
	rest $04
	vol $6
	note g4  $08
	rest $02
	vol $3
	note g4  $02
	rest $04
	vol $6
	note as4 $08
	rest $02
	vol $3
	note as4 $02
	rest $06
	note as4 $02
	rest $06
	note as4 $02
	rest $04
	vol $6
	note as4 $08
	rest $02
	vol $3
	note as4 $02
	rest $06
	vol $3
	note as4 $02
	rest $06
	vol $2
	note as4 $02
	rest $04
	vol $6
	note a4  $08
	rest $02
	vol $3
	note a4  $02
	rest $04
	vol $6
	note g4  $08
	rest $02
	vol $3
	note g4  $02
	rest $34
	vol $6
	note g4  $08
	rest $02
	vol $3
	note g4  $02
	rest $04
	vol $6
	note a4  $08
	rest $02
	vol $3
	note a4  $02
	rest $04
	vol $6
	note g4  $08
	rest $02
	vol $3
	note g4  $02
	rest $04
	vol $6
	note a4  $08
	rest $02
	vol $3
	note a4  $02
	rest $04
	vol $6
	note g4  $08
	rest $02
	vol $3
	note g4  $02
	rest $04
	vol $6
	note a4  $08
	rest $02
	vol $3
	note a4  $02
	rest $04
	vol $6
	note g4  $08
	rest $02
	vol $3
	note g4  $02
	rest $04
	vol $6
	note as4 $08
	rest $02
	vol $3
	note as4 $02
	rest $06
	vol $3
	note as4 $02
	rest $06
	vol $3
	note as4 $02
	rest $04
	vol $6
	note as4 $08
	rest $02
	vol $5
	note as4 $02
	rest $06
	vol $4
	note as4 $02
	rest $06
	vol $3
	note as4 $02
	rest $04
	vol $6
	note a4  $08
	rest $02
	vol $3
	note a4  $02
	rest $04
	vol $6
	note g4  $08
	rest $02
	vol $3
	note g4  $02
	vol $0
	rest $ff
	vol $0
	rest $85
	goto musicf83e8
	cmdff

musGoronCaveChannel0:
	vibrato $00
	env $0 $00
.ifdef ROM_SEASONS
	cmdf2
.endif
	duty $02
musicf87b3:
	vol $6
	note c2  $08
	rest $08
	note c2  $08
	rest $08
	note e3  $10
	note c3  $08
	note g2  $08
	rest $10
	note g2  $08
	rest $08
	note c3  $08
	rest $08
	note g2  $08
	rest $08
	note c2  $08
	rest $08
	note c2  $08
	rest $08
	note e3  $10
	note c3  $08
	note g2  $04
	rest $04
	note g2  $08
	rest $08
	note as2 $08
	rest $08
	note c3  $08
	rest $08
	note g2  $08
	rest $08
	note c2  $08
	rest $08
	note c2  $08
	rest $08
	note e3  $10
	note c3  $08
	note g2  $04
	rest $04
	note g2  $08
	rest $08
	note as2 $08
	rest $08
	note c3  $08
	rest $08
	note g2  $08
	rest $08
	note c2  $08
	rest $08
	note c2  $08
	rest $08
	note e3  $10
	note c3  $08
	note g2  $04
	rest $04
	note g2  $18
	rest $08
	note as2 $08
	rest $08
	note c3  $08
	rest $08
	note c2  $08
	rest $08
	note c2  $08
	rest $08
	note e3  $10
	note c3  $08
	note g2  $08
	rest $10
	note g2  $08
	rest $08
	note c3  $08
	rest $08
	note g2  $08
	rest $08
	note c2  $08
	rest $08
	note c2  $08
	rest $08
	note e3  $10
	note c3  $08
	note g2  $08
	rest $10
	note g2  $08
	note as2 $08
	note c3  $08
	rest $08
	note g2  $08
	rest $08
	note c2  $08
	rest $08
	note c2  $08
	rest $08
	note e3  $10
	note c3  $08
	note g2  $04
	rest $04
	note g2  $10
	rest $10
	note as2 $08
	rest $08
	note c3  $08
	rest $08
	note c2  $20
	note e3  $08
	rest $08
	note g2  $08
	rest $18
	note g2  $08
	rest $08
	note as2 $08
	rest $08
	note c3  $08
	rest $08
	note c2  $08
	rest $08
	note c2  $08
	rest $08
	note e3  $10
	note g2  $08
	rest $08
	note as2 $10
	note c3  $08
	rest $08
	note as2 $10
	note c3  $08
	rest $08
	note c2  $08
	rest $08
	note c2  $08
	rest $08
	note e3  $10
	note g2  $08
	rest $18
	note g2  $08
	rest $08
	note as2 $10
	note c3  $08
	rest $08
	note c2  $08
	rest $08
	note c2  $08
	rest $08
	note e3  $10
	note g2  $08
	rest $18
	note g2  $08
	rest $08
	note as2 $10
	note c3  $08
	rest $08
	note as2 $10
	note c3  $08
	rest $08
	note e3  $10
	note c3  $08
	rest $18
	note g2  $10
	note as2 $10
	note c3  $08
	rest $08
	note c2  $08
	rest $08
	note c2  $08
	rest $08
	note e3  $10
	note g2  $08
	rest $18
	note g2  $08
	rest $08
	note c3  $08
	rest $08
	note g2  $08
	rest $08
	note c2  $08
	rest $10
	note c2  $08
	note e3  $18
	note g2  $04
	rest $04
	note g2  $08
	rest $08
	note g2  $08
	note as2 $08
	note c3  $08
	rest $08
	note g2  $08
	rest $08
	note c2  $08
	rest $08
	note c2  $08
	rest $08
	note e3  $10
	note g2  $08
	rest $18
	note g2  $08
	rest $08
	note c3  $08
	rest $08
	note g2  $08
	rest $08
	note c2  $08
	rest $08
	note c2  $08
	rest $08
	note e3  $10
	note c3  $08
	note g2  $08
	rest $10
	note g2  $08
	rest $08
	note as2 $08
	rest $08
	note c3  $08
	rest $08
	note c2  $08
	rest $08
	note c2  $08
	rest $08
	note e3  $10
	note c3  $08
	note g2  $08
	rest $10
	note c3  $08
	rest $08
	note as2 $08
	rest $08
	note c3  $08
	rest $08
	note c2  $10
	rest $08
	note ds3 $08
	note e3  $10
	note c3  $08
	note g2  $08
	note c3  $08
	rest $08
	note g2  $08
	rest $08
	note as2 $08
	rest $08
	note c3  $08
	rest $08
	note c2  $08
	rest $08
	note c2  $08
	rest $08
	note e3  $10
	note c3  $08
	note g2  $08
	note c3  $08
	rest $08
	note g2  $08
	rest $08
	note as2 $08
	rest $08
	note c3  $08
	rest $08
	note c2  $08
	rest $08
	note c2  $08
	rest $08
	note e3  $10
	note c3  $08
	note g2  $08
	note c3  $08
	rest $08
	note g2  $08
	rest $08
	note as2 $08
	rest $08
	note c3  $08
	rest $08
	note c2  $10
	rest $10
	note e3  $10
	note c3  $08
	note g2  $08
	rest $10
	note c3  $08
	rest $08
	note as2 $08
	rest $08
	note c3  $08
	rest $08
	note c2  $10
	rest $08
	note ds3 $08
	note e3  $10
	note c3  $08
	note g2  $08
	note c3  $08
	rest $08
	note g2  $08
	rest $08
	note as2 $08
	rest $08
	note c3  $08
	rest $08
	note c2  $08
	rest $18
	note e3  $10
	note c3  $08
	note g2  $08
	note c3  $08
	rest $08
	note g2  $08
	rest $08
	note as2 $08
	rest $08
	note c3  $08
	rest $08
	note c2  $08
	rest $08
	note c2  $08
	rest $08
	note e3  $10
	note c3  $08
	note g2  $08
	rest $10
	note g2  $08
	rest $08
	note c3  $08
	rest $08
	note g2  $08
	rest $08
	note c2  $08
	rest $08
	note c2  $08
	rest $08
	note e3  $10
	note c3  $08
	note g2  $04
	rest $04
	note g2  $08
	rest $08
	note as2 $08
	rest $08
	note c3  $08
	rest $08
	note g2  $08
	rest $08
	note c2  $08
	rest $08
	note c2  $08
	rest $08
	note e3  $10
	note c3  $08
	note g2  $04
	rest $04
	note g2  $08
	rest $08
	note as2 $08
	rest $08
	note c3  $08
	rest $08
	note g2  $08
	rest $08
	note c2  $20
	note e3  $08
	rest $08
	note g2  $08
	rest $18
	note g2  $08
	rest $08
	note as2 $08
	rest $08
	note c3  $08
	rest $08
	note c2  $08
	rest $08
	note c2  $08
	rest $08
	note e3  $08
	rest $08
	note g2  $08
	rest $18
	note g2  $08
	rest $08
	note c3  $08
	rest $08
	note g2  $08
	rest $08
	note c2  $08
	rest $10
	note c2  $08
	note e3  $18
	note g2  $08
	rest $10
	note g2  $08
	note as2 $08
	note c3  $08
	rest $08
	note g2  $08
	rest $08
	note c2  $08
	rest $08
	note c2  $08
	rest $08
	note e3  $08
	rest $08
	note g2  $08
	rest $18
	note g2  $08
	rest $08
	note c3  $08
	rest $08
	note g2  $08
	rest $08
	note c2  $08
	rest $08
	note c2  $08
	rest $08
	note e3  $10
	note c3  $08
	note g2  $08
	note c3  $08
	rest $08
	note g2  $08
	rest $08
	note as2 $08
	rest $08
	note c3  $08
	rest $08
	note c2  $08
	rest $08
	note c2  $08
	rest $08
	note e3  $10
	note c3  $08
	note g2  $08
	rest $10
	note c3  $08
	rest $08
	note as2 $08
	rest $08
	note c3  $08
	rest $08
	note c2  $0a
	rest $0e
	note ds3 $08
	note e3  $10
	note c3  $08
	note g2  $08
	note c3  $08
	rest $08
	note g2  $08
	rest $08
	note as2 $08
	rest $08
	note c3  $08
	rest $08
	goto musicf87b3
	cmdff

musGoronCaveChannel4:
.ifdef ROM_SEASONS
	cmdf2
.endif
musicf8b3e:
	duty $17
	rest $30
	note g3  $0d
	rest $23
	note f3  $08
	rest $08
	note e3  $08
	rest $b8
	note g3  $02
	rest $06
	note g3  $02
	rest $06
	note g3  $04
	rest $0c
	note g3  $04
	rest $0c
	note f3  $04
	rest $0c
	note e3  $04
	rest $6c
	note d3  $08
	rest $08
	note e3  $04
	rest $3c
	note g3  $0d
	rest $23
	note f3  $08
	rest $08
	note e3  $08
	rest $b8
	note g3  $02
	rest $06
	note g3  $02
	rest $06
	note g3  $04
	rest $0c
	note g3  $04
	rest $0c
	note f3  $04
	rest $0c
	note e3  $04
	rest $6c
	note d3  $08
	rest $08
	note e3  $04
	rest $6c
	note d3  $08
	rest $08
	note e3  $04
	rest $0c
	note d3  $08
	rest $08
	note e3  $04
	rest $4c
	note d3  $08
	rest $08
	note e3  $04
	rest $6c
	note f3  $06
	rest $0a
	note f3  $04
	rest $0c
	note f3  $06
	rest $0a
	note f3  $04
	rest $ff
	rest $ff
	rest $3e
	duty $17
	note e4  $08
	rest $08
	note f4  $08
	rest $08
	note e4  $08
	rest $08
	note f4  $08
	rest $08
	note e4  $08
	rest $08
	note g4  $0c
	rest $14
	note g4  $0a
	rest $16
	note f4  $08
	rest $08
	note e4  $08
	rest $38
	note e4  $08
	rest $08
	note f4  $08
	rest $08
	note e4  $08
	rest $08
	note f4  $08
	rest $08
	note e4  $08
	rest $08
	note f4  $08
	rest $08
	note e4  $08
	rest $08
	note g4  $0c
	rest $14
	note g4  $10
	rest $10
	note f4  $08
	rest $08
	note e4  $08
	rest $ff
	rest $ff
	rest $3a
	duty $17
	note g3  $0d
	rest $23
	note f3  $08
	rest $08
	note e3  $08
	rest $b8
	note g3  $04
	rest $04
	note g3  $04
	rest $04
	note g3  $08
	rest $08
	note g3  $08
	rest $08
	note f3  $08
	rest $08
	note e3  $08
	rest $58
	note e4  $08
	rest $08
	note f4  $08
	rest $08
	note e4  $08
	rest $08
	note f4  $08
	rest $08
	note e4  $08
	rest $08
	note g4  $08
	rest $18
	note g4  $08
	rest $18
	note f4  $08
	rest $08
	note e4  $08
	rest $38
	note e4  $08
	rest $08
	note f4  $08
	rest $08
	note e4  $08
	rest $08
	note f4  $08
	rest $08
	note e4  $08
	rest $08
	note f4  $08
	rest $08
	note e4  $08
	rest $08
	note g4  $08
	rest $18
	note g4  $08
	rest $18
	note f4  $08
	rest $08
	note e4  $08
	rest $ff
	rest $89
	goto musicf8b3e
	cmdff

musGoronCaveChannel6:
.ifdef ROM_SEASONS
	cmdf2
.endif
musicf8c98:
	vol $6
	note $24 $10
	note $24 $60
	note $24 $10
	note $24 $10
	note $24 $30
	note $24 $30
	note $24 $10
	note $24 $10
	note $24 $60
	note $24 $10
	note $24 $10
	note $24 $30
	note $24 $30
	note $24 $10
	note $24 $10
	note $24 $60
	note $24 $10
	note $24 $10
	note $24 $30
	note $24 $30
	note $24 $10
	note $24 $10
	note $24 $60
	note $24 $10
	note $24 $10
	note $24 $30
	note $24 $30
	note $24 $10
	note $24 $10
	note $24 $60
	note $24 $10
	note $24 $10
	note $24 $30
	note $24 $30
	note $24 $10
	note $24 $10
	note $24 $60
	note $24 $10
	note $24 $10
	note $24 $30
	note $24 $30
	note $24 $10
	note $24 $10
	note $24 $60
	note $24 $10
	note $24 $10
	note $24 $30
	note $24 $30
	note $24 $10
	note $24 $10
	note $24 $60
	note $24 $10
	note $24 $10
	note $24 $30
	note $24 $30
	note $24 $10
	note $24 $10
	note $24 $60
	note $24 $10
	note $24 $10
	note $24 $30
	note $24 $30
	note $24 $10
	note $24 $10
	note $24 $60
	note $24 $10
	note $24 $10
	note $24 $30
	note $24 $30
	note $24 $10
	note $24 $10
	note $24 $60
	note $24 $10
	note $24 $10
	note $24 $30
	note $24 $30
	note $24 $10
	note $24 $10
	note $24 $60
	note $24 $10
	note $24 $10
	note $24 $30
	note $24 $30
	note $24 $10
	note $24 $10
	note $24 $60
	note $24 $10
	note $24 $10
	note $24 $30
	note $24 $30
	note $24 $10
	note $24 $10
	note $24 $60
	note $24 $10
	note $24 $10
	note $24 $30
	note $24 $30
	note $24 $10
	note $24 $10
	note $24 $60
	note $24 $10
	note $24 $10
	note $24 $30
	note $24 $30
	note $24 $10
	note $24 $10
	note $24 $60
	note $24 $10
	note $24 $10
	note $24 $30
	note $24 $30
	note $24 $10
	note $24 $10
	note $24 $60
	note $24 $10
	goto musicf8c98
	cmdff

.ifdef ROM_SEASONS
.ifdef BUILD_VANILLA
	.db $ff $ff $ff $ff
.endif
.endif
