musIndoorsStart:

musIndoorsChannel1:
	vibrato $e1
	env $0 $00
	duty $02
musice8007:
	vol $7
	note b5  $0b
	note c6  $0b
	note b5  $0b
	note c6  $0b
	note b5  $0b
	rest $05
	vol $3
	note b5  $06
	vol $7
	note g5  $0b
	rest $05
	vol $3
	note g5  $06
	vol $7
	note e5  $0b
	rest $05
	vol $3
	note e5  $06
	vol $7
	note g5  $0b
	rest $05
	vol $3
	note g5  $06
	vol $7
	note a5  $0b
	note as5 $0b
	note a5  $0b
	note as5 $0b
	note a5  $0b
	rest $05
	vol $3
	note a5  $06
	vol $6
	note f5  $0b
	rest $05
	vol $3
	note f5  $06
	vol $6
	note d5  $0b
	rest $05
	vol $3
	note d5  $06
	vol $6
	note f5  $0b
	rest $05
	vol $3
	note f5  $06
	vol $7
	note b5  $0b
	note c6  $0b
	note b5  $0b
	note c6  $0b
	note b5  $0b
	rest $05
	vol $3
	note b5  $06
	vol $7
	note g5  $0b
	rest $05
	vol $3
	note g5  $06
	vol $7
	note e5  $0b
	rest $05
	vol $3
	note e5  $06
	vol $7
	note g5  $0b
	rest $05
	vol $3
	note g5  $06
	vol $7
	note a5  $0b
	note as5 $0b
	note a5  $0b
	note as5 $0b
	note a5  $0b
	rest $05
	vol $3
	note a5  $06
	vol $6
	note f5  $0b
	rest $05
	vol $3
	note f5  $06
	vol $6
	note d5  $0b
	rest $05
	vol $3
	note d5  $06
	vol $6
	note f5  $0b
	rest $05
	vol $3
	note f5  $06
	vol $6
	note g5  $0b
	note gs5 $0b
	vol $6
	note g5  $0b
	vol $6
	note gs5 $0b
	vol $6
	note g5  $0b
	rest $05
	vol $3
	note g5  $06
	vol $6
	note ds5 $0b
	rest $05
	vol $3
	note ds5 $06
	vol $6
	note c5  $0b
	rest $05
	vol $3
	note c5  $06
	vol $6
	note g5  $0b
	rest $05
	vol $3
	note g5  $06
	vol $6
	note f5  $0b
	note g5  $0b
	note f5  $0b
	note g5  $0b
	vol $5
	note f5  $0b
	rest $05
	vol $2
	note f5  $06
	vol $6
	note d5  $0b
	rest $05
	vol $3
	note d5  $06
	vol $6
	note as4 $0b
	rest $05
	vol $3
	note as4 $06
	vol $6
	note d5  $0b
	rest $05
	vol $3
	note d5  $06
	vol $6
	note c5  $42
	vol $6
	note a4  $0b
	rest $05
	vol $3
	note a4  $06
	vol $6
	note c5  $0b
	rest $05
	vol $3
	note c5  $06
	vol $6
	note f5  $0b
	rest $05
	vol $3
	note f5  $06
	vol $8
	note g5  $58
	vol $5
	note g6  $03
	rest $03
	vol $4
	note g6  $05
	rest $03
	vol $4
	note g6  $03
	rest $1b
	goto musice8007
	cmdff

musIndoorsChannel4:
	duty $08
musice812e:
	note g5  $0b
	note a5  $0b
	note g5  $0b
	note a5  $0b
	note g5  $03
	rest $03
	note g5  $05
	rest $03
	vol $4
	note g5  $03
	rest $05
	vol $6
	note e5  $03
	rest $03
	vol $4
	note e5  $05
	rest $03
	vol $4
	note e5  $03
	rest $05
	vol $6
	note b4  $03
	rest $03
	vol $4
	note b4  $05
	rest $03
	vol $4
	note b4  $03
	rest $05
	vol $6
	note g4  $03
	rest $03
	vol $4
	note g4  $05
	rest $03
	vol $4
	note g4  $03
	rest $05
	vol $6
	note f5  $0b
	note g5  $0b
	note f5  $0b
	note g5  $0b
	note f5  $03
	rest $03
	vol $4
	note f5  $05
	rest $03
	vol $4
	note f5  $03
	rest $05
	vol $6
	note d5  $03
	rest $03
	vol $5
	note d5  $05
	rest $03
	vol $4
	note d5  $03
	rest $05
	vol $6
	note as4 $03
	rest $03
	vol $4
	note as4 $05
	rest $03
	vol $3
	note as4 $03
	rest $05
	vol $6
	note f4  $03
	rest $03
	vol $4
	note f4  $05
	rest $03
	vol $3
	note f4  $03
	rest $05
	vol $6
	note g5  $0b
	note a5  $0b
	note g5  $0b
	note a5  $0b
	note g5  $03
	rest $03
	vol $5
	note g5  $05
	rest $03
	vol $4
	note g5  $03
	rest $05
	vol $6
	note e5  $03
	rest $03
	vol $4
	note e5  $05
	rest $03
	vol $4
	note e5  $03
	rest $05
	vol $6
	note b4  $03
	rest $03
	vol $4
	note b4  $05
	rest $03
	vol $4
	note b4  $03
	rest $05
	vol $6
	note g4  $03
	rest $03
	vol $4
	note g4  $05
	rest $03
	vol $4
	note g4  $03
	rest $05
	vol $6
	note f5  $0b
	note g5  $0b
	note f5  $0b
	note g5  $0b
	note f5  $03
	rest $03
	vol $4
	note f5  $05
	rest $03
	vol $4
	note f5  $03
	rest $05
	vol $6
	note d5  $03
	rest $03
	vol $5
	note d5  $05
	rest $03
	vol $4
	note d5  $03
	rest $05
	vol $6
	note as4 $03
	rest $03
	vol $5
	note as4 $05
	rest $03
	vol $4
	note as4 $03
	rest $05
	vol $6
	note f4  $03
	rest $03
	vol $5
	note f4  $05
	rest $03
	vol $3
	note f4  $03
	rest $05
	vol $7
	note ds5 $0b
	vol $6
	note f5  $0b
	note ds5 $0b
	note f5  $0b
	note ds5 $03
	rest $03
	vol $5
	note ds5 $05
	rest $03
	vol $3
	note ds5 $03
	rest $05
	vol $6
	note c5  $03
	rest $03
	vol $5
	note c5  $05
	rest $03
	vol $3
	note c5  $03
	rest $05
	vol $6
	note gs4 $03
	rest $03
	vol $5
	note gs4 $05
	rest $03
	vol $4
	note gs4 $03
	rest $05
	vol $6
	note ds4 $03
	rest $03
	vol $5
	note ds4 $05
	rest $03
	vol $4
	note ds4 $03
	rest $05
	vol $6
	note d5  $0b
	note ds5 $0b
	note d5  $0b
	note ds5 $0b
	note d5  $03
	rest $03
	vol $5
	note d5  $05
	rest $03
	vol $4
	note d5  $03
	rest $05
	vol $6
	note as4 $03
	rest $03
	vol $5
	note as4 $05
	rest $03
	vol $4
	note as4 $03
	rest $05
	vol $6
	note f4  $03
	rest $03
	vol $5
	note f4  $05
	rest $03
	vol $4
	note f4  $03
	rest $05
	vol $6
	note d4  $03
	rest $03
	vol $4
	note d4  $05
	rest $03
	vol $3
	note d4  $03
	rest $05
	vol $6
	note ds4 $0b
	note d4  $0b
	vol $6
	note c4  $03
	rest $03
	vol $5
	note c4  $05
	rest $03
	vol $3
	note c4  $03
	rest $05
	vol $6
	note ds4 $03
	rest $03
	vol $5
	note ds4 $05
	rest $03
	vol $3
	note ds4 $03
	rest $05
	vol $6
	note f4  $03
	rest $03
	vol $5
	note f4  $05
	rest $03
	vol $5
	note f4  $03
	rest $05
	vol $6
	note a4  $03
	rest $03
	vol $6
	note a4  $05
	rest $03
	vol $5
	note a4  $03
	rest $05
	vol $6
	note c5  $03
	rest $03
	vol $5
	note c5  $05
	rest $03
	vol $4
	note c5  $03
	rest $05
	vol $7
	note b4  $0b
	rest $03
	vol $6
	note b4  $03
	rest $05
	vol $5
	note b4  $03
	rest $03
	vol $4
	note b4  $05
	rest $0b
	vol $6
	note c5  $0b
	rest $03
	vol $5
	note c5  $03
	rest $05
	vol $4
	note c5  $03
	rest $03
	vol $4
	note c5  $05
	rest $0b
	vol $6
	note d5  $07
	rest $04
	vol $4
	note d5  $03
	rest $03
	vol $4
	note d5  $05
	rest $03
	vol $3
	note d5  $03
	rest $10
	goto musice812e
	cmdff

musIndoorsChannel0:
	duty $02
musice8357:
	vol $6
	note c4  $0b
	vol $3
	note c4  $0b
	vol $6
	note g4  $0b
	vol $3
	note g4  $0b
	vol $6
	note b4  $0b
	vol $3
	note b4  $0b
	vol $6
	note e5  $0b
	vol $3
	note e5  $16
	rest $21
	vol $6
	note as3 $0b
	vol $3
	note as3 $0b
	vol $6
	note f4  $0b
	vol $3
	note f4  $0b
	vol $6
	note a4  $0b
	vol $3
	note a4  $0b
	vol $6
	note d5  $0b
	vol $3
	note d5  $16
	rest $21
	vol $6
	note c4  $0b
	vol $3
	note c4  $0b
	vol $6
	note g4  $0b
	vol $3
	note g4  $0b
	vol $6
	note b4  $0b
	vol $3
	note b4  $0b
	vol $6
	note e5  $0b
	vol $3
	note e5  $16
	rest $21
	vol $6
	note as3 $0b
	vol $3
	note as3 $0b
	vol $6
	note f4  $0b
	vol $3
	note f4  $0b
	vol $6
	note a4  $0b
	vol $3
	note a4  $0b
	vol $6
	note d5  $0b
	vol $3
	note d5  $16
	rest $21
	vol $6
	note gs3 $0b
	vol $3
	note gs3 $0b
	vol $6
	note ds4 $0b
	vol $3
	note ds4 $0b
	vol $6
	note g4  $0b
	vol $3
	note g4  $0b
	vol $6
	note c5  $0b
	vol $3
	note c5  $16
	rest $21
	vol $6
	note g3  $0b
	vol $3
	note g3  $0b
	vol $6
	note d4  $0b
	vol $3
	note d4  $0b
	vol $6
	note g4  $0b
	vol $3
	note g4  $0b
	vol $6
	note as4 $0b
	vol $3
	note as4 $16
	rest $21
	vol $6
	note f3  $0b
	vol $3
	note f3  $0b
	vol $6
	note c4  $0b
	vol $3
	note c4  $0b
	vol $6
	note f4  $0b
	vol $3
	note f4  $0b
	vol $6
	note a4  $0b
	vol $3
	note a4  $16
	rest $21
	vol $6
	note g3  $0b
	vol $3
	note g3  $0b
	vol $6
	note b3  $0b
	vol $3
	note b3  $0b
	vol $6
	note d4  $0b
	vol $3
	note d4  $0b
	vol $6
	note g4  $0b
	vol $3
	note g4  $0b
	vol $6
	note d4  $0b
	vol $3
	note d4  $0b
	vol $6
	note b3  $0b
	vol $3
	note b3  $0b
	goto musice8357
	cmdff

.ifdef ROM_SEASONS
.ifdef BUILD_VANILLA
	.db $ff $ff $ff
.endif
.endif

.define musIndoorsChannel6 MUSIC_CHANNEL_FALLBACK EXPORT
