musIntro1Start:

musIntro1Channel1:
	vibrato $e1
	env $0 $00
	cmdf2
	duty $01
	vol $5
	note d4  $2a
	vol $3
	note d4  $0e
	vol $5
	note g4  $54
	vibrato $01
	env $0 $00
	vol $3
	note g4  $1c
	vibrato $e1
	env $0 $00
	vol $5
	note d4  $1c
	note g4  $1c
	note f4  $0e
	note e4  $0e
	note f4  $1c
	note c4  $38
	vibrato $01
	env $0 $00
	vol $3
	note c4  $1c
	vibrato $e1
	env $0 $00
	vol $6
	note c4  $1c
	note f4  $1c
	note as4 $1c
	note gs4 $0e
	note fs4 $0e
	note gs4 $1c
	note ds4 $38
	vibrato $01
	env $0 $00
	vol $3
	note ds4 $1c
	vibrato $e1
	env $0 $00
	vol $6
	note ds4 $1c
	note gs4 $1c
	note cs5 $1c
	note b4  $0e
	note as4 $0e
	note b4  $1c
	note fs4 $38
	vibrato $01
	env $0 $00
	vol $4
	note fs4 $1c
	vibrato $e1
	env $0 $00
	vol $7
	note fs4 $1c
	vol $6
	note b4  $1c
	vol $9
	note e5  $1c
	vol $4
	note e5  $07
	rest $03
	vol $3
	note e5  $07
	rest $04
	vol $2
	note e5  $07
	duty $02
	vol $6
	note ds5 $15
	vol $4
	note ds5 $07
	vol $6
	note as4 $07
	rest $03
	vol $4
	note as4 $04
	vol $6
	note as5 $07
	rest $03
	vol $4
	note as5 $04
	vol $6
	note gs5 $1c
	note g5  $07
	rest $03
	vol $4
	note g5  $04
	vol $6
	note f5  $1c
	note cs5 $07
	rest $03
	vol $4
	note cs5 $04
	vol $6
	note ds5 $07
	note f5  $07
	note g5  $07
	rest $03
	vol $4
	note g5  $04
	vol $6
	note f5  $0e
	note ds5 $0e
	note cs5 $0e
	note f5  $0e
	note ds5 $1c
	vibrato $01
	env $0 $00
	vol $4
	note ds5 $1c
	vibrato $e1
	env $0 $00
	vol $6
	note ds5 $07
	note f5  $07
	note g5  $07
	note gs5 $07
	rest $03
	vol $4
	note gs5 $07
	rest $04
	vol $2
	note gs5 $07
	rest $03
	vol $1
	note gs5 $04
	vol $6
	note as5 $1c
	note ds6 $1c
	vol $4
	note ds6 $0e
	vol $6
	note f6  $0e
	note cs6 $0e
	note as5 $07
	note cs6 $07
	note ds6 $07
	note f6  $07
	note fs6 $07
	rest $03
	vol $4
	note fs6 $04
	vol $6
	note f6  $0e
	note ds6 $0e
	note cs6 $0e
	note as5 $0e
	rest $03
	vol $4
	note as5 $07
	rest $04
	vol $6
	note f6  $07
	rest $03
	vol $4
	note f6  $04
	vol $6
	note fs6 $07
	note gs6 $07
	note a6  $07
	rest $03
	vol $4
	note a6  $04
	vol $6
	note gs6 $0e
	note fs6 $0e
	note e6  $0e
	note d6  $0e
	note c6  $1c
	note b5  $07
	rest $03
	vol $4
	note b5  $04
	vol $6
	note a5  $1c
	note g5  $07
	rest $03
	vol $4
	note g5  $04
	vol $6
	note a5  $38
	vibrato $01
	env $0 $00
	vol $4
	note a5  $1c
	vibrato $e1
	vol $6
	note gs5 $1c
	vol $6
	note fs5 $07
	rest $03
	vol $3
	note fs5 $04
	vol $6
	note e5  $1c
	note d5  $07
	rest $03
	vol $3
	note d5  $04
	vol $6
	note e5  $46
	vibrato $01
	env $0 $00
	vol $3
	note e5  $0e
	vibrato $e1
	vol $6
	note b4  $07
	rest $07
	vol $4
	note b4  $07
	rest $07
	vol $2
	note b4  $07
	rest $07
	vol $1
	note b4  $07
	rest $07
	vibrato $e1
	env $0 $00
	vol $0
	note b4  $07
	rest $15
	vibrato $00
	duty $02
musicf6ed3:
	vol $5
	note e5  $05
	rest $05
	vol $7
	note d5  $05
	vol $3
	note e5  $05
	vol $7
	note a4  $05
	vol $4
	note d5  $05
	vol $7
	note d5  $05
	vol $4
	note a4  $05
	vol $7
	note e5  $05
	vol $4
	note d5  $05
	vol $7
	note g5  $05
	vol $4
	note e5  $05
	vol $7
	note e5  $05
	vol $4
	note g5  $05
	vol $7
	note d5  $05
	vol $4
	note e5  $05
	vol $7
	note e5  $05
	vol $4
	note d5  $05
	vol $7
	note d5  $05
	vol $4
	note e5  $05
	vol $7
	note a4  $05
	vol $4
	note d5  $05
	vol $7
	note d5  $05
	vol $4
	note a4  $05
	vol $7
	note e5  $05
	vol $4
	note d5  $05
	vol $7
	note g5  $05
	vol $4
	note e5  $05
	vol $7
	note e5  $05
	vol $4
	note g5  $05
	vol $7
	note d5  $05
	vol $4
	note e5  $05
	vol $7
	note e5  $05
	vol $4
	note d5  $05
	vol $7
	note d5  $05
	vol $4
	note e5  $05
	vol $7
	note a4  $05
	vol $4
	note d5  $05
	vol $7
	note d5  $05
	vol $4
	note a4  $05
	vol $7
	note e5  $05
	vol $4
	note d5  $05
	vol $7
	note g5  $05
	vol $4
	note e5  $05
	vol $7
	note e5  $05
	vol $4
	note g5  $05
	vol $7
	note d5  $05
	vol $4
	note e5  $05
	vol $7
	note e5  $05
	vol $4
	note d5  $05
	vol $7
	note d5  $05
	vol $4
	note e5  $05
	vol $7
	note a4  $05
	vol $4
	note d5  $05
	vol $7
	note d5  $05
	vol $4
	note a4  $05
	vol $7
	note e5  $05
	vol $4
	note d5  $05
	vol $7
	note g5  $05
	vol $4
	note e5  $05
	vol $7
	note e5  $05
	vol $4
	note g5  $05
	vol $7
	note d5  $05
	vol $4
	note e5  $05
	vol $7
	note a4  $05
	vol $4
	note d5  $05
	vol $7
	note d5  $05
	vol $4
	note a4  $05
	vol $7
	note e5  $05
	vol $4
	note d5  $05
	vol $7
	note g5  $05
	vol $4
	note e5  $05
	vol $7
	note e5  $05
	vol $4
	note g5  $05
	vol $7
	note d5  $05
	vol $4
	note e5  $05
	vol $7
	note e5  $05
	vol $4
	note d5  $05
	vol $7
	note d5  $05
	vol $4
	note e5  $05
	vol $7
	note a4  $05
	vol $4
	note d5  $05
	vol $7
	note d5  $05
	vol $4
	note a4  $05
	vol $7
	note e5  $05
	vol $4
	note d5  $05
	vol $7
	note g5  $05
	vol $4
	note e5  $05
	vol $7
	note e5  $05
	vol $4
	note g5  $05
	vol $7
	note d5  $05
	vol $4
	note e5  $05
	vol $7
	note a4  $05
	vol $4
	note d5  $05
	vol $7
	note d5  $05
	vol $4
	note a4  $05
	vol $7
	note e5  $05
	vol $4
	note d5  $05
	vol $7
	note g5  $05
	vol $4
	note e5  $05
	vol $7
	note e5  $05
	vol $4
	note g5  $05
	vol $7
	note d5  $05
	vol $4
	note e5  $05
	vol $7
	note e5  $05
	vol $4
	note d5  $05
	vol $7
	note d5  $05
	vol $4
	note e5  $05
	vol $7
	note e5  $05
	vol $4
	note d5  $05
	vol $7
	note d5  $05
	vol $4
	note e5  $05
	vol $7
	note a4  $05
	vol $4
	note d5  $05
	vol $7
	note d5  $05
	vol $4
	note a4  $05
	vol $7
	note e5  $05
	vol $4
	note d5  $05
	vol $7
	note g5  $05
	vol $4
	note e5  $05
	vol $7
	note e5  $05
	vol $4
	note g5  $05
	vol $7
	note d5  $05
	vol $4
	note e5  $05
	vol $7
	note e5  $05
	vol $4
	note d5  $05
	vol $7
	note d5  $05
	vol $4
	note e5  $05
	vol $7
	note a4  $05
	vol $4
	note d5  $05
	vol $7
	note d5  $05
	vol $4
	note a4  $05
	vol $7
	note e5  $05
	vol $4
	note d5  $05
	vol $7
	note g5  $05
	vol $4
	note e5  $05
	vol $7
	note e5  $05
	vol $4
	note g5  $05
	vol $7
	note d5  $05
	vol $4
	note e5  $05
	vol $7
	note e5  $05
	vol $4
	note d5  $05
	vol $7
	note d5  $05
	vol $4
	note e5  $05
	vol $7
	note a4  $05
	vol $4
	note d5  $05
	vol $7
	note d5  $05
	vol $4
	note a4  $05
	vol $7
	note e5  $05
	vol $4
	note d5  $05
	vol $7
	note g5  $05
	vol $4
	note e5  $05
	vol $7
	note b5  $05
	vol $4
	note g5  $05
	vol $7
	note a5  $05
	vol $4
	note b5  $05
	vol $7
	note b5  $05
	vol $4
	note a5  $05
	vol $7
	note a5  $05
	vol $4
	note b5  $05
	vol $7
	note e5  $05
	vol $4
	note a5  $05
	vol $7
	note g5  $05
	vol $4
	note e5  $05
	vol $7
	note a5  $05
	vol $4
	note g5  $05
	vol $7
	note c6  $05
	vol $4
	note a5  $05
	vol $7
	note b5  $05
	vol $4
	note c6  $05
	vol $7
	note a5  $05
	vol $4
	note b5  $05
	vol $7
	note b5  $05
	vol $4
	note a5  $05
	vol $7
	note a5  $05
	vol $4
	note b5  $05
	vol $7
	note e5  $05
	vol $4
	note a5  $05
	vol $7
	note g5  $05
	vol $4
	note e5  $05
	vol $7
	note a5  $05
	vol $4
	note g5  $05
	vol $7
	note c6  $05
	vol $4
	note a5  $05
	vol $7
	note b5  $05
	vol $4
	note c6  $05
	vol $7
	note a5  $05
	vol $4
	note b5  $05
	vol $7
	note b5  $05
	vol $4
	note a5  $05
	vol $7
	note a5  $05
	vol $4
	note b5  $05
	vol $7
	note e5  $05
	vol $4
	note a5  $05
	vol $7
	note g5  $05
	vol $4
	note e5  $05
	vol $7
	note a5  $05
	vol $4
	note g5  $05
	vol $7
	note c6  $05
	vol $4
	note a5  $05
	vol $7
	note b5  $05
	vol $4
	note c6  $05
	vol $7
	note a5  $05
	vol $4
	note b5  $05
	vol $7
	note b5  $05
	vol $4
	note a5  $05
	vol $7
	note a5  $05
	vol $4
	note b5  $05
	vol $7
	note e5  $05
	vol $4
	note a5  $05
	vol $7
	note g5  $05
	vol $4
	note e5  $05
	vol $7
	note a5  $05
	vol $4
	note g5  $05
	vol $7
	note c6  $05
	vol $4
	note a5  $05
	vol $7
	note b5  $05
	vol $4
	note c6  $05
	vol $7
	note a5  $05
	vol $4
	note b5  $05
	vol $7
	note b5  $05
	vol $4
	note a5  $05
	vol $7
	note a5  $05
	vol $4
	note b5  $05
	vol $7
	note e5  $05
	vol $4
	note a5  $05
	vol $7
	note g5  $05
	vol $4
	note e5  $05
	vol $7
	note a5  $05
	vol $4
	note g5  $05
	vol $7
	note c6  $05
	vol $4
	note a5  $05
	vol $7
	note b5  $05
	vol $4
	note c6  $05
	vol $7
	note a5  $05
	vol $4
	note b5  $05
	vol $7
	note b5  $05
	vol $4
	note a5  $05
	vol $7
	note a5  $05
	vol $4
	note b5  $05
	vol $7
	note fs5 $05
	vol $4
	note a5  $05
	vol $7
	note e5  $05
	vol $4
	note fs5 $05
	vol $7
	note fs5 $05
	vol $4
	note e5  $05
	vol $7
	note e5  $05
	vol $4
	note fs5 $05
	vol $7
	note b4  $05
	vol $4
	note e5  $05
	vol $7
	note e5  $05
	vol $4
	note b4  $05
	vol $7
	note fs5 $05
	vol $4
	note e5  $05
	vol $7
	note a5  $05
	vol $4
	note fs5 $05
	vol $7
	note fs5 $05
	vol $4
	note a5  $05
	vol $7
	note e5  $05
	vol $4
	note fs5 $05
	vol $7
	note fs5 $05
	vol $4
	note e5  $05
	vol $7
	note e5  $05
	vol $4
	note fs5 $05
	vol $7
	note b4  $05
	vol $4
	note e5  $05
	vol $7
	note e5  $05
	vol $4
	note b4  $05
	vol $7
	note fs5 $05
	vol $4
	note e5  $05
	vol $7
	note a5  $05
	vol $4
	note fs5 $05
	vol $7
	note e5  $05
	vol $4
	note a5  $05
	vol $7
	note fs5 $05
	vol $4
	note e5  $05
	vol $7
	note a5  $05
	vol $4
	note fs5 $05
	vol $7
	note b5  $05
	vol $4
	note a5  $05
	vol $7
	note a5  $05
	vol $4
	note b5  $05
	vol $7
	note fs5 $05
	vol $4
	note a5  $05
	vol $7
	note a5  $05
	vol $4
	note fs5 $05
	vol $7
	note fs5 $05
	vol $4
	note a5  $05
	vol $7
	note b5  $05
	vol $4
	note fs5 $05
	vol $7
	note a5  $05
	vol $4
	note b5  $05
	vol $7
	note fs5 $05
	vol $4
	note a5  $05
	vol $7
	note e5  $05
	vol $4
	note fs5 $05
	vol $7
	note fs5 $05
	vol $4
	note e5  $05
	vol $7
	note e5  $05
	vol $4
	note fs5 $05
	vol $7
	note fs5 $05
	vol $4
	note e5  $05
	vol $7
	note e5  $05
	vol $4
	note fs5 $05
	vol $7
	note b4  $05
	vol $4
	note e5  $05
	vol $7
	note e5  $05
	vol $4
	note b4  $05
	vol $7
	note fs5 $05
	vol $4
	note e5  $05
	vol $7
	note a5  $05
	vol $4
	note fs5 $05
	vol $7
	note b5  $05
	vol $4
	note a5  $05
	vol $7
	note a5  $05
	vol $4
	note b5  $05
	vol $7
	note d6  $05
	vol $4
	note a5  $05
	vol $7
	note cs6 $05
	vol $4
	note d6  $05
	vol $7
	note b5  $05
	vol $4
	note cs6 $05
	vol $7
	note a5  $05
	vol $4
	note b5  $05
	vol $7
	note fs5 $05
	vol $4
	note a5  $05
	vol $7
	note e5  $05
	vol $4
	note fs5 $05
	vol $7
	note fs5 $05
	vol $4
	note e5  $05
	vol $7
	note e5  $05
	vol $4
	note fs5 $05
	vol $7
	note b4  $05
	vol $4
	note e5  $05
	vol $7
	note a4  $05
	vol $4
	note b4  $05
	goto musicf6ed3
	cmdff

musIntro1Channel0:
	vol $0
	note gs3 $62
	vibrato $e1
	env $0 $00
	cmdf2
	duty $02
	vol $5
	note d5  $07
	note g5  $07
	note d6  $07
	rest $03
	vol $3
	note d6  $07
	rest $04
	vol $2
	note d6  $07
	rest $03
	vol $2
	note d6  $07
	rest $04
	vol $1
	note d6  $07
	rest $07
	duty $01
	vol $4
	note b3  $1c
	note d4  $1c
	note c4  $0e
	note b3  $0e
	note c4  $1c
	note g3  $1c
	vol $2
	note g3  $0e
	duty $02
	vol $5
	note c5  $07
	note f5  $07
	note c6  $07
	note f5  $07
	note c5  $07
	rest $03
	vol $4
	note c5  $07
	rest $04
	vol $3
	note c5  $07
	rest $03
	vol $2
	note c5  $07
	rest $04
	vol $1
	note c5  $07
	rest $31
	duty $01
	vol $5
	note ds4 $0e
	note cs4 $0e
	vol $5
	note ds4 $1c
	note as3 $1c
	vol $2
	note as3 $0e
	duty $02
	vol $5
	note ds5 $07
	note gs5 $07
	note cs6 $07
	rest $03
	vol $4
	note cs6 $07
	rest $04
	vol $3
	note cs6 $07
	rest $03
	vol $2
	note cs6 $07
	rest $04
	vol $1
	note cs6 $07
	rest $07
	duty $01
	vol $6
	note c4  $1c
	vol $7
	note f4  $1c
	vol $6
	note fs4 $0e
	note f4  $0e
	note fs4 $1c
	note cs4 $1c
	vol $4
	note cs4 $0e
	duty $02
	vol $6
	note fs5 $07
	note b5  $07
	vol $6
	note e6  $07
	rest $03
	vol $5
	note e6  $07
	rest $04
	vol $4
	note e6  $07
	rest $03
	vol $3
	note e6  $07
	rest $04
	vol $2
	note e6  $07
	rest $07
	vol $6
	note b3  $07
	vol $6
	note cs4 $07
	vol $7
	note ds4 $07
	vol $7
	note e4  $07
	vol $8
	note fs4 $07
	vol $8
	note gs4 $07
	vol $9
	note a4  $07
	vol $9
	note b4  $07
	vol $3
	note b4  $07
	rest $03
	vol $3
	note b4  $07
	rest $04
	vol $2
	note b4  $07
	vol $6
	note as4 $15
	vol $4
	note as4 $07
	vol $6
	note ds4 $07
	rest $03
	vol $4
	note ds4 $04
	vol $6
	note g4  $07
	rest $03
	vol $4
	note g4  $04
	vol $6
	note f4  $1c
	vol $4
	note f4  $0e
	vol $6
	note cs4 $1c
	note as3 $07
	rest $03
	vol $4
	note as3 $04
	vol $6
	note b3  $0e
	note ds4 $07
	rest $03
	vol $4
	note ds4 $04
	vol $6
	note cs4 $0e
	note b3  $0e
	note as3 $0e
	note cs4 $0e
	note as3 $0e
	vol $4
	note as3 $0e
	vol $6
	note ds3 $07
	note as3 $07
	note ds4 $03
	rest $04
	note ds4 $07
	note as4 $03
	rest $04
	note as4 $07
	note ds5 $03
	rest $04
	note ds5 $07
	rest $03
	vol $4
	note ds5 $07
	rest $04
	vol $2
	note ds5 $07
	rest $03
	vol $1
	note ds5 $04
	vol $6
	note ds5 $1c
	note fs5 $1c
	vol $4
	note fs5 $0e
	vol $6
	note cs5 $0e
	note as4 $1c
	note fs5 $07
	note gs5 $07
	note as5 $07
	rest $03
	vol $4
	note as5 $04
	vol $6
	note ds5 $0e
	note cs5 $0e
	note as4 $0e
	note ds5 $0e
	note f5  $0e
	note cs5 $0e
	note d5  $07
	note e5  $07
	note fs5 $07
	rest $03
	vol $4
	note fs5 $04
	vol $6
	note e5  $0e
	note cs5 $0e
	note b4  $0e
	note fs5 $0e
	note a5  $1c
	note g5  $07
	rest $03
	vol $4
	note g5  $04
	vol $6
	note f5  $1c
	note e5  $07
	rest $03
	vol $4
	note e5  $04
	vol $6
	note f5  $1c
	note e5  $0e
	note d5  $1c
	note c5  $0e
	note b4  $1c
	note a4  $07
	rest $03
	vol $4
	note a4  $04
	vol $6
	note gs4 $1c
	note fs4 $07
	rest $03
	vol $4
	note fs4 $04
	vol $6
	note gs4 $1c
	note a4  $07
	rest $03
	vol $4
	note a4  $04
	vol $6
	note gs4 $1c
	note fs4 $07
	rest $03
	vol $4
	note fs4 $04
	vol $6
	note gs4 $07
	rest $07
	vol $5
	note gs4 $07
	rest $07
	vol $3
	note gs4 $07
	rest $07
	vol $2
	note gs4 $07
	rest $07
	vol $1
	note gs4 $07
	rest $15
	vibrato $00
	duty $01
musicf74a6:
	rest $78
	vol $7
	note e3  $28
	note g3  $46
	vol $4
	note g3  $0a
	vol $7
	note e3  $28
	note g3  $28
	note a3  $28
	note c4  $28
	note b3  $28
	note g3  $28
	note a3  $28
	note e3  $50
	vol $4
	note e3  $14
	vol $7
	note d3  $05
	vol $4
	note d3  $05
	vol $7
	note d3  $05
	vol $4
	note d3  $05
	vol $7
	note e3  $78
	vol $4
	note e3  $1e
	vol $2
	note e3  $1e
	vol $1
	note e3  $14
	vol $7
	note a3  $28
	note c4  $46
	vol $4
	note c4  $0a
	vol $7
	note a3  $28
	note c4  $28
	note d4  $28
	note fs4 $28
	note a4  $28
	note c5  $28
	note b4  $5a
	vol $4
	note b4  $0a
	vol $7
	note a2  $05
	vol $4
	note a2  $05
	vol $7
	note a2  $05
	vol $4
	note a2  $05
	vol $7
	note b2  $78
	vol $4
	note b2  $1e
	vol $2
	note b2  $1e
	vol $1
	note b2  $1e
	vol $0
	note b2  $1e
	rest $78
	goto musicf74a6
	cmdff

musIntro1Channel4:
	cmdf2
	duty $0e
	note g3  $07
	rest $07
	note f3  $07
	duty $0f
	note g3  $07
	duty $0e
	note g3  $07
	duty $0f
	note f3  $07
	duty $0e
	note d3  $07
	duty $0f
	note g3  $07
	duty $0e
	note g3  $07
	duty $0f
	note d3  $07
	duty $0e
	note f3  $07
	duty $0f
	note g3  $07
	duty $0e
	note g3  $07
	duty $0f
	note f3  $07
	duty $0e
	note d3  $07
	duty $0f
	note g3  $07
	duty $0e
	note g3  $07
	duty $0f
	note d3  $07
	duty $0e
	note f3  $07
	duty $0f
	note g3  $07
	duty $0e
	note g3  $07
	duty $0f
	note f3  $07
	duty $0e
	note d3  $07
	duty $0f
	note g3  $07
	duty $0e
	note g3  $07
	duty $0f
	note d3  $07
	duty $0e
	note f3  $07
	duty $0f
	note g3  $07
	duty $0e
	note g3  $07
	duty $0f
	note f3  $07
	duty $0e
	note d3  $07
	duty $0f
	note g3  $07
	duty $0e
	note g3  $07
	duty $0f
	note d3  $07
	duty $0e
	note f3  $07
	duty $0f
	note g3  $07
	duty $0e
	note g3  $07
	duty $0f
	note f3  $07
	duty $0e
	note d3  $07
	duty $0f
	note g3  $07
	duty $0e
	note g3  $07
	duty $0f
	note d3  $07
	duty $0e
	note f3  $07
	duty $0f
	note g3  $07
	duty $0e
	note g3  $07
	duty $0f
	note f3  $07
	duty $0e
	note d3  $07
	duty $0f
	note g3  $07
	duty $0e
	note g3  $07
	duty $0f
	note d3  $07
	duty $0e
	note f3  $07
	duty $0f
	note g3  $07
	duty $0e
	note g3  $07
	duty $0f
	note f3  $07
	duty $0e
	note d3  $07
	duty $0f
	note g3  $07
	duty $0e
	note g3  $07
	duty $0f
	note d3  $07
	duty $0e
	note f3  $07
	duty $0f
	note g3  $07
	duty $0e
	note g3  $07
	duty $0f
	note f3  $07
	duty $0e
	note d3  $07
	duty $0f
	note g3  $07
	duty $0e
	note f3  $07
	duty $0f
	note d3  $07
	duty $0e
	note ds3 $07
	duty $0f
	note f3  $07
	duty $0e
	note f3  $07
	duty $0f
	note ds3 $07
	duty $0e
	note c3  $07
	duty $0f
	note f3  $07
	duty $0e
	note f3  $07
	duty $0f
	note c3  $07
	duty $0e
	note ds3 $07
	duty $0f
	note f3  $07
	duty $0e
	note f3  $07
	duty $0f
	note ds3 $07
	duty $0e
	note c3  $07
	duty $0f
	note f3  $07
	duty $0e
	note f3  $07
	duty $0f
	note c3  $07
	duty $0e
	note ds3 $07
	duty $0f
	note f3  $07
	duty $0e
	note f3  $07
	duty $0f
	note ds3 $07
	duty $0e
	note c3  $07
	duty $0f
	note f3  $07
	duty $0e
	note gs3 $07
	duty $0f
	note c3  $07
	duty $0e
	note fs3 $07
	duty $0f
	note gs3 $07
	duty $0e
	note gs3 $07
	duty $0f
	note fs3 $07
	duty $0e
	note ds3 $07
	duty $0f
	note gs3 $07
	duty $0e
	note b3  $07
	duty $0f
	note ds3 $07
	duty $0e
	note as3 $07
	duty $0f
	note b3  $07
	duty $0e
	note b3  $07
	duty $0f
	note as3 $07
	duty $0e
	note fs3 $07
	duty $0f
	note b3  $07
	duty $0e
	note b3  $07
	duty $0f
	note fs3 $07
	duty $0e
	note as3 $07
	duty $0f
	note b3  $07
	duty $0e
	note b3  $07
	duty $0f
	note as3 $07
	duty $0e
	note fs3 $07
	duty $0f
	note b3  $07
	duty $0e
	note b3  $07
	duty $0f
	note fs3 $07
	duty $0e
	note as3 $07
	duty $0f
	note b3  $07
	duty $0e
	note b3  $07
	duty $0f
	note as3 $07
	duty $0e
	note fs3 $07
	duty $0f
	note b3  $07
	duty $0e
	note gs2 $07
	note a2  $07
	note b2  $07
	note cs3 $07
	note ds3 $07
	note e3  $07
	note fs3 $07
	note gs3 $07
	rest $1c
	note ds2 $15
	duty $0f
	note ds2 $0e
	duty $2c
	note ds2 $07
	duty $0e
	note ds2 $0e
	note cs2 $0e
	duty $0f
	note cs2 $0e
	duty $0e
	note cs2 $0e
	note f2  $0e
	note ds2 $0e
	note cs2 $0e
	note b1  $0e
	duty $0f
	note b1  $0e
	duty $0e
	note b1  $0e
	note as1 $1c
	note cs2 $0e
	note ds2 $15
	duty $0f
	note ds2 $07
	duty $0e
	note as1 $0e
	note ds2 $0e
	note as1 $0e
	note ds2 $0e
	note b1  $0e
	duty $0f
	note b1  $0e
	duty $0e
	note fs2 $1c
	note b2  $1c
	note as2 $1c
	note f2  $0e
	note as2 $0e
	duty $0f
	note as2 $0e
	duty $0e
	note f2  $0e
	note as1 $1c
	note cs2 $1c
	note f2  $1c
	note d2  $1c
	note e2  $1c
	duty $0f
	note e2  $0e
	duty $0e
	note e2  $0e
	note f2  $15
	duty $0f
	note f2  $07
	duty $0e
	note f2  $23
	duty $0f
	note f2  $07
	duty $0e
	note f2  $07
	duty $0f
	note f2  $07
	duty $0e
	note f2  $0e
	note c2  $0e
	note d2  $0e
	note e2  $0e
	note f2  $0e
	note g2  $0e
	note e2  $07
	duty $0f
	note e2  $07
	duty $0e
	note e2  $18
	duty $0f
	note e2  $04
	duty $0e
	note e2  $15
	duty $0f
	note e2  $07
	duty $0e
	note e2  $07
	duty $0f
	note e2  $07
	duty $0e
	note e2  $1c
	note b1  $0e
	note e2  $1c
	note gs2 $0e
	note e2  $1c
	rest $38
musicf77c0:
	rest $78
	duty $0e
	note a3  $28
	note d4  $46
	duty $17
	note d4  $0a
	duty $0e
	note a3  $28
	note d4  $28
	note e4  $28
	note g4  $28
	note fs4 $28
	note d4  $28
	note e4  $28
	note a3  $50
	duty $17
	note a3  $14
	duty $0e
	note a2  $05
	duty $17
	note a2  $05
	duty $0e
	note a2  $05
	duty $17
	note a2  $05
	duty $0e
	note a2  $78
	duty $17
	note a2  $1e
	duty $0f
	note a2  $1e
	duty $0c
	note a2  $14
	duty $0e
	note e4  $28
	note g4  $46
	duty $17
	note g4  $0a
	duty $0e
	note e4  $28
	note g4  $28
	note a4  $28
	note b4  $28
	note d5  $28
	note f5  $28
	note fs5 $5a
	duty $17
	note fs5 $0a
	duty $0e
	note e3  $05
	duty $17
	note e3  $05
	duty $0e
	note e3  $05
	duty $17
	note e3  $05
	duty $0e
	note fs3 $78
	duty $17
	note fs3 $1e
	duty $0f
	note fs3 $1e
	duty $0c
	note fs3 $1e
	duty $0c
	note fs3 $1e
	rest $78
	goto musicf77c0
	cmdff

musIntro1Channel6:
	cmdf2
	vol $2
	note $2e $70
	note $2e $69
	vol $3
	note $2a $02
	vol $2
	note $2a $02
	vol $2
	note $2a $03
	vol $2
	note $2e $70
	note $2e $69
	vol $3
	note $2a $02
	vol $2
	note $2a $02
	vol $2
	note $2a $03
	vol $2
	note $2e $70
	vol $2
	note $2e $70
	note $2e $70
	note $2e $38
	vol $2
	note $2e $02
	vol $2
	note $2e $02
	vol $2
	note $2e $03
	vol $3
	note $2e $02
	vol $3
	note $2e $02
	vol $3
	note $2e $03
	vol $3
	note $2e $02
	vol $3
	note $2e $02
	vol $3
	note $2e $03
	vol $4
	note $2e $02
	vol $4
	note $2e $02
	vol $4
	note $2e $03
	vol $4
	note $2e $02
	vol $4
	note $2e $02
	vol $4
	note $2e $03
	vol $4
	note $2e $02
	vol $4
	note $2e $02
	vol $4
	note $2e $03
	vol $4
	note $2e $02
	vol $4
	note $2e $02
	vol $4
	note $2e $03
	vol $4
	note $2e $02
	vol $4
	note $2e $02
	vol $4
	note $2e $03
	vol $2
	note $2e $1c
	vol $4
	note $26 $1c
	note $26 $0e
	note $26 $0e
	vol $4
	note $26 $0e
	vol $4
	note $26 $07
	vol $4
	note $26 $07
	vol $4
	note $26 $2a
	note $26 $07
	vol $4
	note $26 $07
	vol $4
	note $26 $1c
	vol $4
	note $26 $0e
	note $26 $1c
	vol $4
	note $26 $0e
	vol $4
	note $26 $07
	vol $4
	note $26 $07
	vol $4
	note $26 $0e
	note $26 $0e
	note $26 $07
	vol $4
	note $26 $07
	vol $4
	note $26 $07
	vol $4
	note $26 $07
	vol $2
	note $26 $02
	vol $3
	note $26 $02
	vol $4
	note $26 $03
	vol $4
	note $26 $02
	vol $4
	note $26 $02
	vol $4
	note $26 $03
	vol $2
	note $2e $0e
	vol $4
	note $26 $07
	note $26 $07
	vol $2
	note $2e $1c
	vol $4
	note $26 $0e
	note $26 $07
	note $26 $07
	vol $2
	note $2e $0e
	vol $4
	note $26 $1c
	note $26 $1c
	note $26 $07
	vol $3
	note $2a $02
	vol $2
	note $2a $02
	vol $3
	note $2a $03
	vol $4
	note $26 $1c
	vol $2
	note $2e $0e
	vol $4
	note $26 $1c
	vol $4
	note $26 $07
	vol $4
	note $26 $07
	vol $2
	note $2e $1c
	vol $4
	note $26 $1c
	vol $4
	note $26 $07
	vol $4
	note $26 $07
	vol $4
	note $26 $02
	vol $4
	note $26 $02
	vol $3
	note $26 $03
	vol $3
	note $26 $02
	vol $2
	note $26 $02
	vol $2
	note $26 $03
	vol $2
	note $2e $1c
	note $2a $0e
	note $2e $15
	note $2a $07
	note $2a $0e
	note $2e $1c
	note $2a $07
	vol $2
	note $2a $0e
	vol $2
	note $2a $07
	note $2a $0e
	vol $2
	note $2a $0e
	vol $2
	note $2e $1c
	note $2e $2a
	rest $02
	note $2a $05
	note $2a $04
	note $2a $03
	note $2e $46
	rest $03
	note $2a $04
	note $2a $03
	note $2a $04
	vol $2
	note $2e $1c
	cmdff
