musMapleThemeStart:

musMapleThemeChannel1:
	vibrato $e1
	env $0 $00
	duty $02
	vol $6
	note fs2 $0e
	note g2  $03
	rest $01
	vol $3
	note g2  $04
	rest $01
	vol $1
	note g2  $05
	vol $6
	note fs3 $0e
	note g3  $03
	rest $01
	vol $3
	note g3  $04
	rest $01
	vol $1
	note g3  $05
	vol $6
	note fs4 $0e
	note g4  $03
	rest $01
	vol $3
	note g4  $04
	rest $01
	vol $1
	note g4  $05
	vol $6
	note fs5 $0e
	note g5  $03
	rest $01
	vol $3
	note g5  $04
	rest $01
	vol $1
	note g5  $05
	vol $6
	note fs3 $04
	note g3  $05
	note c4  $05
	note as3 $46
	vibrato $01
	env $0 $00
	vol $3
	note as3 $1c
	vol $1
	note as3 $0e
	rest $0e
	vibrato $e1
	env $0 $00
musicf69b1:
	vol $6
	note c5  $09
	rest $07
	vol $3
	note c5  $09
	rest $03
	vol $6
	note c5  $09
	rest $05
	vol $3
	note c5  $04
	vol $6
	note c5  $0a
	note g5  $09
	rest $07
	vol $3
	note g5  $09
	rest $03
	vol $6
	note g5  $12
	rest $05
	note g5  $02
	note a5  $03
	note as5 $12
	note a5  $0a
	note g5  $12
	note f5  $0a
	note g5  $38
	vibrato $01
	env $0 $00
	vol $3
	note g5  $12
	vibrato $f1
	env $0 $00
	vol $6
	note c6  $05
	vol $3
	note c6  $05
	vol $6
	note c6  $0e
	vol $3
	note c6  $04
	vol $6
	note c6  $0a
	note g5  $09
	rest $09
	vol $3
	note g5  $0a
	vol $6
	note g5  $12
	note a5  $0a
	note as5 $12
	note a5  $0a
	note g5  $12
	note f5  $0a
	note e5  $12
	note f5  $0a
	note fs5 $12
	note g5  $0a
	note e5  $09
	rest $0e
	vol $3
	note e5  $05
	vol $6
	note c5  $09
	rest $0e
	vol $3
	note c5  $05
	vol $6
	note as4 $09
	rest $0e
	vol $3
	note as4 $05
	rest $12
	vol $6
	note e5  $13
	vol $3
	note e5  $09
	vol $6
	note e5  $0a
	note c5  $09
	rest $0e
	vol $3
	note c5  $05
	vol $6
	note as4 $09
	rest $0e
	vol $3
	note as4 $05
	rest $1c
	vol $6
	note e5  $09
	rest $0e
	vol $3
	note e5  $05
	vol $6
	note c5  $09
	rest $0e
	vol $3
	note c5  $05
	vol $6
	note as4 $09
	rest $0e
	vol $3
	note as4 $05
	vol $6
	note g4  $38
	vibrato $01
	env $0 $00
	vol $3
	note g4  $38
	rest $1c
	vibrato $f1
	env $0 $00
	vol $6
	note e5  $09
	rest $0e
	vol $3
	note e5  $05
	vol $6
	note c5  $09
	rest $0e
	vol $3
	note c5  $05
	vol $6
	note as4 $09
	rest $0e
	vol $3
	note as4 $05
	rest $12
	vol $6
	note e5  $13
	vol $3
	note e5  $09
	vol $6
	note e5  $0a
	note c5  $09
	rest $0e
	vol $3
	note c5  $05
	vol $6
	note as4 $09
	rest $0e
	vol $3
	note as4 $05
	rest $1c
	vol $6
	note e5  $09
	rest $0e
	vol $3
	note e5  $05
	vol $6
	note c5  $09
	rest $0e
	vol $3
	note c5  $05
	vol $6
	note as5 $12
	note a5  $0a
	rest $09
	vol $3
	note a5  $09
	vol $6
	note g5  $54
	vibrato $01
	env $0 $00
	vol $3
	note g5  $1c
	vol $1
	note g5  $09
	rest $01
	vibrato $f1
	env $0 $00
	goto musicf69b1
	cmdff

musMapleThemeChannel0:
	vibrato $e1
	env $0 $00
	duty $02
	vol $6
	note cs2 $0e
	note c2  $03
	rest $01
	vol $3
	note c2  $04
	rest $01
	vol $1
	note c2  $05
	vol $6
	note cs3 $0e
	note c3  $03
	rest $01
	vol $3
	note c3  $04
	rest $01
	vol $1
	note c3  $05
	vol $6
	note cs4 $0e
	note c4  $03
	rest $01
	vol $3
	note c4  $04
	rest $01
	vol $1
	note c4  $05
	vol $6
	note cs5 $0e
	note c5  $03
	rest $01
	vol $3
	note c5  $04
	rest $01
	vol $1
	note c5  $05
	vol $6
	note fs2 $04
	note g2  $05
	note c3  $05
	note as2 $46
	vibrato $01
	env $0 $00
	vol $3
	note as2 $1c
	vol $1
	note as2 $0e
	rest $0e
	vibrato $f1
	env $0 $00
musicf6b33:
	rest $ff
	rest $47
	vol $6
	note fs3 $0a
	note g3  $12
	note fs3 $0a
	note g3  $12
	note fs3 $0a
	note g3  $0e
	rest $04
	note f3  $0a
	note e3  $12
	note d3  $0a
	note c3  $09
	rest $48
	vol $6
	note fs3 $03
	note g3  $07
	rest $04
	vol $3
	note fs3 $03
	note g3  $07
	rest $04
	vol $1
	note fs3 $03
	note g3  $07
	rest $41
	vol $6
	note fs3 $02
	note g3  $07
	note fs3 $03
	note g3  $07
	rest $04
	vol $3
	note fs3 $03
	note g3  $07
	rest $04
	vol $1
	note fs3 $03
	note g3  $07
	rest $72
	vol $6
	note b2  $09
	note ds3 $0a
	note g3  $09
	note b3  $09
	note ds4 $0a
	note g4  $2a
	note f4  $04
	note e4  $05
	note d4  $05
	note c4  $09
	rest $48
	note fs3 $03
	note g3  $07
	rest $04
	vol $3
	note fs3 $03
	note g3  $07
	rest $04
	vol $1
	note fs3 $03
	note g3  $07
	rest $41
	vol $6
	note fs4 $02
	note g4  $07
	note fs4 $03
	note g4  $07
	rest $04
	vol $3
	note fs4 $03
	note g4  $07
	rest $04
	vol $1
	note fs4 $03
	note g4  $07
	rest $d9
	goto musicf6b33
	cmdff

musMapleThemeChannel4:
	rest $ee
	duty $0e
	note g2  $03
	note f2  $04
	note ds2 $03
	note cs2 $04
musicf6bd2:
	duty $0e
	note c2  $07
	duty $0f
	note c2  $0e
	rest $23
	duty $0e
	note g2  $07
	duty $0f
	note g2  $0e
	rest $23
	duty $0e
	note as1 $07
	duty $0f
	note as1 $0e
	rest $23
	duty $0e
	note f2  $07
	duty $0f
	note f2  $0e
	rest $23
	duty $0e
	note c2  $07
	duty $0f
	note c2  $0e
	rest $23
	duty $0e
	note g2  $07
	duty $0f
	note g2  $0e
	rest $23
	duty $0e
	note d2  $07
	duty $0f
	note d2  $0e
	rest $35
	duty $0e
	note g2  $0a
	duty $0e
	note a2  $09
	duty $0f
	note a2  $09
	duty $0e
	note b2  $0a
	duty $0e
	note c2  $1c
	duty $0f
	note c2  $0e
	rest $0e
	duty $0e
	note g2  $07
	duty $0f
	note g2  $0e
	rest $23
	duty $0e
	note as2 $07
	duty $0f
	note as2 $0e
	rest $23
	duty $0e
	note f2  $07
	duty $0f
	note f2  $0e
	rest $23
	duty $0e
	note c3  $07
	duty $0f
	note c3  $0e
	rest $23
	duty $0e
	note as2 $07
	duty $0f
	note as2 $0e
	rest $07
	duty $0e
	note g2  $0e
	note g1  $04
	note b1  $05
	note ds2 $05
	duty $0e
	note g2  $38
	note fs2 $02
	duty $0e
	note g2  $07
	duty $0f
	note g2  $0e
	rest $21
	duty $0e
	note c3  $07
	duty $0f
	note c3  $0e
	rest $23
	duty $0e
	note g2  $07
	duty $0f
	note g2  $0e
	rest $23
	duty $0e
	note as2 $07
	duty $0f
	note as2 $0e
	rest $23
	duty $0e
	note f2  $07
	duty $0f
	note f2  $0e
	rest $23
	duty $0e
	note c3  $07
	duty $0f
	note c3  $0e
	rest $07
	duty $0e
	note c3  $07
	duty $0f
	note c3  $0e
	rest $07
	duty $0e
	note as2 $07
	duty $0f
	note as2 $0e
	rest $07
	duty $0e
	note g2  $2e
	note gs2 $0a
	note as2 $12
	note b2  $0a
	note cs3 $12
	note ds3 $0a
	note f3  $12
	note g3  $0a
	goto musicf6bd2
	cmdff

musMapleThemeChannel6:
	rest $fc
musicf6cdc:
	vol $2
	note $2e $1c
	note $2a $1c
	note $2e $1c
	note $2a $1c
	note $2e $1c
	note $2a $1c
	note $2e $12
	note $2a $0a
	note $2a $12
	note $2a $0a
	vol $2
	note $2e $1c
	note $2a $1c
	note $2e $1c
	note $2a $1c
	note $2e $1c
	note $2a $1c
	note $2e $09
	rest $09
	note $2a $0a
	note $2a $12
	note $2a $0a
	note $2e $1c
	note $2a $1c
	note $2e $1c
	note $2a $1c
	vol $2
	note $2e $1c
	note $2a $1c
	note $2e $1c
	note $2a $1c
	vol $2
	note $2e $1c
	note $2a $1c
	note $2a $1c
	vol $2
	note $2e $1c
	rest $70
	vol $2
	note $2e $1c
	note $2a $1c
	vol $3
	note $2e $1c
	note $2a $1c
	note $2e $1c
	note $2a $1c
	note $2e $1c
	vol $3
	note $2a $1c
	note $2e $1c
	note $2a $1c
	note $2a $1c
	note $2e $1c
	rest $70
	goto musicf6cdc
	cmdff
