musMapleGameStart:

musMapleGameChannel1:
	duty $01
musice628f:
; Measure 1
	vol $6
	note g5  $0f
	note e5  $05
	note c5  $05
	rest $02
	vol $3
	note c5  $03
	vol $6
	note c5  $0f
	vol $3
	note c5  $05
	vol $6
	note g5  $0a
	note e5  $0a
	note c5  $0a
; Measure 2
	note fs5 $0f
	note ds5 $05
	note b4  $05
	rest $02
	vol $3
	note b4  $03
	vol $6
	note b4  $0f
	vol $3
	note b4  $05
	vol $6
	note fs5 $0a
	note ds5 $0a
	note b4  $05
	rest $02
	vol $3
	note b4  $03
; Measure 3
	vol $6
	note g5  $0f
	note e5  $05
	note c5  $05
	rest $02
	vol $3
	note c5  $03
	vol $6
	note c5  $0a
	vol $3
	note c5  $0a
	vol $6
	note g5  $0a
	note e5  $0a
	note c5  $05
	rest $02
	vol $3
	note c5  $03
; Measure 4
	vol $6
	note b4  $05
	note c5  $05
	note cs5 $05
	rest $02
	vol $3
	note cs5 $03
	vol $6
	note cs5 $05
	note ds5 $05
	note e5  $05
	rest $02
	vol $3
	note e5  $03
	vol $6
	note ds5 $05
	note e5  $05
	note f5  $05
	rest $02
	vol $3
	note f5  $03
	vol $6
	note e5  $05
	note f5  $05
	note fs5 $05
	rest $02
	vol $3
	note fs5 $03
; Measure 5
	vol $6
	note g5  $0f
	note e5  $05
	note c5  $05
	rest $02
	vol $3
	note c5  $03
	vol $6
	note c5  $0a
	vol $3
	note c5  $0a
	vol $6
	note g5  $0a
	note e5  $0a
	note c5  $05
	rest $02
	vol $3
	note c5  $03
; Measure 6
	vol $6
	note fs5 $0f
	note ds5 $05
	note b4  $05
	rest $02
	vol $3
	note b4  $03
	vol $6
	note b4  $0f
	vol $3
	note b4  $05
	vol $6
	note fs5 $0a
	note ds5 $0a
	note b4  $05
	rest $02
	vol $3
	note b4  $03
; Measure 7
	vol $6
	note g5  $0a
	note e5  $05
	rest $02
	vol $3
	note e5  $05
	rest $12
	vol $6
	note a5  $0a
	note fs5 $05
	rest $02
	vol $3
	note fs5 $05
	rest $12
; Measure 8
	vol $6
	note as5 $05
	note g5  $05
	note b5  $05
	note gs5 $05
	note c6  $05
	note a5  $05
	note cs6 $05
	note as5 $05
	note d6  $05
	note b5  $05
	note ds6 $05
	note c6  $05
	note e6  $05
	note cs6 $05
	note f6  $05
	note d6  $05
; Measure 9
	note a5  $0f
	note fs5 $05
	note d5  $05
	rest $02
	vol $3
	note d5  $03
	vol $6
	note d5  $0f
	vol $3
	note d5  $05
	vol $6
	note d5  $0a
	note fs5 $0a
	note a5  $0a
; Measure 10
	note gs5 $0f
	note f5  $05
	note cs5 $05
	rest $02
	vol $3
	note cs5 $03
	vol $6
	note cs5 $0a
	vol $3
	note cs5 $0a
	vol $6
	note cs5 $0a
	note f5  $0a
	note gs5 $0a
; Measure 11
	note a5  $0f
	note fs5 $05
	note d5  $05
	rest $02
	vol $3
	note d5  $03
	vol $6
	note d5  $14
	note fs5 $0a
	note a5  $0a
	note fs5 $05
	rest $02
	vol $3
	note fs5 $03
; Measure 12
	vol $6
	note gs5 $05
	note f5  $05
	note cs5 $05
	rest $02
	vol $3
	note cs5 $03
	vol $6
	note a5  $05
	note fs5 $05
	note d5  $05
	rest $02
	vol $3
	note d5  $03

	vol $6
	note as5 $05
	note g5  $05
	note ds5 $05
	rest $02
	vol $3
	note ds5 $03
	vol $6
	note b5  $05
	note gs5 $05
	note e5  $05
	rest $02
	vol $3
	note e5  $03
	vol $6
; Measure 13
	note a5  $0f
	note fs5 $05
	note d5  $05
	rest $02
	vol $3
	note d5  $03
	vol $6
	note d6  $14
	note cs6 $05
	note d6  $05
	note e6  $05
	rest $02
	vol $3
	note e6  $03
	vol $6
	note d6  $05
	rest $02
	vol $3
	note d6  $03
; Measure 14
	vol $6
	note cs6 $0f
	note gs5 $05
	note f5  $05
	rest $02
	vol $3
	note f5  $03 
	vol $6
	note cs5 $16
	rest $03
	note cs6 $02
	vol $3
	note cs6 $03
	vol $6
	note cs6 $05
	note c6  $05
	note cs6 $05
	note d6  $05
; Measure 15
	note ds6 $05
	rest $02
	vol $3
	note ds6 $03

	vol $6
	note ds6 $05
	rest $02
	vol $3
	note ds6 $05
	rest $12
	
	vol $6
	note e6  $05
	rest $02
	vol $3
	note e6  $03
	
	vol $6
	note e6  $05
	rest $02
	vol $3
	note e6  $05
	rest $12
; Measure 16
	vol $6
	note gs6 $05
	rest $02
	vol $3
	note gs6 $03
	vol $6
	note g6  $05
	rest $02
	vol $3
	note g6  $03
	vol $6
	note fs6 $05
	rest $02
	vol $3
	note fs6 $03
	vol $6
	note f6  $05
	rest $02
	vol $3
	note f6  $03
	vol $6

	note e6  $05
	rest $02
	vol $3
	note e6  $03
	vol $6
	note ds6 $05
	rest $02
	vol $3
	note ds6 $03
	vol $6
	note d6  $05
	rest $02
	vol $3
	note d6  $03
	vol $6
	note cs6 $05
	rest $02
	vol $3
	note cs6 $03
	goto musice628f
	cmdff

musMapleGameChannel0:
	duty $01
musice64ab:
; Measure 1
	vol $6
	note e4  $05
	rest $05
	note e4  $05
	rest $05
	note e4  $05
	rest $05
	note e4  $0f
	rest $05

	note e4  $05
	rest $05
	note e4  $05
	rest $05
	note e4  $05
	rest $05
; Measure 2
	note ds4 $05
	rest $05
	note ds4 $05
	rest $05
	note ds4 $05
	rest $05
	note ds4 $0f
	rest $05

	note ds4 $05
	rest $05
	note ds4 $05
	rest $05
	note ds4 $05
	rest $05
; Measure 3
	note e4  $05
	rest $05
	note e4  $05
	rest $05
	note e4  $05
	rest $05
	note e4  $0f
	rest $05

	note e4  $05
	rest $05
	note e4  $05
	rest $05
	note e4  $05
	rest $05
; Measure 4
	note ds4 $05
	rest $05
	note g4  $05
	vol $3
	note ds4 $05

	vol $6
	note fs4 $05
	vol $3
	note g4  $05
	vol $6
	note f4  $05
	vol $3
	note fs4 $05

	vol $6
	note e4  $05
	vol $3
	note f4  $05
	vol $6
	note ds4 $05
	vol $3
	note e4  $05

	vol $6
	note d4  $05
	vol $3
	note ds4 $05
	vol $6
	note cs4 $05
	vol $3
	note d4  $05
; Measure 5
	vol $6
	note e4  $05
	rest $05
	note e4  $05
	rest $05
	note e4  $05
	rest $05
	note e4  $0f
	rest $05

	note e4  $05
	rest $05
	note e4  $05
	rest $05
	note e4  $05
	rest $05
; Measure 6
	note ds4 $05
	rest $05
	note ds4 $05
	rest $05
	note ds4 $05
	rest $05
	note ds4 $0f
	rest $05

	note ds4 $05
	rest $05
	note ds4 $05
	rest $05
	note ds4 $05
	rest $05
; Measure 7
	note e4  $05
	rest $05
	note e4  $05
	rest $05

	vol $3
	note e4  $05
	rest $05
	vol $1
	note e4  $05
	rest $05
	vol $6
	note ds4 $05
	rest $05
	note ds4 $05
	rest $05
	vol $3
	note ds4 $05
	rest $05
	vol $1
	note ds4 $05
	rest $05
; Measure 8
	vol $6
	note e4  $05
	rest $05
	note e4  $05
	vol $3
	note e4  $05

	vol $6
	note f4  $05
	vol $3
	note e4  $05
	vol $6
	note f4  $05
	vol $3
	note f4  $05

	vol $6
	note fs4 $05
	vol $3
	note f4  $05
	vol $6
	note fs4 $05
	vol $3
	note fs4 $05

	vol $6
	note g4  $05
	vol $3
	note fs4 $05
	vol $6
	note g4  $05
	vol $3
	note g4  $05
; Measure 9
	vol $6
	note fs4 $05
	rest $05
	note fs4 $05
	rest $05
	note fs4 $05
	rest $05
	note fs4 $0f
	rest $05

	note fs4 $05
	rest $05
	note fs4 $05
	rest $05
	note fs4 $05
	rest $05
; Measure 10	
	note f4  $05
	rest $05
	note f4  $05
	rest $05
	note f4  $05
	rest $05
	note f4  $0f
	rest $05

	note f4  $05
	rest $05
	note f4  $05
	rest $05
	note f4  $05
	rest $05
; Measure 11
	note fs4 $05
	rest $05
	note fs4 $05
	rest $05
	note fs4 $05
	rest $05
	note fs4 $0f
	rest $05

	note fs4 $05
	rest $05
	note fs4 $05
	rest $05
	note fs4 $05
	rest $05
; Measure 12
	note f4  $05
	rest $05
	note a4  $05
	vol $3
	note f4  $05
	vol $6

	note gs4 $05
	vol $3
	note a4  $05
	vol $6
	note g4  $05
	vol $3
	note gs4 $05

	vol $6
	note fs4 $05
	vol $3
	note g4  $05
	vol $6
	note f4  $05
	vol $3
	note fs4 $05

	vol $6
	note e4  $05
	vol $3
	note f4  $05
	vol $6
	note ds4 $05
	vol $3
	note e4  $05
; Measure 13
	vol $6
	note fs4 $05
	rest $05
	note fs4 $05
	rest $05
	note fs4 $05
	rest $05
	note fs4 $0f
	rest $05

	note fs4 $05
	rest $05
	note fs4 $05
	rest $05
	note fs4 $05
	rest $05
; Measure 14
	note f4  $05
	rest $05
	note f4  $05
	rest $05
	note f4  $05
	rest $05
	note f4  $0f
	rest $05

	note f4  $05
	rest $05
	note f4  $05
	rest $05
	note f4  $05
	rest $05
; Measure 15
	note fs4 $05
	rest $05
	note fs4 $05
	rest $05

	vol $3
	note fs4 $05
	rest $05
	vol $6
	note fs4 $05
	rest $05

	note g4  $05
	rest $05
	note g4  $05
	rest $05

	vol $3
	note g4  $05
	rest $05
	vol $6
	note g4  $05
	note e4  $05
; Measure 16
	note f4  $05
	vol $3
	note f4  $05
	vol $6
	note f4  $05
	vol $3
	note f4  $05
	vol $6
	note a3  $05
	note gs3 $05
	note g3  $05
	note fs3 $05
	note f3  $05
	note e3  $05
	note ds3 $05
	note d3  $05
	note cs3 $05
	note c3  $05
	note b2  $05
	note as2 $05
	goto musice64ab
	cmdff

musMapleGameChannel4:
musice66c0:
; Measure 1
	duty $0e
	note cs3 $05
	duty $0f
	note cs3 $05
	duty $0e
	note g2  $05
	duty $0f
	note g2  $05

	duty $0e
	note cs3 $05
	duty $0f
	note cs3 $05
	duty $0e
	note g2  $05
	duty $0f
	note g2  $05

	duty $0e
	note cs3 $05
	duty $0f
	note cs3 $05
	duty $0e
	note g2  $05
	duty $0f
	note g2  $05

	duty $0e
	note cs3 $05
	duty $0f
	note cs3 $05
	duty $0e
	note g2  $05
	duty $0f
	note g2  $05
; Measure 2
	duty $0e
	note c3  $05
	duty $0f
	note c3  $05
	duty $0e
	note fs2 $05
	duty $0f
	note fs2 $05

	duty $0e
	note c3  $05
	duty $0f
	note c3  $05
	duty $0e
	note fs2 $05
	duty $0f
	note fs2 $05

	duty $0e
	note c3  $05
	duty $0f
	note c3  $05
	duty $0e
	note fs2 $05
	duty $0f
	note fs2 $05

	duty $0e
	note c3  $05
	duty $0f
	note c3  $05
	duty $0e
	note fs2 $05
	duty $0f
	note fs2 $05
; Measure 3
	duty $0e
	note cs3 $05
	duty $0f
	note cs3 $05
	duty $0e
	note g2  $05
	duty $0f
	note g2  $05

	duty $0e
	note cs3 $05
	duty $0f
	note cs3 $05
	duty $0e
	note g2  $05
	duty $0f
	note g2  $05

	duty $0e
	note cs3 $05
	duty $0f
	note cs3 $05
	duty $0e
	note g2  $05
	duty $0f
	note g2  $05

	duty $0e
	note cs3 $05
	duty $0f
	note cs3 $05
	duty $0e
	note g2  $05
	duty $0f
	note g2  $05
; Measure 4
	duty $0e
	note c3  $05
	duty $0f
	note c3  $05
	duty $0e
	note ds3 $05
	duty $0f
	note ds3 $05

	duty $0e
	note d3  $05
	duty $0f
	note d3  $05
	duty $0e
	note cs3 $05
	duty $0f
	note cs3 $05

	duty $0e
	note c3  $05
	duty $0f
	note c3  $05
	duty $0e
	note b2  $05
	duty $0f
	note b2  $05

	duty $0e
	note a2  $05
	note gs2 $05
	note g2  $05
	note fs2 $05
; Measure 5
	duty $0e
	note c3  $05
	duty $0f
	note c3  $05
	duty $0e
	note g2  $05
	duty $0f
	note g2  $05

	duty $0e
	note c3  $05
	duty $0f
	note c3  $05
	duty $0e
	note g2  $05
	duty $0f
	note g2  $05

	duty $0e
	note cs3 $05
	duty $0f
	note cs3 $05
	duty $0e
	note g2  $05
	duty $0f
	note g2  $05

	duty $0e
	note cs3 $05
	duty $0f
	note cs3 $05
	duty $0e
	note g2  $05
	duty $0f
	note g2  $05
; Measure 6
	duty $0e
	note c3  $05
	duty $0f
	note c3  $05
	duty $0e
	note fs2 $05
	duty $0f
	note fs2 $05

	duty $0e
	note c3  $05
	duty $0f
	note c3  $05
	duty $0e
	note fs2 $05
	duty $0f
	note fs2 $05

	duty $0e
	note c3  $05
	duty $0f
	note c3  $05
	duty $0e
	note fs2 $05
	duty $0f
	note fs2 $05

	duty $0e
	note c3  $05
	duty $0f
	note c3  $05
	duty $0e
	note fs2 $05
	duty $0f
	note fs2 $05
; Measure 7
	duty $0e
	note cs3 $05
	duty $0f
	note cs3 $05
	duty $0e
	note cs3 $05
	duty $0f
	note cs3 $05

	rest $14

	duty $0e
	note c3  $05
	duty $0f
	note c3  $05
	duty $0e
	note c3  $05
	duty $0f
	note c3  $05

	rest $14
; Measure 8
	duty $0e
	note ds3 $05
	duty $0f
	note ds3 $05
	duty $0e
	note ds3 $05
	duty $0f
	note ds3 $05

	rest $14

	duty $0e
	note e3  $05
	duty $0f
	note e3  $05
	duty $0e
	note e3  $05
	duty $0f
	note e3  $05

	rest $14
; Measure 9
	duty $0e
	note ds3 $05
	note d3  $05
	note a2  $05
	duty $0f
	note a2  $05

	duty $0e
	note ds3 $05
	duty $0f
	note ds3 $05
	duty $0e
	note a2  $05
	duty $0f
	note a2  $05

	duty $0e
	note ds3 $05
	duty $0f
	note ds3 $05
	duty $0e
	note a2  $05
	duty $0f
	note a2  $05

	duty $0e
	note ds3 $05
	duty $0f
	note ds3 $05
	duty $0e
	note a2  $05
	duty $0f
	note a2  $05
; Measure 10
	duty $0e
	note d3  $05
	note cs3 $05
	note gs2 $05
	duty $0f
	note gs2 $05

	duty $0e
	note d3  $05
	duty $0f
	note d3  $05
	duty $0e
	note gs2 $05
	duty $0f
	note gs2 $05

	duty $0e
	note d3  $05
	duty $0f
	note d3  $05
	duty $0e
	note gs2 $05
	duty $0f
	note gs2 $05

	duty $0e
	note d3  $05
	duty $0f
	note d3  $05
	duty $0e
	note gs2 $05
	duty $0f
	note gs2 $05
; Measure 11
	duty $0e
	note ds3 $05
	note d3  $05
	note a2  $05
	duty $0f
	note a2  $05

	duty $0e
	note ds3 $05
	duty $0f
	note ds3 $05
	duty $0e
	note a2  $05
	duty $0f
	note a2  $05

	duty $0e
	note ds3 $05
	duty $0f
	note ds3 $05
	duty $0e
	note a2  $05
	duty $0f
	note a2  $05

	duty $0e
	note ds3 $05
	duty $0f
	note ds3 $05
	duty $0e
	note a2  $05
	duty $0f
	note a2  $05
; Measure 12
	duty $0e
	note d3  $05
	duty $0f
	note d3  $05
	duty $0e
	note f3  $05
	duty $0f
	note f3  $05

	duty $0e
	note e3  $05
	duty $0f
	note e3  $05
	duty $0e
	note ds3 $05
	duty $0f
	note ds3 $05

	duty $0e
	note d3  $05
	duty $0f
	note d3  $05
	duty $0e
	note cs3 $05
	duty $0f
	note cs3 $05

	duty $0e
	note c3  $05
	duty $0f
	note c3  $05
	duty $0e
	note b2  $05
	duty $0f
	note b2  $05
; Measure 13
	duty $0e
	note ds3 $05
	note d3  $05
	note a2  $05
	duty $0f
	note a2  $05

	duty $0e
	note ds3 $05
	duty $0f
	note ds3 $05
	duty $0e
	note a2  $05
	duty $0f
	note a2  $05

	duty $0e
	note ds3 $05
	duty $0f
	note ds3 $05
	duty $0e
	note a2  $05
	duty $0f
	note a2  $05

	duty $0e
	note ds3 $05
	duty $0f
	note ds3 $05
	duty $0e
	note a2  $05
	duty $0f
	note a2  $05
; Measure 14
	duty $0e
	note d3  $05
	note cs3 $05
	note gs2 $05
	duty $0f
	note gs2 $05

	duty $0e
	note d3  $05
	duty $0f
	note d3  $05
	duty $0e
	note gs2 $05
	duty $0f
	note gs2 $05

	duty $0e
	note d3  $05
	duty $0f
	note d3  $05
	duty $0e
	note gs2 $05
	duty $0f
	note gs2 $05

	duty $0e
	note d3  $05
	duty $0f
	note d3  $05
	duty $0e
	note gs2 $05
	duty $0f
	note gs2 $05
; Measure 15
	duty $0e
	note ds3 $05
	duty $0f
	note ds3 $05
	duty $0e
	note ds3 $05
	duty $0f
	note ds3 $05

	rest $14

	duty $0e
	note e3  $05
	duty $0f
	note e3  $05
	duty $0e
	note e3  $05
	duty $0f
	note e3  $05

	rest $0a
	duty $0e
	note e3  $05
	duty $0f
	note e3  $05
; Measure 16
	duty $0e
	note f3  $05
	duty $0f
	note f3  $05
	duty $0e
	note f3  $05
	duty $0f
	note f3  $05

	duty $0e
	note f3  $05
	note e3  $05
	note ds3 $05
	note d3  $05
	note cs3 $05
	note c3  $05
	note b2  $05
	note as2 $05
	note a2  $05
	note gs2 $05
	note g2  $05
	note fs2 $05
	goto musice66c0
	cmdff

musMapleGameChannel6:
musice6a48:
; Measure 1
	vol $3
	note $2a $0a
	vol $2
	note $2e $0a
	vol $3
	note $2a $0a
	vol $2
	note $2e $0a
	vol $3
	note $2a $0a
	vol $2
	note $2e $0a
	vol $3
	note $2a $0a
	vol $2
	note $2e $0a
; Measure 2
	vol $3
	note $2a $0a
	vol $2
	note $2e $0a
	vol $3
	note $2a $0a
	vol $2
	note $2e $0a
	vol $3
	note $2a $0a
	vol $2
	note $2e $0a
	vol $3
	note $2a $0a
	vol $2
	note $2e $0a
; Measure 3
	vol $3
	note $2a $0a
	vol $2
	note $2e $0a
	vol $3
	note $2a $0a
	vol $2
	note $2e $0a
	vol $3
	note $2a $0a
	vol $2
	note $2e $0a
	vol $3
	note $2a $0a
	vol $2
	note $2e $0a
; Measure 4
	vol $3
	note $2a $05
	vol $3
	note $2a $05
	vol $2
	note $2e $05
	vol $3
	note $2a $05

	vol $3
	note $2a $05
	vol $3
	note $2a $05
	vol $2
	note $2e $05
	vol $3
	note $2a $05

	vol $3
	note $2a $05
	vol $3
	note $2a $05
	vol $2
	note $2e $05
	vol $3
	note $2a $05

	vol $4
	note $26 $05
	note $26 $05
	note $26 $05
	note $26 $05
; Measure 5
	vol $3
	note $2a $0a
	vol $2
	note $2e $0a
	vol $3
	note $2a $0a
	vol $2
	note $2e $0a
	vol $3
	note $2a $0a
	vol $2
	note $2e $0a
	vol $3
	note $2a $0a
	vol $2
	note $2e $0a
; Measure 6
	vol $3
	note $2a $0a
	vol $2
	note $2e $0a
	vol $3
	note $2a $0a
	vol $2
	note $2e $0a
	vol $3
	note $2a $0a
	vol $2
	note $2e $0a
	vol $3
	note $2a $0a
	vol $2
	note $2e $0a
; Measure 7
	vol $3
	note $2a $0a
	vol $2
	note $2e $0a
	vol $3
	note $2a $0a
	vol $2
	note $2e $0a
	vol $3
	note $2a $0a
	vol $2
	note $2e $0a
	vol $3
	note $2a $0a
	vol $2
	note $2e $0a
; Measure 8
	vol $3
	note $2a $05
	vol $3
	note $2a $05
	vol $2
	note $2e $05
	vol $3
	note $2a $05
	vol $3
	note $2a $05
	vol $3
	note $2a $05
	vol $2
	note $2e $05
	vol $3
	note $2a $05
	vol $3
	note $2a $05
	vol $3
	note $2a $05
	vol $2
	note $2e $05
	vol $3
	note $2a $05
	vol $4
	note $26 $05
	note $26 $05
	note $26 $05
	note $26 $05
; Measure 9
	vol $3
	note $2a $0a
	vol $2
	note $2e $0a
	vol $3
	note $2a $0a
	vol $2
	note $2e $0a
	vol $3
	note $2a $0a
	vol $2
	note $2e $0a
	vol $3
	note $2a $0a
	vol $2
	note $2e $0a
; Measure 10
	vol $3
	note $2a $0a
	vol $2
	note $2e $0a
	vol $3
	note $2a $0a
	vol $2
	note $2e $0a
	vol $3
	note $2a $0a
	vol $2
	note $2e $0a
	vol $3
	note $2a $0a
	vol $2
	note $2e $0a
; Measure 11
	vol $3
	note $2a $0a
	vol $2
	note $2e $0a
	vol $3
	note $2a $0a
	vol $2
	note $2e $0a
	vol $3
	note $2a $0a
	vol $2
	note $2e $0a
	vol $3
	note $2a $0a
	vol $2
	note $2e $0a
; Measure 12
	vol $3
	note $2a $05
	vol $3
	note $2a $05
	vol $2
	note $2e $05
	vol $3
	note $2a $05
	vol $3
	note $2a $05
	vol $3
	note $2a $05
	vol $2
	note $2e $05
	vol $3
	note $2a $05
	vol $3
	note $2a $05
	vol $3
	note $2a $05
	vol $2
	note $2e $05
	vol $3
	note $2a $05
	vol $4
	note $26 $05
	note $26 $05
	note $26 $05
	note $26 $05
; Measure 13
	vol $4
	vol $3
	note $2a $0a
	vol $2
	note $2e $0a
	vol $3
	note $2a $0a
	vol $2
	note $2e $0a
	vol $3
	note $2a $0a
	vol $2
	note $2e $0a
	vol $3
	note $2a $0a
	vol $2
	note $2e $0a
; Measure 14
	vol $3
	note $2a $0a
	vol $2
	note $2e $0a
	vol $3
	note $2a $0a
	vol $2
	note $2e $0a
	vol $3
	note $2a $0a
	vol $2
	note $2e $0a
	vol $3
	note $2a $0a
	vol $2
	note $2e $0a
; Measure 15
	vol $3
	note $2a $05
	vol $3
	note $2a $05
	vol $2
	note $2e $05
	vol $3
	note $2a $05

	vol $3
	note $2a $05
	vol $3
	note $2a $05
	vol $2
	note $2e $05
	vol $3
	note $2a $05

	vol $3
	note $2a $05
	vol $3
	note $2a $05
	vol $2
	note $2e $05
	vol $3
	note $2a $05

	vol $3
	note $2a $05
	vol $3
	note $2a $05
	vol $2
	note $2e $05
	vol $3
	note $2a $05
; Measure 16
	vol $3
	note $2a $05
	vol $3
	note $2a $05
	vol $2
	note $2e $05
	vol $3
	note $2a $05

	vol $3
	note $2a $05
	vol $3
	note $2a $05
	vol $3
	note $2a $05
	vol $3
	note $2a $05

	vol $3
	note $2a $05
	vol $3
	note $2a $05
	vol $3
	note $2a $05
	vol $3
	note $2a $05

	vol $3
	note $2a $05
	vol $3
	note $2a $05
	vol $3
	note $2a $05
	vol $3
	note $2a $05
	goto musice6a48
	cmdff
