musMinibossStart:

musMinibossChannel1:
	duty $02
	vol $7
	note g6  $03
	vol $6
	note fs6 $03
	vol $5
	note f6  $03
	note e6  $03
	note ds6 $03
	note d6  $03
	vol $6
	note cs6 $03
	note c6  $03
	note b5  $03
	note as5 $03
	vol $7
	note a5  $03
	note gs5 $03
	note g5  $03
	vol $8
	note fs5 $03
	note f5  $03
	vol $7
	note e5  $03
	env $0 $02
	vol $c
	duty $00
	note b3  $06
	note b3  $06
	note b3  $06
	vol $b
	env $0 $01
	note as3 $06
	rest $18
	env $0 $04
	note a3  $12
	env $0 $02
	note gs3 $12
	rest $0c
	note b3  $06
	note b3  $06
	note b3  $06
	env $0 $01
	note as3 $06
	rest $18
	env $0 $04
	note a3  $12
	env $0 $02
	note gs3 $12
	rest $0c
musice89a1:
	note cs4 $06
	note cs4 $06
	note cs4 $06
	env $0 $01
	vol $a
	note c4  $06
	rest $18
	env $0 $04
	note b3  $12
	env $0 $02
	note as3 $12
	rest $0c
	note cs4 $06
	note cs4 $06
	note cs4 $06
	vol $b
	env $0 $01
	vol $a
	note c4  $06
	rest $18
	env $0 $04
	note b3  $12
	env $0 $02
	note as3 $12
	rest $0c
	env $0 $00
	duty $01
	vol $5
	note e5  $12
	note ds5 $12
	note e5  $06
	note f5  $06
	note fs5 $06
	note g5  $06
	env $0 $02
	duty $00
	vol $a
	note ds4 $06
	note ds4 $06
	note ds4 $06
	vol $b
	env $0 $01
	vol $a
	note d4  $06
	rest $18
	env $0 $04
	note cs4 $12
	env $0 $02
	note c4  $12
	rest $0c
	note ds4 $06
	note ds4 $06
	note ds4 $06
	vol $b
	env $0 $01
	vol $a
	note d4  $06
	rest $18
	env $0 $04
	note cs4 $12
	env $0 $02
	note c4  $12
	rest $0c
	note f4  $06
	note f4  $06
	note f4  $06
	vol $b
	env $0 $01
	vol $a
	note e4  $06
	rest $18
	env $0 $04
	note ds4 $12
	env $0 $02
	note d4  $12
	rest $0c
	note f4  $06
	note f4  $06
	note f4  $06
	vol $b
	env $0 $01
	vol $a
	note e4  $06
	rest $18
	env $0 $04
	note ds4 $12
	env $0 $02
	note d4  $12
	rest $6c
	env $0 $00
	duty $02
	note g6  $03
	vol $6
	note fs6 $03
	vol $5
	note f6  $03
	note e6  $03
	note ds6 $03
	note d6  $03
	note cs6 $03
	vol $6
	note c6  $03
	note b5  $03
	note as5 $03
	vol $7
	note a5  $03
	note gs5 $03
	note g5  $03
	vol $8
	note fs5 $03
	note f5  $03
	vol $7
	note e5  $03
	env $0 $02
	duty $00
	vol $b
	note b3  $06
	note b3  $06
	note b3  $06
	env $0 $01
	note as3 $06
	rest $18
	env $0 $04
	note a3  $12
	env $0 $02
	note gs3 $12
	rest $0c
	note b3  $06
	note b3  $06
	note b3  $06
	vol $b
	env $0 $01
	vol $a
	note as3 $06
	rest $18
	env $0 $04
	note a3  $12
	env $0 $02
	note gs3 $12
	rest $0c
	goto musice89a1
	cmdff

musMinibossChannel0:
	duty $02
	vol $7
	note d6  $03
	vol $6
	note cs6 $03
	vol $5
	note c6  $03
	note b5  $03
	note as5 $03
	note a5  $03
	vol $6
	note gs5 $03
	note g5  $03
	note fs5 $03
	note f5  $03
	vol $7
	note e5  $03
	note ds5 $03
	note d5  $03
	vol $8
	note cs5 $03
	note c5  $03
	note b4  $03
	env $0 $02
	duty $00
	note e3  $06
	note e3  $06
	note e3  $06
	vol $9
	env $0 $01
	vol $8
	note ds3 $06
	rest $18
	env $0 $04
	note d3  $12
	env $0 $02
	note cs3 $12
	rest $0c
	env $0 $02
	note e3  $06
	note e3  $06
	note e3  $06
	vol $9
	env $0 $01
	note ds3 $06
	rest $18
	env $0 $04
	note d3  $12
	env $0 $02
	note cs3 $12
	rest $0c
musice8b04:
	note fs3 $06
	note fs3 $06
	note fs3 $06
	vol $9
	env $0 $01
	note f3  $06
	rest $18
	env $0 $04
	note e3  $12
	env $0 $02
	note ds3 $12
	rest $0c
	note fs3 $06
	note fs3 $06
	note fs3 $06
	vol $9
	env $0 $01
	vol $8
	note f3  $06
	rest $18
	env $0 $04
	note e3  $12
	env $0 $02
	note ds3 $12
	rest $0c
	env $0 $00
	duty $02
	vol $9
	note c3  $12
	note b2  $12
	note c3  $06
	note cs3 $06
	note d3  $06
	note ds3 $06
	env $0 $02
	duty $00
	vol $8
	note gs3 $06
	note gs3 $06
	note gs3 $06
	vol $a
	env $0 $01
	vol $9
	note g3  $06
	rest $18
	env $0 $04
	note fs3 $12
	env $0 $02
	note f3  $12
	rest $0c
	note gs3 $06
	note gs3 $06
	note gs3 $06
	vol $9
	env $0 $01
	vol $8
	note g3  $06
	rest $18
	env $0 $04
	note fs3 $12
	env $0 $02
	note f3  $12
	rest $0c
	note as3 $06
	note as3 $06
	note as3 $06
	vol $9
	env $0 $01
	vol $8
	note a3  $06
	rest $18
	env $0 $04
	note gs3 $12
	env $0 $02
	note g3  $12
	rest $0c
	note as3 $06
	note as3 $06
	note as3 $06
	vol $9
	env $0 $01
	vol $8
	note a3  $06
	rest $18
	env $0 $04
	note gs3 $12
	env $0 $02
	note g3  $12
	rest $6c
	env $0 $00
	duty $02
	note d6  $03
	vol $6
	note cs6 $03
	vol $5
	note c6  $03
	note b5  $03
	note as5 $03
	note a5  $03
	vol $6
	note gs5 $03
	note g5  $03
	note fs5 $03
	note f5  $03
	vol $7
	note e5  $03
	note ds5 $03
	note d5  $03
	vol $8
	note cs5 $03
	note c5  $03
	vol $7
	note b4  $03
	env $0 $02
	vol $9
	duty $00
	note e3  $06
	note e3  $06
	note e3  $06
	env $0 $01
	vol $8
	note ds3 $06
	rest $18
	env $0 $04
	note d3  $12
	env $0 $02
	note cs3 $12
	rest $0c
	note e3  $06
	note e3  $06
	note e3  $06
	vol $9
	env $0 $01
	vol $8
	note ds3 $06
	rest $18
	env $0 $04
	note d3  $12
	env $0 $02
	note cs3 $12
	rest $0c
	env $0 $04
	goto musice8b04
	cmdff

musMinibossChannel4:
	duty $12
	rest $30
	note b2  $06
	note fs2 $06
	note b2  $06
	note fs2 $06
	note b2  $06
	note fs2 $06
	note b2  $06
	note fs2 $06
	note b2  $06
	note fs2 $06
	note b2  $06
	note fs2 $06
	note b2  $06
	note fs2 $06
	note b2  $06
	note fs2 $06
	note b2  $06
	note fs2 $06
	note b2  $06
	note fs2 $06
	note b2  $06
	note fs2 $06
	note b2  $06
	note fs2 $06
	note b2  $06
	note fs2 $06
	note b2  $06
	note fs2 $06
	note b2  $06
	note fs2 $06
	note b2  $06
	note fs2 $06
musice8c51:
	duty $12
	note cs2 $06
	note cs3 $06
	note cs2 $06
	note cs3 $06
	note cs2 $06
	note cs3 $06
	note cs2 $06
	note cs3 $06
	note cs2 $06
	note cs3 $06
	note cs2 $06
	note cs3 $06
	note cs2 $06
	note cs3 $06
	note cs2 $06
	note cs3 $06
	note cs2 $06
	note cs3 $06
	note cs2 $06
	note cs3 $06
	note cs2 $06
	note cs3 $06
	note cs2 $06
	note cs3 $06
	note cs2 $06
	note cs3 $06
	note cs2 $06
	note cs3 $06
	note cs2 $06
	note cs3 $06
	note cs2 $06
	note cs3 $06
	duty $01
	note b4  $12
	note as4 $12
	note b4  $06
	note c5  $06
	note cs5 $06
	note d5  $06
	duty $12
	note ds2 $06
	note a1  $06
	note ds2 $06
	note a1  $06
	note ds2 $06
	note a1  $06
	note ds2 $06
	note a1  $06
	note ds2 $06
	note a1  $06
	note ds2 $06
	note a1  $06
	note ds2 $06
	note a1  $06
	note ds2 $06
	note a1  $06
	note ds2 $06
	note a1  $06
	note ds2 $06
	note a1  $06
	note ds2 $06
	note a1  $06
	note ds2 $06
	note a1  $06
	note ds2 $06
	note a1  $06
	note ds2 $06
	note a1  $06
	note ds2 $06
	note a1  $06
	note ds2 $06
	note a1  $06
	note f1  $06
	note f2  $06
	note f1  $06
	note f2  $06
	note f1  $06
	note f2  $06
	note f1  $06
	note f2  $06
	note f1  $06
	note f2  $06
	note f1  $06
	note f2  $06
	note f1  $06
	note f2  $06
	note f1  $06
	note f2  $06
	note f1  $06
	note f2  $06
	note f1  $06
	note f2  $06
	note f1  $06
	note f2  $06
	note f1  $06
	note f2  $06
	note f1  $06
	note f2  $06
	note f1  $06
	note f2  $06
	note f1  $06
	note f2  $06
	note f1  $06
	note f2  $06
	rest $90
	note b2  $06
	note fs2 $06
	note b2  $06
	note fs2 $06
	note b2  $06
	note fs2 $06
	note b2  $06
	note fs2 $06
	note b2  $06
	note fs2 $06
	note b2  $06
	note fs2 $06
	note b2  $06
	note fs2 $06
	note b2  $06
	note fs2 $06
	note b2  $06
	note fs2 $06
	note b2  $06
	note fs2 $06
	note b2  $06
	note fs2 $06
	note b2  $06
	note fs2 $06
	note b2  $06
	note fs2 $06
	note b2  $06
	note fs2 $06
	note b2  $06
	note fs2 $06
	note b2  $06
	note fs2 $06
	goto musice8c51
	cmdff

musMinibossChannel6:
	rest $30
	vol $3
	note $52 $04
	rest $02
	note $52 $04
	rest $02
	vol $8
	note $28 $01
	vol $2
	note $27 $08
	rest $03
	vol $3
	note $52 $04
	rest $02
	note $52 $04
	rest $02
	vol $8
	note $28 $01
	vol $2
	note $27 $08
	rest $03
	vol $3
	note $52 $04
	rest $02
	note $52 $04
	rest $02
	vol $8
	note $28 $01
	vol $2
	note $27 $08
	rest $03
	vol $3
	note $52 $04
	rest $02
	note $52 $04
	rest $02
	vol $8
	note $28 $01
	vol $2
	note $27 $08
	rest $03
	vol $3
	note $52 $04
	rest $02
	note $52 $04
	rest $02
	vol $8
	note $28 $01
	vol $2
	note $27 $08
	rest $03
	vol $3
	note $52 $04
	rest $02
	note $52 $04
	rest $02
	vol $8
	note $28 $01
	vol $2
	note $27 $08
	rest $03
	vol $3
	note $52 $04
	rest $02
	vol $8
	note $28 $01
	vol $2
	note $27 $08
	rest $03
	vol $8
	note $28 $01
	vol $2
	note $27 $03
	rest $02
	vol $8
	note $28 $01
	vol $2
	note $27 $03
	rest $02
	vol $8
	note $1c $01
	vol $2
	note $27 $03
	rest $02
	vol $9
	note $28 $01
	vol $1
	note $27 $03
	rest $02
	vol $8
	note $28 $01
	vol $2
	note $27 $03
	rest $02
musice8e06:
	vol $3
	note $52 $04
	rest $02
	note $52 $04
	rest $02
	vol $8
	note $28 $01
	vol $2
	note $27 $08
	rest $03
	vol $3
	note $52 $04
	rest $02
	note $52 $04
	rest $02
	vol $8
	note $28 $01
	vol $2
	note $27 $08
	rest $03
	vol $3
	note $52 $04
	rest $02
	note $52 $04
	rest $02
	vol $8
	note $28 $01
	vol $2
	note $27 $08
	rest $03
	vol $3
	note $52 $04
	rest $02
	note $52 $04
	rest $02
	vol $8
	note $28 $01
	vol $2
	note $27 $08
	rest $03
	vol $3
	note $52 $04
	rest $02
	note $52 $04
	rest $02
	vol $8
	note $28 $01
	vol $2
	note $27 $08
	rest $03
	vol $3
	note $52 $04
	rest $02
	note $52 $04
	rest $02
	vol $8
	note $28 $01
	vol $2
	note $27 $08
	rest $03
	vol $3
	note $52 $04
	rest $02
	vol $8
	note $28 $01
	vol $2
	note $27 $08
	rest $03
	vol $8
	note $28 $01
	vol $2
	note $27 $03
	rest $02
	vol $8
	note $28 $01
	vol $2
	note $27 $03
	rest $02
	vol $8
	note $28 $01
	vol $2
	note $27 $03
	rest $02
	vol $6
	note $28 $01
	vol $1
	note $27 $03
	rest $02
	vol $8
	note $28 $01
	vol $2
	note $27 $03
	rest $02
	vol $8
	note $28 $01
	vol $2
	note $27 $03
	rest $02
	vol $6
	note $28 $01
	vol $1
	note $27 $03
	rest $02
	vol $6
	note $28 $01
	vol $1
	note $27 $03
	rest $02
	vol $8
	note $28 $01
	vol $2
	note $27 $03
	rest $02
	vol $6
	note $28 $01
	vol $1
	note $27 $03
	rest $02
	vol $6
	note $28 $01
	vol $2
	note $27 $03
	rest $02
	vol $8
	note $28 $01
	vol $2
	note $27 $03
	rest $02
	vol $8
	note $28 $01
	vol $2
	note $27 $03
	rest $02
	vol $c
	note $28 $01
	vol $2
	note $27 $03
	rest $02
	vol $d
	note $28 $01
	vol $2
	note $27 $03
	rest $02
	vol $3
	note $52 $04
	rest $02
	note $52 $04
	rest $02
	vol $8
	note $28 $01
	vol $2
	note $27 $08
	rest $03
	vol $3
	note $52 $04
	rest $02
	note $52 $04
	rest $02
	vol $8
	note $28 $01
	vol $2
	note $27 $08
	rest $03
	vol $3
	note $52 $04
	rest $02
	note $52 $04
	rest $02
	vol $8
	note $28 $01
	vol $2
	note $27 $08
	rest $03
	vol $3
	note $52 $04
	rest $02
	note $52 $04
	rest $02
	vol $8
	note $28 $01
	vol $2
	note $27 $08
	rest $03
	vol $3
	note $52 $04
	rest $02
	note $52 $04
	rest $02
	vol $8
	note $28 $01
	vol $2
	note $27 $08
	rest $03
	vol $3
	note $52 $04
	rest $02
	note $52 $04
	rest $02
	vol $8
	note $28 $01
	vol $2
	note $27 $08
	rest $03
	vol $3
	note $52 $04
	rest $02
	vol $8
	note $28 $01
	vol $2
	note $27 $08
	rest $03
	vol $8
	note $28 $01
	vol $2
	note $27 $03
	rest $02
	vol $8
	note $28 $01
	vol $2
	note $27 $03
	rest $02
	vol $8
	note $28 $01
	vol $2
	note $27 $03
	rest $02
	vol $9
	note $28 $01
	vol $2
	note $27 $03
	rest $02
	vol $8
	note $28 $01
	vol $2
	note $27 $03
	rest $02
	vol $3
	note $52 $04
	rest $02
	note $52 $04
	rest $02
	vol $8
	note $28 $01
	vol $2
	note $27 $08
	rest $03
	vol $3
	note $52 $04
	rest $02
	note $52 $04
	rest $02
	vol $8
	note $28 $01
	vol $2
	note $27 $08
	rest $03
	vol $3
	note $52 $04
	rest $02
	note $52 $04
	rest $02
	vol $8
	note $28 $01
	vol $2
	note $27 $08
	rest $03
	vol $3
	note $52 $04
	rest $02
	note $52 $04
	rest $02
	vol $8
	note $28 $01
	vol $2
	note $27 $08
	rest $03
	vol $3
	note $52 $04
	rest $02
	note $52 $04
	rest $02
	vol $8
	note $28 $01
	vol $2
	note $27 $08
	rest $03
	vol $3
	note $52 $04
	rest $02
	note $52 $04
	rest $02
	vol $8
	note $28 $01
	vol $2
	note $27 $08
	rest $03
	vol $3
	note $52 $04
	rest $02
	vol $8
	note $28 $01
	vol $2
	note $27 $08
	rest $03
	vol $8
	note $28 $01
	vol $2
	note $27 $03
	rest $02
	vol $8
	note $28 $01
	vol $2
	note $27 $03
	rest $02
	vol $8
	note $28 $01
	vol $2
	note $27 $03
	rest $02
	vol $9
	note $28 $01
	vol $2
	note $27 $03
	rest $02
	vol $8
	note $28 $01
	vol $2
	note $27 $03
	rest $02
	vol $8
	note $28 $01
	vol $2
	note $27 $03
	rest $02
	vol $8
	note $28 $01
	vol $2
	note $27 $08
	rest $03
	vol $4
	note $26 $04
	rest $02
	note $26 $09
	rest $03
	vol $8
	note $28 $01
	vol $2
	note $27 $03
	rest $02
	vol $8
	note $28 $01
	vol $2
	note $27 $03
	rest $02
	vol $4
	note $26 $04
	rest $02
	note $26 $04
	rest $02
	note $26 $04
	rest $02
	note $26 $04
	rest $02
	vol $7
	note $28 $01
	vol $5
	note $27 $03
	rest $02
	vol $9
	note $28 $01
	vol $5
	note $27 $03
	rest $02
	vol $8
	note $28 $01
	vol $5
	note $27 $03
	rest $02
	vol $d
	note $28 $01
	vol $5
	note $27 $03
	rest $32
	vol $3
	note $52 $04
	rest $02
	note $52 $04
	rest $02
	vol $8
	note $28 $01
	vol $2
	note $27 $08
	rest $03
	vol $3
	note $52 $04
	rest $02
	note $52 $04
	rest $02
	vol $8
	note $28 $01
	vol $2
	note $27 $08
	rest $03
	vol $3
	note $52 $04
	rest $02
	note $52 $04
	rest $02
	vol $8
	note $28 $01
	vol $2
	note $27 $08
	rest $03
	vol $3
	note $52 $04
	rest $02
	note $52 $04
	rest $02
	vol $8
	note $28 $01
	vol $2
	note $27 $08
	rest $03
	vol $3
	note $52 $04
	rest $02
	note $52 $04
	rest $02
	vol $8
	note $28 $01
	vol $2
	note $27 $08
	rest $03
	vol $3
	note $52 $04
	rest $02
	note $52 $04
	rest $02
	vol $8
	note $28 $01
	vol $2
	note $27 $08
	rest $03
	vol $3
	note $52 $04
	rest $02
	vol $8
	note $28 $01
	vol $2
	note $27 $08
	rest $03
	vol $8
	note $28 $01
	vol $2
	note $27 $03
	rest $02
	vol $8
	note $28 $01
	vol $2
	note $27 $03
	rest $02
	vol $8
	note $28 $01
	vol $2
	note $27 $03
	rest $02
	vol $7
	note $28 $01
	vol $2
	note $27 $03
	rest $02
	vol $8
	note $28 $01
	vol $2
	note $27 $03
	rest $02
	goto musice8e06
	cmdff
