musOnoxCastleStart:

musOnoxCastleChannel1:
	vibrato $c1
	env $0 $00
	cmdf2
	duty $01
musicf0453:
	vol $0
	note gs3 $24
	vol $6
	note a3  $24
	note d4  $24
	note a4  $24
	note gs4 $48
	note f4  $24
	note d4  $24
	duty $02
	note c5  $09
	note b4  $09
	note c5  $09
	note b4  $09
	rest $6c
	vol $4
	note c5  $09
	note b4  $09
	note c5  $09
	note b4  $09
	rest $90
	duty $01
	vol $6
	note d4  $24
	note f4  $24
	note a4  $24
	note cs5 $48
	note d5  $24
	note e5  $24
	vol $7
	note f5  $09
	note e5  $09
	vol $6
	note f5  $09
	note e5  $09
	note gs4 $48
	rest $24
	vol $4
	note f5  $09
	note e5  $09
	note f5  $09
	note e5  $09
	note gs4 $48
	rest $24
	vol $6
	note e5  $09
	note ds5 $09
	note e5  $09
	note ds5 $09
	note g4  $6c
	note ds5 $09
	note d5  $09
	note ds5 $09
	note d5  $09
	note fs4 $5a
	rest $12
	vol $6
	note c5  $12
	note b4  $09
	rest $04
	vol $3
	note b4  $05
	vol $6
	note e5  $12
	vol $6
	note ds5 $09
	rest $04
	vol $3
	note ds5 $05
	vol $6
	note g5  $12
	vol $6
	note fs5 $09
	rest $04
	vol $3
	note fs5 $05
	vol $6
	note c6  $12
	note b5  $09
	rest $04
	vol $3
	note b5  $05
	vol $6
	note a6  $09
	note gs6 $09
	note g6  $09
	note fs6 $09
	note f6  $09
	rest $04
	vol $3
	note f6  $05
	vol $6
	note f6  $09
	note e6  $09
	note ds6 $09
	note d6  $09
	note cs6 $09
	rest $04
	vol $3
	note cs6 $05
	vol $6
	note cs6 $09
	note c6  $09
	note b5  $09
	note as5 $09
	note d5  $12
	vol $6
	note e5  $12
	note f5  $24
	vibrato $01
	env $0 $00
	vol $3
	note f5  $12
	vibrato $d1
	env $0 $00
	vol $6
	note d5  $12
	note e5  $12
	note f5  $12
	note a5  $48
	note gs5 $36
	vibrato $01
	env $0 $00
	vol $3
	note gs5 $12
	vibrato $d1
	env $0 $00
	vol $6
	note c5  $12
	note d5  $12
	note ds5 $24
	vibrato $01
	env $0 $00
	vol $3
	note ds5 $12
	vibrato $d1
	env $0 $00
	vol $6
	note c5  $12
	note d5  $12
	note ds5 $12
	note g5  $48
	note fs5 $36
	vibrato $01
	env $0 $00
	vol $3
	note fs5 $12
	vibrato $d1
	env $0 $00
	vol $6
	note as4 $12
	note c5  $12
	note cs5 $24
	vibrato $01
	env $0 $00
	vol $3
	note cs5 $12
	vibrato $d1
	env $0 $00
	vol $6
	note as4 $12
	note c5  $12
	note cs5 $12
	rest $04
	vol $3
	note cs5 $09
	rest $09
	vol $1
	note cs5 $09
	rest $05
	vol $6
	note e4  $51
	vibrato $01
	env $0 $00
	vol $3
	note e4  $1b
	rest $48
	vibrato $c1
	env $0 $00
	goto musicf0453
	cmdff

musOnoxCastleChannel0:
	vibrato $c1
	env $0 $00
	cmdf2
	duty $01
musicf059e:
	vol $0
	note gs3 $24
	vol $1
	note a3  $12
	vol $3
	note a3  $24
	note d4  $24
	note a4  $24
	note gs4 $48
	note f4  $24
	note d4  $24
	duty $02
	vol $3
	note c5  $09
	note b4  $09
	note c5  $09
	note b4  $09
	rest $6c
	vol $2
	note c5  $09
	note b4  $09
	note c5  $09
	note b4  $09
	rest $99
	duty $01
	vol $3
	note d4  $24
	note f4  $24
	note a4  $24
	note cs5 $48
	note d5  $24
	note e5  $24
	rest $03
	vol $3
	note f5  $09
	note e5  $09
	vol $3
	note f5  $09
	note e5  $09
	vol $3
	note gs4 $48
	rest $24
	vol $2
	note f5  $09
	note e5  $09
	note f5  $09
	vol $2
	note e5  $09
	note gs4 $63
	vol $3
	note e5  $09
	note ds5 $09
	note e5  $09
	note ds5 $09
	note g4  $6c
	vol $1
	note ds5 $09
	note d5  $09
	note ds5 $09
	note d5  $09
	note fs4 $57
	vol $6
	note a4  $12
	note gs4 $09
	rest $04
	vol $3
	note gs4 $05
	vol $6
	note c5  $12
	note b4  $09
	rest $04
	vol $3
	note b4  $05
	vol $6
	note e5  $12
	note ds5 $09
	rest $04
	vol $3
	note ds5 $05
	vol $6
	note a5  $12
	note gs5 $09
	rest $04
	vol $3
	note gs5 $05
	vol $6
	note fs6 $09
	note f6  $09
	note e6  $09
	note ds6 $09
	note d6  $09
	rest $04
	vol $3
	note d6  $05
	vol $6
	note d6  $09
	note cs6 $09
	note c6  $09
	note b5  $09
	note as5 $09
	rest $04
	vol $3
	note as5 $05
	vol $6
	note as5 $09
	note a5  $09
	note gs5 $09
	note g5  $09
	duty $02
	note d4  $04
	rest $05
	note f4  $04
	vol $3
	note d4  $05
	vol $6
	note e4  $04
	vol $3
	note f4  $05
	vol $6
	note f4  $04
	vol $3
	note e4  $05
	vol $6
	note d4  $04
	vol $3
	note f4  $05
	vol $6
	note f4  $04
	vol $3
	note d4  $05
	vol $6
	note e4  $04
	vol $3
	note f4  $05
	vol $6
	note f4  $04
	vol $3
	note e4  $05
	vol $6
	note d4  $04
	vol $3
	note f4  $05
	vol $6
	note f4  $04
	vol $3
	note d4  $05
	vol $6
	note e4  $04
	vol $3
	note f4  $05
	vol $6
	note f4  $04
	vol $3
	note e4  $05
	vol $6
	note d4  $04
	vol $3
	note f4  $05
	vol $6
	note f4  $04
	vol $3
	note d4  $05
	vol $6
	note e4  $04
	vol $3
	note f4  $05
	vol $6
	note f4  $04
	vol $3
	note e4  $05
	vol $6
	note b3  $04
	vol $3
	note f4  $05
	vol $6
	note d4  $04
	vol $3
	note b3  $05
	vol $6
	note cs4 $04
	vol $3
	note d4  $05
	vol $6
	note d4  $04
	vol $3
	note cs4 $05
	vol $6
	note b3  $04
	vol $3
	note d4  $05
	vol $6
	note d4  $04
	vol $3
	note b3  $05
	vol $6
	note cs4 $04
	vol $3
	note d4  $05
	vol $6
	note d4  $04
	vol $3
	note cs4 $05
	vol $6
	note b3  $04
	vol $3
	note d4  $05
	vol $6
	note d4  $04
	vol $3
	note b3  $05
	vol $6
	note cs4 $04
	vol $3
	note d4  $05
	vol $6
	note d4  $04
	vol $3
	note cs4 $05
	vol $6
	note b3  $04
	vol $3
	note d4  $05
	vol $6
	note d4  $04
	vol $3
	note b3  $05
	vol $6
	note cs4 $04
	vol $3
	note d4  $05
	vol $6
	note d4  $04
	vol $3
	note cs4 $05
	vol $6
	note c4  $04
	vol $3
	note d4  $05
	vol $6
	note ds4 $04
	vol $3
	note c4  $05
	vol $6
	note d4  $04
	vol $3
	note ds4 $05
	vol $6
	note ds4 $04
	vol $3
	note d4  $05
	vol $6
	note c4  $04
	vol $3
	note ds4 $05
	vol $6
	note ds4 $04
	vol $3
	note c4  $05
	vol $6
	note d4  $04
	vol $3
	note ds4 $05
	vol $6
	note ds4 $04
	vol $3
	note d4  $05
	vol $6
	note c4  $04
	vol $3
	note ds4 $05
	vol $6
	note ds4 $04
	vol $3
	note c4  $05
	vol $6
	note d4  $04
	vol $3
	note ds4 $05
	vol $6
	note ds4 $04
	vol $3
	note d4  $05
	vol $6
	note c4  $04
	vol $3
	note ds4 $05
	vol $6
	note ds4 $04
	vol $3
	note c4  $05
	vol $6
	note d4  $04
	vol $3
	note ds4 $05
	vol $6
	note ds4 $04
	vol $3
	note d4  $05
	vol $6
	note a3  $04
	vol $3
	note ds4 $05
	vol $6
	note c4  $04
	vol $3
	note a3  $05
	vol $6
	note b3  $04
	vol $3
	note c4  $05
	vol $6
	note c4  $04
	vol $3
	note b3  $05
	vol $6
	note a3  $04
	vol $3
	note c4  $05
	vol $6
	note c4  $04
	vol $3
	note a3  $05
	vol $6
	note b3  $04
	vol $3
	note c4  $05
	vol $6
	note c4  $04
	vol $3
	note b3  $05
	vol $6
	note a3  $04
	vol $3
	note c4  $05
	vol $6
	note c4  $04
	vol $3
	note a3  $05
	vol $6
	note b3  $04
	vol $3
	note c4  $05
	vol $6
	note c4  $04
	vol $3
	note b3  $05
	vol $6
	note a3  $04
	vol $3
	note c4  $05
	vol $6
	note c4  $04
	vol $3
	note a3  $05
	vol $6
	note b3  $04
	vol $3
	note c4  $05
	vol $6
	note c4  $04
	vol $3
	note b3  $05
	duty $01
	vol $6
	note as3 $12
	note c4  $12
	note cs4 $24
	vibrato $01
	env $0 $00
	vol $3
	note cs4 $12
	vibrato $d1
	env $0 $00
	vol $6
	note as3 $12
	note c4  $12
	note cs4 $12
	rest $04
	vol $3
	note cs4 $09
	rest $05
	vol $1
	note cs4 $09
	rest $09
	vol $6
	note e3  $48
	vibrato $01
	env $0 $00
	vol $3
	note e3  $24
	rest $48
	vibrato $d1
	env $0 $00
	goto musicf059e
	cmdff

musOnoxCastleChannel4:
	duty $0e
musicf0818:
	note d2  $09
	rest $09
	note d2  $09
	rest $75
	note d2  $09
	rest $09
	note d2  $09
	rest $75
	note d2  $09
	rest $09
	note d2  $09
	rest $75
	note d2  $09
	rest $09
	note d2  $09
	rest $75
	note d2  $09
	rest $09
	note d2  $09
	rest $63
	note d2  $09
	rest $09
	note d2  $09
	rest $09
	note d2  $09
	rest $75
	note d2  $09
	rest $09
	note d2  $09
	rest $75
	note d2  $09
	rest $09
	note d2  $09
	rest $75
	note cs2 $09
	rest $09
	note cs2 $09
	rest $75
	note c2  $09
	rest $09
	note c2  $09
	rest $75
	note b1  $90
	rest $90
	note d2  $09
	rest $09
	note d2  $09
	rest $2d
	note d2  $09
	rest $09
	note d2  $09
	rest $2d
	note gs2 $09
	rest $09
	note gs2 $09
	rest $2d
	note gs2 $09
	rest $09
	note gs2 $09
	rest $2d
	note c2  $09
	rest $09
	note c2  $09
	rest $2d
	note c2  $09
	rest $09
	note c2  $09
	rest $2d
	note fs2 $09
	rest $09
	note fs2 $09
	rest $2d
	note fs2 $09
	rest $09
	note fs2 $09
	rest $1b
	note ds2 $04
	note d2  $05
	note c2  $04
	note b1  $05
	note as1 $12
	note c2  $12
	note cs2 $2d
	rest $09
	note as1 $12
	note c2  $12
	note cs2 $12
	rest $24
	note e1  $09
	note f1  $09
	note e1  $09
	note f1  $09
	note e1  $09
	note f1  $09
	note e1  $09
	note f1  $09
	note e1  $09
	rest $63
	goto musicf0818
	cmdff

.define musOnoxCastleChannel6 MUSIC_CHANNEL_FALLBACK EXPORT
