musPiratesStart:

musPiratesChannel1:
	vibrato $e1
	env $0 $00
	duty $02
musicf4e9d:
	vol $6
	note a2  $0e
	note gs2 $08
	note a2  $0e
	note b2  $08
	note c3  $0e
	note b2  $08
	note c3  $0e
	note d3  $08
	note ds3 $0e
	note e3  $08
	note ds3 $0e
	note e3  $08
	rest $2c
	note a4  $0e
	note gs4 $08
	note a4  $0e
	note gs4 $08
	note g4  $0e
	note fs4 $08
	note g4  $0e
	note fs4 $08
	note f4  $0e
	note e4  $08
	note f4  $0e
	note e4  $08
	rest $2c
	note e5  $0e
	note ds5 $08
	note e5  $0e
	note ds5 $08
	note d5  $0e
	note cs5 $08
	note d5  $0e
	note cs5 $08
	note c5  $0e
	note b4  $08
	note c5  $0e
	note b4  $08
	note as4 $0e
	note a4  $08
	note as4 $0e
	vol $6
	note a4  $08
	note gs4 $2c
	note f4  $16
	note gs4 $0e
	note f4  $08
	note e4  $07
	rest $1d
	note d4  $08
	note c4  $07
	rest $0f
	note b3  $07
	rest $0f
	vol $6
	note e4  $0e
	note ds4 $08
	note e4  $0e
	note ds4 $08
	note e4  $07
	rest $04
	vol $3
	note e4  $07
	rest $04
	vol $6
	note a4  $07
	rest $04
	vol $3
	note a4  $07
	rest $04
	vol $6
	note ds4 $0e
	note d4  $08
	note ds4 $0e
	note d4  $08
	rest $03
	vol $3
	note d4  $08
	rest $03
	vol $1
	note d4  $08
	rest $16
	vol $6
	note e4  $0e
	note ds4 $08
	note e4  $0e
	note ds4 $08
	note e4  $07
	rest $04
	vol $3
	note e4  $07
	rest $04
	vol $6
	note a4  $07
	rest $04
	vol $3
	note a4  $07
	rest $04
	vol $6
	note c5  $0e
	note gs4 $08
	note c5  $0e
	note gs4 $08
	rest $03
	vol $3
	note gs4 $08
	rest $03
	vol $1
	note gs4 $08
	rest $16
	vol $6
	note a4  $0e
	note gs4 $08
	note a4  $0e
	note gs4 $08
	note a4  $07
	rest $04
	vol $3
	note a4  $07
	rest $04
	vol $6
	note c5  $07
	rest $04
	vol $3
	note c5  $07
	rest $04
	vol $6
	note gs4 $0e
	note g4  $08
	note gs4 $0e
	note g4  $08
	rest $03
	vol $3
	note g4  $08
	rest $03
	vol $1
	note g4  $08
	rest $16
	vol $6
	note a4  $0e
	note gs4 $08
	note a4  $0e
	note gs4 $08
	note a4  $07
	rest $04
	vol $3
	note a4  $07
	rest $04
	vol $6
	note e5  $07
	rest $04
	vol $3
	note e5  $07
	rest $04
	vol $6
	note ds5 $0e
	note e5  $08
	note f5  $0e
	note e5  $08
	rest $03
	vol $3
	note e5  $08
	rest $03
	vol $1
	note e5  $08
	rest $24
	vol $6
	note a4  $08
	note e4  $0e
	rest $03
	vol $3
	note e4  $05
	vol $6
	note e4  $0e
	note ds4 $08
	rest $03
	vol $3
	note ds4 $08
	rest $03
	vol $6
	note d4  $08
	note c4  $07
	rest $04
	vol $3
	note c4  $07
	rest $04
	vol $6
	note c4  $0e
	note b3  $08
	rest $03
	vol $3
	note b3  $08
	rest $03
	vol $6
	note e4  $08
	note ds4 $0e
	note e4  $08
	note a4  $07
	rest $04
	vol $3
	note a4  $03
	vol $6
	note e5  $08
	note ds5 $0e
	rest $03
	vol $3
	note ds5 $05
	vol $6
	note ds5 $0e
	note d5  $08
	rest $03
	vol $3
	note d5  $08
	rest $03
	vol $6
	note d5  $08
	note c5  $07
	rest $04
	vol $3
	note c5  $07
	rest $04
	vol $6
	note c5  $0e
	note b4  $08
	rest $03
	vol $3
	note b4  $08
	rest $03
	vol $6
	note e4  $03
	rest $05
	note e4  $07
	rest $04
	vol $3
	note e4  $03
	vol $6
	note e4  $08
	note f4  $16
	note e4  $07
	rest $04
	vol $3
	note e4  $07
	rest $04
	vol $6
	note g4  $16
	note e4  $07
	rest $04
	vol $3
	note e4  $07
	rest $04
	vol $6
	note f4  $16
	note e4  $07
	rest $04
	vol $3
	note e4  $07
	rest $04
	vol $6
	note g4  $16
	note e4  $07
	rest $04
	vol $3
	note e4  $07
	rest $5c
	vol $6
	note e4  $07
	note gs4 $07
	note as4 $08
	note gs4 $07
	note as4 $07
	note d5  $08
	note as4 $07
	note d5  $07
	note e5  $08
	note d5  $07
	note e5  $07
	note as5 $08
	goto musicf4e9d
	cmdff

musPiratesChannel0:
	vibrato $e1
	env $0 $00
	duty $02
musicf5098:
	vol $1
	note a2  $0b
	vol $3
	note a2  $0e
	note gs2 $08
	note a2  $0e
	note b2  $08
	note c3  $0e
	note b2  $08
	note c3  $0e
	note d3  $08
	note ds3 $0e
	note e3  $08
	note ds3 $0e
	note e3  $08
	rest $2c
	note a4  $0e
	note gs4 $08
	note a4  $0e
	note gs4 $08
	note g4  $0e
	note fs4 $08
	note g4  $0e
	note fs4 $08
	note f4  $0e
	note e4  $08
	note f4  $0e
	note e4  $08
	rest $21
	vol $6
	note a4  $2c
	note gs4 $2c
	note g4  $2c
	note fs4 $2c
	note f4  $2c
	note d4  $2c
	note b3  $07
	rest $07
	vol $3
	note b3  $08
	rest $07
	vol $1
	note b3  $07
	rest $08
	vol $6
	note gs3 $07
	rest $07
	vol $3
	note gs3 $08
	rest $07
	vol $1
	note gs3 $07
	rest $13
	vol $3
	note e4  $0e
	note ds4 $08
	note e4  $0e
	note ds4 $08
	note e4  $07
	rest $04
	vol $1
	note e4  $07
	rest $04
	vol $3
	note a4  $07
	rest $04
	vol $1
	note a4  $07
	rest $04
	vol $3
	note ds4 $0e
	note d4  $08
	note ds4 $0e
	note d4  $08
	rest $03
	vol $1
	note d4  $08
	rest $03
	vol $0
	note d4  $08
	rest $16
	vol $3
	note e4  $0e
	note ds4 $08
	note e4  $0e
	note ds4 $08
	note e4  $07
	rest $04
	vol $1
	note e4  $07
	rest $04
	vol $3
	note a4  $07
	rest $04
	vol $1
	note a4  $07
	rest $04
	vol $3
	note c5  $0e
	note gs4 $08
	note c5  $0e
	note gs4 $08
	rest $03
	vol $1
	note gs4 $08
	rest $03
	vol $0
	note gs4 $08
	rest $16
	vol $3
	note a4  $0e
	note gs4 $08
	note a4  $0e
	note gs4 $08
	note a4  $07
	rest $04
	vol $1
	note a4  $07
	rest $04
	vol $3
	note c5  $07
	rest $04
	vol $1
	note c5  $07
	rest $04
	vol $3
	note gs4 $0e
	note g4  $08
	note gs4 $0e
	note g4  $08
	rest $03
	vol $1
	note g4  $08
	rest $03
	vol $0
	note g4  $08
	rest $16
	vol $3
	note a4  $0e
	note gs4 $08
	note a4  $0e
	note gs4 $08
	note a4  $07
	rest $04
	vol $1
	note a4  $07
	rest $04
	vol $3
	note e5  $07
	rest $04
	vol $1
	note e5  $07
	rest $04
	vol $3
	note ds5 $0e
	note e5  $08
	note f5  $0e
	note e5  $08
	rest $03
	vol $1
	note e5  $08
	rest $03
	vol $0
	note e5  $08
	rest $24
	vol $3
	note a4  $08
	note e4  $0e
	rest $03
	vol $1
	note e4  $05
	vol $3
	note e4  $0e
	note ds4 $08
	rest $03
	vol $1
	note ds4 $08
	rest $03
	vol $3
	note d4  $08
	note c4  $07
	rest $04
	vol $1
	note c4  $07
	rest $04
	vol $3
	note c4  $0e
	note b3  $08
	rest $03
	vol $1
	note b3  $08
	rest $03
	vol $3
	note e4  $08
	note ds4 $0b
	vol $6
	note c5  $07
	rest $04
	vol $3
	note c5  $03
	vol $6
	note c5  $08
	note b4  $0e
	rest $03
	vol $3
	note b4  $05
	vol $6
	note b4  $0e
	note as4 $08
	rest $03
	vol $3
	note as4 $08
	rest $03
	vol $6
	note as4 $08
	note gs4 $07
	rest $04
	vol $3
	note gs4 $07
	rest $04
	vol $6
	note gs4 $0e
	note e4  $08
	rest $03
	vol $3
	note e4  $08
	rest $03
	vol $6
	note c4  $03
	rest $05
	note c4  $07
	rest $04
	vol $3
	note c4  $03
	vol $6
	note c4  $08
	vol $6
	note cs4 $16
	note c4  $07
	rest $04
	vol $3
	note c4  $07
	rest $04
	vol $6
	note ds4 $16
	note c4  $07
	rest $04
	vol $3
	note c4  $07
	rest $04
	vol $6
	note cs4 $16
	note c4  $07
	rest $04
	vol $3
	note c4  $07
	rest $04
	vol $6
	note ds4 $16
	note c4  $07
	rest $04
	vol $3
	note c4  $07
	rest $67
	note e4  $07
	note gs4 $07
	note as4 $08
	note gs4 $07
	note as4 $07
	note d5  $08
	note as4 $07
	note d5  $07
	note e5  $08
	note d5  $07
	note e5  $04
	goto musicf5098
	cmdff

musPiratesChannel4:
musicf5280:
	duty $0e
	note a1  $07
	rest $25
	note f2  $07
	rest $25
	note ds2 $24
	note e2  $08
	duty $0f
	note e2  $08
	rest $06
	duty $0e
	note e2  $08
	note fs2 $0e
	note gs2 $08
	duty $0e
	note a2  $07
	duty $0f
	note a2  $07
	rest $1e
	duty $0e
	note e2  $07
	duty $0f
	note e2  $07
	rest $1e
	duty $0e
	note b1  $24
	note e2  $08
	duty $0f
	note e2  $08
	rest $06
	duty $0e
	note e3  $08
	note ds3 $0e
	note d3  $08
	note c3  $0e
	note b2  $08
	note c3  $0e
	note b2  $08
	note as2 $0e
	note a2  $08
	note as2 $0e
	note a2  $08
	note gs2 $0e
	note g2  $08
	note gs2 $0e
	note g2  $08
	note fs2 $0e
	note f2  $08
	note fs2 $0e
	note f2  $08
	note e2  $2c
	note f2  $2c
	note fs2 $2c
	note gs2 $2c
	duty $0e
	note a2  $07
	duty $0f
	note a2  $07
	rest $1e
	duty $0e
	note e2  $07
	duty $0f
	note e2  $07
	rest $1e
	duty $0e
	note ds2 $24
	note e2  $08
	duty $0f
	note e2  $08
	rest $06
	duty $0e
	note e2  $16
	note fs2 $03
	note gs2 $05
	duty $0e
	note a2  $07
	duty $0f
	note a2  $07
	rest $1e
	duty $0e
	note e2  $07
	duty $0f
	note e2  $07
	rest $1e
	duty $0e
	note ds2 $0e
	note e2  $08
	note ds2 $0e
	note e2  $08
	duty $0f
	note e2  $08
	rest $06
	duty $0e
	note e2  $16
	note fs2 $03
	note gs2 $05
	duty $0e
	note a2  $07
	duty $0f
	note a2  $07
	rest $1e
	duty $0e
	note e2  $07
	duty $0f
	note e2  $07
	rest $1e
	duty $0e
	note d2  $24
	note ds2 $08
	duty $0f
	note ds2 $08
	rest $06
	duty $0e
	note e2  $16
	note fs2 $03
	note gs2 $05
	duty $0e
	note a2  $07
	duty $0f
	note a2  $07
	rest $1e
	duty $0e
	note e2  $07
	duty $0f
	note e2  $07
	rest $1e
	duty $0e
	note ds2 $0e
	note e2  $08
	note f2  $0e
	note e2  $08
	duty $0f
	note e2  $08
	rest $0e
	duty $0e
	note e2  $16
	duty $0e
	note a2  $07
	duty $0f
	note a2  $07
	rest $1e
	duty $0e
	note e2  $07
	duty $0f
	note e2  $07
	rest $1e
	duty $0e
	note d2  $24
	note e2  $08
	duty $0f
	note e2  $08
	rest $24
	duty $0e
	note a2  $07
	duty $0f
	note a2  $07
	rest $1e
	duty $0e
	note e2  $07
	duty $0f
	note e2  $07
	rest $1e
	duty $0e
	note d2  $07
	duty $0f
	note d2  $07
	rest $08
	duty $0e
	note d2  $0e
	note e2  $08
	duty $0f
	note e2  $08
	rest $24
	duty $0e
	note a2  $07
	duty $0f
	note a2  $07
	rest $a2
	duty $0e
	note ds2 $0e
	note e2  $08
	note ds2 $0e
	note e2  $08
	note c3  $0e
	note b2  $08
	duty $0f
	note b2  $08
	rest $06
	duty $0e
	note as2 $60
	goto musicf5280
	cmdff

musPiratesChannel6:

.ifdef ROM_SEASONS
musicf5403:
	rest $ff
	rest $ff
	rest $28
	vol $4
	vol $3
	note $2a $2c
	vol $3
	note $2a $2c
	vol $3
	note $2a $24
	vol $3
	note $2a $08
	vol $2
	note $2e $16
	vol $3
	note $2a $42
	vol $3
	note $2a $2c
	vol $2
	note $2e $0e
	vol $3
	note $2a $16
	vol $3
	note $2a $08
	vol $2
	note $2e $16
	vol $0
	vol $3
	note $2a $16
	vol $4
	vol $3
	note $2a $2c
	vol $3
	note $2a $2c
	vol $2
	note $2e $0e
	vol $3
	note $2a $16
	vol $3
	vol $3
	note $2a $08
	vol $4
	vol $2
	note $2e $16
	rest $16
	vol $4
	vol $3
	note $2a $2c
	vol $3
	note $2a $2c
	vol $2
	note $2e $0e
	vol $3
	note $2a $16
	vol $3
	vol $3
	note $2a $08
	vol $4
	vol $2
	note $2e $16
	rest $16
	vol $4
	vol $3
	note $2a $2c
	vol $3
	note $2a $2c
	vol $2
	note $2e $0e
	vol $3
	note $2a $16
	vol $3
	vol $3
	note $2a $08
	vol $4
	vol $2
	note $2e $16
	rest $16
	vol $4
	vol $3
	note $2a $2c
	vol $3
	note $2a $2c
	vol $2
	note $2e $0e
	vol $3
	note $2a $16
	vol $3
	vol $3
	note $2a $08
	vol $4
	vol $2
	note $2e $16
	rest $16
	vol $4
	vol $3
	note $2a $2c
	vol $3
	note $2a $2c
	vol $2
	note $2e $0e
	vol $3
	note $2a $16
	vol $3
	vol $3
	note $2a $08
	vol $4
	vol $2
	note $2e $16
	vol $2
	note $2e $16
	vol $3
	note $2a $0e
	vol $3
	note $2a $08
	vol $2
	note $2e $16
	vol $3
	note $2a $0e
	vol $3
	note $2a $08
	vol $2
	note $2e $16
	vol $3
	note $2a $0e
	vol $3
	note $2a $08
	vol $2
	note $2e $16
	vol $3
	note $2a $0e
	vol $3
	note $2a $08
	vol $2
	note $2e $0e
	vol $3
	note $2a $08
	vol $3
	note $2a $0e
	vol $3
	note $2a $08
	vol $3
	note $2a $0e
	vol $3
	note $2a $16
	vol $3
	note $2a $16
	vol $3
	note $2a $08
	vol $3
	note $2a $07
	vol $3
	note $2a $07
	vol $3
	note $2a $08
	vol $3
	note $2a $07
	vol $3
	note $2a $07
	vol $3
	note $2a $08
	vol $3
	note $2a $07
	vol $3
	note $2a $07
	vol $3
	note $2a $08
	goto musicf5403
	cmdff

.else ; ROM_AGES

musicf5400:
	rest $ff
	rest $ff
	rest $28
	vol $3
	note $2a $2c
	note $2a $2c
	note $2a $24
	note $2a $08
	vol $2
	note $2e $16
	vol $3
	note $2a $42
	note $2a $2c
	vol $2
	note $2e $0e
	vol $3
	note $2a $16
	note $2a $08
	vol $2
	note $2e $16
	vol $3
	note $2a $16
	vol $4
	vol $3
	note $2a $2c
	note $2a $2c
	vol $2
	note $2e $0e
	vol $3
	note $2a $16
	vol $3
	note $2a $08
	vol $2
	note $2e $16
	rest $16
	vol $3
	note $2a $2c
	note $2a $2c
	vol $2
	note $2e $0e
	vol $3
	note $2a $16
	note $2a $08
	vol $2
	note $2e $16
	rest $16
	vol $3
	note $2a $2c
	vol $3
	note $2a $2c
	vol $2
	note $2e $0e
	vol $3
	note $2a $16
	note $2a $08
	vol $2
	note $2e $16
	rest $16
	vol $3
	note $2a $2c
	note $2a $2c
	vol $2
	note $2e $0e
	vol $3
	note $2a $16
	note $2a $08
	vol $2
	note $2e $16
	rest $16
	vol $3
	note $2a $2c
	vol $3
	note $2a $2c
	vol $2
	note $2e $0e
	vol $3
	note $2a $16
	note $2a $08
	vol $2
	note $2e $16
	note $2e $16
	vol $3
	note $2a $0e
	note $2a $08
	vol $2
	note $2e $16
	vol $3
	note $2a $0e
	note $2a $08
	vol $2
	note $2e $16
	vol $3
	note $2a $0e
	note $2a $08
	vol $2
	note $2e $16
	vol $3
	note $2a $0e
	note $2a $08
	vol $2
	note $2e $0e
	vol $3
	note $2a $08
	note $2a $0e
	note $2a $08
	note $2a $0e
	note $2a $16
	note $2a $16
	note $2a $08
	note $2a $07
	note $2a $07
	note $2a $08
	note $2a $07
	note $2a $07
	note $2a $08
	note $2a $07
	note $2a $07
	note $2a $08
	goto musicf5400
	cmdff
.endif
