musPrecreditsStart:

musPrecreditsChannel1:
	vol $0
	note gs3 $07
	vibrato $e1
	env $0 $00
	cmdf2
	duty $02
musicea200:
	vol $6
	note g4  $0e
	rest $03
	vol $3
	note g4  $0b
	vol $6
	note d4  $15
	note g4  $07
	note c5  $0e
	note b4  $0e
	note a4  $0e
	note g4  $0e
	note a4  $1c
	note d4  $0e
	rest $03
	vol $3
	note d4  $04
	vol $6
	note c4  $07
	note d4  $2a
	vibrato $01
	env $0 $00
	vol $3
	note d4  $0e
	vibrato $e1
	env $0 $00
	vol $6
	note e4  $0e
	rest $03
	vol $3
	note e4  $0b
	vol $6
	note e4  $09
	note c4  $09
	note e4  $0a
	note fs4 $0e
	rest $03
	vol $3
	note fs4 $0b
	vol $6
	note fs4 $09
	vol $6
	note e4  $09
	note fs4 $0a
	note g4  $0e
	rest $03
	vol $3
	note g4  $0b
	vol $6
	note g4  $09
	note fs4 $09
	note g4  $0a
	note b4  $0e
	rest $07
	vol $3
	note b4  $07
	vol $6
	note a4  $0e
	rest $07
	vol $3
	note a4  $07
	vol $6
	note d5  $0e
	rest $03
	vol $3
	note d5  $0b
	vol $6
	note d5  $0e
	rest $03
	vol $3
	note d5  $04
	vol $6
	note d5  $07
	note c5  $0e
	note b4  $0e
	note a4  $0e
	note g4  $0e
	note b4  $1c
	note a4  $15
	note g4  $07
	note a4  $2a
	vibrato $01
	env $0 $00
	vol $3
	note a4  $0e
	vibrato $e1
	env $0 $00
	vol $6
	note g4  $0e
	rest $07
	vol $3
	note g4  $07
	vol $6
	note g4  $09
	note ds4 $09
	note g4  $0a
	note a4  $0e
	rest $07
	vol $3
	note a4  $07
	vol $6
	note a4  $09
	note f4  $09
	note a4  $0a
	note as4 $0e
	rest $07
	vol $3
	note as4 $07
	vol $6
	note as4 $09
	note g4  $09
	note as4 $0a
	note a4  $0e
	note as4 $0e
	note c5  $0e
	note cs5 $0e
	duty $01
	note d5  $0e
	rest $07
	vol $3
	note d5  $07
	vol $6
	note d5  $0e
	rest $03
	vol $3
	note d5  $04
	vol $6
	note d5  $07
	note ds5 $0e
	note d5  $0e
	note c5  $0e
	note as4 $07
	rest $03
	vol $3
	note as4 $04
	vol $6
	note as4 $1c
	note a4  $0e
	rest $03
	vol $3
	note a4  $04
	vol $6
	note g4  $07
	note f4  $1c
	vol $3
	note f4  $1c
	vol $6
	note as4 $0e
	rest $07
	vol $3
	note as4 $07
	vol $6
	note as4 $0e
	rest $03
	vol $3
	note as4 $04
	vol $6
	note as4 $07
	note c5  $0e
	note as4 $0e
	note c5  $0e
	note as4 $0e
	note c5  $07
	rest $03
	vol $3
	note c5  $07
	rest $04
	vol $6
	note d5  $03
	rest $04
	note d5  $38
	vibrato $01
	env $0 $00
	vol $3
	note d5  $1c
	vibrato $e1
	env $0 $00
	vol $6
	note e5  $07
	rest $03
	vol $3
	note e5  $07
	rest $04
	vol $1
	note e5  $07
	vol $6
	note e5  $07
	rest $03
	vol $3
	note e5  $07
	rest $04
	vol $6
	note e5  $04
	rest $03
	note e5  $07
	rest $03
	vol $3
	note e5  $07
	rest $04
	vol $1
	note e5  $07
	vol $6
	note a4  $04
	note b4  $05
	note cs5 $05
	note d5  $04
	note ds5 $05
	note e5  $05
	note fs5 $07
	rest $03
	vol $3
	note fs5 $07
	rest $04
	vol $1
	note fs5 $07
	vol $6
	note fs5 $07
	rest $03
	vol $3
	note fs5 $07
	rest $04
	vol $6
	note fs5 $04
	rest $03
	note fs5 $07
	rest $03
	vol $3
	note fs5 $07
	rest $04
	vol $1
	note fs5 $07
	rest $1c
	vol $6
	note g5  $0e
	rest $03
	vol $3
	note g5  $0b
	vol $6
	note g5  $09
	note ds5 $09
	note g5  $0a
	note a5  $0e
	rest $03
	vol $3
	note a5  $0b
	vol $6
	note a5  $09
	note f5  $09
	note a5  $0a
	note as5 $0e
	rest $03
	vol $3
	note as5 $0b
	vol $6
	note as5 $09
	note g5  $09
	note as5 $0a
	note c6  $0e
	rest $03
	vol $3
	note c6  $0b
	vol $6
	note c6  $09
	note a5  $09
	note c6  $0a
	note d6  $07
	rest $03
	vol $3
	note d6  $07
	rest $04
	vol $1
	note d6  $07
	vol $6
	note d6  $07
	rest $03
	vol $3
	note d6  $07
	rest $04
	vol $6
	note d6  $03
	rest $04
	note d6  $38
	vibrato $01
	env $0 $00
	vol $3
	note d6  $1c
	rest $54
	vibrato $e1
	env $0 $00
	vol $6
	note d6  $07
	rest $03
	vol $3
	note d6  $07
	rest $04
	vol $1
	note d6  $07
	vol $6
	note d6  $07
	rest $03
	vol $3
	note d6  $07
	rest $04
	vol $6
	note d6  $03
	rest $04
	note d6  $38
	vibrato $01
	env $0 $00
	vol $3
	note d6  $1c
	rest $54
	vibrato $e1
	env $0 $00
	duty $02
	goto musicea200
	cmdff

musPrecreditsChannel0:
	vol $0
	note gs3 $07
	vibrato $e1
	env $0 $00
	cmdf2
	duty $02
musicea42f:
	rest $1c
	vol $6
	note b2  $1c
	note d3  $1c
	note g3  $1c
	note f3  $31
	note e3  $07
	note d3  $1c
	vol $3
	note d3  $0e
	vol $6
	note a3  $07
	note gs3 $07
	note g3  $0e
	vol $3
	note g3  $0e
	vol $6
	note g3  $09
	note e3  $09
	note g3  $0a
	note a3  $0e
	vol $3
	note a3  $0e
	vol $6
	note a3  $09
	note fs3 $09
	note a3  $0a
	note b3  $0e
	vol $3
	note b3  $0e
	vol $6
	note b3  $09
	note a3  $09
	note b3  $0a
	note d4  $0e
	vol $3
	note d4  $0e
	vol $6
	note d4  $07
	note c4  $07
	note b3  $07
	note a3  $07
	note b3  $0e
	rest $03
	vol $3
	note b3  $0b
	vol $6
	note b3  $0e
	rest $03
	vol $3
	note b3  $04
	vol $6
	note b3  $07
	note a3  $0e
	note g3  $04
	note a3  $05
	note g3  $05
	note fs3 $0e
	note e3  $0e
	note d3  $07
	rest $03
	vol $3
	note d3  $07
	rest $04
	vol $1
	note d3  $07
	vol $6
	note fs3 $15
	note e3  $07
	note fs3 $07
	rest $03
	vol $3
	note fs3 $04
	vol $6
	note a3  $0e
	note b3  $0e
	note c4  $0e
	note d4  $38
	note ds4 $38
	note f4  $38
	note ds4 $0e
	note d4  $0e
	note ds4 $0e
	note e4  $0e
	note f4  $07
	rest $03
	vol $3
	note f4  $04
	vol $6
	note as3 $07
	note f3  $07
	note as3 $07
	rest $03
	vol $3
	note as3 $04
	vol $6
	note as3 $07
	note a3  $07
	vol $6
	note as3 $07
	rest $03
	vol $3
	note as3 $04
	vol $6
	note as3 $07
	note a3  $07
	note as3 $07
	note c4  $07
	note d4  $07
	note as3 $07
	note f3  $07
	rest $03
	vol $3
	note f3  $04
	vol $6
	note f3  $07
	note e3  $07
	note f3  $07
	rest $03
	vol $3
	note f3  $04
	vol $6
	note f3  $07
	note g3  $07
	note a3  $07
	rest $03
	vol $3
	note a3  $04
	vol $6
	note a3  $07
	note as3 $07
	note c4  $07
	note a3  $07
	note as3 $07
	note c4  $07
	note d4  $0e
	rest $03
	vol $3
	note d4  $0b
	vol $6
	note g3  $0e
	rest $03
	vol $3
	note g3  $04
	vol $6
	note g3  $07
	note a3  $0e
	rest $03
	vol $3
	note a3  $0b
	vol $6
	note a3  $07
	note g3  $07
	note f3  $07
	note c4  $07
	note d4  $07
	rest $03
	vol $3
	note d4  $04
	vol $6
	note as3 $07
	note a3  $07
	note as3 $07
	rest $03
	vol $3
	note as3 $04
	vol $6
	note as3 $07
	note a3  $07
	note as3 $07
	rest $03
	vol $3
	note as3 $04
	vol $6
	note as3 $07
	note a3  $07
	note as3 $07
	note c4  $07
	note d4  $07
	note as3 $07
	note cs4 $07
	rest $03
	vol $3
	note cs4 $07
	rest $04
	vol $1
	note cs4 $07
	vol $6
	note cs4 $07
	rest $03
	vol $3
	note cs4 $07
	rest $04
	vol $6
	note cs4 $04
	rest $03
	note cs4 $07
	rest $03
	vol $3
	note cs4 $07
	rest $04
	vol $1
	note cs4 $07
	vol $6
	note a4  $04
	note gs4 $05
	note g4  $05
	note fs4 $04
	note f4  $05
	note e4  $05
	note d4  $07
	rest $03
	vol $3
	note d4  $07
	rest $04
	vol $1
	note d4  $07
	vol $6
	note d4  $07
	rest $03
	vol $3
	note d4  $07
	rest $04
	vol $6
	note d4  $04
	rest $03
	note d4  $07
	rest $03
	vol $3
	note d4  $04
	vol $6
	note d4  $07
	note e4  $07
	note fs4 $07
	note d4  $07
	note e4  $07
	note fs4 $07
	note ds4 $0e
	rest $03
	vol $3
	note ds4 $0b
	vol $6
	note ds4 $09
	note as3 $09
	note ds4 $0a
	note f4  $0e
	rest $03
	vol $3
	note f4  $0b
	vol $6
	note f4  $09
	note c4  $09
	note f4  $0a
	note g4  $0e
	rest $03
	vol $3
	note g4  $0b
	vol $6
	note g4  $09
	note ds4 $09
	note g4  $0a
	note a4  $0e
	note as4 $0e
	note c5  $0e
	note cs5 $0e
	note d5  $07
	rest $03
	vol $3
	note d5  $07
	rest $04
	vol $1
	note d5  $07
	vol $6
	note fs4 $07
	rest $03
	vol $3
	note fs4 $07
	rest $04
	vol $6
	note fs4 $03
	rest $04
	note fs4 $31
	rest $07
	vol $6
	note d4  $0e
	note a3  $07
	note g3  $07
	note d3  $07
	note g3  $07
	note a3  $07
	note c4  $07
	note d4  $0e
	note a3  $07
	note g3  $07
	note d3  $07
	note g3  $07
	note a3  $07
	note c4  $07
	note fs4 $07
	rest $03
	vol $3
	note fs4 $07
	rest $04
	vol $1
	note fs4 $07
	vol $6
	note g4  $09
	note fs4 $09
	note g4  $0a
	note a4  $31
	rest $07
	vol $6
	note d4  $0e
	note a3  $07
	note g3  $07
	note d3  $07
	note g3  $07
	note a3  $07
	note c4  $07
	note d4  $07
	note c4  $07
	note b3  $07
	note a3  $07
	note g3  $07
	note fs3 $07
	note e3  $07
	note d3  $07
	goto musicea42f
	cmdff

musPrecreditsChannel4:
	rest $07
	cmdf2
musicea678:
	duty $0e
	note g2  $07
	duty $0f
	note g2  $07
	duty $0e
	note g2  $07
	duty $0f
	note g2  $0e
	rest $4d
	duty $0e
	note d2  $07
	duty $0f
	note d2  $07
	duty $0e
	note d2  $07
	duty $0f
	note d2  $0e
	rest $4d
	duty $0e
	note c2  $1c
	duty $0f
	note c2  $0e
	duty $0e
	note c2  $07
	duty $0f
	note c2  $07
	duty $0e
	note d2  $1c
	duty $0f
	note d2  $0e
	duty $0e
	note d2  $07
	duty $0f
	note d2  $07
	duty $0e
	note c2  $23
	duty $0f
	note c2  $07
	duty $0e
	note c2  $07
	duty $0f
	note c2  $07
	duty $0e
	note d2  $07
	duty $0f
	note d2  $0e
	rest $07
	duty $0e
	note d2  $07
	note e2  $07
	note fs2 $07
	note d2  $07
	duty $0e
	note g2  $07
	duty $0f
	note g2  $07
	duty $0e
	note g2  $07
	duty $0f
	note g2  $0e
	rest $3f
	duty $0e
	note g2  $0e
	duty $0e
	note d2  $07
	duty $0f
	note d2  $07
	duty $0e
	note d2  $07
	duty $0f
	note d2  $0e
	rest $31
	duty $0e
	note d2  $07
	duty $0f
	note d2  $07
	duty $0e
	note d2  $07
	note cs2 $07
	duty $0e
	note ds2 $23
	duty $0f
	note ds2 $07
	duty $0e
	note ds2 $0e
	duty $0e
	note f2  $23
	duty $0f
	note f2  $07
	duty $0e
	note f2  $07
	duty $0f
	note f2  $07
	duty $0e
	note ds2 $23
	duty $0f
	note ds2 $07
	duty $0e
	note ds2 $0e
	duty $0e
	note f2  $15
	duty $0f
	note f2  $07
	duty $0e
	note f2  $1c
	duty $0e
	note as2 $12
	duty $0f
	note as2 $0a
	duty $0e
	note f2  $12
	duty $0f
	note f2  $0a
	duty $0e
	note as2 $0e
	duty $0f
	note as2 $0e
	duty $0e
	note f2  $0e
	duty $0f
	note f2  $0e
	duty $0e
	note f2  $0e
	duty $0f
	note f2  $0e
	duty $0e
	note g2  $0e
	duty $0f
	note g2  $0e
	duty $0e
	note a2  $0e
	duty $0f
	note a2  $0e
	duty $0e
	note f2  $1c
	duty $0e
	note g2  $07
	duty $0f
	note g2  $07
	duty $0e
	note g2  $07
	duty $0f
	note g2  $0e
	rest $15
	duty $0e
	note f2  $07
	duty $0f
	note f2  $07
	duty $0e
	note f2  $07
	duty $0f
	note f2  $0e
	rest $15
	duty $0e
	note as2 $0e
	duty $0f
	note as2 $0e
	duty $0e
	note f2  $0e
	duty $0f
	note f2  $0e
	duty $0e
	note d2  $0e
	duty $0f
	note d2  $0e
	duty $0e
	note as1 $0e
	duty $0f
	note as1 $0e
	duty $0e
	note a2  $15
	duty $0f
	note a2  $07
	duty $0e
	note a2  $0e
	duty $0f
	note a2  $07
	duty $0e
	note a2  $03
	duty $0f
	note a2  $04
	duty $0e
	note a2  $1c
	duty $0f
	note a2  $0e
	rest $0e
	duty $0e
	note d2  $0e
	duty $0f
	note d2  $0e
	duty $0e
	note d2  $0e
	duty $0f
	note d2  $07
	duty $0e
	note d2  $03
	duty $0f
	note d2  $04
	duty $0e
	note d2  $1c
	duty $0f
	note d2  $0e
	rest $0e
	duty $0e
	note ds2 $0e
	duty $0f
	note ds2 $0e
	duty $0e
	note ds2 $0e
	duty $0f
	note ds2 $0e
	duty $0e
	note f2  $0e
	duty $0f
	note f2  $0e
	duty $0e
	note f2  $0e
	duty $0f
	note f2  $0e
	duty $0e
	note g2  $0e
	duty $0f
	note g2  $0e
	duty $0e
	note g2  $0e
	duty $0f
	note g2  $0e
	duty $0e
	note a2  $0e
	duty $0f
	note a2  $0e
	duty $0e
	note a2  $0e
	duty $0f
	note a2  $0e
	duty $0e
	note d2  $0e
	duty $0f
	note d2  $0e
	duty $0e
	note d2  $0a
	duty $0f
	note d2  $0b
	duty $0e
	note d2  $03
	duty $0f
	note d2  $04
	duty $0e
	note d2  $38
	duty $0f
	note d2  $24
	rest $4c
	duty $0e
	note d2  $0e
	duty $0f
	note d2  $0e
	duty $0e
	note d2  $0a
	duty $0f
	note d2  $0b
	duty $0e
	note d2  $03
	duty $0f
	note d2  $04
	duty $0e
	note d2  $38
	duty $0f
	note d2  $24
	rest $4c
	goto musicea678
	cmdff

musPrecreditsChannel6:
	cmdf2
	vol $3
	note $26 $02
	vol $2
	note $26 $02
	vol $2
	note $26 $03
musicea8a0:
	vol $4
	note $26 $0e
	note $26 $2a
	note $26 $1c
	vol $5
	note $26 $03
	vol $4
	note $26 $04
	vol $3
	note $26 $03
	vol $2
	note $26 $04
	vol $3
	note $26 $03
	vol $3
	note $26 $04
	vol $2
	note $26 $03
	vol $3
	note $26 $04
	vol $4
	note $26 $0e
	note $26 $23
	vol $3
	note $26 $02
	vol $3
	note $26 $02
	vol $4
	note $26 $03
	vol $4
	note $26 $0e
	vol $5
	note $26 $1c
	vol $3
	note $26 $07
	vol $4
	note $26 $07
	vol $5
	note $26 $0e
	vol $3
	note $26 $07
	vol $3
	note $26 $07
	vol $5
	note $26 $0e
	vol $3
	note $26 $0e
	vol $5
	note $26 $0e
	vol $3
	note $26 $07
	vol $3
	note $26 $07
	vol $5
	note $26 $03
	vol $4
	note $26 $04
	vol $3
	note $26 $03
	vol $2
	note $26 $04
	vol $3
	note $26 $03
	vol $3
	note $26 $04
	vol $2
	note $26 $03
	vol $3
	note $26 $04
	vol $4
	note $26 $0e
	note $26 $23
	vol $3
	note $26 $02
	vol $3
	note $26 $02
	vol $4
	note $26 $03
	vol $4
	note $26 $0e
	note $26 $0e
	note $26 $03
	vol $4
	note $26 $04
	vol $3
	note $26 $03
	vol $2
	note $26 $04
	vol $3
	note $26 $03
	vol $3
	note $26 $04
	vol $2
	note $26 $03
	vol $4
	note $26 $04
	vol $4
	note $26 $0e
	note $26 $23
	vol $4
	note $26 $02
	vol $4
	note $26 $02
	vol $4
	note $26 $03
	vol $5
	note $26 $0e
	note $26 $1c
	vol $4
	note $26 $03
	vol $3
	note $26 $04
	vol $2
	note $26 $03
	vol $4
	note $26 $04
	vol $4
	note $26 $0e
	note $26 $23
	vol $3
	note $26 $02
	vol $3
	note $26 $02
	vol $4
	note $26 $03
	vol $4
	note $26 $0e
	vol $4
	note $26 $1c
	vol $3
	note $26 $03
	vol $3
	note $26 $04
	vol $2
	note $26 $03
	vol $4
	note $26 $04
	vol $4
	note $26 $0e
	note $26 $23
	vol $3
	note $26 $02
	vol $3
	note $26 $02
	vol $4
	note $26 $03
	vol $4
	note $26 $1c
	vol $4
	note $26 $03
	vol $4
	note $26 $04
	vol $3
	note $26 $03
	vol $2
	note $26 $04
	vol $3
	note $26 $03
	vol $3
	note $26 $04
	vol $2
	note $26 $03
	vol $3
	note $26 $04
	vol $4
	note $26 $0e
	vol $3
	note $26 $04
	vol $4
	note $26 $05
	vol $4
	note $26 $05
	vol $4
	note $26 $0e
	vol $4
	note $26 $04
	vol $4
	note $26 $05
	vol $4
	note $26 $05
	vol $5
	note $26 $0e
	note $26 $07
	note $26 $07
	vol $4
	note $26 $03
	vol $4
	note $26 $04
	vol $3
	note $26 $03
	vol $2
	note $26 $04
	vol $3
	note $26 $03
	vol $3
	note $26 $04
	vol $2
	note $26 $03
	vol $3
	note $26 $04
	vol $5
	note $26 $0e
	vol $3
	note $26 $03
	vol $3
	note $26 $04
	vol $2
	note $26 $03
	vol $3
	note $26 $04
	vol $5
	note $26 $0e
	vol $3
	note $26 $03
	vol $3
	note $26 $04
	vol $2
	note $26 $03
	vol $3
	note $26 $04
	vol $5
	note $26 $0e
	vol $3
	note $26 $03
	vol $3
	note $26 $04
	vol $2
	note $26 $03
	vol $3
	note $26 $04
	vol $5
	note $26 $0e
	vol $3
	note $26 $03
	vol $3
	note $26 $04
	vol $2
	note $26 $03
	vol $3
	note $26 $04
	vol $5
	note $26 $0e
	vol $3
	note $26 $03
	vol $3
	note $26 $04
	vol $2
	note $26 $03
	vol $3
	note $26 $04
	vol $5
	note $26 $0e
	vol $3
	note $26 $03
	vol $3
	note $26 $04
	vol $2
	note $26 $03
	vol $3
	note $26 $04
	vol $5
	note $26 $0e
	vol $3
	note $26 $03
	vol $3
	note $26 $04
	vol $2
	note $26 $03
	vol $3
	note $26 $04
	vol $5
	note $26 $0e
	vol $3
	note $26 $03
	vol $3
	note $26 $04
	vol $2
	note $26 $03
	vol $3
	note $26 $04
	vol $5
	note $26 $0e
	vol $3
	note $26 $03
	vol $3
	note $26 $04
	vol $2
	note $26 $03
	vol $3
	note $26 $04
	vol $5
	note $26 $0e
	vol $3
	note $26 $03
	vol $3
	note $26 $04
	vol $2
	note $26 $03
	vol $3
	note $26 $04
	vol $5
	note $26 $0e
	vol $3
	note $26 $03
	vol $3
	note $26 $04
	vol $2
	note $26 $03
	vol $3
	note $26 $04
	vol $5
	note $26 $0e
	vol $3
	note $26 $03
	vol $3
	note $26 $04
	vol $2
	note $26 $03
	vol $3
	note $26 $04
	vol $5
	note $26 $0e
	vol $3
	note $26 $03
	vol $3
	note $26 $04
	vol $2
	note $26 $03
	vol $3
	note $26 $04
	vol $5
	note $26 $0e
	vol $3
	note $26 $03
	vol $3
	note $26 $04
	vol $2
	note $26 $03
	vol $3
	note $26 $04
	vol $5
	note $26 $0e
	vol $3
	note $26 $03
	vol $3
	note $26 $04
	vol $2
	note $26 $03
	vol $3
	note $26 $04
	vol $5
	note $26 $0e
	vol $3
	note $26 $03
	vol $3
	note $26 $04
	vol $2
	note $26 $03
	vol $3
	note $26 $04
	vol $5
	note $26 $0e
	vol $3
	note $26 $03
	vol $3
	note $26 $04
	vol $2
	note $26 $03
	vol $3
	note $26 $04
	vol $5
	note $26 $0e
	vol $3
	note $26 $03
	vol $3
	note $26 $04
	vol $2
	note $26 $03
	vol $3
	note $26 $04
	vol $5
	note $26 $0e
	vol $3
	note $26 $03
	vol $3
	note $26 $04
	vol $2
	note $26 $03
	vol $3
	note $26 $04
	vol $5
	note $26 $0e
	vol $3
	note $26 $03
	vol $3
	note $26 $04
	vol $2
	note $26 $03
	vol $3
	note $26 $04
	vol $5
	note $26 $0e
	vol $3
	note $26 $03
	vol $3
	note $26 $04
	vol $2
	note $26 $03
	vol $3
	note $26 $04
	vol $5
	note $26 $0e
	vol $3
	note $26 $03
	vol $3
	note $26 $04
	vol $2
	note $26 $03
	vol $3
	note $26 $04
	vol $5
	note $26 $0e
	vol $3
	note $26 $03
	vol $3
	note $26 $04
	vol $2
	note $26 $03
	vol $3
	note $26 $04
	vol $5
	note $26 $0e
	vol $3
	note $26 $03
	vol $3
	note $26 $04
	vol $2
	note $26 $03
	vol $3
	note $26 $04
	vol $5
	note $26 $0e
	vol $3
	note $26 $03
	vol $3
	note $26 $04
	vol $2
	note $26 $03
	vol $3
	note $26 $04
	vol $5
	note $26 $0e
	vol $3
	note $26 $03
	vol $3
	note $26 $04
	vol $2
	note $26 $03
	vol $3
	note $26 $04
	vol $5
	note $26 $0e
	vol $3
	note $26 $03
	vol $3
	note $26 $04
	vol $2
	note $26 $03
	vol $3
	note $26 $04
	vol $5
	note $26 $0e
	vol $3
	note $26 $03
	vol $3
	note $26 $04
	vol $2
	note $26 $03
	vol $3
	note $26 $04
	vol $4
	note $26 $0e
	vol $3
	note $26 $03
	vol $3
	note $26 $04
	vol $2
	note $26 $03
	vol $2
	note $26 $04
	vol $5
	note $26 $0e
	vol $3
	note $26 $03
	vol $3
	note $26 $04
	vol $2
	note $26 $03
	vol $3
	note $26 $04
	vol $5
	note $26 $0e
	vol $3
	note $26 $03
	vol $3
	note $26 $04
	vol $2
	note $26 $03
	vol $3
	note $26 $04
	vol $4
	note $26 $03
	vol $4
	note $26 $04
	vol $3
	note $26 $03
	vol $2
	note $26 $04
	vol $3
	note $26 $03
	vol $3
	note $26 $04
	vol $2
	note $26 $03
	vol $3
	note $26 $04
	vol $4
	note $26 $0e
	vol $3
	note $26 $07
	vol $2
	note $26 $07
	vol $3
	note $26 $07
	vol $2
	note $26 $07
	vol $3
	note $26 $07
	vol $2
	note $26 $07
	vol $5
	note $26 $0e
	vol $3
	note $26 $03
	vol $3
	note $26 $04
	vol $2
	note $26 $03
	vol $3
	note $26 $04
	vol $4
	note $26 $03
	vol $4
	note $26 $04
	vol $3
	note $26 $03
	vol $2
	note $26 $04
	vol $3
	note $26 $03
	vol $3
	note $26 $04
	vol $2
	note $26 $03
	vol $3
	note $26 $04
	vol $4
	note $26 $0e
	vol $3
	note $26 $03
	vol $2
	note $26 $04
	vol $2
	note $26 $03
	note $26 $04
	vol $3
	note $26 $03
	vol $3
	note $26 $04
	vol $2
	note $26 $03
	vol $3
	note $26 $04
	vol $3
	note $26 $03
	vol $3
	note $26 $04
	vol $2
	note $26 $03
	vol $3
	note $26 $04
	vol $5
	note $26 $0e
	vol $3
	note $26 $03
	vol $3
	note $26 $04
	vol $2
	note $26 $03
	vol $3
	note $26 $04
	vol $4
	note $26 $03
	vol $4
	note $26 $04
	vol $3
	note $26 $03
	vol $2
	note $26 $04
	vol $3
	note $26 $03
	vol $3
	note $26 $04
	vol $2
	note $26 $03
	vol $3
	note $26 $04
	vol $4
	note $26 $0e
	vol $3
	note $26 $07
	vol $2
	note $26 $07
	vol $3
	note $26 $07
	vol $2
	note $26 $07
	vol $3
	note $26 $07
	vol $3
	note $26 $07
	vol $5
	note $26 $0e
	vol $3
	note $26 $03
	vol $3
	note $26 $04
	vol $2
	note $26 $03
	vol $3
	note $26 $04
	vol $4
	note $26 $03
	vol $4
	note $26 $04
	vol $3
	note $26 $03
	vol $2
	note $26 $04
	vol $3
	note $26 $03
	vol $3
	note $26 $04
	vol $2
	note $26 $03
	vol $3
	note $26 $04
	vol $4
	note $26 $0e
	vol $3
	note $26 $03
	vol $2
	note $26 $04
	vol $2
	note $26 $03
	note $26 $04
	vol $3
	note $26 $03
	vol $3
	note $26 $04
	vol $2
	note $26 $03
	vol $3
	note $26 $04
	vol $3
	note $26 $03
	vol $3
	note $26 $04
	vol $2
	note $26 $03
	vol $3
	note $26 $04
	vol $5
	note $26 $0e
	vol $3
	note $26 $03
	vol $3
	note $26 $04
	vol $2
	note $26 $03
	vol $3
	note $26 $04
	vol $4
	note $26 $03
	vol $4
	note $26 $04
	vol $3
	note $26 $03
	vol $2
	note $26 $04
	vol $3
	note $26 $03
	vol $3
	note $26 $04
	vol $2
	note $26 $03
	vol $3
	note $26 $04
	goto musicea8a0
	cmdff
