musRoomOfRitesStart:

musRoomOfRitesChannel1:
	vibrato $e1
	env $0 $00
	duty $02
	vol $8
	note b2  $03
	vol $8
	note e3  $04
	note f3  $03
	note b3  $04
	note b3  $03
	vol $7
	note e4  $04
	note f4  $03
	note b4  $04
	vol $8
	note b4  $03
	vol $8
	note e5  $04
	note f5  $03
	note b5  $04
	note b5  $03
	vol $7
	note e6  $04
	note f6  $03
	note b6  $2c
	rest $02
	vol $5
	note b6  $02
	rest $02
	vol $4
	note b6  $03
	rest $02
	vol $4
	note b6  $02
	rest $03
musicf5d7e:
	vol $7
	note f4  $0e
	note gs4 $0e
	note c5  $07
	rest $03
	vol $3
	note c5  $04
	vol $7
	note b4  $2a
	note gs4 $0e
	note f4  $0e
	note ds5 $07
	rest $03
	vol $3
	note ds5 $04
	vol $7
	note d5  $46
	vibrato $01
	env $0 $00
	vol $3
	note d5  $0e
	vibrato $e1
	env $0 $00
	vol $7
	note cs5 $0e
	note c5  $0e
	note b4  $0e
	note as4 $0e
	note gs4 $0e
	note g4  $1c
	vibrato $01
	env $0 $00
	vol $3
	note g4  $0e
	vibrato $e1
	env $0 $00
	vol $8
	note f4  $0e
	vol $8
	note g4  $04
	note gs4 $05
	note g4  $4b
	vibrato $01
	env $0 $00
	vol $4
	note g4  $0e
	vibrato $e1
	env $0 $00
	vol $8
	note f4  $0e
	note g4  $0e
	note f4  $0e
	note b3  $54
	vibrato $01
	env $0 $00
	vol $4
	note b3  $0e
	vibrato $e1
	env $0 $00
	vol $8
	note c4  $0e
	note d4  $0e
	note e4  $0e
	note f4  $0e
	note g4  $0e
	note gs4 $0e
	note as4 $0e
	vol $8
	note b4  $04
	note c5  $05
	note b4  $2f
	vibrato $01
	env $0 $00
	vol $4
	note b4  $0e
	vibrato $e1
	env $0 $00
	vol $8
	note gs4 $0e
	note g4  $0e
	note f4  $0e
	note e4  $07
	rest $03
	vol $4
	note e4  $04
	vol $8
	note g4  $46
	vibrato $01
	env $0 $00
	vol $4
	note g4  $1c
	vibrato $e1
	env $0 $00
	vol $8
	note f4  $0e
	note c4  $07
	note f4  $07
	note c4  $07
	note f4  $07
	note c4  $07
	rest $07
	vol $5
	note f4  $0e
	note c4  $07
	note f4  $07
	note c4  $07
	note f4  $07
	note c4  $07
	rest $07
	vol $8
	note e4  $0e
	note b3  $07
	note e4  $07
	note b3  $07
	note e4  $07
	note b3  $07
	rest $07
	vol $5
	note e4  $0e
	note b3  $07
	note e4  $07
	note b3  $07
	note e4  $07
	note b3  $07
	rest $07
	vol $8
	note f4  $0e
	note c4  $07
	note f4  $07
	note c4  $07
	note f4  $07
	vol $8
	note b4  $03
	vol $8
	note c5  $27
	vibrato $01
	env $0 $00
	vol $4
	note c5  $0e
	vibrato $e1
	env $0 $00
	vol $8
	note as4 $07
	note c5  $07
	note cs5 $0e
	note c5  $0e
	note as4 $0e
	note gs4 $0e
	note fs4 $0e
	vol $4
	note fs4 $0e
	vol $8
	note cs5 $0e
	vol $4
	note cs5 $0e
	vol $8
	note c5  $0e
	note f4  $07
	note c5  $07
	note f4  $07
	note c5  $07
	note f4  $07
	rest $07
	vol $5
	note c5  $0e
	note f4  $07
	note c5  $07
	note f4  $07
	note c5  $07
	note f4  $07
	rest $07
	vol $8
	note b4  $0e
	note e4  $07
	note b4  $07
	note e4  $07
	note b4  $07
	note e4  $07
	rest $07
	vol $5
	note b4  $0e
	note e4  $07
	note b4  $07
	note e4  $07
	note b4  $07
	note e4  $07
	rest $07
	vol $8
	note a4  $0e
	note d4  $07
	note f4  $07
	note d4  $07
	note f4  $07
	note d4  $0e
	vol $4
	note d4  $0e
	rest $1c
	vol $8
	note f5  $0e
	note fs5 $07
	rest $07
	vol $4
	note f5  $0e
	note fs5 $07
	rest $07
	vol $2
	note f5  $0e
	note fs5 $07
	rest $07
	vol $1
	note f5  $0e
	note fs5 $07
	rest $85
	goto musicf5d7e
	cmdff

musRoomOfRitesChannel0:
	vol $0
	note gs3 $09
	vibrato $e1
	env $0 $00
	duty $02
	vol $4
	note b2  $03
	note e3  $04
	note f3  $03
	note b3  $04
	note b3  $03
	note e4  $04
	note f4  $03
	note b4  $04
	note b4  $03
	note e5  $04
	note f5  $03
	note b5  $04
	note b5  $03
	note e6  $04
	note f6  $03
	note b6  $04
	rest $2f
musicf5f2e:
	vol $8
	note c3  $0e
	note cs3 $0e
	note c3  $0e
	note cs3 $0e
	note c3  $0e
	note cs3 $0e
	note c3  $0e
	note cs3 $0e
	note c3  $0e
	note cs3 $0e
	note c3  $0e
	note cs3 $0e
	note c3  $0e
	note cs3 $0e
	note c3  $0e
	note cs3 $0e
	note c3  $0e
	note cs3 $0e
	note c3  $0e
	note cs3 $0e
	note c3  $0e
	note cs3 $0e
	note c3  $0e
	note cs3 $0e
	note c3  $0e
	note cs3 $0e
	note c3  $0e
	note cs3 $0e
	note c3  $0e
	note cs3 $0e
	note c3  $0e
	note cs3 $0e
	note c3  $0e
	note cs3 $0e
	note c3  $0e
	note cs3 $0e
	note c3  $0e
	note cs3 $0e
	note c3  $0e
	note cs3 $0e
	note c3  $0e
	note cs3 $0e
	note c3  $0e
	note cs3 $0e
	note c3  $0e
	note cs3 $0e
	note c3  $0e
	note cs3 $0e
	note d3  $0e
	note ds3 $0e
	note d3  $0e
	note ds3 $0e
	note d3  $0e
	note ds3 $0e
	note cs3 $0e
	note d3  $0e
	note g2  $0e
	note gs2 $0e
	note g2  $0e
	note gs2 $0e
	note gs2 $0e
	note a2  $0e
	note a2  $0e
	note as2 $0e
	vol $8
	note gs3 $2a
	vol $4
	note gs3 $0e
	vol $8
	note gs3 $07
	rest $03
	vol $4
	note gs3 $04
	vol $8
	note gs3 $0e
	note c4  $0e
	note gs3 $0e
	note g3  $2a
	vol $4
	note g3  $0e
	vol $8
	note g3  $07
	rest $03
	vol $4
	note g3  $04
	vol $8
	note g3  $0e
	note as3 $0e
	note g3  $0e
	note gs3 $2a
	vol $4
	note gs3 $0e
	vol $8
	note gs3 $07
	rest $03
	vol $4
	note gs3 $04
	vol $8
	note gs3 $0e
	note c4  $0e
	note gs3 $0e
	note as3 $1c
	note b3  $1c
	note c4  $1c
	note d4  $0e
	note e4  $0e
	note f4  $07
	rest $03
	vol $4
	note f4  $07
	rest $04
	vol $2
	note f4  $07
	vol $8
	note gs3 $1c
	vol $4
	note gs3 $0e
	vol $8
	note c4  $0e
	note f4  $0e
	note gs4 $0e
	note g4  $07
	rest $03
	vol $4
	note g4  $07
	rest $04
	vol $2
	note g4  $07
	vol $8
	note g3  $1c
	vol $4
	note g3  $0e
	vol $8
	note b3  $0e
	note e4  $0e
	note g4  $0e
	note f3  $2a
	vol $4
	note f3  $0e
	vol $8
	note a3  $0e
	note d4  $0e
	note f4  $0e
	note a4  $0e
	note as4 $07
	rest $03
	vol $4
	note as4 $07
	rest $04
	vol $2
	note as4 $07
	rest $03
	vol $1
	note as4 $07
	rest $20
	vol $8
	note cs4 $0e
	note c4  $0e
	note b3  $0e
	vol $4
	note b3  $0e
	vol $8
	note b3  $0e
	note as3 $0e
	note a3  $0e
	vol $4
	note a3  $0e
	vol $8
	note a3  $0e
	note gs3 $0e
	note g3  $0e
	goto musicf5f2e
	cmdff

musRoomOfRitesChannel4:
	duty $0e
	note b1  $70
musicf606c:
	duty $01
	note f2  $0e
	note fs2 $0e
	note f2  $0e
	note fs2 $0e
	note f2  $0e
	note fs2 $0e
	note f2  $0e
	note fs2 $0e
	note f2  $0e
	note fs2 $0e
	note f2  $0e
	note fs2 $0e
	note f2  $0e
	note fs2 $0e
	note f2  $0e
	note fs2 $0e
	note f2  $0e
	note fs2 $0e
	note f2  $0e
	note fs2 $0e
	note f2  $0e
	note fs2 $0e
	note f2  $0e
	note fs2 $0e
	note f2  $0e
	note fs2 $0e
	note f2  $0e
	note fs2 $0e
	note f2  $0e
	note fs2 $0e
	note f2  $0e
	note fs2 $0e
	note f2  $0e
	note fs2 $0e
	note f2  $0e
	note fs2 $0e
	note f2  $0e
	note fs2 $0e
	note f2  $0e
	note fs2 $0e
	note f2  $0e
	note fs2 $0e
	note f2  $0e
	note fs2 $0e
	note f2  $0e
	note fs2 $0e
	note f2  $0e
	note fs2 $0e
	note g2  $0e
	note gs2 $0e
	note g2  $0e
	note gs2 $0e
	note g2  $0e
	note gs2 $0e
	note fs2 $0e
	note g2  $0e
	note c2  $0e
	note cs2 $0e
	note c2  $0e
	note cs2 $0e
	note d2  $0e
	note ds2 $0e
	note e2  $0e
	note f2  $0e
	duty $0e
	note f2  $07
	duty $0f
	note f2  $07
	duty $0e
	note f2  $15
	duty $0f
	note f2  $07
	duty $0e
	note f2  $07
	duty $0f
	note f2  $07
	duty $0e
	note f2  $07
	duty $0f
	note f2  $07
	duty $0e
	note f2  $15
	duty $0f
	note f2  $07
	duty $0e
	note f2  $07
	duty $0f
	note f2  $07
	duty $0e
	note e2  $07
	duty $0f
	note e2  $07
	duty $0e
	note e2  $15
	duty $0f
	note e2  $07
	duty $0e
	note e2  $07
	duty $0f
	note e2  $07
	duty $0e
	note e2  $07
	duty $0f
	note e2  $07
	duty $0e
	note e2  $15
	duty $0f
	note e2  $07
	duty $0e
	note e2  $07
	duty $0f
	note e2  $07
	duty $0e
	note f2  $07
	duty $0f
	note f2  $07
	duty $0e
	note f2  $15
	duty $0f
	note f2  $07
	duty $0e
	note f2  $07
	duty $0f
	note f2  $07
	duty $0e
	note f2  $07
	duty $0f
	note f2  $07
	duty $0e
	note f2  $15
	duty $0f
	note f2  $07
	duty $0e
	note f2  $07
	duty $0f
	note f2  $07
	duty $0e
	note g2  $07
	duty $0f
	note g2  $07
	duty $0e
	note g2  $15
	duty $0f
	note g2  $07
	duty $0e
	note g2  $07
	duty $0f
	note g2  $07
	duty $0e
	note c3  $07
	duty $0f
	note c3  $07
	duty $0e
	note c3  $15
	duty $0f
	note c3  $07
	duty $0e
	note c3  $07
	duty $0f
	note c3  $07
	duty $0e
	note f2  $07
	duty $0f
	note f2  $07
	duty $0e
	note f2  $15
	duty $0f
	note f2  $07
	duty $0e
	note f2  $07
	duty $0f
	note f2  $07
	duty $0e
	note f2  $07
	duty $0f
	note f2  $07
	duty $0e
	note f2  $15
	duty $0f
	note f2  $07
	duty $0e
	note f2  $07
	duty $0f
	note f2  $07
	duty $0e
	note e2  $07
	duty $0f
	note e2  $07
	duty $0e
	note e2  $15
	duty $0f
	note e2  $07
	duty $0e
	note e2  $07
	duty $0f
	note e2  $07
	duty $0e
	note e2  $07
	duty $0f
	note e2  $07
	duty $0e
	note e2  $15
	duty $0f
	note e2  $07
	duty $0e
	note e2  $07
	duty $0f
	note e2  $07
	duty $0e
	note d2  $07
	duty $0f
	note d2  $07
	duty $0e
	note d2  $07
	duty $0f
	note d2  $15
	duty $0e
	note d2  $07
	duty $0f
	note d2  $07
	duty $0e
	note d2  $07
	duty $0f
	note d2  $07
	duty $0e
	note d2  $15
	duty $0f
	note d2  $07
	duty $0e
	note d2  $07
	duty $0f
	note d2  $07
	duty $0e
	note c3  $07
	duty $0f
	note c3  $0e
	rest $07
	duty $0e
	note c2  $54
	duty $0f
	note c2  $0c
	rest $64
	goto musicf606c
	cmdff

musRoomOfRitesChannel6:
	rest $70
musicf6258:
	vol $5
	note $26 $2a
	note $26 $07
	note $26 $07
	note $26 $1c
	note $26 $15
	note $26 $02
	note $26 $02
	note $26 $03
	note $26 $0e
	note $26 $1c
	note $26 $07
	note $26 $07
	note $26 $1c
	note $26 $15
	note $26 $02
	note $26 $02
	note $26 $03
	note $26 $2a
	note $26 $07
	note $26 $07
	note $26 $1c
	note $26 $15
	note $26 $02
	note $26 $02
	note $26 $03
	note $26 $0e
	note $26 $1c
	note $26 $07
	note $26 $07
	note $26 $1c
	note $26 $15
	note $26 $02
	note $26 $02
	note $26 $03
	note $26 $2a
	note $26 $07
	note $26 $07
	note $26 $1c
	note $26 $15
	note $26 $02
	note $26 $02
	note $26 $03
	note $26 $0e
	note $26 $1c
	note $26 $07
	note $26 $07
	note $26 $1c
	note $26 $15
	note $26 $02
	note $26 $02
	note $26 $03
	note $26 $2a
	note $26 $07
	note $26 $07
	note $26 $1c
	note $26 $15
	note $26 $02
	note $26 $02
	note $26 $03
	note $26 $0e
	note $26 $1c
	note $26 $07
	note $26 $07
	note $26 $0e
	note $26 $0e
	note $26 $07
	note $26 $07
	note $26 $07
	note $26 $07
	note $26 $0e
	note $26 $04
	vol $4
	note $26 $05
	vol $3
	note $26 $05
	vol $5
	note $26 $0e
	note $26 $04
	vol $4
	note $26 $05
	vol $3
	note $26 $05
	vol $5
	note $26 $0e
	note $26 $0e
	note $26 $0e
	note $26 $04
	vol $4
	note $26 $05
	vol $3
	note $26 $05
	vol $5
	note $26 $0e
	note $26 $04
	vol $4
	note $26 $05
	vol $3
	note $26 $05
	vol $5
	note $26 $0e
	note $26 $04
	vol $4
	note $26 $05
	vol $3
	note $26 $05
	vol $5
	note $26 $0e
	note $26 $0e
	note $26 $0e
	note $26 $04
	vol $4
	note $26 $05
	vol $3
	note $26 $05
	vol $5
	note $26 $0e
	note $26 $04
	vol $4
	note $26 $05
	vol $3
	note $26 $05
	vol $5
	note $26 $0e
	note $26 $04
	vol $4
	note $26 $05
	vol $3
	note $26 $05
	vol $5
	note $26 $0e
	note $26 $0e
	note $26 $0e
	note $26 $04
	vol $4
	note $26 $05
	vol $3
	note $26 $05
	vol $5
	note $26 $0e
	note $26 $04
	vol $4
	note $26 $05
	vol $3
	note $26 $05
	vol $5
	note $26 $0e
	note $26 $04
	vol $4
	note $26 $05
	vol $3
	note $26 $05
	vol $5
	note $26 $0e
	note $26 $0e
	note $26 $0e
	note $26 $04
	vol $4
	note $26 $05
	vol $3
	note $26 $05
	vol $5
	note $26 $0e
	note $26 $04
	vol $4
	note $26 $05
	vol $3
	note $26 $05
	vol $5
	note $26 $0e
	note $26 $04
	vol $4
	note $26 $05
	vol $3
	note $26 $05
	vol $5
	note $26 $0e
	note $26 $0e
	note $26 $0e
	note $26 $04
	vol $4
	note $26 $05
	vol $3
	note $26 $05
	vol $5
	note $26 $0e
	note $26 $04
	vol $4
	note $26 $05
	vol $3
	note $26 $05
	vol $5
	note $26 $0e
	note $26 $04
	vol $4
	note $26 $05
	vol $3
	note $26 $05
	vol $5
	note $26 $0e
	note $26 $0e
	note $26 $0e
	note $26 $04
	vol $4
	note $26 $05
	vol $3
	note $26 $05
	vol $5
	note $26 $0e
	note $26 $04
	vol $4
	note $26 $05
	vol $3
	note $26 $05
	vol $5
	note $26 $0e
	note $26 $04
	vol $4
	note $26 $05
	vol $3
	note $26 $05
	vol $5
	note $26 $0e
	note $26 $0e
	note $26 $0e
	note $26 $04
	vol $4
	note $26 $05
	vol $3
	note $26 $05
	vol $5
	note $26 $0e
	note $26 $04
	vol $4
	note $26 $05
	vol $3
	note $26 $05
	vol $3
	note $2e $46
	vol $5
	note $26 $0e
	vol $4
	note $26 $2a
	vol $5
	note $26 $0e
	vol $4
	note $26 $2a
	vol $5
	note $26 $04
	vol $4
	note $26 $05
	vol $3
	note $26 $05
	goto musicf6258
	cmdff
