musRosaDateStart:

musRosaDateChannel1:
	vibrato $e1
	env $0 $00
	duty $01
musicf5995:
	vol $6
	note b4  $2a
	note gs4 $0e
	note e4  $0e
	note b3  $0e
	note c4  $2a
	note e4  $0e
	note g4  $0e
	note c5  $0e
	note b4  $0a
	rest $04
	duty $02
	note b5  $03
	note as5 $04
	note b5  $03
	note as5 $04
	note b5  $03
	rest $04
	vol $3
	note b5  $03
	rest $04
	vol $6
	note b6  $03
	note as6 $04
	note b6  $03
	note as6 $04
	note b6  $03
	rest $04
	vol $3
	note b6  $03
	rest $04
	duty $01
	vol $6
	note b3  $0e
	note c4  $0b
	rest $03
	duty $02
	note c5  $03
	note b4  $04
	note c5  $03
	note b4  $04
	note c5  $03
	rest $04
	vol $3
	note c5  $03
	rest $04
	vol $6
	note c6  $03
	note b5  $04
	note c6  $03
	note b5  $04
	note c6  $03
	rest $04
	vol $3
	note c6  $03
	rest $12
	duty $01
	vol $6
	note b4  $2a
	note gs4 $0e
	note e4  $0e
	note gs4 $0e
	note a4  $07
	note gs4 $07
	note a4  $07
	note gs4 $07
	note a4  $0e
	note b4  $0e
	note c5  $0e
	note a4  $0e
	note b4  $07
	rest $03
	vol $3
	note b4  $04
	vol $6
	note e5  $07
	note ds5 $07
	note e5  $07
	rest $03
	vol $3
	note e5  $04
	vol $6
	note gs4 $07
	rest $03
	vol $3
	note gs4 $04
	vol $6
	note a4  $07
	rest $03
	vol $3
	note a4  $04
	vol $6
	note as4 $07
	rest $03
	vol $3
	note as4 $04
	vol $6
	note b4  $07
	note a4  $07
	note gs4 $07
	note fs4 $07
	note e4  $23
	vibrato $01
	env $0 $00
	vol $3
	note e4  $15
	vibrato $e1
	env $0 $00
	vol $6
	note g4  $38
	note e4  $1c
	note fs4 $07
	rest $03
	vol $3
	note fs4 $04
	duty $02
	vol $6
	note b5  $07
	note as5 $07
	note b5  $07
	rest $03
	vol $3
	note b5  $04
	vol $6
	note b6  $07
	note as6 $07
	note b6  $07
	rest $03
	vol $3
	note b6  $07
	rest $0b
	duty $01
	vol $6
	note g4  $2a
	note e4  $0e
	note c4  $0e
	note g4  $07
	vol $3
	note g4  $07
	vol $6
	note fs4 $07
	rest $03
	vol $3
	note fs4 $04
	duty $02
	vol $6
	note b4  $03
	note as4 $04
	note b4  $03
	note as4 $04
	note b4  $07
	rest $03
	vol $3
	note b4  $04
	vol $6
	note b5  $03
	note as5 $04
	note b5  $03
	note as5 $04
	note b5  $07
	rest $03
	vol $3
	note b5  $07
	rest $0b
	duty $01
	vol $6
	note ds5 $07
	rest $03
	vol $3
	note ds5 $07
	vol $6
	note cs5 $04
	note ds5 $03
	note cs5 $04
	note b4  $07
	rest $03
	vol $3
	note b4  $07
	rest $19
	vol $6
	note b4  $07
	rest $03
	vol $3
	note b4  $04
	vol $6
	note d5  $07
	rest $03
	vol $3
	note d5  $07
	vol $6
	note c5  $04
	note d5  $03
	note c5  $04
	note b4  $07
	rest $03
	vol $3
	note b4  $07
	rest $19
	vol $6
	note b4  $07
	rest $03
	vol $3
	note b4  $04
	duty $02
	vol $6
	note e5  $07
	rest $03
	vol $3
	note e5  $04
	vol $6
	note ds5 $03
	note e5  $04
	note ds5 $03
	note e5  $04
	note as4 $03
	note b4  $04
	note as4 $03
	note b4  $04
	rest $03
	vol $3
	note b4  $04
	rest $07
	vol $6
	note fs4 $03
	note g4  $04
	note fs4 $03
	note g4  $04
	rest $03
	vol $3
	note g4  $04
	rest $07
	vol $6
	note ds4 $03
	note e4  $04
	note ds4 $03
	note e4  $04
	rest $03
	vol $3
	note e4  $04
	rest $07
	duty $01
	vol $6
	note b3  $0e
	note cs4 $0e
	note d4  $0e
	note ds4 $0e
	goto musicf5995
	cmdff

musRosaDateChannel0:
	vibrato $e1
	env $0 $00
	duty $02
musicf5b54:
	cmdfd $ff
	vol $0
	note gs3 $bd
	vol $3
	note b5  $03
	note as5 $04
	vol $3
	note b5  $03
	note as5 $04
	vol $3
	note b5  $03
	rest $04
	vol $1
	note b5  $03
	rest $04
	vol $3
	note b6  $03
	note as6 $04
	note b6  $03
	note as6 $04
	vol $3
	note b6  $03
	rest $04
	vol $1
	note b6  $03
	rest $20
	vol $3
	note c5  $03
	note b4  $04
	note c5  $03
	note b4  $04
	note c5  $03
	rest $04
	vol $1
	note c5  $03
	rest $04
	vol $3
	note c6  $03
	note b5  $04
	vol $3
	note c6  $03
	note b5  $04
	note c6  $03
	rest $04
	vol $1
	note c6  $03
	rest $ff
	rest $c5
	vol $3
	note b5  $07
	note as5 $07
	note b5  $07
	rest $03
	vol $1
	note b5  $04
	vol $3
	note b6  $07
	note as6 $07
	note b6  $07
	rest $03
	vol $1
	note b6  $07
	rest $58
	vol $3
	note fs4 $07
	rest $03
	vol $1
	note fs4 $07
	rest $04
	vol $3
	note b4  $03
	note as4 $04
	note b4  $03
	note as4 $04
	note b4  $07
	rest $03
	vol $1
	note b4  $04
	vol $3
	note b5  $03
	note as5 $04
	note b5  $03
	note as5 $04
	note b5  $07
	rest $03
	vol $1
	note b5  $07
	rest $2e
	cmdfd $00
	vol $6
	note cs6 $04
	note ds6 $05
	note cs6 $05
	note b5  $07
	rest $03
	vol $3
	note b5  $07
	rest $04
	vol $1
	note b5  $07
	rest $2a
	vol $6
	note c6  $04
	note d6  $05
	note c6  $05
	note b5  $07
	rest $03
	vol $3
	note b5  $07
	rest $04
	vol $1
	note b5  $07
	rest $15
	vol $3
	note ds5 $03
	note e5  $04
	note ds5 $03
	note e5  $04
	note as4 $03
	note b4  $04
	note as4 $03
	note b4  $04
	rest $03
	vol $1
	note b4  $04
	rest $07
	vol $3
	note fs4 $03
	note g4  $04
	note fs4 $03
	note g4  $04
	rest $03
	vol $1
	note g4  $04
	rest $07
	vol $3
	note ds4 $03
	note e4  $04
	note ds4 $03
	note e4  $04
	rest $03
	vol $1
	note e4  $04
	rest $38
	goto musicf5b54
	cmdff

musRosaDateChannel4:
musicf5c55:
	duty $0e
	note e3  $1c
	duty $0e
	note b3  $07
	duty $0f
	note b3  $07
	rest $0e
	duty $0e
	note b3  $07
	duty $0f
	note b3  $07
	rest $0e
	duty $0e
	note f3  $1c
	duty $0e
	note a3  $07
	duty $0f
	note a3  $07
	rest $0e
	duty $0e
	note a3  $07
	duty $0f
	note a3  $07
	rest $0e
	duty $0e
	note e3  $1c
	duty $0f
	note e3  $0e
	rest $2a
	duty $0e
	note b2  $1c
	duty $0f
	note b2  $0e
	rest $2a
	duty $0e
	note e3  $1c
	duty $0e
	note b3  $07
	duty $0f
	note b3  $07
	rest $0e
	duty $0e
	note b3  $07
	duty $0f
	note b3  $07
	rest $0e
	duty $0e
	note f3  $1c
	note a3  $07
	duty $0f
	note a3  $07
	rest $0e
	duty $0e
	note a3  $07
	duty $0f
	note a3  $07
	rest $0e
	duty $0e
	note b2  $15
	duty $0f
	note b2  $0a
	rest $35
	duty $0e
	note b2  $0e
	note cs3 $07
	note ds3 $07
	note e3  $0e
	note b2  $0e
	note gs2 $0e
	note e2  $0e
	duty $0f
	note e2  $07
	rest $15
	duty $0e
	note c3  $07
	duty $0f
	note c3  $07
	rest $0e
	duty $0e
	note c3  $07
	duty $0f
	note c3  $07
	rest $0e
	duty $0e
	note b2  $07
	duty $0f
	note b2  $07
	rest $46
	duty $0e
	note c3  $1c
	note e3  $1c
	note g3  $1c
	note b2  $0e
	duty $0f
	note b2  $07
	rest $3f
	duty $0e
	note fs3 $38
	note b2  $07
	duty $0f
	note b2  $07
	rest $0e
	duty $0e
	note f3  $38
	duty $0e
	note b2  $07
	duty $0f
	note b2  $07
	rest $0e
	duty $0e
	note e3  $07
	duty $0f
	note e3  $07
	rest $46
	duty $0e
	note b2  $54
	goto musicf5c55
	cmdff

.define musRosaDateChannel6 MUSIC_CHANNEL_FALLBACK EXPORT
