musTriumphantStart:

musTriumphantChannel1:
	vibrato $00
	env $0 $00
	duty $02
musicf4007:
	vol $0
	note gs3 $20
	vol $6
	note e4  $04
	rest $02
	vol $3
	note e4  $02
	vol $6
	note e4  $04
	rest $02
	vol $3
	note e4  $02
	vol $6
	note e4  $04
	rest $02
	vol $3
	note e4  $02
	vol $6
	note e4  $04
	rest $02
	vol $3
	note e4  $02
	vol $6
	note e4  $04
	rest $02
	vol $3
	note e4  $04
	rest $02
	vol $1
	note e4  $04
	vol $6
	note d4  $04
	rest $04
	vol $3
	note d4  $04
	rest $04
	vol $6
	note d4  $04
	rest $04
	vol $3
	note d4  $04
	rest $04
	vol $6
	note g4  $04
	rest $04
	vol $3
	note g4  $04
	rest $04
	vol $6
	note g4  $04
	rest $04
	vol $3
	note g4  $04
	rest $04
	vol $6
	note fs4 $04
	rest $04
	vol $3
	note fs4 $04
	rest $04
	vol $1
	note fs4 $04
	rest $1c
	vol $6
	note g4  $04
	rest $02
	vol $3
	note g4  $02
	vol $6
	note g4  $04
	rest $02
	vol $3
	note g4  $02
	vol $6
	note g4  $04
	rest $02
	vol $3
	note g4  $02
	vol $6
	note g4  $04
	rest $02
	vol $3
	note g4  $02
	vol $6
	note g4  $04
	rest $02
	vol $3
	note g4  $04
	rest $06
	vol $6
	note fs4 $04
	rest $04
	vol $3
	note fs4 $04
	rest $04
	vol $6
	note fs4 $04
	rest $04
	vol $3
	note fs4 $04
	rest $04
	vol $6
	note e4  $04
	rest $04
	vol $3
	note e4  $04
	rest $04
	vol $6
	note e4  $04
	rest $04
	vol $3
	note e4  $04
	rest $04
	vol $6
	note fs4 $04
	rest $04
	vol $3
	note fs4 $04
	rest $04
	vol $1
	note fs4 $04
	rest $1c
	vol $6
	note e4  $04
	rest $02
	vol $3
	note e4  $02
	vol $6
	note e4  $04
	rest $02
	vol $3
	note e4  $02
	vol $6
	note e4  $04
	rest $02
	vol $3
	note e4  $02
	vol $6
	note e4  $04
	rest $02
	vol $3
	note e4  $02
	vol $6
	note e4  $04
	rest $02
	vol $3
	note e4  $04
	rest $06
	vol $6
	note d4  $04
	rest $04
	vol $3
	note d4  $04
	rest $04
	vol $6
	note e4  $04
	rest $04
	vol $3
	note e4  $04
	rest $04
	vol $6
	note fs4 $04
	rest $04
	vol $3
	note fs4 $04
	rest $04
	vol $6
	note g4  $04
	rest $04
	vol $3
	note g4  $04
	rest $04
	vol $6
	note fs4 $04
	rest $04
	vol $3
	note fs4 $04
	rest $04
	vol $6
	note e4  $04
	rest $04
	vol $3
	note e4  $04
	rest $04
	vol $6
	note d4  $04
	rest $04
	vol $3
	note d4  $04
	rest $04
	vol $6
	note e4  $18
	vol $3
	note e4  $08
	vol $6
	note e4  $04
	rest $04
	vol $3
	note e4  $04
	rest $04
	vol $6
	note g4  $18
	vol $3
	note g4  $08
	vol $6
	note d4  $04
	rest $04
	vol $3
	note d4  $04
	rest $04
	vol $6
	note e4  $14
	vol $3
	note e4  $0c
	rest $20
	vol $6
	note e4  $04
	rest $02
	vol $3
	note e4  $02
	vol $6
	note e4  $04
	rest $02
	vol $3
	note e4  $02
	vol $6
	note e4  $04
	rest $02
	vol $3
	note e4  $02
	vol $6
	note e4  $04
	rest $02
	vol $3
	note e4  $02
	vol $6
	note e4  $04
	rest $04
	vol $3
	note e4  $04
	rest $04
	vol $6
	note d4  $04
	rest $04
	vol $3
	note d4  $04
	rest $04
	vol $6
	note d4  $04
	rest $04
	vol $3
	note d4  $04
	rest $04
	vol $6
	note g4  $04
	rest $04
	vol $3
	note g4  $04
	rest $04
	vol $6
	note g4  $04
	rest $04
	vol $3
	note g4  $04
	rest $04
	vol $6
	note fs4 $04
	rest $04
	vol $3
	note fs4 $04
	rest $24
	vol $6
	note b4  $04
	rest $02
	vol $3
	note b4  $02
	vol $6
	note b4  $04
	rest $02
	vol $3
	note b4  $02
	vol $6
	note b4  $04
	rest $02
	vol $3
	note b4  $02
	vol $6
	note b4  $04
	rest $02
	vol $3
	note b4  $02
	vol $6
	note b4  $04
	rest $02
	vol $3
	note b4  $04
	rest $06
	vol $6
	note a4  $05
	rest $03
	vol $3
	note a4  $05
	rest $03
	vol $6
	note b4  $05
	rest $03
	vol $3
	note b4  $05
	rest $03
	vol $6
	note c5  $05
	rest $03
	vol $3
	note c5  $05
	rest $03
	vol $6
	note d5  $05
	rest $03
	vol $3
	note d5  $05
	rest $03
	vol $6
	note c5  $05
	rest $03
	vol $3
	note c5  $05
	rest $23
	vol $6
	note b4  $04
	rest $02
	vol $3
	note b4  $02
	vol $6
	note b4  $04
	rest $02
	vol $3
	note b4  $02
	vol $6
	note b4  $04
	rest $02
	vol $3
	note b4  $02
	vol $6
	note b4  $04
	rest $02
	vol $3
	note b4  $02
	vol $6
	note b4  $04
	rest $02
	vol $3
	note b4  $04
	rest $06
	vol $6
	note c5  $04
	rest $04
	vol $3
	note c5  $04
	rest $04
	vol $6
	note b4  $04
	rest $04
	vol $3
	note b4  $04
	rest $04
	vol $6
	note a4  $04
	rest $04
	vol $3
	note a4  $04
	rest $04
	vol $6
	note e4  $04
	rest $04
	vol $3
	note e4  $04
	rest $04
	vol $6
	note c4  $04
	rest $04
	vol $3
	note c4  $04
	rest $04
	vol $6
	note g4  $08
	note fs4 $08
	note e4  $08
	note d4  $08
	note e4  $30
	vol $3
	note e4  $10
	vol $1
	note e4  $08
	rest $18
	goto musicf4007
	cmdff

musTriumphantChannel0:
	vibrato $00
	env $0 $00
	duty $02
musicf4298:
	vol $0
	note gs3 $20
	vol $6
	note c4  $04
	rest $02
	vol $3
	note c4  $02
	vol $6
	note c4  $04
	rest $02
	vol $3
	note c4  $02
	vol $6
	note c4  $04
	rest $02
	vol $3
	note c4  $02
	vol $6
	note c4  $04
	rest $02
	vol $3
	note c4  $02
	vol $6
	note c4  $04
	rest $02
	vol $3
	note c4  $04
	rest $06
	vol $6
	note b3  $04
	rest $04
	vol $3
	note b3  $04
	rest $04
	vol $6
	note b3  $04
	rest $04
	vol $3
	note b3  $04
	rest $04
	vol $6
	note e4  $04
	rest $04
	vol $3
	note e4  $04
	rest $04
	vol $6
	note e4  $04
	rest $04
	vol $3
	note e4  $04
	rest $04
	vol $6
	note d4  $04
	rest $04
	vol $3
	note d4  $04
	rest $24
	vol $6
	note e4  $04
	rest $02
	vol $3
	note e4  $02
	vol $6
	note e4  $04
	rest $02
	vol $3
	note e4  $02
	vol $6
	note e4  $04
	rest $02
	vol $3
	note e4  $02
	vol $6
	note e4  $04
	rest $02
	vol $3
	note e4  $02
	vol $6
	note e4  $04
	rest $02
	vol $3
	note e4  $04
	rest $06
	vol $6
	note d4  $04
	rest $04
	vol $3
	note d4  $04
	rest $04
	vol $6
	note d4  $04
	rest $04
	vol $3
	note d4  $04
	rest $04
	vol $6
	note c4  $04
	rest $04
	vol $3
	note c4  $04
	rest $04
	vol $6
	note c4  $04
	rest $04
	vol $3
	note c4  $04
	rest $04
	vol $6
	note d4  $04
	rest $04
	vol $3
	note d4  $04
	rest $24
	vol $6
	note c4  $04
	rest $02
	vol $3
	note c4  $02
	vol $6
	note c4  $04
	rest $02
	vol $3
	note c4  $02
	vol $6
	note c4  $04
	rest $02
	vol $3
	note c4  $02
	vol $6
	note c4  $04
	rest $02
	vol $3
	note c4  $02
	vol $6
	note c4  $04
	rest $02
	vol $3
	note c4  $04
	rest $06
	vol $6
	note b3  $04
	rest $04
	vol $3
	note b3  $04
	rest $04
	vol $6
	note c4  $04
	rest $04
	vol $3
	note c4  $04
	rest $04
	vol $6
	note d4  $04
	rest $04
	vol $3
	note d4  $04
	rest $04
	vol $6
	note e4  $04
	rest $04
	vol $3
	note e4  $04
	rest $04
	vol $6
	note d4  $04
	rest $04
	vol $3
	note d4  $04
	rest $04
	vol $6
	note c4  $04
	rest $04
	vol $3
	note c4  $04
	rest $04
	vol $6
	note b3  $04
	rest $04
	vol $3
	note b3  $04
	rest $04
	vol $6
	note c4  $14
	vol $3
	note c4  $0c
	vol $6
	note c4  $04
	rest $04
	vol $3
	note c4  $04
	rest $04
	vol $6
	note d4  $18
	vol $3
	note d4  $08
	vol $6
	note b3  $04
	rest $04
	vol $3
	note b3  $04
	rest $04
	vol $6
	note c4  $14
	vol $3
	note c4  $0c
	rest $20
	vol $6
	note c4  $04
	rest $02
	vol $3
	note c4  $02
	vol $6
	note c4  $04
	rest $02
	vol $3
	note c4  $02
	vol $6
	note c4  $04
	rest $02
	vol $3
	note c4  $02
	vol $6
	note c4  $04
	rest $02
	vol $3
	note c4  $02
	vol $6
	note c4  $04
	rest $02
	vol $3
	note c4  $04
	rest $06
	vol $6
	note b3  $04
	rest $04
	vol $3
	note b3  $04
	rest $04
	vol $6
	note b3  $04
	rest $04
	vol $3
	note b3  $04
	rest $04
	vol $6
	note c4  $04
	rest $04
	vol $3
	note c4  $04
	rest $04
	vol $6
	note e4  $04
	rest $04
	vol $3
	note e4  $04
	rest $04
	vol $6
	note d4  $04
	rest $04
	vol $3
	note d4  $04
	rest $24
	vol $6
	note e4  $04
	rest $02
	vol $3
	note e4  $02
	vol $6
	note e4  $04
	rest $02
	vol $3
	note e4  $02
	vol $6
	note e4  $04
	rest $02
	vol $3
	note e4  $02
	vol $6
	note e4  $04
	rest $02
	vol $3
	note e4  $02
	vol $6
	note e4  $04
	rest $02
	vol $3
	note e4  $04
	rest $06
	vol $6
	note d4  $04
	rest $04
	vol $3
	note d4  $04
	rest $04
	vol $6
	note d4  $04
	rest $04
	vol $3
	note d4  $04
	rest $04
	vol $6
	note f4  $04
	rest $04
	vol $3
	note f4  $04
	rest $04
	vol $6
	note e4  $04
	rest $04
	vol $3
	note e4  $04
	rest $04
	vol $6
	note c4  $04
	rest $04
	vol $3
	note c4  $04
	rest $24
	vol $6
	note g4  $04
	rest $02
	vol $3
	note g4  $02
	vol $6
	note g4  $04
	rest $02
	vol $3
	note g4  $02
	vol $6
	note g4  $04
	rest $02
	vol $3
	note g4  $02
	vol $6
	note g4  $04
	rest $02
	vol $3
	note g4  $02
	vol $6
	note g4  $04
	rest $02
	vol $3
	note g4  $04
	rest $06
	vol $6
	note a4  $04
	rest $04
	vol $3
	note a4  $04
	rest $04
	vol $6
	note g4  $04
	rest $04
	vol $3
	note g4  $04
	rest $04
	vol $6
	note e4  $04
	rest $04
	vol $3
	note e4  $04
	rest $04
	vol $6
	note c4  $04
	rest $04
	vol $3
	note c4  $04
	rest $04
	vol $6
	note a3  $04
	rest $04
	vol $3
	note a3  $04
	rest $84
	goto musicf4298
	cmdff

musTriumphantChannel4:
musicf4503:
	duty $0e
	note a2  $20
	note a3  $04
	rest $04
	note a3  $04
	rest $04
	note a3  $04
	rest $04
	note a3  $04
	rest $04
	note a3  $04
	rest $3c
	note b2  $20
	note c3  $20
	note c4  $04
	rest $04
	note c4  $04
	rest $04
	note c4  $04
	rest $04
	note c4  $04
	rest $04
	note c4  $04
	rest $0c
	note b3  $04
	rest $0c
	note b3  $04
	rest $0c
	note a3  $04
	rest $0c
	note a3  $04
	rest $0c
	note b3  $04
	rest $0c
	note a2  $20
	note a3  $04
	rest $04
	note a3  $04
	rest $04
	note a3  $04
	rest $04
	note a3  $04
	rest $04
	note a3  $04
	rest $1c
	note b2  $3c
	rest $04
	note b2  $20
	note a2  $12
	rest $0e
	note a2  $08
	rest $08
	note b2  $1c
	rest $04
	note g2  $04
	rest $0c
	note a2  $14
	rest $0c
	note a2  $20
	note a3  $04
	rest $04
	note a3  $04
	rest $04
	note a3  $04
	rest $04
	note a3  $04
	rest $04
	note a3  $04
	rest $1c
	note b2  $14
	rest $0c
	note e3  $05
	rest $0b
	note d3  $05
	rest $0b
	note c3  $20
	note c4  $04
	rest $04
	note c4  $04
	rest $04
	note c4  $04
	rest $04
	note c4  $04
	rest $04
	note c4  $04
	rest $1c
	note b2  $20
	note e2  $0d
	rest $03
	note g2  $0d
	rest $03
	note a2  $20
	note c4  $04
	rest $04
	note c4  $04
	rest $04
	note c4  $04
	rest $04
	note c4  $04
	rest $04
	duty $0e
	note c4  $04
	duty $0f
	note c4  $0c
	duty $0e
	note e3  $04
	duty $0f
	note e3  $0c
	duty $0e
	note e3  $04
	duty $0f
	note e3  $0c
	duty $0e
	note c3  $04
	duty $0f
	note c3  $0c
	duty $0e
	note c3  $04
	duty $0f
	note c3  $0c
	duty $0e
	note a2  $04
	duty $0f
	note a2  $0c
	duty $0e
	note d3  $20
	note a2  $08
	rest $08
	note fs2 $20
	note a2  $08
	rest $08
	note d2  $20
	goto musicf4503
	cmdff

musTriumphantChannel6:
musicf460f:
	vol $5
	note $26 $10
	note $26 $08
	note $26 $08
	note $26 $10
	note $26 $10
	note $26 $08
	note $26 $08
	note $26 $08
	note $26 $08
	note $26 $10
	note $26 $08
	note $26 $04
	note $26 $04
	note $26 $02
	vol $4
	note $26 $02
	vol $4
	note $26 $04
	vol $4
	note $26 $02
	note $26 $02
	vol $3
	note $26 $04
	note $26 $02
	vol $4
	note $26 $02
	vol $4
	note $26 $04
	vol $4
	note $26 $02
	vol $5
	note $26 $02
	note $26 $04
	note $26 $10
	note $26 $08
	note $26 $08
	note $26 $10
	note $26 $10
	note $26 $08
	note $26 $08
	note $26 $08
	note $26 $08
	note $26 $10
	note $26 $08
	note $26 $04
	note $26 $04
	note $26 $02
	vol $4
	note $26 $02
	vol $4
	note $26 $04
	vol $4
	note $26 $02
	note $26 $02
	vol $3
	note $26 $04
	note $26 $02
	vol $4
	note $26 $02
	vol $4
	note $26 $04
	vol $4
	note $26 $02
	vol $5
	note $26 $02
	note $26 $04
	note $26 $10
	note $26 $08
	note $26 $08
	note $26 $10
	note $26 $10
	note $26 $08
	note $26 $08
	note $26 $08
	note $26 $08
	note $26 $10
	note $26 $08
	note $26 $04
	note $26 $04
	note $26 $02
	vol $4
	note $26 $02
	vol $4
	note $26 $04
	vol $4
	note $26 $02
	note $26 $02
	vol $3
	note $26 $04
	note $26 $02
	vol $4
	note $26 $02
	vol $4
	note $26 $04
	vol $4
	note $26 $02
	vol $5
	note $26 $02
	note $26 $04
	note $26 $10
	note $26 $08
	note $26 $08
	note $26 $10
	note $26 $10
	note $26 $08
	note $26 $08
	note $26 $08
	note $26 $08
	note $26 $10
	note $26 $08
	note $26 $04
	note $26 $04
	note $26 $02
	vol $4
	note $26 $02
	vol $4
	note $26 $04
	vol $4
	note $26 $02
	note $26 $02
	vol $3
	note $26 $04
	note $26 $02
	vol $4
	note $26 $02
	vol $4
	note $26 $04
	vol $4
	note $26 $02
	vol $5
	note $26 $02
	note $26 $04
	note $26 $10
	note $26 $08
	note $26 $08
	note $26 $10
	note $26 $10
	note $26 $08
	note $26 $08
	note $26 $08
	note $26 $08
	note $26 $10
	note $26 $08
	note $26 $04
	note $26 $04
	note $26 $02
	vol $4
	note $26 $02
	vol $4
	note $26 $04
	vol $4
	note $26 $02
	note $26 $02
	vol $3
	note $26 $04
	note $26 $02
	vol $4
	note $26 $02
	vol $4
	note $26 $04
	vol $4
	note $26 $02
	vol $5
	note $26 $02
	note $26 $04
	note $26 $10
	note $26 $08
	note $26 $08
	note $26 $10
	note $26 $10
	note $26 $08
	note $26 $08
	note $26 $08
	note $26 $08
	note $26 $10
	note $26 $08
	note $26 $04
	note $26 $04
	note $26 $02
	vol $4
	note $26 $02
	vol $4
	note $26 $04
	vol $4
	note $26 $02
	note $26 $02
	vol $3
	note $26 $04
	note $26 $02
	vol $4
	note $26 $02
	vol $4
	note $26 $04
	vol $4
	note $26 $02
	vol $5
	note $26 $02
	note $26 $04
	note $26 $10
	note $26 $08
	note $26 $08
	note $26 $10
	note $26 $10
	note $26 $08
	note $26 $08
	note $26 $08
	note $26 $08
	note $26 $10
	note $26 $08
	note $26 $04
	note $26 $04
	note $26 $02
	vol $4
	note $26 $02
	vol $4
	note $26 $04
	vol $4
	note $26 $02
	note $26 $02
	vol $3
	note $26 $04
	note $26 $02
	vol $4
	note $26 $02
	vol $4
	note $26 $04
	vol $4
	note $26 $02
	vol $5
	note $26 $02
	note $26 $04
	note $26 $10
	note $26 $10
	note $26 $08
	note $26 $08
	note $26 $08
	note $26 $08
	note $26 $10
	note $26 $08
	note $26 $04
	note $26 $04
	note $26 $02
	vol $4
	note $26 $02
	vol $4
	note $26 $04
	vol $4
	note $26 $02
	note $26 $02
	vol $3
	note $26 $04
	note $26 $02
	vol $4
	note $26 $02
	vol $4
	note $26 $04
	vol $4
	note $26 $02
	vol $5
	note $26 $02
	note $26 $04
	goto musicf460f
	cmdff
