musTwinrovaStart:

musTwinrovaChannel1:
	vibrato $e1
	env $0 $00
	cmdf2
	duty $02
musiceacd8:
	vol $6
	note b3  $12
	note as3 $06
	rest $03
	vol $3
	note as3 $06
	rest $03
	vol $1
	note as3 $06
	rest $06
	vol $6
	note d4  $12
	note cs4 $06
	rest $03
	vol $3
	note cs4 $06
	rest $03
	vol $1
	note cs4 $06
	rest $06
	vol $6
	note b3  $12
	note as3 $06
	rest $03
	vol $3
	note as3 $06
	rest $03
	vol $1
	note as3 $06
	rest $06
	vol $6
	note d4  $06
	rest $03
	vol $3
	note d4  $03
	vol $6
	note d4  $06
	note cs4 $06
	rest $03
	vol $3
	note cs4 $06
	rest $03
	vol $1
	note cs4 $06
	rest $06
	vol $6
	note b3  $12
	note as3 $06
	rest $03
	vol $3
	note as3 $06
	rest $03
	vol $1
	note as3 $06
	rest $06
	vol $6
	note d4  $12
	note cs4 $06
	rest $03
	vol $3
	note cs4 $06
	rest $03
	vol $1
	note cs4 $06
	rest $06
	vol $6
	note b3  $12
	note as3 $06
	rest $03
	vol $3
	note as3 $06
	rest $03
	vol $1
	note as3 $06
	rest $06
	vol $6
	note d4  $06
	rest $03
	vol $3
	note d4  $03
	vol $6
	note d4  $06
	note cs4 $06
	rest $03
	vol $3
	note cs4 $06
	vol $6
	note cs4 $03
	note d4  $03
	note ds4 $03
	note e4  $03
	note f4  $03
	note fs4 $12
	note e4  $06
	rest $03
	vol $3
	note e4  $06
	rest $03
	vol $1
	note e4  $06
	rest $06
	vol $6
	note g4  $12
	note fs4 $06
	rest $03
	vol $3
	note fs4 $06
	rest $03
	vol $1
	note fs4 $06
	rest $06
	vol $6
	note fs4 $12
	note e4  $06
	rest $03
	vol $3
	note e4  $06
	rest $03
	vol $1
	note e4  $06
	rest $06
	vol $6
	note g4  $0c
	note a4  $06
	note fs4 $06
	rest $03
	vol $3
	note fs4 $06
	rest $03
	vol $1
	note fs4 $06
	rest $06
	vol $6
	note fs4 $12
	vol $6
	note e4  $06
	rest $03
	vol $3
	note e4  $06
	rest $03
	vol $1
	note e4  $06
	rest $06
	vol $6
	note g4  $12
	note fs4 $06
	rest $03
	vol $3
	note fs4 $06
	rest $03
	vol $1
	note fs4 $06
	rest $06
	vol $6
	note fs4 $12
	note e4  $06
	rest $03
	vol $3
	note e4  $06
	rest $03
	vol $1
	note e4  $06
	rest $06
	vol $6
	note g4  $06
	note a4  $06
	note fs4 $06
	note g4  $06
	note e4  $06
	note fs4 $06
	note ds4 $06
	note e4  $06
	note fs4 $06
	note g4  $06
	note gs4 $06
	note a4  $06
	rest $03
	vol $3
	note a4  $06
	rest $03
	vol $1
	note a4  $06
	rest $06
	vol $6
	note a4  $06
	note as4 $06
	note b4  $06
	note c5  $06
	rest $03
	vol $3
	note c5  $06
	rest $03
	vol $1
	note c5  $06
	rest $06
	vol $6
	note c5  $06
	note cs5 $06
	note d5  $06
	note ds5 $06
	rest $03
	vol $3
	note ds5 $06
	rest $03
	vol $1
	note ds5 $06
	rest $06
	vol $6
	note ds5 $06
	note e5  $06
	note f5  $06
	note fs5 $06
	rest $03
	vol $3
	note fs5 $06
	rest $03
	vol $1
	note fs5 $06
	rest $06
	vol $6
	note fs5 $06
	rest $03
	vol $3
	note fs5 $03
	vol $6
	note gs5 $03
	note a5  $03
	note as5 $03
	note b5  $03
	note c6  $3c
	rest $06
	note a5  $06
	note c6  $06
	note fs5 $06
	note a5  $06
	note ds5 $06
	note fs5 $06
	note c5  $06
	note ds5 $06
	note a4  $06
	note c5  $06
	note fs4 $06
	note a4  $06
	note ds4 $06
	note fs4 $06
	note c4  $06
	note ds4 $06
	note a3  $06
	goto musiceacd8
	cmdff

musTwinrovaChannel0:
	vibrato $e1
	env $0 $00
	cmdf2
	duty $02
musiceae93:
	vol $6
	note g3  $12
	note fs3 $06
	rest $03
	vol $3
	note fs3 $06
	rest $03
	vol $1
	note fs3 $06
	rest $06
	vol $6
	note b3  $12
	note as3 $06
	rest $03
	vol $3
	note as3 $06
	rest $03
	vol $1
	note as3 $06
	rest $06
	vol $6
	note g3  $12
	note fs3 $06
	rest $03
	vol $3
	note fs3 $06
	rest $03
	vol $1
	note fs3 $06
	rest $06
	vol $6
	note b3  $06
	rest $03
	vol $3
	note b3  $03
	vol $6
	note b3  $06
	note as3 $06
	rest $03
	vol $3
	note as3 $06
	rest $03
	vol $1
	note as3 $06
	rest $06
	vol $6
	note g3  $12
	note fs3 $06
	rest $03
	vol $3
	note fs3 $06
	rest $03
	vol $1
	note fs3 $06
	rest $06
	vol $6
	note b3  $12
	note as3 $06
	rest $03
	vol $3
	note as3 $06
	rest $03
	vol $1
	note as3 $06
	rest $06
	vol $6
	note g3  $12
	note fs3 $06
	rest $03
	vol $3
	note fs3 $06
	rest $03
	vol $1
	note fs3 $06
	rest $06
	vol $6
	note b3  $06
	rest $03
	vol $3
	note b3  $03
	vol $6
	note b3  $06
	note as3 $06
	rest $03
	vol $3
	note as3 $06
	vol $6
	note as3 $03
	note b3  $03
	note c4  $03
	note cs4 $03
	note d4  $03
	note ds4 $12
	note cs4 $06
	rest $03
	vol $3
	note cs4 $06
	rest $03
	vol $1
	note cs4 $06
	rest $06
	vol $6
	note e4  $12
	note ds4 $06
	rest $03
	vol $3
	note ds4 $06
	rest $03
	vol $1
	note ds4 $06
	rest $06
	vol $6
	note ds4 $12
	note cs4 $06
	rest $03
	vol $3
	note cs4 $06
	rest $03
	vol $1
	note cs4 $06
	rest $06
	vol $6
	note e4  $0c
	note e4  $06
	note ds4 $06
	rest $03
	vol $3
	note ds4 $06
	rest $03
	vol $1
	note ds4 $06
	rest $06
	vol $6
	note ds4 $12
	note cs4 $06
	rest $03
	vol $3
	note cs4 $06
	rest $03
	vol $1
	note cs4 $06
	rest $06
	vol $6
	note e4  $12
	note ds4 $06
	rest $03
	vol $3
	note ds4 $06
	rest $03
	vol $1
	note ds4 $06
	rest $06
	vol $6
	note ds4 $12
	note cs4 $06
	rest $03
	vol $3
	note cs4 $06
	rest $03
	vol $1
	note cs4 $06
	rest $06
	vol $6
	note e4  $06
	note fs4 $06
	note ds4 $06
	note e4  $06
	note cs4 $06
	note ds4 $06
	note b3  $06
	note cs4 $06
	note ds4 $06
	note e4  $06
	note f4  $06
	note fs4 $06
	rest $03
	vol $3
	note fs4 $06
	rest $03
	vol $1
	note fs4 $06
	rest $06
	vol $6
	note fs4 $06
	note g4  $06
	note gs4 $06
	note a4  $06
	rest $03
	vol $3
	note a4  $06
	rest $03
	vol $1
	note a4  $06
	rest $06
	vol $6
	note a4  $06
	note as4 $06
	note b4  $06
	note c5  $06
	rest $03
	vol $3
	note c5  $06
	rest $03
	vol $1
	note c5  $06
	rest $06
	vol $6
	note c5  $06
	note cs5 $06
	note d5  $06
	note ds5 $06
	rest $03
	vol $3
	note ds5 $06
	rest $03
	vol $1
	note ds5 $06
	rest $06
	vol $6
	note ds5 $06
	rest $03
	vol $3
	note ds5 $03
	vol $6
	note e5  $03
	note fs5 $03
	note g5  $03
	note gs5 $03
	note a5  $3c
	vol $3
	note a5  $0c
	vol $9
	note a3  $06
	note gs3 $06
	note g3  $06
	note fs3 $06
	note f3  $06
	note e3  $06
	note ds3 $06
	note d3  $06
	note cs3 $06
	note c3  $06
	note b2  $06
	note as2 $06
	note a2  $06
	note gs2 $06
	note g2  $06
	note fs2 $06
	goto musiceae93
	cmdff

musTwinrovaChannel4:
	cmdf2
musiceb047:
	duty $12
	note fs2 $04
	duty $0f
	note fs2 $02
	duty $12
	note g2  $0a
	duty $0f
	note g2  $02
	duty $12
	note fs2 $04
	duty $0f
	note fs2 $02
	duty $12
	note g2  $0a
	duty $0f
	note g2  $02
	duty $12
	note fs2 $04
	duty $0f
	note fs2 $02
	duty $12
	note g2  $0a
	duty $0f
	note g2  $02
	duty $12
	note fs2 $04
	duty $0f
	note fs2 $02
	duty $12
	note g2  $0a
	duty $0f
	note g2  $02
	duty $12
	note fs2 $05
	duty $0f
	note fs2 $01
	duty $12
	note g2  $05
	duty $0f
	note g2  $01
	duty $12
	note fs2 $05
	duty $0f
	note fs2 $01
	duty $12
	note g2  $05
	duty $0f
	note g2  $01
	duty $12
	note fs2 $04
	duty $0f
	note fs2 $02
	duty $12
	note g2  $0a
	duty $0f
	note g2  $02
	duty $12
	note fs2 $04
	duty $0f
	note fs2 $02
	duty $12
	note g2  $0a
	duty $0f
	note g2  $02
	duty $12
	note fs2 $04
	duty $0f
	note fs2 $02
	duty $12
	note g2  $0a
	duty $0f
	note g2  $02
	duty $12
	note fs2 $04
	duty $0f
	note fs2 $02
	duty $12
	note g2  $0a
	duty $0f
	note g2  $02
	duty $12
	note fs2 $05
	duty $0f
	note fs2 $01
	duty $12
	note g2  $05
	duty $0f
	note g2  $01
	duty $12
	note fs2 $05
	duty $0f
	note fs2 $01
	duty $12
	note g2  $05
	duty $0f
	note g2  $01
	duty $12
	note fs2 $04
	duty $0f
	note fs2 $02
	duty $12
	note g2  $0a
	duty $0f
	note g2  $02
	duty $12
	note fs2 $04
	duty $0f
	note fs2 $02
	duty $12
	note g2  $0a
	duty $0f
	note g2  $02
	duty $12
	note fs2 $04
	duty $0f
	note fs2 $02
	duty $12
	note g2  $0a
	duty $0f
	note g2  $02
	duty $12
	note fs2 $04
	duty $0f
	note fs2 $02
	duty $12
	note g2  $0a
	duty $0f
	note g2  $02
	duty $12
	note fs2 $05
	duty $0f
	note fs2 $01
	duty $12
	note g2  $05
	duty $0f
	note g2  $01
	duty $12
	note fs2 $05
	duty $0f
	note fs2 $01
	duty $12
	note g2  $05
	duty $0f
	note g2  $01
	duty $12
	note fs2 $04
	duty $0f
	note fs2 $02
	duty $12
	note g2  $0a
	duty $0f
	note g2  $02
	duty $12
	note fs2 $04
	duty $0f
	note fs2 $02
	duty $12
	note g2  $0a
	duty $0f
	note g2  $02
	duty $12
	note fs2 $04
	duty $0f
	note fs2 $02
	duty $12
	note g2  $0a
	duty $0f
	note g2  $02
	duty $12
	note fs2 $04
	duty $0f
	note fs2 $02
	duty $12
	note g2  $0a
	duty $0f
	note g2  $02
	duty $12
	note fs2 $05
	duty $0f
	note fs2 $01
	duty $12
	note g2  $05
	duty $0f
	note g2  $01
	duty $12
	note gs2 $05
	duty $0f
	note gs2 $01
	duty $12
	note a2  $05
	duty $0f
	note a2  $01
	duty $12
	note as2 $04
	duty $0f
	note as2 $02
	duty $12
	note b2  $0a
	duty $0f
	note b2  $02
	duty $12
	note as2 $04
	duty $0f
	note as2 $02
	duty $12
	note b2  $0a
	duty $0f
	note b2  $02
	duty $12
	note as2 $04
	duty $0f
	note as2 $02
	duty $12
	note b2  $0a
	duty $0f
	note b2  $02
	duty $12
	note as2 $04
	duty $0f
	note as2 $02
	duty $12
	note b2  $0a
	duty $0f
	note b2  $02
	duty $12
	note as2 $05
	duty $0f
	note as2 $01
	duty $12
	note b2  $05
	duty $0f
	note b2  $01
	duty $12
	note as2 $05
	duty $0f
	note as2 $01
	duty $12
	note b2  $05
	duty $0f
	note b2  $01
	duty $12
	note as2 $04
	duty $0f
	note as2 $02
	duty $12
	note b2  $0a
	duty $0f
	note b2  $02
	duty $12
	note as2 $04
	duty $0f
	note as2 $02
	duty $12
	note b2  $0a
	duty $0f
	note b2  $02
	duty $12
	note as2 $04
	duty $0f
	note as2 $02
	duty $12
	note b2  $0a
	duty $0f
	note b2  $02
	duty $12
	note as2 $04
	duty $0f
	note as2 $02
	duty $12
	note b2  $0a
	duty $0f
	note b2  $02
	duty $12
	note as2 $05
	duty $0f
	note as2 $01
	duty $12
	note b2  $05
	duty $0f
	note b2  $01
	duty $12
	note as2 $05
	duty $0f
	note as2 $01
	duty $12
	note b2  $05
	duty $0f
	note b2  $01
	duty $12
	note as2 $04
	duty $0f
	note as2 $02
	duty $12
	note b2  $0a
	duty $0f
	note b2  $02
	duty $12
	note as2 $04
	duty $0f
	note as2 $02
	duty $12
	note b2  $0a
	duty $0f
	note b2  $02
	duty $12
	note as2 $04
	duty $0f
	note as2 $02
	duty $12
	note b2  $0a
	duty $0f
	note b2  $02
	duty $12
	note as2 $04
	duty $0f
	note as2 $02
	duty $12
	note b2  $0a
	duty $0f
	note b2  $02
	duty $12
	note as2 $05
	duty $0f
	note as2 $01
	duty $12
	note b2  $05
	duty $0f
	note b2  $01
	duty $12
	note as2 $05
	duty $0f
	note as2 $01
	duty $12
	note b2  $05
	duty $0f
	note b2  $01
	duty $12
	note as2 $04
	duty $0f
	note as2 $02
	duty $12
	note b2  $0a
	duty $0f
	note b2  $02
	duty $12
	note as2 $04
	duty $0f
	note as2 $02
	duty $12
	note b2  $0a
	duty $0f
	note b2  $02
	duty $12
	note as2 $04
	duty $0f
	note as2 $02
	duty $12
	note b2  $0a
	duty $0f
	note b2  $02
	duty $12
	note as2 $04
	duty $0f
	note as2 $02
	duty $12
	note b2  $0a
	duty $0f
	note b2  $02
	duty $12
	note as2 $05
	duty $0f
	note as2 $01
	duty $12
	note b2  $05
	duty $0f
	note b2  $01
	duty $12
	note as2 $05
	duty $0f
	note as2 $01
	duty $12
	note b2  $05
	duty $0f
	note b2  $01
	duty $12
	note b2  $06
	note cs3 $06
	note d3  $06
	note ds3 $06
	duty $0f
	note ds3 $0c
	duty $0c
	note ds3 $0c
	duty $12
	note ds3 $06
	note e3  $06
	note f3  $06
	note fs3 $06
	duty $0f
	note fs3 $0c
	duty $0c
	note fs3 $0c
	duty $12
	note fs3 $06
	note g3  $06
	note gs3 $06
	note a3  $06
	duty $0f
	note a3  $0c
	duty $0c
	note a3  $0c
	duty $12
	note a3  $06
	note as3 $06
	note b3  $06
	note c4  $06
	duty $0f
	note c4  $0c
	duty $0c
	note c4  $0c
	duty $12
	note b3  $02
	note as3 $02
	note a3  $02
	note gs3 $02
	note g3  $02
	note fs3 $02
	note f3  $02
	note e3  $02
	note ds3 $02
	note d3  $02
	note cs3 $02
	note c3  $02
	note b2  $3c
	rest $6c
	goto musiceb047
	cmdff

musTwinrovaChannel6:
	cmdf2
musiceb3b2:
	vol $5
	vol $7
	note $28 $01
	vol $3
	note $27 $05
	vol $7
	note $28 $01
	vol $3
	note $27 $0b
	vol $5
	vol $7
	note $28 $01
	vol $3
	note $27 $05
	vol $5
	vol $7
	note $28 $01
	vol $3
	note $27 $05
	vol $5
	vol $7
	note $28 $01
	vol $3
	note $27 $0b
	vol $5
	vol $7
	note $28 $01
	vol $3
	note $27 $05
	vol $5
	vol $7
	note $28 $01
	vol $3
	note $27 $05
	vol $7
	note $28 $01
	vol $3
	note $27 $0b
	vol $5
	vol $7
	note $28 $01
	vol $3
	note $27 $05
	vol $5
	vol $7
	note $28 $01
	vol $3
	note $27 $05
	vol $7
	note $28 $01
	vol $3
	note $27 $0b
	vol $5
	vol $7
	note $28 $01
	vol $3
	note $27 $05
	vol $5
	vol $7
	note $28 $01
	vol $3
	note $27 $05
	vol $7
	note $28 $01
	vol $3
	note $27 $0b
	vol $5
	vol $7
	note $28 $01
	vol $3
	note $27 $05
	vol $5
	vol $7
	note $28 $01
	vol $3
	note $27 $05
	vol $5
	vol $7
	note $28 $01
	vol $3
	note $27 $0b
	vol $5
	vol $7
	note $28 $01
	vol $3
	note $27 $05
	vol $5
	vol $7
	note $28 $01
	vol $3
	note $27 $05
	vol $7
	note $28 $01
	vol $3
	note $27 $0b
	vol $5
	vol $7
	note $28 $01
	vol $3
	note $27 $05
	vol $5
	vol $7
	note $28 $01
	vol $3
	note $27 $05
	vol $5
	vol $7
	note $28 $01
	vol $3
	note $27 $05
	vol $5
	vol $7
	note $28 $01
	vol $3
	note $27 $05
	vol $5
	vol $7
	note $28 $01
	vol $3
	note $27 $05
	vol $5
	vol $7
	note $28 $01
	vol $3
	note $27 $05
	vol $7
	note $28 $01
	vol $3
	note $27 $0b
	vol $5
	vol $7
	note $28 $01
	vol $3
	note $27 $05
	vol $5
	vol $7
	note $28 $01
	vol $3
	note $27 $05
	vol $5
	vol $7
	note $28 $01
	vol $3
	note $27 $0b
	vol $5
	vol $7
	note $28 $01
	vol $3
	note $27 $05
	vol $5
	vol $7
	note $28 $01
	vol $3
	note $27 $05
	vol $7
	note $28 $01
	vol $3
	note $27 $0b
	vol $5
	vol $7
	note $28 $01
	vol $3
	note $27 $05
	vol $5
	vol $7
	note $28 $01
	vol $3
	note $27 $05
	vol $7
	note $28 $01
	vol $3
	note $27 $0b
	vol $5
	vol $7
	note $28 $01
	vol $3
	note $27 $05
	vol $5
	vol $7
	note $28 $01
	vol $3
	note $27 $05
	vol $7
	note $28 $01
	vol $3
	note $27 $0b
	vol $5
	vol $7
	note $28 $01
	vol $3
	note $27 $05
	vol $5
	vol $7
	note $28 $01
	vol $3
	note $27 $05
	vol $5
	vol $7
	note $28 $01
	vol $3
	note $27 $0b
	vol $5
	vol $7
	note $28 $01
	vol $3
	note $27 $05
	vol $5
	vol $7
	note $28 $01
	vol $3
	note $27 $05
	vol $7
	note $28 $01
	vol $3
	note $27 $0b
	vol $5
	vol $7
	note $28 $01
	vol $3
	note $27 $05
	vol $5
	vol $7
	note $28 $01
	vol $3
	note $27 $05
	vol $7
	note $28 $01
	vol $3
	note $27 $05
	vol $5
	vol $7
	note $28 $01
	vol $3
	note $27 $05
	vol $5
	vol $7
	note $28 $01
	vol $3
	note $27 $05
	vol $5
	vol $7
	note $28 $01
	vol $3
	note $27 $05
	vol $7
	note $28 $01
	vol $3
	note $27 $0b
	vol $5
	vol $7
	note $28 $01
	vol $3
	note $27 $05
	vol $5
	vol $7
	note $28 $01
	vol $3
	note $27 $05
	vol $5
	vol $7
	note $28 $01
	vol $3
	note $27 $0b
	vol $5
	vol $7
	note $28 $01
	vol $3
	note $27 $05
	vol $5
	vol $7
	note $28 $01
	vol $3
	note $27 $05
	vol $7
	note $28 $01
	vol $3
	note $27 $0b
	vol $5
	vol $7
	note $28 $01
	vol $3
	note $27 $05
	vol $5
	vol $7
	note $28 $01
	vol $3
	note $27 $05
	vol $7
	note $28 $01
	vol $3
	note $27 $0b
	vol $5
	vol $7
	note $28 $01
	vol $3
	note $27 $05
	vol $5
	vol $7
	note $28 $01
	vol $3
	note $27 $05
	vol $5
	vol $7
	note $28 $01
	vol $3
	note $27 $0b
	vol $5
	vol $7
	note $28 $01
	vol $3
	note $27 $05
	vol $5
	vol $7
	note $28 $01
	vol $3
	note $27 $05
	vol $5
	vol $7
	note $28 $01
	vol $3
	note $27 $0b
	vol $5
	vol $7
	note $28 $01
	vol $3
	note $27 $05
	vol $5
	vol $7
	note $28 $01
	vol $3
	note $27 $05
	vol $7
	note $28 $01
	vol $3
	note $27 $0b
	vol $5
	vol $7
	note $28 $01
	vol $3
	note $27 $05
	vol $5
	vol $7
	note $28 $01
	vol $3
	note $27 $05
	vol $7
	note $28 $01
	vol $3
	note $27 $05
	vol $5
	vol $7
	note $28 $01
	vol $3
	note $27 $05
	vol $5
	vol $7
	note $28 $01
	vol $3
	note $27 $05
	vol $5
	vol $7
	note $28 $01
	vol $3
	note $27 $05
	vol $7
	note $28 $01
	vol $3
	note $27 $0b
	vol $5
	vol $7
	note $28 $01
	vol $3
	note $27 $05
	vol $5
	vol $7
	note $28 $01
	vol $3
	note $27 $05
	vol $5
	vol $7
	note $28 $01
	vol $3
	note $27 $0b
	vol $5
	vol $7
	note $28 $01
	vol $3
	note $27 $05
	vol $5
	vol $7
	note $28 $01
	vol $3
	note $27 $05
	vol $7
	note $28 $01
	vol $3
	note $27 $0b
	vol $5
	vol $7
	note $28 $01
	vol $3
	note $27 $05
	vol $5
	vol $7
	note $28 $01
	vol $3
	note $27 $05
	vol $7
	note $28 $01
	vol $3
	note $27 $0b
	vol $5
	vol $7
	note $28 $01
	vol $3
	note $27 $05
	vol $5
	vol $7
	note $28 $01
	vol $3
	note $27 $05
	vol $7
	note $28 $01
	vol $3
	note $27 $0b
	vol $5
	vol $7
	note $28 $01
	vol $3
	note $27 $05
	vol $5
	vol $7
	note $28 $01
	vol $3
	note $27 $05
	vol $5
	vol $7
	note $28 $01
	vol $3
	note $27 $0b
	vol $5
	vol $7
	note $28 $01
	vol $3
	note $27 $05
	vol $5
	vol $7
	note $28 $01
	vol $3
	note $27 $05
	vol $7
	note $28 $01
	vol $3
	note $27 $0b
	vol $5
	vol $7
	note $28 $01
	vol $3
	note $27 $05
	vol $5
	vol $7
	note $28 $01
	vol $3
	note $27 $05
	vol $7
	note $28 $01
	vol $3
	note $27 $05
	vol $5
	vol $7
	note $28 $01
	vol $3
	note $27 $05
	vol $5
	vol $7
	note $28 $01
	vol $3
	note $27 $05
	vol $5
	vol $7
	note $28 $01
	vol $3
	note $27 $05
	vol $7
	note $28 $01
	vol $3
	note $27 $0b
	vol $5
	vol $7
	note $28 $01
	vol $3
	note $27 $05
	vol $5
	note $24 $06
	note $24 $06
	note $24 $06
	vol $5
	note $24 $06
	vol $7
	note $28 $01
	vol $3
	note $27 $05
	vol $5
	vol $7
	note $28 $01
	vol $3
	note $27 $0b
	vol $5
	vol $7
	note $28 $01
	vol $3
	note $27 $05
	vol $5
	note $26 $06
	note $26 $06
	note $26 $06
	note $26 $06
	vol $5
	vol $7
	note $28 $01
	vol $3
	note $27 $05
	vol $5
	vol $7
	note $28 $01
	vol $3
	note $27 $05
	vol $5
	vol $7
	note $28 $01
	vol $3
	note $27 $05
	vol $5
	vol $5
	vol $7
	note $28 $01
	vol $3
	note $27 $05
	vol $5
	note $2a $06
	note $2a $06
	vol $5
	note $2a $06
	vol $5
	note $2a $06
	vol $7
	note $28 $01
	vol $3
	note $27 $05
	vol $5
	vol $7
	note $28 $01
	vol $3
	note $27 $05
	vol $7
	note $28 $01
	vol $3
	note $27 $05
	vol $5
	vol $7
	note $28 $01
	vol $3
	note $27 $05
	vol $5
	note $24 $06
	note $24 $06
	note $24 $06
	note $24 $06
	vol $7
	note $28 $01
	vol $3
	note $27 $0b
	vol $5
	vol $7
	note $28 $01
	vol $3
	note $27 $03
	vol $7
	note $28 $01
	vol $3
	note $27 $03
	vol $7
	note $28 $01
	vol $3
	note $27 $03
	note $2e $18
	note $2a $06
	note $2a $06
	note $2e $06
	note $2a $06
	note $2a $06
	note $2a $06
	note $2e $06
	note $2a $06
	vol $7
	note $28 $01
	vol $3
	note $27 $05
	vol $7
	note $28 $01
	vol $3
	note $27 $05
	vol $8
	note $28 $01
	vol $3
	note $27 $05
	vol $8
	note $28 $01
	vol $3
	note $27 $11
	vol $9
	note $28 $01
	vol $3
	note $27 $05
	vol $9
	note $28 $01
	vol $3
	note $27 $05
	vol $a
	note $28 $01
	vol $3
	note $27 $05
	vol $a
	note $28 $01
	vol $3
	note $27 $11
	vol $a
	note $28 $01
	vol $3
	note $27 $05
	vol $b
	note $28 $01
	vol $3
	note $27 $05
	vol $b
	note $28 $01
	vol $3
	note $27 $05
	vol $b
	note $28 $01
	vol $3
	note $27 $05
	goto musiceb3b2
	cmdff
