musDancingDragonDungeonStart:

musDancingDragonDungeonChannel1:
	vibrato $f1
	env $0 $00
	cmdf2
	duty $02
	vol $6
	note a3  $09
	rest $04
	vol $3
	note a3  $05
	vol $6
	note a3  $09
	note c4  $09
	note a3  $09
	note c4  $09
	note g4  $09
musicf2144:
	note fs4 $3f
	vibrato $01
	env $0 $00
	vol $3
	note fs4 $12
	vibrato $f1
	env $0 $00
	vol $6
	note a3  $09
	note c4  $09
	note g4  $09
	note fs4 $09
	note g4  $04
	note fs4 $05
	note e4  $09
	note d4  $09
	note e4  $3f
	vibrato $01
	env $0 $00
	vol $3
	note e4  $12
	vibrato $f1
	env $0 $00
	vol $6
	note a3  $09
	rest $04
	vol $3
	note a3  $05
	vol $6
	note a3  $09
	note c4  $09
	note a3  $09
	note c4  $09
	note e4  $09
	note g4  $12
	vol $3
	note g4  $09
	vol $6
	note fs4 $09
	note g4  $12
	vol $3
	note g4  $09
	vol $6
	note fs4 $09
	note g4  $12
	vol $3
	note g4  $09
	vol $6
	note fs4 $09
	note g4  $09
	note fs4 $03
	note g4  $03
	note fs4 $03
	note e4  $09
	note d4  $09
	note e4  $48
	vibrato $01
	env $0 $00
	vol $1
	note e4  $09
	vibrato $f1
	env $0 $00
	vol $6
	note c4  $09
	rest $04
	vol $3
	note c4  $05
	vol $6
	note c4  $09
	note e4  $09
	note c4  $09
	note e4  $09
	note b4  $09
	note gs4 $3f
	vibrato $01
	env $0 $00
	vol $3
	note gs4 $12
	vibrato $f1
	env $0 $00
	vol $6
	note c4  $09
	rest $04
	vol $3
	note c4  $05
	vol $6
	note c4  $09
	note e4  $09
	note c4  $09
	note e4  $09
	note gs4 $09
	note g4  $3f
	vibrato $01
	env $0 $00
	vol $3
	note g4  $12
	vibrato $f1
	env $0 $00
	vol $6
	note c4  $09
	rest $04
	vol $3
	note c4  $05
	vol $6
	note c4  $09
	note e4  $09
	note c4  $09
	note e4  $09
	note a4  $09
	note fs4 $3f
	vibrato $01
	env $0 $00
	vol $3
	note fs4 $12
	rest $12
	vibrato $f1
	env $0 $00
	vol $6
	note e4  $09
	note fs4 $09
	note g4  $04
	note fs4 $05
	note e4  $09
	note d4  $09
	note e4  $3f
	vibrato $01
	env $0 $00
	vol $3
	note e4  $12
	rest $3f
	vibrato $00
	env $0 $04
	vol $5
	note a4  $04
	note c5  $05
	note a4  $04
	note c5  $05
	note a4  $04
	note c5  $05
	note a4  $04
	note c5  $05
	note a4  $04
	note c5  $05
	note a4  $04
	note c5  $05
	note a4  $04
	note c5  $05
	note a4  $04
	note c5  $05
	note a4  $04
	note c5  $05
	note a4  $04
	note c5  $05
	note a4  $04
	note c5  $05
	note a4  $04
	note c5  $05
	note a4  $04
	note c5  $05
	note a4  $04
	note c5  $05
	note a4  $04
	note c5  $05
	note a4  $04
	note c5  $05
	note gs4 $04
	note c5  $05
	note gs4 $04
	note c5  $05
	note gs4 $04
	note c5  $05
	note gs4 $04
	note c5  $05
	note gs4 $04
	note c5  $05
	note gs4 $04
	note c5  $05
	note gs4 $04
	note c5  $05
	note gs4 $04
	note c5  $05
	note gs4 $04
	vol $5
	note c5  $05
	note gs4 $04
	note c5  $05
	note gs4 $04
	note c5  $05
	note gs4 $04
	note c5  $05
	note gs4 $04
	note c5  $05
	note gs4 $04
	note c5  $05
	note gs4 $04
	note c5  $05
	note gs4 $04
	note c5  $05
	note g4  $04
	note c5  $05
	note g4  $04
	note c5  $05
	note g4  $04
	note c5  $05
	note g4  $04
	note c5  $05
	note g4  $04
	note c5  $05
	note g4  $04
	note c5  $05
	note g4  $04
	note c5  $05
	note g4  $04
	note c5  $05
	note g4  $04
	note c5  $05
	note g4  $04
	note c5  $05
	note g4  $04
	note c5  $05
	note g4  $04
	note c5  $05
	note g4  $04
	note c5  $05
	note g4  $04
	note c5  $05
	note g4  $04
	note c5  $05
	note g4  $04
	note c5  $05
	vol $5
	note gs4 $04
	note c5  $05
	note gs4 $04
	note c5  $05
	note gs4 $04
	note c5  $05
	note gs4 $04
	note c5  $05
	note gs4 $04
	note c5  $05
	note gs4 $04
	note c5  $05
	note gs4 $04
	note c5  $05
	note gs4 $04
	note c5  $05
	note gs4 $04
	vol $5
	note c5  $05
	note gs4 $04
	note c5  $05
	note gs4 $04
	note c5  $05
	note gs4 $04
	note c5  $05
	note gs4 $04
	note c5  $05
	note gs4 $04
	note c5  $05
	note gs4 $04
	note c5  $05
	note gs4 $04
	note c5  $05
	vol $5
	note a4  $04
	vol $4
	note c5  $05
	note a4  $04
	note c5  $05
	note a4  $04
	note c5  $05
	note a4  $04
	note c5  $05
	note a4  $04
	note c5  $05
	note a4  $04
	note c5  $05
	note a4  $04
	note c5  $05
	note a4  $04
	note c5  $05
	note a4  $04
	note c5  $05
	note a4  $04
	note c5  $05
	note a4  $04
	note c5  $05
	note a4  $04
	note c5  $05
	note a4  $04
	note c5  $05
	note a4  $04
	note c5  $05
	note a4  $04
	note c5  $05
	note a4  $04
	note c5  $05
	note gs4 $04
	note c5  $05
	note gs4 $04
	note c5  $05
	note gs4 $04
	note c5  $05
	note gs4 $04
	note c5  $05
	note gs4 $04
	note c5  $05
	note gs4 $04
	note c5  $05
	note gs4 $04
	note c5  $05
	note gs4 $04
	note c5  $05
	note gs4 $04
	note c5  $05
	note gs4 $04
	note c5  $05
	note gs4 $04
	note c5  $05
	note gs4 $04
	note c5  $05
	note gs4 $04
	note c5  $05
	note gs4 $04
	note c5  $05
	note gs4 $04
	note c5  $05
	note gs4 $04
	note c5  $05
	note g4  $04
	note c5  $05
	note g4  $04
	note c5  $05
	note g4  $04
	vol $4
	note c5  $05
	note g4  $04
	note c5  $05
	note g4  $04
	note c5  $05
	note g4  $04
	note c5  $05
	note g4  $04
	note c5  $05
	note g4  $04
	note c5  $05
	note g4  $04
	note c5  $05
	note g4  $04
	note c5  $05
	note g4  $04
	note c5  $05
	note g4  $04
	note c5  $05
	note g4  $04
	note c5  $05
	note g4  $04
	note c5  $05
	note g4  $04
	note c5  $05
	note g4  $04
	note c5  $05
	note fs4 $04
	note d5  $05
	note fs4 $04
	note d5  $05
	note fs4 $04
	note d5  $05
	note fs4 $04
	note d5  $05
	note fs4 $04
	note d5  $05
	note fs4 $04
	note d5  $05
	note fs4 $04
	vol $5
	note d5  $05
	vol $6
	note d5  $04
	vol $6
	note ds5 $05
	vol $6
	note e5  $04
	rest $05
	vibrato $f1
	env $0 $00
	vol $6
	note a3  $09
	rest $09
	note a3  $09
	note c4  $09
	note a3  $09
	note c4  $09
	note g4  $09
	goto musicf2144
	cmdff

musDancingDragonDungeonChannel0:
	vol $0
	note gs3 $3f
	vibrato $00
	env $0 $00
	cmdf2
	duty $02
musicf2441:
	rest $12
	vol $6
	note e3  $04
	rest $0e
	note d3  $12
	note ds3 $09
	note e3  $04
	rest $02
	vol $3
	note e3  $05
	rest $02
	vol $1
	note e3  $05
	rest $51
	vol $6
	note e3  $04
	rest $0e
	note d3  $12
	note ds3 $09
	note e3  $04
	rest $02
	vol $3
	note e3  $05
	rest $02
	vol $1
	note e3  $05
	rest $51
	vol $6
	note e3  $04
	rest $0e
	note d3  $12
	note ds3 $09
	note e3  $04
	rest $02
	vol $3
	note e3  $05
	rest $02
	vol $1
	note e3  $05
	rest $51
	vol $6
	note e3  $04
	rest $0e
	note d3  $12
	note ds3 $09
	note e3  $04
	rest $02
	vol $3
	note e3  $05
	rest $02
	vol $1
	note e3  $05
	rest $51
	vol $6
	note e3  $04
	rest $0e
	note d3  $12
	note ds3 $09
	note e3  $04
	rest $02
	vol $3
	note e3  $05
	rest $02
	vol $1
	note e3  $05
	rest $51
	vol $6
	note e3  $04
	rest $0e
	note d3  $12
	note ds3 $09
	note e3  $04
	rest $02
	vol $3
	note e3  $05
	rest $02
	vol $1
	note e3  $05
	rest $51
	vol $6
	note e3  $04
	rest $0e
	note d3  $12
	note ds3 $09
	note e3  $04
	rest $02
	vol $3
	note e3  $05
	rest $02
	vol $1
	note e3  $05
	rest $51
	vol $6
	note e3  $04
	rest $0e
	note d3  $12
	note ds3 $09
	note e3  $04
	rest $02
	vol $3
	note e3  $05
	rest $02
	vol $1
	note e3  $05
	rest $51
	vol $6
	note e3  $04
	rest $0e
	note d3  $12
	note ds3 $09
	note e3  $04
	rest $02
	vol $3
	note e3  $05
	rest $02
	vol $1
	note e3  $05
	rest $51
	vol $6
	note e3  $04
	rest $0e
	note d3  $12
	note ds3 $09
	note e3  $04
	rest $02
	vol $3
	note e3  $05
	rest $02
	vol $1
	note e3  $05
	rest $51
	vol $6
	note e3  $04
	rest $0e
	note d3  $12
	note ds3 $09
	note e3  $04
	rest $02
	vol $3
	note e3  $05
	rest $02
	vol $1
	note e3  $05
	rest $51
	vol $6
	note e3  $04
	rest $0e
	note d3  $12
	note ds3 $09
	note e3  $04
	rest $02
	vol $3
	note e3  $05
	rest $02
	vol $1
	note e3  $05
	rest $51
	vol $6
	note e3  $04
	rest $0e
	note d3  $12
	note ds3 $09
	note e3  $04
	rest $02
	vol $3
	note e3  $05
	rest $02
	vol $1
	note e3  $05
	rest $1b
	vol $6
	note a3  $09
	note e3  $09
	note a3  $09
	note e3  $09
	rest $12
	vol $6
	note e3  $04
	rest $0e
	note d3  $12
	note ds3 $09
	note e3  $04
	rest $02
	vol $3
	note e3  $05
	rest $02
	vol $1
	note e3  $05
	rest $1b
	vol $6
	note gs3 $09
	note e3  $09
	vol $6
	note gs3 $09
	note e3  $09
	rest $12
	vol $6
	note e3  $04
	rest $0e
	note d3  $12
	note ds3 $09
	note e3  $04
	rest $02
	vol $3
	note e3  $05
	rest $02
	vol $1
	note e3  $05
	rest $1b
	vol $6
	note g3  $09
	note e3  $09
	note g3  $09
	note e3  $09
	rest $12
	vol $6
	note e3  $04
	rest $0e
	note d3  $12
	note ds3 $09
	note e3  $04
	rest $02
	vol $3
	note e3  $05
	rest $02
	vol $1
	note e3  $05
	rest $3f
	goto musicf2441
	cmdff

musDancingDragonDungeonChannel4:
	rest $3f
	cmdf2
musicf25dc:
	duty $0e
	note a2  $04
	duty $0f
	note a2  $04
	rest $0a
	duty $0e
	note a2  $04
	duty $0f
	note a2  $04
	rest $0a
	duty $0e
	note g2  $12
	note gs2 $09
	note a2  $04
	duty $0f
	note a2  $04
	rest $49
	duty $0e
	note a2  $04
	duty $0f
	note a2  $04
	rest $0a
	duty $0e
	note a2  $04
	duty $0f
	note a2  $04
	rest $0a
	duty $0e
	note g2  $12
	note gs2 $09
	note a2  $04
	duty $0f
	note a2  $04
	rest $49
	duty $0e
	note a2  $04
	duty $0f
	note a2  $04
	rest $0a
	duty $0e
	note a2  $04
	duty $0f
	note a2  $04
	rest $0a
	duty $0e
	note g2  $12
	note gs2 $09
	note a2  $04
	duty $0f
	note a2  $04
	rest $49
	duty $0e
	note a2  $04
	duty $0f
	note a2  $04
	rest $0a
	duty $0e
	note a2  $04
	duty $0f
	note a2  $04
	rest $0a
	duty $0e
	note g2  $12
	note gs2 $09
	note a2  $04
	duty $0f
	note a2  $04
	rest $49
	duty $0e
	note a2  $04
	duty $0f
	note a2  $04
	rest $0a
	duty $0e
	note a2  $04
	duty $0f
	note a2  $04
	rest $0a
	duty $0e
	note g2  $12
	note gs2 $09
	note a2  $04
	duty $0f
	note a2  $04
	rest $49
	duty $0e
	note a2  $04
	duty $0f
	note a2  $04
	rest $0a
	duty $0e
	note a2  $04
	duty $0f
	note a2  $04
	rest $0a
	duty $0e
	note g2  $12
	note gs2 $09
	note a2  $04
	duty $0f
	note a2  $04
	rest $49
	duty $0e
	note a2  $04
	duty $0f
	note a2  $04
	rest $0a
	duty $0e
	note a2  $04
	duty $0f
	note a2  $04
	rest $0a
	duty $0e
	note g2  $12
	note gs2 $09
	note a2  $04
	duty $0f
	note a2  $04
	rest $49
	duty $0e
	note a2  $04
	duty $0f
	note a2  $04
	rest $0a
	duty $0e
	note a2  $04
	duty $0f
	note a2  $04
	rest $0a
	duty $0e
	note g2  $12
	note gs2 $09
	note a2  $04
	duty $0f
	note a2  $04
	rest $25
	duty $0e
	note a2  $09
	note e2  $09
	note g2  $09
	note e2  $09
	duty $0e
	note a2  $04
	duty $0f
	note a2  $05
	duty $0e
	note a2  $04
	duty $0f
	note a2  $05
	duty $0e
	note a2  $04
	duty $0f
	note a2  $05
	rest $1b
	duty $0e
	note a2  $04
	duty $0f
	note a2  $05
	duty $0e
	note a2  $04
	duty $0f
	note a2  $05
	duty $0e
	note a2  $04
	duty $0f
	note a2  $05
	rest $3f
	duty $0e
	note a2  $04
	duty $0f
	note a2  $05
	duty $0e
	note a2  $04
	duty $0f
	note a2  $05
	duty $0e
	note a2  $04
	duty $0f
	note a2  $05
	rest $1b
	duty $0e
	note a2  $04
	duty $0f
	note a2  $05
	duty $0e
	note a2  $04
	duty $0f
	note a2  $05
	duty $0e
	note a2  $04
	duty $0f
	note a2  $05
	rest $3f
	duty $0e
	note a2  $04
	duty $0f
	note a2  $05
	duty $0e
	note a2  $04
	duty $0f
	note a2  $05
	duty $0e
	note a2  $04
	duty $0f
	note a2  $05
	rest $1b
	duty $0e
	note a2  $04
	duty $0f
	note a2  $05
	duty $0e
	note a2  $04
	duty $0f
	note a2  $05
	duty $0e
	note a2  $04
	duty $0f
	note a2  $05
	rest $3f
	duty $0e
	note a2  $04
	duty $0f
	note a2  $05
	duty $0e
	note a2  $04
	duty $0f
	note a2  $05
	duty $0e
	note a2  $04
	duty $0f
	note a2  $05
	rest $1b
	duty $0e
	note a2  $04
	duty $0f
	note a2  $05
	duty $0e
	note a2  $04
	duty $0f
	note a2  $05
	duty $0e
	note a2  $04
	duty $0f
	note a2  $05
	rest $12
	duty $0e
	note e2  $09
	note g2  $09
	note e2  $09
	note g2  $09
	note gs2 $09
	duty $0e
	note a2  $04
	duty $0f
	note a2  $05
	duty $0e
	note a2  $04
	duty $0f
	note a2  $05
	duty $0e
	note a2  $04
	duty $0f
	note a2  $05
	rest $1b
	duty $0e
	note a2  $04
	duty $0f
	note a2  $05
	duty $0e
	note a2  $04
	duty $0f
	note a2  $05
	duty $0e
	note a2  $04
	duty $0f
	note a2  $05
	rest $3f
	duty $0e
	note a2  $04
	duty $0f
	note a2  $05
	duty $0e
	note a2  $04
	duty $0f
	note a2  $05
	duty $0e
	note a2  $04
	duty $0f
	note a2  $05
	rest $1b
	duty $0e
	note a2  $04
	duty $0f
	note a2  $05
	duty $0e
	note a2  $04
	duty $0f
	note a2  $05
	duty $0e
	note a2  $04
	duty $0f
	note a2  $05
	rest $3f
	duty $0e
	note a2  $04
	duty $0f
	note a2  $05
	duty $0e
	note a2  $04
	duty $0f
	note a2  $05
	duty $0e
	note a2  $04
	duty $0f
	note a2  $05
	rest $1b
	duty $0e
	note a2  $04
	duty $0f
	note a2  $05
	duty $0e
	note a2  $04
	duty $0f
	note a2  $05
	duty $0e
	note a2  $04
	duty $0f
	note a2  $05
	rest $3f
	duty $0e
	note b2  $04
	duty $0f
	note b2  $05
	duty $0e
	note b2  $04
	duty $0f
	note b2  $05
	duty $0e
	note b2  $04
	duty $0f
	note b2  $05
	rest $1b
	duty $0e
	note b2  $04
	duty $0f
	note b2  $05
	duty $0e
	note b2  $04
	duty $0f
	note b2  $05
	duty $0e
	note e2  $04
	duty $0f
	note e2  $05
	rest $3f
	goto musicf25dc
	cmdff

musDancingDragonDungeonChannel6:
	rest $3f
	cmdf2
musicf28a9:
	vol $3
	note $26 $09
	note $26 $09
	rest $09
	note $26 $09
	note $26 $09
	rest $2d
	note $26 $09
	rest $09
	note $26 $09
	rest $1b
	note $26 $09
	note $26 $09
	rest $09
	note $26 $09
	note $26 $09
	rest $2d
	note $26 $09
	rest $09
	note $26 $09
	rest $1b
	note $26 $09
	note $26 $09
	rest $09
	note $26 $09
	note $26 $09
	rest $2d
	note $26 $09
	rest $09
	note $26 $09
	rest $1b
	note $26 $09
	note $26 $09
	rest $09
	note $26 $09
	note $26 $09
	rest $2d
	note $26 $09
	rest $09
	note $26 $09
	rest $1b
	note $26 $09
	note $26 $09
	rest $09
	note $26 $09
	note $26 $09
	rest $2d
	note $26 $09
	rest $09
	note $26 $09
	rest $1b
	note $26 $09
	note $26 $09
	rest $09
	note $26 $09
	note $26 $09
	rest $2d
	note $26 $09
	rest $09
	note $26 $09
	rest $1b
	note $26 $09
	note $26 $09
	rest $09
	note $26 $09
	note $26 $09
	rest $2d
	note $26 $09
	rest $09
	note $26 $09
	rest $1b
	note $26 $09
	note $26 $09
	rest $09
	note $26 $09
	note $26 $09
	rest $2d
	note $26 $09
	rest $09
	note $26 $09
	rest $1b
	note $26 $09
	note $26 $09
	rest $09
	note $26 $09
	note $26 $09
	rest $2d
	note $26 $09
	rest $09
	note $26 $09
	rest $1b
	note $26 $09
	note $26 $09
	rest $09
	note $26 $09
	note $26 $09
	rest $2d
	note $26 $09
	rest $09
	note $26 $09
	rest $1b
	note $26 $09
	note $26 $09
	rest $09
	note $26 $09
	note $26 $09
	rest $2d
	note $26 $09
	rest $09
	note $26 $09
	rest $1b
	note $26 $09
	note $26 $09
	rest $09
	note $26 $09
	note $26 $09
	rest $2d
	note $26 $09
	rest $09
	note $26 $09
	rest $1b
	note $26 $09
	note $26 $09
	rest $09
	note $26 $09
	note $26 $09
	rest $2d
	note $26 $09
	rest $09
	note $26 $09
	rest $1b
	note $26 $09
	note $26 $09
	rest $09
	note $26 $09
	note $26 $09
	rest $2d
	note $26 $09
	rest $09
	note $26 $09
	rest $1b
	note $26 $09
	note $26 $09
	rest $09
	note $26 $09
	note $26 $09
	rest $2d
	note $26 $09
	rest $09
	note $26 $09
	rest $1b
	note $26 $09
	note $26 $09
	rest $09
	note $26 $09
	note $26 $09
	rest $2d
	note $26 $09
	rest $09
	note $26 $09
	rest $1b
	goto musicf28a9
	cmdff
