musHideAndSeekStart:

musHideAndSeekChannel1:
	vibrato $32
	env $0 $00
	duty $01
musiced6de:
	vol $7
	note g4  $15
	vibrato $00
	env $0 $00
	note c5  $07
	note e5  $07
	rest $03
	vol $3
	note e5  $04
	vol $7
	note g5  $07
	rest $03
	vol $3
	note g5  $04
	vibrato $32
	env $0 $00
	vol $7
	note fs5 $1c
	vibrato $00
	env $0 $00
	note g5  $07
	rest $03
	vol $3
	note g5  $07
	rest $04
	vol $1
	note g5  $07
	vibrato $32
	env $0 $00
	vol $7
	note as5 $15
	vibrato $00
	env $0 $00
	note a5  $07
	note gs5 $07
	rest $03
	vol $3
	note gs5 $04
	vol $7
	note g5  $07
	rest $03
	vol $3
	note g5  $04
	vibrato $32
	env $0 $00
	vol $7
	note fs5 $1c
	vibrato $00
	env $0 $00
	note g5  $07
	rest $03
	vol $3
	note g5  $07
	rest $04
	vol $1
	note g5  $07
	rest $0e
	vibrato $00
	env $0 $02
	vol $7
	note a5  $07
	note gs5 $07
	note g5  $0e
	note fs5 $0e
	note f5  $0e
	note e5  $0e
	note ds5 $0e
	note d5  $0e
	note cs5 $0e
	note c5  $0e
	note b4  $0e
	note a4  $0e
	note g4  $1c
	rest $1c
	vibrato $00
	env $0 $00
	vol $6
	note fs3 $07
	vol $8
	note g3  $07
	vol $7
	note fs3 $07
	vol $8
	note g3  $07
	vol $7
	note as3 $07
	rest $03
	vol $3
	note as3 $04
	vol $7
	note as3 $07
	rest $03
	vol $3
	note as3 $04
	vol $8
	note g3  $23
	vol $4
	note g3  $15
	vol $8
	note fs3 $07
	vol $7
	note g3  $07
	vol $5
	note fs3 $07
	vol $7
	note g3  $07
	vol $7
	note d4  $07
	rest $03
	vol $3
	note d4  $04
	vol $9
	note d4  $07
	rest $03
	vol $4
	note d4  $04
	vol $8
	note g3  $1c
	rest $2a
	vibrato $00
	env $0 $03
	vol $7
	note f5  $07
	note e5  $07
	note ds5 $0e
	note d5  $0e
	note cs5 $0e
	note c5  $0e
	note b4  $0e
	note as4 $0e
	note a4  $1c
	note gs4 $1c
	note g4  $1c
	rest $1c
	vibrato $81
	env $0 $00
	note e5  $15
	note c5  $07
	note g4  $07
	rest $03
	vol $3
	note g4  $04
	vol $7
	note g4  $07
	rest $03
	vol $3
	note g4  $04
	vol $7
	note f5  $15
	note cs5 $07
	note gs4 $07
	rest $03
	vol $3
	note gs4 $04
	vol $7
	note gs4 $07
	rest $03
	vol $3
	note gs4 $04
	vol $7
	note e5  $15
	note c5  $07
	note g4  $07
	rest $03
	vol $3
	note g4  $04
	vol $7
	note g4  $07
	rest $03
	vol $3
	note g4  $04
	vol $7
	note d5  $15
	note as4 $07
	note f4  $07
	rest $03
	vol $3
	note f4  $04
	vol $7
	note f4  $07
	rest $03
	vol $3
	note f4  $04
	vibrato $00
	env $0 $02
	vol $7
	note g4  $07
	rest $07
	note g5  $07
	note fs5 $07
	note f5  $0e
	note e5  $0e
	note ds5 $0e
	note d5  $0e
	note cs5 $0e
	note c5  $0e
	note b4  $1c
	note as4 $1c
	note a4  $1c
	note g4  $1b
	rest $01
	vibrato $32
	env $0 $00
	goto musiced6de
	cmdff

musHideAndSeekChannel0:
	vibrato $00
	env $0 $02
	duty $01
musiced84b:
	vol $0
	note gs3 $ee
	vol $a
	note fs5 $07
	note f5  $07
	note e5  $0e
	note ds5 $0e
	note d5  $0e
	note cs5 $0e
	note c5  $0e
	note b4  $0e
	note as4 $0e
	note a4  $0e
	note g4  $07
	note fs4 $07
	note f4  $07
	note e4  $07
	note d4  $07
	note c4  $07
	note b3  $07
	note a3  $07
	vol $b
	note g3  $0e
	rest $fc
	vol $7
	note a4  $07
	note gs4 $07
	note g4  $0e
	note fs4 $0e
	note f4  $0e
	note e4  $0e
	note ds4 $0e
	note d4  $0e
	note cs4 $1c
	note c4  $1c
	note b3  $1c
	rest $1c
	vibrato $81
	env $0 $00
	note g4  $1c
	note e4  $0e
	note c4  $0e
	note gs4 $1c
	note f4  $0e
	note cs4 $0e
	note g4  $1c
	note e4  $0e
	note c4  $0e
	note f4  $1c
	note d4  $0e
	note as3 $0e
	vibrato $00
	env $0 $02
	note b3  $0e
	note d5  $07
	note cs5 $07
	note c5  $0e
	note b4  $0e
	note as4 $0e
	note a4  $0e
	note gs4 $0e
	note g4  $0e
	note fs4 $1c
	note f4  $1c
	note e4  $1c
	note ds4 $1c
	goto musiced84b
	cmdff

musHideAndSeekChannel4:
	duty $0e
musiced8d1:
	vol $b
	note c3  $1c
	note g3  $07
	rest $07
	note g3  $07
	rest $07
	note ds3 $1c
	note e3  $07
	rest $15
	note c3  $1c
	note g3  $07
	rest $07
	note g3  $07
	rest $07
	note gs3 $1c
	note g3  $07
	rest $15
	note c3  $0e
	rest $ee
	vol $c
	note g2  $07
	rest $07
	note g2  $07
	rest $07
	vol $d
	note g2  $1c
	note cs3 $03
	note d3  $07
	rest $2e
	note g2  $07
	rest $07
	vol $b
	note g2  $07
	rest $07
	vol $b
	note g2  $1c
	vol $c
	note fs3 $03
	note g3  $07
	rest $cf
	vol $b
	note g2  $07
	vol $b
	note fs2 $07
	note g2  $07
	note fs2 $07
	note g2  $07
	note c3  $1c
	note fs3 $07
	note g3  $07
	note fs3 $07
	note g3  $07
	note cs3 $1c
	note g3  $07
	note gs3 $07
	note g3  $07
	note gs3 $07
	note c3  $1c
	note fs3 $07
	note g3  $07
	note fs3 $07
	note g3  $07
	note as2 $1c
	note e3  $07
	note f3  $07
	note e3  $07
	note f3  $07
	note g2  $07
	rest $07
	note b4  $07
	note as4 $07
	note a4  $07
	rest $07
	note gs4 $07
	rest $07
	note g4  $07
	rest $07
	note fs4 $07
	rest $07
	note f4  $07
	rest $07
	note e4  $07
	rest $07
	note ds4 $07
	rest $15
	note d4  $07
	rest $15
	note cs4 $07
	rest $11
	note fs2 $04
	note g2  $07
	rest $15
	goto musiced8d1
	cmdff

.define musHideAndSeekChannel6 MUSIC_CHANNEL_FALLBACK EXPORT
