musSamasaDesertStart:

musSamasaDesertChannel1:
	vibrato $00
	env $0 $00
	duty $02
musicefa3e:
	vol $6
	note e6  $08
	note d6  $08
	note as5 $08
	note a5  $08
	env $0 $03
	note f5  $10
	env $0 $00
	vol $6
	note e5  $08
	vol $3
	note f5  $08
	vol $6
	note f5  $08
	vol $3
	note e5  $08
	vol $6
	note a5  $08
	vol $3
	note f5  $08
	vol $6
	note as5 $08
	vol $3
	note a5  $08
	vol $6
	note as5 $08
	note d6  $08
	note e6  $08
	note d6  $08
	note as5 $08
	note a5  $08
	env $0 $03
	note f5  $10
	env $0 $00
	vol $6
	note e5  $08
	vol $3
	note f5  $08
	vol $6
	note f5  $08
	vol $3
	note e5  $08
	vol $6
	note a5  $08
	vol $3
	note f5  $08
	vol $6
	note as5 $08
	vol $3
	note a5  $08
	vol $6
	note as5 $08
	note d6  $08
	note e6  $08
	note as5 $08
	note a5  $08
	note f5  $08
	env $0 $03
	note e5  $10
	env $0 $00
	vol $6
	note d5  $08
	vol $3
	note e5  $08
	vol $6
	note e5  $08
	vol $3
	note d5  $08
	vol $6
	note a5  $08
	vol $3
	note e5  $08
	vol $6
	note as5 $08
	vol $3
	note a5  $08
	vol $6
	note as5 $08
	note d6  $08
	vol $6
	note e6  $08
	note as5 $08
	note a5  $08
	note f5  $08
	env $0 $03
	note e5  $10
	env $0 $00
	vol $6
	note d5  $08
	vol $3
	note e5  $08
	vol $6
	note e5  $08
	vol $3
	note d5  $08
	vol $6
	note a5  $08
	vol $3
	note e5  $08
	vol $6
	note as5 $08
	vol $3
	note a5  $08
	vol $6
	note as5 $08
	note d6  $08
	vol $6
	note e6  $08
	note d6  $08
	note as5 $08
	note a5  $08
	env $0 $03
	note f5  $10
	env $0 $00
	vol $6
	note e5  $08
	vol $3
	note f5  $08
	vol $6
	note f5  $08
	vol $3
	note e5  $08
	vol $6
	note a5  $08
	vol $3
	note f5  $08
	vol $6
	note as5 $08
	vol $3
	note a5  $08
	vol $6
	note as5 $08
	note d6  $08
	note e6  $08
	note d6  $08
	note as5 $08
	note a5  $08
	env $0 $03
	note f5  $10
	env $0 $00
	vol $6
	note e5  $08
	vol $3
	note f5  $08
	vol $6
	note f5  $08
	vol $3
	note e5  $08
	vol $6
	note a5  $08
	vol $3
	note f5  $08
	vol $6
	note as5 $08
	note a5  $08
	note as5 $08
	note d6  $08
	note e6  $08
	note as5 $08
	note a5  $08
	note f5  $08
	env $0 $03
	note e5  $10
	env $0 $00
	vol $6
	note d5  $08
	vol $3
	note e5  $08
	vol $6
	note e5  $08
	vol $3
	note d5  $08
	vol $6
	note a5  $08
	vol $3
	note e5  $08
	vol $6
	note as5 $08
	note a5  $08
	note as5 $08
	note d6  $08
	vol $6
	note e6  $08
	note as5 $08
	note a5  $08
	note f5  $08
	env $0 $03
	note e5  $10
	env $0 $00
	vol $6
	note d5  $08
	vol $3
	note e5  $08
	vol $6
	note e5  $08
	vol $3
	note d5  $08
	vol $6
	note a5  $08
	vol $3
	note e5  $08
	vol $6
	note as5 $08
	note a5  $08
	note as5 $08
	note d6  $08
	vol $6
	note d6  $08
	note a5  $08
	note g5  $08
	note e5  $08
	env $0 $03
	note d5  $10
	env $0 $00
	vol $6
	note c5  $08
	vol $3
	note d5  $08
	vol $6
	note d5  $08
	vol $3
	note c5  $08
	vol $6
	note g5  $08
	vol $3
	note d5  $08
	vol $6
	note a5  $08
	note g5  $08
	note a5  $08
	note c6  $08
	vol $6
	note d6  $08
	note a5  $08
	note g5  $08
	note e5  $08
	env $0 $03
	note d5  $10
	env $0 $00
	vol $6
	note c5  $08
	vol $3
	note d5  $08
	vol $6
	note d5  $08
	vol $3
	note c5  $08
	vol $6
	note g5  $08
	vol $3
	note d5  $08
	vol $6
	note a5  $08
	note g5  $08
	note a5  $08
	note c6  $08
	vol $6
	note c6  $08
	note g5  $08
	note fs5 $08
	note d5  $08
	env $0 $03
	note c5  $10
	env $0 $00
	vol $6
	note as4 $08
	vol $3
	note c5  $08
	vol $6
	note c5  $08
	vol $3
	note as4 $08
	vol $6
	note fs5 $08
	vol $3
	note c5  $08
	vol $6
	note g5  $08
	note f5  $08
	note g5  $08
	note as5 $08
	vol $6
	note as5 $08
	note f5  $08
	note ds5 $08
	note b4  $08
	env $0 $03
	note as4 $10
	env $0 $00
	vol $6
	note gs4 $08
	vol $3
	note as4 $08
	vol $6
	note b4  $08
	vol $3
	note gs4 $08
	vol $6
	note ds5 $08
	vol $3
	note b4  $08
	vol $6
	note f5  $08
	note ds5 $08
	note f5  $08
	note gs5 $08
	vol $6
	note g5  $10
	note d5  $10
	note b4  $10
	note g4  $10
	note b4  $10
	note d5  $10
	note as5 $10
	note f5  $10
	note d5  $10
	note as4 $10
	note d5  $10
	note f5  $10
	note cs6 $10
	note gs5 $10
	note f5  $10
	note cs5 $10
	note f5  $10
	note gs5 $10
	note e6  $10
	note b5  $10
	note gs5 $10
	note e5  $10
	note gs5 $10
	note b5  $10
	vibrato $00
	env $0 $03
	vol $4
	note b5  $08
	note gs5 $08
	note as5 $08
	note g5  $08
	note a5  $08
	note fs5 $08
	note gs5 $08
	note f5  $08
	note g5  $08
	note e5  $08
	note fs5 $08
	note ds5 $08
	note f5  $08
	note d5  $08
	note e5  $08
	note cs5 $08
	note ds5 $08
	note c5  $08
	note d5  $08
	note b4  $08
	note cs5 $08
	note as4 $08
	note c5  $08
	note a4  $08
	note b4  $08
	note gs4 $08
	note as4 $08
	env $0 $04
	note g4  $48
	vibrato $00
	env $0 $00
	goto musicefa3e
	cmdff

musSamasaDesertChannel4:
musicefcb4:
	duty $0c
	rest $0c
	vol $2
	note e6  $08
	note b5  $08
	note a5  $08
	note f5  $08
	note e6  $08
	note b5  $08
	note a5  $08
	note f5  $08
	note e6  $08
	note b5  $08
	note a5  $08
	note f5  $08
	note e6  $08
	note b5  $08
	note a5  $08
	note f5  $08
	note e6  $08
	note b5  $08
	note a5  $08
	note f5  $08
	note e6  $08
	note b5  $08
	note a5  $08
	note f5  $08
	note e6  $08
	note b5  $08
	note a5  $08
	note f5  $08
	note e6  $08
	note b5  $08
	note a5  $08
	note f5  $08
	note e6  $08
	note b5  $08
	note a5  $08
	note e5  $08
	note e6  $08
	note b5  $08
	note a5  $08
	note e5  $08
	note e6  $08
	note b5  $08
	note a5  $08
	note e5  $08
	note e6  $08
	note b5  $08
	note a5  $08
	note e5  $08
	note e6  $08
	note b5  $08
	note a5  $08
	note e5  $08
	note e6  $08
	note b5  $08
	note a5  $08
	note e5  $08
	note e6  $08
	note b5  $08
	note a5  $08
	note e5  $08
	note e6  $08
	note b5  $08
	note a5  $08
	note e5  $08
	vol $0
	note e5  $01
	vol $2
	note e6  $08
	note b5  $08
	note a5  $08
	note f5  $08
	note e6  $08
	note b5  $08
	note a5  $08
	note f5  $08
	note e6  $08
	note b5  $08
	note a5  $08
	note f5  $08
	note e6  $08
	note b5  $08
	note a5  $08
	note f5  $08
	note e6  $08
	note b5  $08
	note a5  $08
	note f5  $08
	note e6  $08
	note b5  $08
	note a5  $08
	note f5  $08
	note e6  $08
	note b5  $08
	note a5  $08
	note f5  $08
	note e6  $08
	note b5  $08
	note a5  $07
	note f5  $01
	vol $0
	note a5  $07
	vol $2
	note e6  $08
	note b5  $08
	note a5  $08
	note e5  $08
	note e6  $08
	note b5  $08
	note a5  $08
	note e5  $08
	note e6  $08
	note b5  $08
	note a5  $08
	note e5  $08
	note e6  $08
	note b5  $08
	note a5  $08
	note e5  $08
	note e6  $08
	note b5  $08
	note a5  $08
	note e5  $08
	note e6  $08
	note b5  $08
	note a5  $08
	note e5  $08
	note e6  $08
	note b5  $08
	note a5  $08
	note e5  $08
	note e6  $08
	note b5  $08
	note a5  $08
	note e5  $08
	vol $2
	note d6  $08
	note a5  $08
	note g5  $08
	note d5  $08
	note d6  $08
	note a5  $08
	note g5  $08
	note d5  $08
	note d6  $08
	note a5  $08
	note g5  $08
	note d5  $08
	note d6  $08
	note a5  $08
	note g5  $08
	note d5  $08
	note d6  $08
	note a5  $08
	note g5  $08
	note d5  $08
	note d6  $08
	note a5  $08
	note g5  $08
	note d5  $08
	note d6  $08
	note a5  $08
	note g5  $08
	note d5  $08
	note d6  $08
	note a5  $08
	note g5  $08
	note d5  $08
	vol $2
	note c6  $08
	note g5  $08
	note fs5 $08
	note c5  $08
	vol $2
	note c6  $08
	note g5  $08
	note fs5 $08
	note c5  $08
	note c6  $08
	note g5  $08
	note fs5 $08
	note c5  $08
	note c6  $08
	note g5  $08
	note fs5 $08
	note c5  $08
	note as5 $08
	vol $2
	note f5  $08
	note ds5 $08
	note b4  $08
	note as4 $08
	vol $2
	note as5 $08
	vol $2
	note f5  $08
	note ds5 $08
	note b4  $08
	note as4 $08
	vol $2
	note as5 $08
	vol $2
	note f5  $08
	note ds5 $08
	note b4  $08
	note as4 $08
	vol $4
	note gs5 $08
	vibrato $00
	note g5  $10
	note d5  $10
	note b4  $10
	note g4  $10
	note b4  $10
	note d5  $10
	note as5 $10
	note f5  $10
	note d5  $10
	note as4 $10
	note d5  $10
	note f5  $10
	vol $4
	note cs6 $10
	note gs5 $10
	note f5  $10
	note cs5 $10
	note f5  $10
	note gs5 $10
	note e6  $10
	note b5  $10
	note gs5 $10
	note e5  $10
	note gs5 $10
	note b5  $04
	duty $0d
	note e3  $20
	duty $0c
	note e3  $20
	rest $bf
	rest $21
	goto musicefcb4
	cmdff

musSamasaDesertChannel0:
musicefe8d:
	duty $02
	vol $8
	env $0 $07
	note e2  $30
	note d2  $30
	note e2  $20
	note d2  $30
	note e2  $30
	note d2  $20
	note e2  $30
	note d2  $30
	note e2  $20
	note d2  $30
	note e2  $30
	note d2  $20
	note e2  $30
	note d2  $30
	note e2  $20
	note d2  $30
	note e2  $30
	note d2  $20
	note e2  $30
	note d2  $30
	note e2  $20
	note d2  $30
	note e2  $30
	note d2  $20
	note d2  $30
	note c2  $30
	note g2  $20
	note c3  $30
	note as2 $30
	note f3  $20
	note as2 $30
	note gs2 $30
	note ds3 $20
	note gs2 $30
	note fs2 $30
	note cs3 $20
	env $0 $00
	vol $6
	note g2  $60
	note as2 $60
	note cs3 $60
	note e3  $60
	vol $4
	env $0 $03
	note g4  $08
	note as4 $08
	note fs4 $08
	note a4  $08
	note f4  $08
	note gs4 $08
	note e4  $08
	note g4  $08
	note ds4 $08
	note fs4 $08
	note d4  $08
	note f4  $08
	note cs4 $08
	note e4  $08
	note c4  $08
	note ds4 $08
	note b3  $08
	note d4  $08
	note as3 $08
	note cs4 $08
	note a3  $08
	note c4  $08
	note gs3 $08
	note b3  $08
	note g3  $08
	note as3 $08
	note fs3 $08
	env $0 $04
	note a3  $48
	goto musicefe8d
	cmdff

.define musSamasaDesertChannel6 MUSIC_CHANNEL_FALLBACK EXPORT
