musSnakesRemainsStart:

musSnakesRemainsChannel1:
	vibrato $00
	env $0 $00
	cmdf2
	duty $02
musicf09bb:
	vol $6
	note d4  $10
	note ds4 $10
	note a4  $10
	note d5  $10
	note ds4 $10
	note c5  $10
	note ds4 $10
	note c5  $10
	note a4  $10
	note ds4 $10
	note d4  $10
	note a4  $10
	note d4  $10
	note ds4 $10
	note a4  $10
	note d5  $10
	note ds4 $10
	note c5  $10
	note ds4 $10
	note c5  $10
	note a4  $10
	note ds4 $10
	note d4  $10
	note a4  $10
	note d4  $10
	note ds4 $10
	note a4  $10
	note d5  $10
	note ds4 $10
	note c5  $10
	note ds4 $10
	note c5  $10
	note a4  $10
	note ds4 $10
	note d4  $10
	note a4  $10
	note d4  $10
	note ds4 $10
	note a4  $10
	note d5  $10
	note ds4 $10
	note c5  $10
	note ds4 $10
	note c5  $10
	note a4  $10
	note ds4 $10
	note d4  $10
	note a4  $10
	note e4  $10
	note f4  $10
	note b4  $10
	note e5  $10
	note f4  $10
	note d5  $10
	note f4  $10
	note d5  $10
	note b4  $10
	note f4  $10
	note e4  $10
	note b4  $10
	note e4  $10
	note f4  $10
	note b4  $10
	note e5  $10
	note f4  $10
	note d5  $10
	note f4  $10
	note d5  $10
	note b4  $10
	note f4  $10
	note e4  $10
	note b4  $10
	note e4  $10
	note f4  $10
	note b4  $10
	note e5  $10
	note f4  $10
	note d5  $10
	note f4  $10
	note d5  $10
	note b4  $10
	note f4  $10
	note e4  $10
	note b4  $10
	note e4  $10
	note f4  $10
	note b4  $10
	note e5  $10
	note f4  $10
	note d5  $10
	note f4  $10
	note d5  $10
	note b4  $10
	note f4  $10
	note e4  $10
	note d4  $10
	vol $6
	note b3  $10
	note as3 $10
	note a3  $10
	note gs3 $10
	rest $04
	vol $3
	note gs3 $08
	rest $04
	vol $1
	note gs3 $08
	rest $08
	vol $6
	note gs3 $10
	note g3  $10
	note fs3 $10
	note f3  $10
	rest $04
	vol $3
	note f3  $08
	rest $04
	vol $1
	note f3  $08
	rest $08
	vol $6
	note f3  $10
	note e3  $10
	note ds3 $10
	note d3  $10
	rest $04
	vol $3
	note d3  $08
	rest $04
	vol $1
	note d3  $08
	rest $08
	vol $6
	note d3  $10
	note cs3 $10
	note c3  $10
	note b2  $10
	rest $04
	vol $3
	note b2  $08
	rest $04
	vol $1
	note b2  $08
	rest $08
	goto musicf09bb
	cmdff

musSnakesRemainsChannel0:
	vibrato $00
	env $0 $00
	cmdf2
	duty $02
musicf0adb:
	vol $0
	note gs3 $12
	vol $3
	note d4  $10
	note ds4 $10
	note a4  $10
	note d5  $10
	note ds4 $10
	note c5  $10
	note ds4 $10
	note c5  $10
	note a4  $10
	vol $3
	note ds4 $10
	note d4  $10
	note a4  $10
	note d4  $10
	note ds4 $10
	note a4  $10
	note d5  $10
	note ds4 $10
	note c5  $10
	note ds4 $10
	vol $3
	note c5  $10
	note a4  $10
	note ds4 $10
	note d4  $10
	rest $10
	note d4  $10
	note ds4 $10
	note a4  $10
	note d5  $10
	note ds4 $10
	note c5  $10
	note ds4 $10
	note c5  $10
	note a4  $10
	note ds4 $10
	note d4  $10
	note a4  $10
	note d4  $10
	note ds4 $10
	note a4  $10
	note d5  $10
	note ds4 $10
	note c5  $10
	note ds4 $10
	note c5  $10
	note a4  $10
	note ds4 $10
	note d4  $10
	note a4  $10
	note e4  $10
	note f4  $10
	note b4  $10
	note e5  $10
	note f4  $10
	note d5  $10
	note f4  $10
	note d5  $10
	note b4  $10
	note f4  $10
	note e4  $10
	note b4  $10
	note e4  $10
	note f4  $10
	note b4  $10
	note e5  $10
	note f4  $10
	note d5  $10
	note f4  $10
	note d5  $10
	note b4  $10
	note f4  $10
	note e4  $10
	note b4  $10
	note e4  $10
	note f4  $10
	note b4  $10
	note e5  $10
	note f4  $10
	vol $3
	note d5  $10
	note f4  $10
	note d5  $10
	note b4  $10
	note f4  $10
	note e4  $10
	note b4  $10
	note e4  $10
	note f4  $10
	note b4  $10
	note e5  $10
	note f4  $10
	note d5  $10
	note f4  $10
	note d5  $10
	note b4  $10
	note f4  $10
	note e4  $0a
	rest $04
	vol $6
	note e3  $10
	vol $6
	note ds3 $10
	vol $6
	note d3  $10
	note cs3 $10
	rest $04
	vol $3
	note cs3 $08
	rest $04
	vol $1
	note cs3 $08
	rest $08
	vol $6
	note cs3 $10
	vol $6
	note c3  $10
	note b2  $10
	note as2 $10
	rest $04
	vol $3
	note as2 $08
	rest $04
	vol $1
	note as2 $08
	rest $08
	vol $6
	note as2 $10
	note a2  $10
	vol $6
	note gs2 $10
	note g2  $10
	rest $04
	vol $3
	note g2  $08
	rest $04
	vol $1
	note g2  $08
	rest $08
	vol $6
	note g2  $10
	note fs2 $10
	note f2  $10
	vol $6
	note e2  $10
	rest $04
	vol $3
	note e2  $08
	rest $04
	vol $1
	note e2  $08
	rest $08
	goto musicf0adb
	cmdff

musSnakesRemainsChannel4:
	cmdf2
musicf0c00:
	duty $0e
	note d2  $10
	rest $10
	note d2  $10
	rest $70
	note c2  $20
	note d2  $10
	rest $10
	note d2  $10
	rest $80
	note c2  $10
	note d2  $0a
	rest $06
	note d2  $0a
	rest $06
	note d2  $10
	rest $70
	note c2  $20
	note d2  $10
	note c2  $10
	note d2  $10
	rest $70
	note ds2 $20
	note e2  $10
	rest $10
	note e2  $10
	rest $80
	note d2  $10
	note e2  $10
	note g2  $10
	note e2  $10
	rest $80
	note d2  $10
	note e2  $10
	note g2  $10
	note b2  $10
	note as2 $75
	rest $0b
	note d2  $10
	note e2  $10
	note d2  $10
	note e2  $10
	note as1 $90
	rest $08
	duty $0f
	note b3  $10
	note as3 $10
	note a3  $10
	note gs3 $10
	rest $20
	note gs3 $10
	note g3  $10
	note fs3 $10
	note f3  $10
	rest $20
	note f3  $10
	note e3  $10
	note ds3 $10
	note d3  $10
	rest $20
	note d3  $10
	note cs3 $10
	note c3  $10
	note b2  $10
	rest $08
	duty $0e
	note c2  $10
	goto musicf0c00
	cmdff

.define musSnakesRemainsChannel6 MUSIC_CHANNEL_FALLBACK EXPORT
