musSubrosianDanceStart:

musSubrosianDanceChannel1:
	vibrato $00
	env $0 $04
	cmdf2
	duty $02
musicf2e89:
	vol $6
	note e4  $1c
	note gs4 $1c
	note b4  $1c
	note as4 $0e
	note b4  $07
	note cs5 $07
	note d5  $0e
	note cs5 $07
	rest $03
	vol $3
	note cs5 $04
	vol $6
	note b4  $0e
	note as4 $07
	rest $03
	vol $3
	note as4 $04
	vol $6
	note b4  $23
	vol $3
	note b4  $15
	vol $6
	note gs4 $1c
	note a4  $0e
	note as4 $0e
	note b4  $0e
	note gs4 $07
	rest $03
	vol $3
	note gs4 $04
	vol $6
	note e4  $07
	rest $03
	vol $3
	note e4  $04
	vol $6
	note b3  $07
	rest $03
	vol $3
	note b3  $04
	vol $6
	note c4  $03
	note d4  $04
	note c4  $03
	note d4  $04
	note c4  $03
	note d4  $04
	note c4  $07
	note b3  $03
	rest $19
	note cs4 $03
	note d4  $04
	note cs4 $03
	note d4  $04
	note cs4 $03
	note d4  $04
	note cs4 $07
	note b3  $03
	rest $19
	note e4  $1c
	note gs4 $1c
	note b4  $1c
	note as4 $0e
	note b4  $07
	note cs5 $07
	note d5  $0e
	note cs5 $07
	rest $03
	vol $3
	note cs5 $04
	vol $6
	note d5  $0e
	note ds5 $0e
	note e5  $1c
	vol $3
	note e5  $0e
	vol $6
	note b4  $07
	note cs5 $07
	note d5  $0e
	note cs5 $07
	rest $03
	vol $3
	note cs5 $04
	vol $6
	note d5  $0e
	note cs5 $07
	rest $03
	vol $3
	note cs5 $04
	vol $6
	note d5  $0e
	note cs5 $07
	note b4  $03
	note cs5 $04
	note b4  $0e
	note as4 $0e
	note b4  $0e
	note as4 $07
	rest $03
	vol $3
	note as4 $04
	vol $6
	note gs4 $0e
	note fs4 $07
	rest $03
	vol $3
	note fs4 $04
	vol $6
	note e4  $1c
	vol $3
	note e4  $0e
	vol $6
	note b3  $0e
	note c4  $1c
	note b3  $1c
	note cs4 $1c
	note b3  $07
	rest $03
	vol $3
	note b3  $04
	vol $6
	note b3  $0e
	note d4  $1c
	note b3  $1c
	note cs4 $1c
	note b3  $07
	rest $03
	vol $3
	note b3  $07
	rest $19
	vol $6
	note b4  $07
	rest $03
	vol $3
	note b4  $04
	vol $6
	note as4 $07
	rest $03
	vol $3
	note as4 $04
	vol $6
	note b4  $07
	rest $03
	vol $3
	note b4  $04
	vol $6
	note c5  $0e
	note b4  $07
	rest $03
	vol $3
	note b4  $04
	vol $6
	note as4 $07
	rest $03
	vol $3
	note as4 $04
	vol $6
	note b4  $07
	rest $03
	vol $3
	note b4  $04
	vol $6
	note cs5 $0e
	note b4  $07
	rest $03
	vol $3
	note b4  $04
	vol $6
	note as4 $07
	rest $03
	vol $3
	note as4 $04
	vol $6
	note cs5 $07
	rest $03
	vol $3
	note cs5 $04
	vol $6
	note b4  $1c
	vol $3
	note b4  $0e
	vol $6
	note b3  $0e
	note c4  $1c
	note b3  $1c
	note c4  $04
	note cs4 $05
	note c4  $05
	note cs4 $04
	note c4  $05
	note cs4 $05
	note b3  $0e
	rest $0e
	note ds4 $1c
	note b3  $1c
	note c4  $04
	note cs4 $05
	note c4  $05
	note cs4 $04
	note c4  $05
	note cs4 $05
	note b3  $0e
	rest $1c
	note b4  $07
	rest $03
	vol $3
	note b4  $04
	vol $6
	note as4 $07
	rest $03
	vol $3
	note as4 $04
	vol $6
	note b4  $07
	rest $03
	vol $3
	note b4  $04
	vol $6
	note e5  $0e
	note d5  $07
	rest $03
	vol $3
	note d5  $04
	vol $6
	note b4  $07
	rest $03
	vol $3
	note b4  $04
	vol $6
	note g4  $07
	rest $03
	vol $3
	note g4  $04
	vol $6
	note as4 $0e
	note a4  $07
	rest $03
	vol $3
	note a4  $04
	vol $6
	note g4  $07
	rest $03
	vol $3
	note g4  $04
	vol $6
	note fs4 $07
	rest $03
	vol $3
	note fs4 $04
	vol $6
	note e4  $2a
	vol $3
	note e4  $0e
	goto musicf2e89
	cmdff

musSubrosianDanceChannel0:
	vibrato $00
	env $0 $03
	cmdf2
	duty $02
musicf304c:
	vol $0
	note c3  $ff
	note c3  $51
	vol $6
	note c3  $03
	note d3  $04
	note c3  $03
	note d3  $04
	note c3  $03
	note d3  $04
	note c3  $07
	note b2  $03
	rest $19
	note cs3 $03
	note d3  $04
	note cs3 $03
	note d3  $04
	note cs3 $03
	note d3  $04
	note cs3 $07
	note b2  $03
	rest $ff
	rest $cc
	note b2  $0e
	vibrato $00
	env $0 $03
	note c3  $1c
	note b2  $1c
	vibrato $00
	env $0 $03
	note cs3 $04
	note d3  $05
	note cs3 $05
	note d3  $04
	note cs3 $05
	note d3  $05
	note b2  $07
	rest $07
	note b2  $0e
	vibrato $00
	env $0 $03
	note d3  $1c
	note b2  $1c
	vibrato $00
	env $0 $03
	note cs3 $04
	note d3  $05
	note cs3 $05
	note d3  $04
	note cs3 $05
	note d3  $05
	note b2  $0e
	rest $1c
	note g4  $07
	rest $03
	vol $3
	note g4  $04
	vol $6
	note fs4 $07
	rest $03
	vol $3
	note fs4 $04
	vol $6
	note g4  $07
	rest $03
	vol $3
	note g4  $04
	vol $6
	note a4  $0e
	note g4  $07
	rest $03
	vol $3
	note g4  $04
	vol $6
	note fs4 $07
	rest $03
	vol $3
	note fs4 $04
	vol $6
	note g4  $07
	rest $03
	vol $3
	note g4  $04
	vol $6
	note a4  $0e
	note g4  $07
	rest $03
	vol $3
	note g4  $04
	vol $6
	note fs4 $07
	rest $03
	vol $3
	note fs4 $04
	vol $6
	note as4 $07
	rest $03
	vol $3
	note as4 $04
	vol $6
	note g4  $1c
	vol $3
	note g4  $1c
	vibrato $00
	env $0 $03
	vol $6
	note c3  $1c
	note b2  $1c
	vibrato $00
	env $0 $03
	note c3  $04
	note cs3 $05
	note c3  $05
	note cs3 $04
	note c3  $05
	note cs3 $05
	note b2  $0e
	rest $0e
	vibrato $00
	env $0 $03
	note ds3 $1c
	note b2  $1c
	vibrato $00
	env $0 $03
	note c3  $04
	note cs3 $05
	note c3  $05
	note cs3 $04
	note c3  $05
	note cs3 $05
	note b2  $0e
	rest $1c
	note g4  $07
	rest $03
	vol $3
	note g4  $04
	vol $6
	note fs4 $07
	rest $03
	vol $3
	note fs4 $04
	vol $6
	note g4  $07
	rest $03
	vol $3
	note g4  $04
	vol $6
	note as4 $0e
	note b4  $07
	rest $03
	vol $3
	note b4  $04
	vol $6
	note g4  $07
	rest $03
	vol $3
	note g4  $04
	vol $6
	note e4  $07
	rest $03
	vol $3
	note e4  $04
	vol $6
	note fs4 $0e
	note f4  $07
	rest $03
	vol $3
	note f4  $04
	vol $6
	note e4  $07
	rest $03
	vol $3
	note e4  $04
	vol $6
	note c4  $07
	rest $03
	vol $3
	note c4  $04
	vol $6
	note as3 $2a
	vol $3
	note as3 $0e
	goto musicf304c
	cmdff

musSubrosianDanceChannel4:
	cmdf2
musicf3194:
	duty $0e
	note e2  $1c
	duty $0f
	note e2  $0a
	rest $04
	duty $0e
	note b2  $0e
	note as2 $1c
	duty $0f
	note as2 $0a
	rest $04
	duty $0e
	note g2  $0e
	note e2  $0e
	note b2  $07
	duty $0f
	note b2  $04
	rest $03
	duty $0e
	note as2 $38
	note g2  $07
	note a2  $07
	note g2  $07
	note fs2 $07
	note e2  $1c
	duty $0f
	note e2  $0a
	rest $04
	duty $0e
	note b2  $0e
	note as2 $1c
	duty $0f
	note as2 $0a
	rest $04
	duty $0e
	note g2  $0e
	note c2  $03
	note d2  $04
	note c2  $03
	note d2  $04
	note c2  $03
	note d2  $04
	note c2  $07
	note b1  $03
	duty $0f
	note b1  $06
	rest $13
	duty $0e
	note cs2 $03
	note d2  $04
	note cs2 $03
	note d2  $04
	note cs2 $03
	note d2  $04
	note cs2 $07
	note b1  $03
	duty $0f
	note b1  $04
	duty $0e
	note a2  $07
	note g2  $07
	note fs2 $07
	note e2  $1c
	duty $0f
	note e2  $0a
	rest $04
	duty $0e
	note b2  $0e
	note as2 $1c
	duty $0f
	note as2 $0a
	rest $04
	duty $0e
	note g2  $0e
	note e2  $0e
	note b2  $07
	duty $0f
	note b2  $04
	rest $03
	duty $0e
	note as2 $38
	note g2  $07
	note a2  $07
	note g2  $07
	note fs2 $07
	note e2  $1c
	duty $0f
	note e2  $0a
	rest $04
	duty $0e
	note b2  $0e
	note as2 $1c
	duty $0f
	note as2 $0a
	rest $04
	duty $0e
	note g2  $0e
	note e2  $0e
	note b2  $07
	duty $0f
	note b2  $04
	rest $03
	duty $0e
	note as2 $38
	note g2  $07
	note a2  $07
	note g2  $07
	note fs2 $07
	note e2  $1c
	duty $0f
	note e2  $0a
	rest $04
	duty $0e
	note b2  $0e
	note as2 $04
	note b2  $05
	note as2 $05
	note b2  $04
	note as2 $05
	note b2  $05
	duty $0f
	note b2  $0a
	rest $04
	duty $0e
	note g2  $0e
	note e2  $0e
	note b2  $07
	duty $0f
	note b2  $04
	rest $03
	duty $0e
	note as2 $20
	note b2  $05
	note as2 $05
	note b2  $04
	note as2 $05
	note b2  $05
	note g2  $07
	note a2  $07
	note g2  $07
	note fs2 $07
	note e2  $1c
	duty $0f
	note e2  $0a
	rest $04
	duty $0e
	note b2  $0e
	note as2 $1c
	duty $0f
	note as2 $0a
	rest $04
	duty $0e
	note g2  $0e
	note e2  $0e
	note b2  $07
	duty $0f
	note b2  $04
	rest $03
	duty $0e
	note as2 $38
	note g2  $07
	note a2  $07
	note g2  $07
	note fs2 $07
	note e2  $1c
	duty $0f
	note e2  $0a
	rest $04
	duty $0e
	note b2  $0e
	note as2 $1c
	duty $0f
	note as2 $0a
	rest $04
	duty $0e
	note g2  $0e
	note e2  $0e
	note b2  $07
	duty $0f
	note b2  $04
	rest $03
	duty $0e
	note as2 $38
	note g2  $07
	note a2  $07
	note g2  $07
	note fs2 $07
	note e2  $1c
	duty $0f
	note e2  $0e
	rest $46
	duty $0e
	note as2 $0b
	duty $0f
	note as2 $03
	duty $0e
	note a2  $07
	duty $0f
	note a2  $04
	rest $03
	duty $0e
	note g2  $07
	duty $0f
	note g2  $04
	rest $03
	duty $0e
	note f2  $07
	duty $0f
	note f2  $04
	rest $03
	duty $0e
	note e2  $0e
	duty $0f
	note e2  $0a
	rest $04
	duty $0e
	note g2  $07
	note a2  $07
	note g2  $07
	note fs2 $07
	goto musicf3194
	cmdff

musSubrosianDanceChannel6:
	cmdf2
musicf3351:
	vol $3
	note $23 $1c
	note $26 $0e
	note $23 $0e
	note $23 $1c
	note $26 $0e
	note $23 $0e
	note $23 $0e
	note $26 $0e
	note $26 $2a
	note $26 $0e
	note $26 $0e
	note $26 $0e
	note $23 $1c
	note $26 $0e
	note $23 $0e
	note $23 $1c
	note $26 $0e
	note $23 $0e
	note $23 $0e
	note $26 $0e
	note $26 $2a
	note $26 $0e
	note $26 $0e
	note $26 $0e
	note $23 $1c
	note $26 $0e
	note $23 $0e
	note $23 $1c
	note $26 $0e
	note $23 $0e
	note $23 $0e
	note $26 $0e
	note $26 $2a
	note $26 $0e
	note $26 $0e
	note $26 $0e
	note $23 $1c
	note $26 $0e
	note $23 $0e
	note $23 $1c
	note $26 $0e
	note $23 $0e
	note $23 $0e
	note $26 $0e
	note $26 $2a
	note $26 $0e
	note $26 $0e
	note $26 $0e
	note $23 $1c
	note $26 $0e
	note $23 $0e
	note $23 $1c
	note $26 $0e
	note $23 $0e
	note $23 $0e
	note $26 $0e
	note $26 $2a
	note $26 $0e
	note $26 $0e
	note $26 $0e
	note $23 $1c
	note $26 $0e
	note $23 $0e
	note $23 $1c
	note $26 $0e
	note $23 $0e
	note $23 $0e
	note $26 $0e
	note $26 $2a
	note $26 $0e
	note $26 $0e
	note $26 $0e
	note $23 $1c
	note $26 $0e
	note $23 $0e
	note $23 $1c
	note $26 $0e
	note $23 $0e
	note $23 $0e
	note $26 $0e
	note $26 $2a
	note $26 $0e
	note $26 $0e
	note $26 $0e
	note $26 $70
	note $26 $0e
	note $26 $0e
	note $26 $0e
	note $26 $0e
	note $26 $1c
	note $26 $1c
	goto musicf3351
	cmdff
