musSwordAndShieldMazeStart:

musSwordAndShieldMazeChannel1:
musicf02f4:
	vibrato $e1
	env $0 $00
	cmdf2
	duty $02
	vol $6
	note c4  $24
	note cs4 $24
	note c4  $24
	note cs4 $24
	vol $6
	note c4  $06
	vol $1
	note c4  $03
	vol $6
	note c4  $06
	vol $1
	note c4  $03
	vol $6
	note c4  $06
	vol $1
	note c4  $0c
	vol $4
	note c4  $09
	vol $1
	note c4  $09
	vol $2
	note c4  $09
	vol $1
	note c4  $1b
	vol $6
	note c4  $12
	note cs4 $12
	note e4  $12
	note c4  $90
	vol $6
	note e4  $04
	vol $1
	note e4  $05
	vol $3
	note e4  $04
	vol $1
	note e4  $05
	vol $6
	note as3 $04
	vol $1
	note as3 $05
	vol $4
	note as3 $04
	vol $1
	note as3 $05
	vol $2
	note as3 $04
	vol $1
	note as3 $05
	vol $1
	note as3 $04
	rest $71
	vol $6
	note e4  $12
	note as3 $12
	vol $3
	note as3 $12
	vol $6
	note gs4 $6c
	note a4  $24
	note as4 $24
	note b4  $24
	note c5  $90
	vol $6
	note e5  $04
	vol $1
	note e5  $05
	vol $3
	note e5  $04
	vol $1
	note e5  $05
	vol $6
	note as4 $04
	vol $1
	note as4 $05
	vol $5
	note as4 $04
	vol $1
	note as4 $05
	vol $3
	note as4 $04
	vol $1
	note as4 $05
	vol $2
	note as4 $04
	rest $68
	vol $6
	note b4  $09
	note e5  $09
	note a5  $09
	note gs5 $09
	note cs5 $09
	note gs5 $09
	note b5  $09
	note a5  $09
	note e5  $09
	note a5  $09
	note ds6 $09
	note cs6 $09
	note ds5 $09
	note gs5 $09
	note cs6 $09
	note b5  $09
	note ds5 $09
	note e5  $09
	note b5  $09
	note a5  $09
	note cs5 $09
	note ds5 $09
	note a5  $09
	note gs5 $09
	note a4  $09
	note cs5 $09
	note gs5 $09
	note fs5 $09
	note gs4 $09
	note b4  $09
	note fs5 $09
	note e5  $09
	note fs4 $09
	note a4  $09
	note e5  $09
	note a5  $09
	note b4  $09
	note e5  $09
	note a5  $09
	note c6  $09
	note d5  $09
	note g5  $09
	note c6  $09
	note f6  $09
	note g5  $09
	note c6  $09
	note f6  $09
	note as6 $09
	note as5 $09
	note f6  $09
	note as6 $09
	note d7  $09
	note d6  $09
	note a6  $09
	note d7  $09
	note ds7 $09
	note e6  $09
	note a6  $09
	note ds7 $09
	note f7  $09
	note g6  $09
	note as6 $09
	note f7  $09
	note e7  $09
	rest $0d
	vol $3
	note e7  $09
	rest $0e
	vol $1
	note e7  $09
	rest $24
	goto musicf02f4
	cmdff

musSwordAndShieldMazeChannel0:
	vibrato $e1
	env $0 $00
	cmdf2
	duty $02
musicf041c:
	vol $6
	note fs3 $24
	note g3  $24
	note fs3 $24
	note g3  $24
	vol $6
	note fs3 $04
	vol $1
	note fs3 $05
	vol $6
	note fs3 $04
	vol $1
	note fs3 $05
	vol $6
	note fs3 $04
	vol $1
	note fs3 $0e
	vol $4
	note fs3 $09
	vol $1
	note fs3 $09
	vol $2
	note fs3 $09
	vol $1
	note fs3 $1b
	vol $6
	note fs3 $12
	note g3  $12
	note c4  $12
	note fs3 $90
	vol $7
	note as3 $04
	vol $1
	note as3 $05
	vol $4
	note as3 $04
	vol $1
	note as3 $05
	vol $6
	note e3  $04
	vol $1
	note e3  $05
	vol $5
	note e3  $04
	vol $1
	note e3  $05
	vol $3
	note e3  $04
	vol $1
	note e3  $05
	vol $2
	note e3  $04
	rest $71
	vol $6
	note fs3 $12
	note g3  $24
	note gs3 $24
	note a3  $24
	note as3 $24
	note b3  $24
	note c4  $24
	note cs4 $24
	note d4  $24
	note ds4 $24
	note e4  $24
	note f4  $24
	vol $6
	note as4 $04
	vol $1
	note as4 $05
	vol $3
	note as4 $04
	vol $1
	note as4 $05
	vol $6
	note e4  $04
	vol $1
	note e4  $05
	vol $5
	note e4  $04
	vol $1
	note e4  $05
	vol $3
	note e4  $04
	vol $1
	note e4  $05
	vol $1
	note e4  $04
	rest $80
	vol $2
	note b4  $09
	note e5  $09
	note a5  $09
	note gs5 $09
	note cs5 $09
	note gs5 $09
	note b5  $09
	note a5  $09
	note e5  $09
	note a5  $09
	note ds6 $09
	note cs6 $09
	note ds5 $09
	note gs5 $09
	note cs6 $09
	note b5  $09
	note ds5 $09
	note e5  $09
	note b5  $09
	note a5  $09
	note cs5 $09
	note ds5 $09
	note a5  $09
	note gs5 $09
	note a4  $07
	note cs5 $01
	vol $0
	note a4  $08
	note cs5 $01
	vol $2
	note gs5 $0a
	note fs5 $09
	note gs4 $09
	note b4  $09
	note fs5 $09
	note e5  $09
	note fs4 $09
	note a4  $09
	note e5  $09
	note a5  $09
	note b4  $09
	note e5  $09
	note a5  $09
	note c6  $09
	note d5  $09
	note g5  $09
	note c6  $09
	note f6  $09
	note g5  $09
	note c6  $09
	note f6  $09
	note as6 $09
	note as5 $09
	note f6  $09
	note as6 $09
	note d7  $09
	note d6  $09
	note a6  $09
	note d7  $09
	note ds7 $09
	note e6  $09
	note a6  $09
	note ds7 $09
	note d7  $09
	rest $03
	vol $2
	note e7  $03
	rest $57
	goto musicf041c
	cmdff

musSwordAndShieldMazeChannel4:
	cmdf2
musicf0536:
	duty $07
	note cs3 $12
	note c3  $12
	note b2  $12
	note as2 $12
	note a2  $12
	note gs2 $12
	note g2  $12
	note fs2 $12
	note cs3 $12
	note c3  $12
	note b2  $12
	note as2 $12
	note a2  $12
	note gs2 $12
	note g2  $12
	note fs2 $12
	note cs3 $12
	note c3  $12
	note b2  $12
	note as2 $12
	note a2  $12
	note gs2 $12
	note g2  $12
	note fs2 $12
	note cs3 $12
	note c3  $12
	note b2  $12
	note as2 $12
	note a2  $12
	note gs2 $12
	note g2  $12
	note fs2 $12
	note cs3 $12
	note c3  $12
	note b2  $12
	note as2 $12
	note a2  $12
	note gs2 $12
	note g2  $12
	note fs2 $12
	note cs3 $12
	note c3  $12
	note b2  $12
	note as2 $12
	note a2  $12
	note gs2 $12
	note g2  $12
	note fs2 $12
	note cs3 $12
	note c3  $12
	note b2  $12
	note as2 $12
	note a2  $12
	note gs2 $12
	note g2  $12
	note fs2 $12
	note cs3 $12
	note c3  $12
	note b2  $12
	note as2 $12
	note a2  $12
	note gs2 $12
	note g2  $12
	note e2  $24
	rest $ff
	rest $ff
	rest $8a
	goto musicf0536
	cmdff

musSwordAndShieldMazeChannel6:
	cmdf2
musicf05c3:
	vol $6
	note $22 $02
	vol $4
	note $23 $22
	vol $6
	note $22 $02
	vol $4
	note $23 $22
	vol $6
	note $22 $02
	vol $4
	note $23 $10
	vol $6
	note $22 $02
	vol $4
	note $23 $10
	vol $6
	note $22 $02
	vol $4
	note $23 $22
	vol $6
	note $22 $02
	vol $4
	note $23 $22
	vol $6
	note $22 $02
	vol $4
	note $23 $22
	vol $6
	note $22 $02
	vol $4
	note $23 $10
	vol $6
	note $22 $02
	vol $4
	note $23 $10
	vol $6
	note $22 $02
	vol $4
	note $23 $22
	vol $6
	note $22 $02
	vol $4
	note $23 $22
	vol $6
	note $22 $02
	vol $4
	note $23 $22
	vol $6
	note $22 $02
	vol $4
	note $23 $10
	vol $6
	note $22 $02
	vol $4
	note $23 $10
	vol $6
	note $22 $02
	vol $4
	note $23 $22
	vol $6
	note $22 $02
	vol $4
	note $23 $22
	vol $6
	note $22 $02
	vol $4
	note $23 $22
	vol $6
	note $22 $02
	vol $4
	note $23 $07
	vol $6
	note $22 $02
	vol $4
	note $23 $07
	vol $6
	note $22 $02
	vol $4
	note $23 $07
	vol $6
	note $22 $02
	vol $4
	note $23 $07
	vol $6
	note $22 $02
	vol $4
	note $23 $22
	vol $6
	note $22 $02
	vol $4
	note $23 $22
	vol $6
	note $22 $02
	vol $4
	note $23 $22
	vol $6
	note $22 $02
	vol $4
	note $23 $22
	vol $6
	note $22 $02
	vol $4
	note $23 $22
	vol $6
	note $22 $02
	vol $4
	note $23 $22
	vol $6
	note $22 $02
	vol $4
	note $23 $22
	vol $6
	note $22 $02
	vol $4
	note $23 $22
	vol $6
	note $22 $02
	vol $4
	note $23 $22
	vol $6
	note $22 $02
	vol $4
	note $23 $22
	vol $6
	note $22 $02
	vol $4
	note $23 $22
	vol $6
	note $22 $02
	vol $4
	note $23 $10
	vol $6
	note $22 $02
	vol $4
	note $23 $10
	vol $6
	note $22 $02
	vol $4
	note $23 $22
	vol $6
	note $22 $02
	vol $4
	note $23 $22
	vol $6
	note $22 $02
	vol $4
	note $23 $22
	vol $6
	note $22 $02
	vol $4
	note $23 $10
	vol $6
	note $22 $02
	vol $4
	note $23 $10
	rest $ff
	rest $ff
	rest $c0
	goto musicf05c3
	cmdff
