musUnused1Start:

musUnused1Channel1:
	vibrato $f1
	env $0 $00
	duty $01
musicedeb0:
	vol $6
	note f4  $07
	rest $03
	vol $3
	note f4  $07
	rest $04
	vol $6
	note c4  $07
	note f4  $2a
	vibrato $01
	env $0 $00
	vol $3
	note f4  $0e
	vibrato $f1
	env $0 $00
	vol $6
	note g4  $0e
	note gs4 $07
	note as4 $07
	note c5  $07
	rest $03
	vol $3
	note c5  $07
	rest $04
	vol $6
	note ds4 $07
	note c5  $31
	vibrato $01
	env $0 $00
	vol $3
	note c5  $07
	vibrato $f1
	env $0 $00
	vol $6
	note cs5 $0e
	note ds5 $07
	note cs5 $07
	note c5  $07
	rest $03
	vol $3
	note c5  $07
	rest $04
	vol $6
	note ds4 $07
	note c5  $31
	vibrato $01
	env $0 $00
	vol $3
	note c5  $07
	vibrato $f1
	env $0 $00
	vol $6
	note as4 $0e
	note gs4 $07
	note as4 $07
	note c5  $3f
	vibrato $01
	env $0 $00
	vol $3
	note c5  $15
	vibrato $f1
	env $0 $00
	vol $6
	note c5  $1c
	note cs5 $0e
	rest $03
	vol $3
	note cs5 $04
	vol $6
	note as4 $15
	note f4  $0e
	note e4  $0e
	note g4  $0e
	note cs5 $0e
	note as4 $0e
	note c5  $2a
	note as4 $0e
	note gs4 $0e
	rest $03
	vol $3
	note gs4 $07
	rest $0b
	vol $6
	note c5  $07
	note f5  $07
	note g5  $07
	note gs5 $07
	note g5  $07
	note f5  $15
	vol $3
	note f5  $07
	vol $6
	note gs5 $07
	note g5  $07
	note f5  $15
	vol $3
	note f5  $07
	vol $6
	note gs5 $07
	note a5  $07
	note as5 $07
	note b5  $07
	note c6  $2a
	note g5  $0e
	note c5  $07
	rest $03
	vol $3
	note c5  $07
	rest $0b
	vol $6
	note c5  $1c
	note cs5 $07
	rest $03
	vol $3
	note cs5 $07
	rest $04
	vol $6
	note f4  $07
	note cs5 $31
	note as4 $07
	note ds5 $07
	note cs5 $07
	note c5  $07
	note as4 $03
	vol $3
	note as4 $04
	vol $6
	note as4 $07
	rest $03
	vol $3
	note as4 $07
	rest $04
	vol $6
	note c5  $03
	vol $3
	note c5  $04
	vol $6
	note c5  $31
	vibrato $01
	env $0 $00
	vol $3
	note c5  $07
	vibrato $f1
	env $0 $00
	vol $6
	note c5  $15
	vibrato $01
	env $0 $00
	vol $3
	note c5  $07
	vibrato $f1
	env $0 $00
	vol $6
	note as4 $07
	rest $03
	vol $3
	note as4 $07
	rest $04
	vol $6
	note d4  $07
	note as4 $2a
	vibrato $01
	env $0 $00
	vol $3
	note as4 $07
	vibrato $f1
	env $0 $00
	vol $6
	note e4  $07
	note c5  $07
	note as4 $07
	note gs4 $07
	note g4  $03
	vol $3
	note g4  $04
	vol $6
	note g4  $1c
	vibrato $01
	env $0 $00
	vol $3
	note g4  $07
	vibrato $f1
	env $0 $00
	vol $6
	note f4  $03
	vol $3
	note f4  $04
	vol $6
	note f4  $07
	note g4  $07
	note gs4 $0e
	vol $3
	note gs4 $0e
	vol $6
	note as4 $0e
	note c5  $0e
	note cs5 $07
	rest $03
	vol $3
	note cs5 $07
	rest $04
	vol $6
	note f4  $07
	note cs5 $2a
	vibrato $01
	env $0 $00
	vol $3
	note cs5 $07
	vibrato $f1
	env $0 $00
	vol $6
	note as4 $07
	note ds5 $07
	note f5  $07
	note ds5 $07
	note cs5 $07
	note c5  $2a
	note d5  $0e
	note e5  $15
	vibrato $01
	env $0 $00
	vol $3
	note e5  $07
	vibrato $f1
	env $0 $00
	vol $6
	note f5  $0e
	note g5  $0e
	note gs5 $07
	rest $03
	vol $3
	note gs5 $07
	rest $04
	vol $6
	note b4  $07
	note gs5 $2a
	vibrato $01
	env $0 $00
	vol $3
	note gs5 $07
	vibrato $f1
	env $0 $00
	vol $6
	note g5  $07
	note gs5 $07
	note a5  $07
	note as5 $07
	note b5  $07
	note c6  $07
	rest $03
	vol $3
	note c6  $07
	rest $04
	vol $6
	note g5  $07
	note c6  $3f
	vibrato $01
	env $0 $00
	vol $3
	note c6  $0e
	rest $07
	vibrato $f1
	env $0 $00
	goto musicedeb0
	cmdff

musUnused1Channel0:
	vibrato $f1
	env $0 $00
	duty $02
musicee08a:
	vol $6
	note gs3 $07
	rest $03
	vol $3
	note gs3 $04
	vol $6
	note gs3 $07
	note f3  $07
	note gs3 $07
	rest $03
	vol $3
	note gs3 $04
	vol $6
	note gs3 $07
	note f3  $07
	note gs3 $07
	rest $03
	vol $3
	note gs3 $04
	vol $6
	note gs3 $07
	note f3  $07
	note as3 $07
	note ds3 $07
	note f3  $07
	note g3  $07
	note gs3 $07
	rest $03
	vol $3
	note gs3 $04
	vol $6
	note gs3 $03
	vol $3
	note gs3 $04
	vol $6
	note gs3 $03
	vol $3
	note gs3 $04
	vol $6
	note gs3 $07
	rest $03
	vol $3
	note gs3 $04
	vol $6
	note ds3 $07
	note gs3 $07
	note c4  $07
	rest $03
	vol $3
	note c4  $04
	vol $6
	note c4  $07
	note gs3 $07
	note as3 $07
	rest $03
	vol $3
	note as3 $04
	vol $6
	note as3 $07
	note g3  $07
	note c4  $07
	rest $03
	vol $3
	note c4  $04
	vol $6
	note c4  $07
	note gs3 $07
	note c4  $07
	rest $03
	vol $3
	note c4  $04
	vol $6
	note c4  $07
	note gs3 $07
	note c4  $07
	rest $03
	vol $3
	note c4  $04
	vol $6
	note c4  $07
	note gs3 $07
	note g3  $0e
	note f3  $07
	note g3  $07
	note gs3 $07
	rest $03
	vol $3
	note gs3 $04
	vol $6
	note ds3 $03
	vol $3
	note ds3 $04
	vol $6
	note ds3 $03
	vol $3
	note ds3 $04
	vol $6
	note gs3 $07
	rest $03
	vol $3
	note gs3 $04
	vol $6
	note ds3 $03
	vol $3
	note ds3 $04
	vol $6
	note ds3 $03
	vol $3
	note ds3 $04
	vol $6
	note c4  $07
	rest $03
	vol $3
	note c4  $04
	vol $6
	note ds3 $03
	vol $3
	note ds3 $04
	vol $6
	note ds3 $03
	vol $3
	note ds3 $04
	vol $6
	note as3 $07
	note gs3 $07
	note as3 $07
	note gs3 $03
	rest $04
	note gs3 $07
	rest $03
	vol $3
	note gs3 $04
	vol $6
	note g3  $03
	vol $3
	note g3  $04
	vol $6
	note g3  $03
	vol $3
	note g3  $04
	vol $6
	note f3  $07
	rest $03
	vol $3
	note f3  $04
	vol $6
	note g3  $07
	note f3  $07
	note as3 $07
	rest $03
	vol $3
	note as3 $04
	vol $6
	note c4  $07
	note as3 $07
	note g3  $07
	rest $03
	vol $3
	note g3  $04
	vol $6
	note g3  $07
	note as3 $07
	note gs3 $07
	rest $03
	vol $3
	note gs3 $04
	vol $6
	note c4  $07
	note cs4 $07
	note d4  $07
	rest $03
	vol $3
	note d4  $04
	vol $6
	note ds4 $03
	rest $04
	note ds4 $07
	note d4  $07
	rest $03
	vol $3
	note d4  $04
	vol $6
	note ds4 $07
	note d4  $07
	note cs4 $07
	rest $03
	vol $3
	note cs4 $04
	vol $6
	note cs4 $07
	note c4  $07
	note b3  $07
	rest $03
	vol $3
	note b3  $04
	vol $6
	note b3  $07
	note g3  $07
	note f3  $0e
	note g3  $03
	rest $04
	note g3  $07
	note b3  $0e
	note g3  $03
	rest $04
	note g3  $07
	note d4  $0e
	note b3  $03
	rest $04
	note b3  $07
	note c4  $07
	rest $03
	vol $3
	note c4  $04
	vol $6
	note c4  $03
	rest $04
	note c4  $07
	note cs4 $09
	note ds4 $09
	note cs4 $0a
	note c4  $07
	rest $03
	vol $3
	note c4  $04
	vol $6
	note c4  $07
	note g3  $07
	note e3  $07
	note g3  $07
	note c4  $07
	note e4  $07
	rest $23
	vol $6
	note f3  $07
	note as3 $07
	note gs3 $07
	note g3  $38
	note gs3 $23
	note ds3 $07
	note gs3 $07
	note as3 $07
	note c4  $07
	note gs3 $07
	note c4  $07
	note ds4 $07
	note gs4 $07
	note ds4 $07
	note c4  $07
	note gs3 $07
	note g3  $23
	vibrato $01
	env $0 $00
	vol $3
	note g3  $07
	vibrato $f1
	env $0 $00
	vol $6
	note f3  $04
	note g3  $05
	note f3  $05
	note e3  $0e
	note g3  $07
	note c4  $07
	note cs4 $0e
	note c4  $0e
	rest $07
	note c3  $07
	note g3  $07
	note e3  $07
	note f3  $07
	note g3  $07
	note gs3 $07
	note as3 $07
	note b3  $07
	note c4  $07
	note cs4 $07
	note d4  $07
	note g4  $0e
	note gs4 $0e
	note as4 $07
	rest $03
	vol $3
	note as4 $07
	rest $12
	vol $6
	note as3 $03
	rest $04
	note as3 $07
	note gs3 $07
	note g3  $1c
	note cs4 $1c
	rest $07
	note gs3 $07
	note cs4 $07
	note b3  $07
	note c4  $07
	note cs4 $07
	note b3  $07
	note c4  $07
	note cs4 $07
	note d4  $07
	note c4  $07
	note cs4 $07
	note d4  $0e
	note e4  $0e
	note f4  $07
	rest $03
	vol $3
	note f4  $07
	rest $04
	vol $6
	note g3  $07
	note f4  $1c
	note e4  $1c
	note ds4 $1c
	note cs4 $07
	note c4  $07
	note as3 $07
	note g3  $07
	note f3  $07
	note e3  $07
	note g3  $07
	note c4  $07
	note e4  $07
	note g3  $07
	note c4  $07
	note e4  $07
	note g4  $07
	note c4  $07
	note e4  $07
	note g4  $07
	goto musicee08a
	cmdff

musUnused1Channel4:
musicee2da:
	duty $11
	note f2  $07
	duty $0f
	note f2  $07
	rest $0e
	duty $11
	note f2  $07
	duty $0f
	note f2  $07
	rest $2a
	duty $11
	note ds2 $1c
	duty $11
	note gs2 $07
	duty $0f
	note gs2 $07
	rest $0e
	duty $11
	note gs2 $07
	duty $0f
	note gs2 $07
	rest $2a
	duty $11
	note as2 $1c
	duty $11
	note gs2 $07
	duty $0f
	note gs2 $07
	rest $0e
	duty $11
	note gs2 $07
	duty $0f
	note gs2 $07
	rest $2a
	duty $11
	note ds2 $1c
	duty $11
	note gs2 $07
	duty $0f
	note gs2 $07
	rest $0e
	duty $11
	note gs2 $07
	duty $0f
	note gs2 $07
	rest $2a
	duty $11
	note gs2 $1c
	duty $11
	note g2  $07
	duty $0f
	note g2  $07
	rest $0e
	duty $11
	note g2  $07
	duty $0f
	note g2  $07
	rest $2a
	duty $11
	note c2  $1c
	duty $11
	note f2  $07
	duty $0f
	note f2  $07
	rest $0e
	duty $11
	note f2  $07
	duty $0f
	note f2  $07
	rest $2a
	duty $11
	note f2  $1c
	duty $11
	note g2  $07
	duty $0f
	note g2  $07
	rest $0e
	duty $11
	note g2  $07
	duty $0f
	note g2  $07
	rest $2a
	duty $11
	note g2  $1c
	duty $11
	note c2  $07
	duty $0f
	note c2  $07
	rest $0e
	duty $11
	note c2  $07
	duty $0f
	note c2  $07
	rest $2a
	duty $11
	note c2  $1c
	duty $11
	note as2 $07
	duty $0f
	note as2 $05
	rest $02
	duty $11
	note as2 $07
	duty $0f
	note as2 $05
	rest $10
	duty $11
	note as2 $0e
	note ds2 $07
	duty $0f
	note ds2 $05
	rest $02
	duty $11
	note ds2 $07
	duty $0f
	note ds2 $05
	rest $10
	duty $11
	note g2  $0e
	duty $11
	note gs2 $07
	duty $0f
	note gs2 $05
	rest $02
	duty $11
	note gs2 $07
	duty $0f
	note gs2 $05
	rest $10
	duty $11
	note ds2 $0e
	note gs2 $07
	duty $0f
	note gs2 $05
	rest $02
	duty $11
	note gs2 $07
	duty $0f
	note gs2 $05
	rest $10
	duty $11
	note gs2 $0e
	duty $11
	note g2  $07
	duty $0f
	note g2  $05
	rest $02
	duty $11
	note g2  $07
	duty $0f
	note g2  $05
	rest $10
	duty $11
	note g2  $0e
	note c2  $07
	duty $0f
	note c2  $05
	rest $02
	duty $11
	note c2  $07
	duty $0f
	note c2  $05
	rest $10
	duty $11
	note e2  $0e
	duty $11
	note f2  $07
	duty $0f
	note f2  $05
	rest $02
	duty $11
	note f2  $0e
	duty $0f
	note f2  $05
	rest $09
	duty $11
	note f2  $07
	duty $0f
	note f2  $05
	rest $02
	duty $11
	note f2  $07
	duty $0f
	note f2  $05
	rest $02
	duty $11
	note f2  $0e
	note g2  $0e
	note gs2 $0e
	duty $11
	note as2 $07
	duty $0f
	note as2 $05
	rest $02
	duty $11
	note as2 $07
	duty $0f
	note as2 $05
	rest $10
	duty $11
	note as2 $0e
	note ds2 $07
	duty $0f
	note ds2 $05
	rest $02
	duty $11
	note ds2 $07
	duty $0f
	note ds2 $05
	rest $10
	duty $11
	note ds2 $0e
	duty $11
	note f2  $07
	duty $0f
	note f2  $05
	rest $02
	duty $11
	note f2  $0e
	duty $0f
	note f2  $05
	rest $09
	duty $11
	note f2  $0e
	note ds2 $07
	duty $0f
	note ds2 $05
	rest $02
	duty $11
	note ds2 $0e
	duty $0f
	note ds2 $05
	rest $09
	duty $11
	note ds2 $0e
	duty $11
	note d2  $07
	duty $0f
	note d2  $05
	rest $02
	duty $11
	note d2  $07
	duty $0f
	note d2  $05
	rest $10
	duty $11
	note d2  $0e
	note g2  $07
	duty $0f
	note g2  $05
	rest $02
	duty $11
	note g2  $07
	duty $0f
	note g2  $05
	rest $10
	duty $11
	note g2  $0e
	duty $11
	note c2  $0e
	duty $0f
	note c2  $05
	rest $09
	duty $11
	note c2  $1c
	note d2  $1c
	note e2  $1c
	goto musicee2da
	cmdff
musUnused1Channel6:
musicee4f4:
	vol $5
	note $26 $0e
	vol $3
	note $26 $03
	vol $2
	note $26 $04
	vol $2
	note $26 $03
	vol $1
	note $26 $04
	vol $5
	note $26 $0e
	vol $3
	note $26 $03
	vol $2
	note $26 $04
	vol $2
	note $26 $03
	vol $2
	note $26 $04
	vol $5
	note $26 $0e
	vol $3
	note $26 $03
	vol $2
	note $26 $04
	vol $2
	note $26 $03
	vol $2
	note $26 $04
	vol $5
	note $26 $03
	vol $4
	note $26 $04
	vol $3
	note $26 $03
	vol $3
	note $26 $04
	vol $3
	note $26 $03
	vol $3
	note $26 $04
	vol $2
	note $26 $03
	vol $3
	note $26 $04
	goto musicee4f4
	cmdff
