musAmbiPalaceStart:

musAmbiPalaceChannel1:
	cmdf2
	vibrato $e1
	env $0 $00
	duty $01
	vol $8
	note e4  $06
	note fs4 $06
	note gs4 $06
	note a4  $06
musicf0f36:
	note b4  $18
	vol $5
	note b4  $0c
	vol $8
	note e5  $06
	vol $5
	note e5  $06
	vol $8
	note e5  $18
	vol $5
	note e5  $0c
	vol $8
	note e5  $0c
	note d5  $08
	note e5  $08
	note d5  $08
	vol $8
	note cs5 $0c
	note b4  $0c
	note cs5 $10
	rest $02
	vol $5
	note cs5 $06
	vol $8
	note a4  $10
	rest $02
	vol $5
	note a4  $06
	vol $8
	note fs4 $10
	rest $02
	vol $5
	note fs4 $06
	vol $8
	note cs5 $10
	rest $02
	vol $5
	note cs5 $06
	vol $8
	note b4  $24
	note e4  $06
	rest $06
	note e4  $18
	vol $5
	note e4  $0c
	vol $8
	note e4  $0c
	note g4  $0c
	note fs4 $0c
	note e4  $0c
	note d4  $0c
	note b3  $0c
	rest $06
	vol $5
	note b3  $06
	vol $8
	note d4  $0c
	rest $06
	vol $5
	note d4  $06
	vol $8
	note e4  $60
	vibrato $01
	vol $5
	note e4  $30
	vibrato $e1
	vol $8
	note e4  $0c
	rest $06
	vol $5
	note e4  $06
	vol $8
	note b4  $0c
	rest $06
	vol $5
	note b4  $06
	vol $8
	note b4  $18
	rest $06
	vol $5
	note b4  $06
	vol $8
	note d5  $0c
	note e5  $18
	note cs5 $0c
	note a4  $0c
	note b4  $0c
	rest $06
	vol $5
	note b4  $06
	vol $8
	note b4  $0c
	note d5  $0c
	note e5  $0c
	rest $06
	vol $5
	note e5  $06
	vol $8
	note d5  $0c
	note e5  $0c
	note g5  $0c
	note fs5 $0c
	note e5  $0c
	note d5  $0c
	note fs5 $0c
	note e5  $0c
	note d5  $0c
	note a4  $0c
	note b4  $0c
	rest $06
	vol $5
	note b4  $06
	vol $8
	note a4  $0c
	note b4  $0c
	note g4  $18
	note fs4 $18
	note e4  $18
	note d4  $18
	note fs4 $0c
	rest $06
	vol $5
	note fs4 $06
	vol $8
	note e4  $0c
	note fs4 $0c
	note d4  $08
	note e4  $08
	note d4  $08
	note cs4 $0c
	note as3 $0c
	note b3  $90
	vibrato $01
	vol $5
	note b3  $18
	vibrato $e1
	vol $8
	note e4  $06
	note fs4 $06
	note gs4 $06
	note a4  $06
	goto musicf0f36
	cmdff
musAmbiPalaceChannel0:
	vol $0
	note gs3 $18
	cmdf2
	vibrato $e1
	env $0 $00
	duty $02
musicf1037:
	vol $8
	note gs4 $18
	vol $5
	note gs4 $0c
	vol $8
	note gs4 $06
	vol $5
	note gs4 $06
	vol $8
	note gs4 $1e
	vol $5
	note gs4 $06
	vol $8
	note gs4 $0c
	note a4  $0c
	rest $06
	vol $5
	note a4  $06
	vol $8
	note a4  $0c
	rest $06
	vol $5
	note a4  $06
	vol $8
	note a4  $0c
	rest $06
	vol $5
	note a4  $06
	vol $8
	note fs4 $0c
	note cs4 $0c
	note e4  $0c
	note ds4 $0c
	note e4  $0c
	note cs4 $0c
	note gs4 $12
	vol $5
	note gs4 $06
	vol $8
	note gs4 $0c
	note b3  $0c
	note gs3 $0c
	rest $06
	vol $5
	note gs3 $06
	vol $8
	note gs3 $0c
	note a3  $0c
	note d4  $0c
	note cs4 $0c
	note b3  $0c
	note a3  $0c
	note fs3 $0c
	rest $06
	vol $5
	note fs3 $06
	vol $8
	note fs3 $0c
	note a3  $0c
	vol $5
	note a3  $0c
	rest $0c
	vol $8
	note a3  $0c
	note b3  $0c
	note a3  $0c
	rest $06
	vol $5
	note a3  $06
	vol $8
	note fs3 $0c
	rest $06
	vol $5
	note fs3 $06
	vol $8
	note a3  $0c
	note g3  $0c
	note fs3 $0c
	note d3  $0c
	note g3  $0c
	rest $06
	vol $5
	note g3  $06
	vol $8
	note g3  $0c
	note a3  $0c
	note b3  $0c
	rest $06
	vol $5
	note b3  $06
	vol $8
	note b3  $0c
	note cs4 $0c
	note d4  $0c
	note cs4 $0c
	note b3  $0c
	note fs3 $0c
	note a3  $0c
	rest $06
	vol $5
	note a3  $06
	vol $8
	note b3  $0c
	rest $06
	vol $5
	note b3  $06
	vol $8
	note fs3 $24
	note a3  $0c
	note e4  $0c
	note d4  $0c
	note cs4 $0c
	note b3  $0c
	note d4  $0c
	rest $06
	vol $5
	note d4  $06
	vol $8
	note a3  $0c
	rest $06
	vol $5
	note a3  $06
	vol $8
	note g3  $18
	note fs3 $18
	note e3  $0c
	vol $5
	note e3  $0c
	vol $8
	note e4  $0c
	note d4  $0c
	note cs4 $0c
	rest $06
	vol $5
	note cs4 $06
	vol $8
	note b3  $0c
	rest $06
	vol $5
	note b3  $06
	vol $8
	note d4  $0c
	rest $06
	vol $5
	note d4  $06
	vol $8
	note cs4 $0c
	note d4  $0c
	note b3  $18
	note as3 $12
	rest $06
	note b2  $24
	note c3  $0c
	note ds3 $0c
	note e3  $0c
	note fs3 $0c
	note g3  $0c
	note a3  $18
	note g3  $0c
	note fs3 $0c
	note c4  $0c
	rest $06
	vol $5
	note c4  $06
	vol $8
	note b3  $0c
	rest $06
	vol $5
	note b3  $06
	goto musicf1037
	cmdff

musAmbiPalaceChannel4:
	rest $18
musicf115f:
	duty $0e
	note e3  $1e
	rest $06
	note e3  $06
	rest $06
	note e3  $18
	rest $0c
	note e3  $06
	rest $06
	duty $0e
	note e3  $12
	rest $06
	note e3  $12
	rest $06
	note e3  $12
	rest $06
	note a2  $12
	rest $06
	note b2  $12
	rest $06
	note b2  $12
	rest $06
	note e3  $0c
	note ds3 $0c
	note e3  $0c
	note b2  $0c
	note gs2 $0c
	note a2  $0c
	note gs2 $0c
	note fs2 $0c
	note a2  $0c
	duty $0f
	note a2  $0c
	duty $0e
	note g2  $0c
	note fs2 $0c
	note b2  $0c
	duty $0f
	note b2  $0c
	duty $0e
	note b2  $0c
	duty $0f
	note b2  $0c
	duty $0e
	note e2  $30
	note d3  $30
	note b2  $30
	note e2  $12
	rest $06
	note e2  $12
	rest $06
	note e2  $1e
	rest $06
	note gs2 $0c
	note a2  $18
	note e3  $0c
	duty $0e
	note cs3 $0c
	note e3  $0c
	duty $0f
	note e3  $0c
	duty $0e
	note e3  $0c
	note b2  $0c
	note cs3 $0c
	duty $0f
	note cs3 $0c
	duty $0e
	note b2  $0c
	note e3  $0c
	note d3  $0c
	duty $0f
	note d3  $0c
	duty $0e
	note fs3 $0c
	duty $0f
	note fs3 $0c
	duty $0e
	note a2  $24
	note fs2 $0c
	note b2  $12
	rest $06
	note b2  $12
	rest $06
	note e3  $30
	note d3  $30
	note cs3 $30
	note as2 $30
	note b2  $0c
	duty $0f
	note b2  $0c
	duty $0e
	note b2  $0c
	note a2  $0c
	note g2  $18
	note fs2 $0c
	note g2  $0c
	note e2  $18
	note fs2 $0c
	note e2  $0c
	note ds2 $0c
	note fs2 $0c
	note a2  $0c
	note c3  $0c
	goto musicf115f
	cmdff

.define musAmbiPalaceChannel6 MUSIC_CHANNEL_FALLBACK EXPORT
