musAncientTombStart:

musAncientTombChannel1:
	vibrato $00
	env $0 $00
	cmdf2
	duty $02
musicf7b58:
	vol $0
	note gs3 $ff
	note gs3 $21
	vol $6
	note d5  $03
	rest $03
	vol $5
	note d5  $03
	rest $03
	vol $4
	note d5  $03
	rest $03
	vol $4
	note d5  $03
	rest $03
	vol $4
	note d5  $03
	rest $2d
	vol $6
	note gs5 $03
	rest $03
	vol $5
	note gs5 $03
	rest $03
	vol $4
	note gs5 $03
	rest $03
	vol $4
	note gs5 $03
	rest $03
	vol $4
	note gs5 $03
	rest $3f
	vol $6
	note d5  $03
	rest $03
	vol $5
	note d5  $03
	rest $03
	vol $4
	note d5  $03
	rest $03
	vol $6
	note gs5 $03
	rest $03
	vol $5
	note gs5 $03
	rest $03
	vol $4
	note gs5 $03
	rest $03
	vol $4
	note gs5 $03
	rest $03
	vol $4
	note gs5 $03
	rest $ff
	vol $0
	note gs3 $72
	vol $6
	note e5  $03
	rest $03
	vol $5
	note e5  $03
	rest $03
	vol $4
	note e5  $03
	rest $03
	vol $4
	note e5  $03
	rest $03
	vol $4
	note e5  $03
	rest $2d
	vol $6
	note as5 $03
	rest $03
	vol $5
	note as5 $03
	rest $03
	vol $4
	note as5 $03
	rest $03
	vol $4
	note as5 $03
	rest $03
	vol $4
	note as5 $03
	rest $3f
	vol $6
	note e5  $03
	rest $03
	vol $5
	note e5  $03
	rest $03
	vol $4
	note e5  $03
	rest $03
	vol $6
	note as5 $03
	rest $03
	vol $5
	note as5 $03
	rest $03
	vol $4
	note as5 $03
	rest $03
	vol $4
	note as5 $03
	rest $03
	vol $4
	note as5 $03
	rest $51
	vol $4
	note c6  $09
	vol $7
	note c6  $09
	vol $5
	note c6  $04
	rest $05
	vol $4
	note c6  $04
	rest $05
	note fs5 $09
	vol $6
	note fs5 $09
	vol $4
	note fs5 $04
	rest $05
	vol $3
	note fs5 $04
	rest $05
	note as5 $09
	vol $6
	note as5 $09
	vol $5
	note as5 $04
	rest $05
	vol $4
	note as5 $04
	rest $05
	vol $3
	note e5  $09
	vol $6
	note e5  $09
	vol $4
	note e5  $04
	rest $05
	vol $3
	note e5  $04
	rest $05
	vol $3
	note e5  $04
	rest $05
	vol $2
	note e5  $04
	rest $29
	vol $3
	note e6  $03
	rest $06
	vol $6
	note e6  $06
	rest $03
	vol $6
	note as5 $03
	rest $06
	vol $5
	note as5 $09
	rest $04
	vol $3
	note as5 $09
	rest $05
	vol $1
	note as5 $09
	rest $1b
	goto musicf7b58
	cmdff

musAncientTombChannel0:
	vibrato $00
	env $0 $00
	cmdf2
	duty $01
musicf7c85:
	vol $6
	note gs2 $24
	vol $6
	note a2  $24
	note gs2 $24
	note e2  $24
	note gs2 $24
	note a2  $24
	note gs2 $24
	note e2  $24
	duty $02
	vol $7
	note a4  $03
	rest $03
	vol $6
	note a4  $03
	rest $03
	vol $4
	note a4  $03
	rest $03
	vol $4
	note a4  $03
	rest $03
	vol $3
	note a4  $03
	rest $2d
	vol $7
	note d5  $03
	rest $03
	vol $6
	note d5  $03
	rest $03
	vol $4
	note d5  $03
	rest $03
	vol $4
	note d5  $03
	rest $03
	vol $3
	note d5  $03
	rest $3f
	vol $7
	note a4  $03
	rest $03
	vol $6
	note a4  $03
	rest $03
	vol $4
	note a4  $03
	rest $03
	vol $7
	note d5  $03
	rest $03
	vol $6
	note d5  $03
	rest $03
	vol $4
	note d5  $03
	rest $03
	vol $7
	note a3  $03
	rest $03
	vol $6
	note a3  $03
	rest $03
	vol $4
	note a3  $03
	rest $03
	vol $7
	note d4  $03
	rest $03
	vol $6
	note d4  $03
	rest $03
	vol $4
	note d4  $03
	rest $03
	vol $7
	note gs3 $03
	rest $03
	vol $6
	note gs3 $03
	rest $03
	vol $4
	note gs3 $03
	rest $03
	vol $4
	note gs3 $03
	rest $03
	vol $3
	note gs3 $03
	rest $1b
	duty $01
	vol $6
	note gs2 $24
	note a2  $24
	note gs2 $24
	note a2  $24
	note as2 $24
	note b2  $24
	note as2 $24
	note f2  $24
	duty $02
	vol $7
	note a4  $03
	rest $03
	vol $6
	note a4  $03
	rest $03
	vol $4
	note a4  $03
	rest $03
	vol $4
	note a4  $03
	rest $03
	vol $3
	note a4  $03
	rest $2d
	vol $7
	note ds5 $03
	rest $03
	vol $6
	note ds5 $03
	rest $03
	vol $4
	note ds5 $03
	rest $03
	vol $4
	note ds5 $03
	rest $03
	vol $3
	note ds5 $03
	rest $3f
	vol $7
	note a4  $03
	rest $03
	vol $6
	note a4  $03
	rest $03
	vol $4
	note a4  $03
	rest $03
	vol $7
	note ds5 $03
	rest $03
	vol $6
	note ds5 $03
	rest $03
	vol $4
	note ds5 $03
	rest $03
	vol $7
	note a3  $03
	rest $03
	vol $6
	note a3  $03
	rest $03
	vol $4
	note a3  $03
	rest $03
	vol $7
	note d4  $03
	rest $03
	vol $6
	note d4  $03
	rest $03
	vol $4
	note d4  $03
	rest $03
	vol $7
	note gs3 $03
	rest $03
	vol $6
	note gs3 $03
	rest $03
	vol $4
	note gs3 $03
	rest $03
	vol $4
	note gs3 $03
	rest $03
	vol $3
	note gs3 $03
	rest $1b
	vol $3
	note fs5 $09
	vol $6
	note fs5 $09
	vol $4
	note fs5 $06
	rest $03
	vol $2
	note fs5 $06
	rest $03
	vol $3
	note c5  $09
	vol $6
	note c5  $09
	vol $4
	note c5  $06
	rest $03
	vol $2
	note c5  $06
	rest $03
	vol $3
	note e5  $09
	vol $6
	note e5  $09
	vol $4
	note e5  $06
	rest $03
	vol $2
	note e5  $06
	rest $03
	vol $3
	note as4 $09
	vol $6
	note as4 $09
	vol $4
	note as4 $06
	rest $03
	vol $3
	note as4 $06
	rest $03
	vol $2
	note as4 $06
	rest $03
	vol $2
	note as4 $06
	rest $27
	vol $3
	note as5 $06
	rest $03
	vol $6
	note as5 $06
	rest $03
	note e5  $06
	rest $03
	vol $5
	note e5  $09
	rest $04
	vol $2
	note e5  $09
	rest $05
	vol $1
	note e5  $09
	rest $1b
	duty $01
	goto musicf7c85
	cmdff

musAncientTombChannel4:
	cmdf2
musicf7e2a:
	duty $0e
	note d2  $24
	note ds2 $24
	note d2  $24
	note as1 $24
	note d2  $24
	note ds2 $24
	note d2  $24
	note as1 $24
	note d2  $24
	note ds2 $24
	note d2  $24
	note as1 $24
	note d2  $24
	note ds2 $24
	note d2  $24
	note as1 $24
	note d2  $24
	note ds2 $24
	note d2  $24
	note ds2 $24
	note e2  $24
	note f2  $24
	note e2  $24
	note b1  $24
	note e2  $24
	note f2  $24
	note e2  $24
	note b1  $24
	note e2  $24
	note f2  $24
	note e2  $24
	note f2  $24
	rest $ff
	rest $21
	goto musicf7e2a
	cmdff

.define musAncientTombChannel6 MUSIC_CHANNEL_FALLBACK EXPORT
