musFairyForestStart:

musFairyForestChannel1:
	cmdf2
	vibrato $e1
	env $0 $00
	duty $02
musicf23a1:
	vol $6
	note b5  $1c
	vol $6
	note as5 $12
	note b5  $0a
	note e5  $1c
	note ds5 $12
	note e5  $0a
	note as5 $1c
	note a5  $12
	note as5 $0a
	note fs5 $1c
	note f5  $12
	note fs5 $0a
	note b5  $1c
	note as5 $12
	note b5  $0a
	note e6  $12
	note b5  $0a
	note a5  $12
	note gs5 $0a
	note f5  $2e
	note b4  $05
	rest $02
	vol $5
	note b4  $05
	rest $02
	vol $3
	note b4  $05
	vol $6
	note b4  $09
	note f5  $0a
	note b5  $04
	rest $03
	vol $5
	note b5  $04
	rest $03
	vol $3
	note b5  $04
	rest $03
	vol $3
	note b5  $04
	rest $03
	vol $6
	note b5  $1c
	note as5 $12
	note b5  $0a
	note e5  $0e
	rest $04
	note e5  $0a
	note ds5 $12
	note e5  $0a
	note cs6 $1c
	note c6  $12
	note cs6 $0a
	note fs5 $0e
	rest $04
	note fs5 $0a
	note f5  $12
	note fs5 $0a
	note ds6 $1c
	vol $6
	note cs6 $09
	note ds6 $09
	note cs6 $0a
	note b5  $04
	rest $03
	vol $5
	note b5  $04
	rest $03
	vol $3
	note b5  $04
	rest $0a
	vol $7
	note f5  $04
	rest $03
	vol $5
	note f5  $04
	rest $03
	vol $3
	note f5  $04
	rest $0a
	vol $7
	note b4  $25
	note ds5 $09
	note g5  $0a
	vol $6
	note b5  $04
	rest $03
	vol $5
	note b5  $04
	rest $03
	vol $4
	note b5  $04
	rest $03
	vol $3
	note b5  $04
	rest $03
	vol $2
	note b5  $04
	rest $18
	goto musicf23a1
	cmdff

musFairyForestChannel0:
	cmdf2
	vibrato $e1
	env $0 $00
	duty $02
musicf2461:
	vol $6
	note gs5 $09
	note g5  $09
	note gs5 $0a
	note g5  $12
	note gs5 $0a
	note e6  $04
	rest $05
	vol $5
	note e6  $05
	rest $04
	vol $3
	note e6  $05
	rest $21
	vol $6
	note fs5 $09
	note f5  $09
	note fs5 $0a
	note f5  $12
	note fs5 $0a
	note ds5 $04
	rest $05
	vol $4
	note ds5 $05
	rest $04
	vol $3
	note ds5 $05
	rest $21
	vol $6
	note gs5 $09
	vol $6
	note g5  $09
	note gs5 $0a
	note g5  $12
	vol $6
	note gs5 $0a
	note b5  $04
	rest $05
	vol $5
	note b5  $05
	rest $04
	vol $4
	note b5  $05
	rest $2a
	vol $6
	note b4  $09
	note ds5 $0a
	vol $6
	note g5  $09
	note b5  $09
	note ds6 $0a
	note g6  $04
	rest $03
	vol $5
	note g6  $04
	rest $03
	vol $4
	note g6  $04
	rest $26
	vol $8
	note gs5 $09
	vol $6
	note g5  $09
	note gs5 $0a
	vol $7
	note g5  $12
	vol $6
	note gs5 $0a
	vol $6
	note e5  $02
	rest $02
	vol $5
	note e5  $03
	rest $02
	vol $4
	note e5  $02
	rest $03
	vol $3
	note e5  $02
	rest $02
	vol $6
	note as5 $0a
	note b5  $04
	rest $03
	vol $5
	note b5  $04
	rest $03
	vol $3
	note b5  $04
	rest $0a
	vol $6
	note as5 $09
	note a5  $09
	note as5 $0a
	note a5  $12
	note as5 $0a
	vol $6
	note fs5 $02
	rest $02
	vol $5
	note fs5 $03
	rest $02
	vol $4
	note fs5 $02
	rest $03
	vol $3
	note fs5 $02
	rest $02
	vol $6
	note c6  $0a
	note cs6 $04
	rest $03
	vol $5
	note cs6 $04
	rest $03
	vol $4
	note cs6 $04
	rest $03
	vol $3
	note cs6 $04
	rest $03
	vol $6
	note b5  $04
	rest $03
	vol $5
	note b5  $04
	rest $03
	vol $4
	note b5  $04
	rest $03
	vol $3
	note b5  $02
	rest $05
	vol $6
	note as5 $09
	note b5  $09
	note as5 $0a
	vol $6
	note g5  $04
	rest $03
	vol $5
	note g5  $04
	rest $03
	vol $4
	note g5  $04
	rest $0a
	vol $7
	note fs5 $04
	rest $03
	vol $5
	note fs5 $04
	rest $03
	vol $3
	note fs5 $04
	rest $0a
	vol $7
	note as4 $04
	rest $03
	vol $5
	note as4 $04
	rest $03
	vol $3
	note as4 $04
	rest $03
	vol $2
	note as4 $04
	rest $03
	vol $6
	note fs4 $04
	rest $05
	note b4  $05
	rest $04
	note ds5 $05
	rest $0e
	note ds6 $05
	rest $04
	note g6  $05
	rest $05
	note b6  $04
	rest $03
	vol $5
	note b6  $04
	rest $03
	vol $4
	note b6  $04
	rest $03
	vol $3
	note b6  $04
	rest $03
	goto musicf2461
	cmdff

musFairyForestChannel4:
musicf25a9:
	duty $18
	note e3  $07
	duty $2b
	note e3  $07
	rest $2a
	duty $18
	note b2  $07
	duty $2b
	note b2  $07
	rest $2a
	duty $18
	note fs3 $07
	duty $2b
	note fs3 $07
	rest $2a
	duty $18
	note b3  $07
	duty $2b
	note b3  $07
	rest $2a
	duty $18
	note e3  $07
	duty $2b
	note e3  $07
	rest $2a
	duty $18
	note b2  $07
	duty $2b
	note b2  $07
	rest $2a
	duty $18
	note c3  $2e
	note b2  $0a
	duty $2b
	note b2  $09
	rest $2f
	duty $18
	note e3  $07
	duty $2b
	note e3  $07
	rest $2a
	duty $18
	note b2  $07
	duty $2b
	note b2  $07
	rest $2a
	duty $18
	note fs3 $07
	duty $2b
	note fs3 $07
	rest $2a
	duty $18
	note cs3 $07
	duty $2b
	note cs3 $07
	rest $2a
	duty $18
	note b3  $07
	duty $2b
	note b3  $07
	rest $0e
	duty $18
	note fs3 $07
	duty $2b
	note fs3 $07
	rest $0e
	duty $18
	note b2  $07
	duty $2b
	note b2  $07
	rest $0e
	duty $18
	note f2  $07
	duty $2b
	note f2  $07
	rest $0e
	duty $18
	note b2  $07
	duty $2b
	note b2  $07
	rest $46
	duty $18
	note b2  $07
	duty $2b
	note b2  $07
	rest $0e
	goto musicf25a9
	cmdff

musFairyForestChannel6:
musicf2659:
	vol $6
	note $24 $09
	rest $09
	vol $3
	note $2a $0a
	note $2e $09
	rest $09
	vol $3
	note $2a $0a
	vol $6
	note $24 $09
	rest $09
	vol $3
	note $2a $0a
	note $2e $09
	rest $13
	vol $6
	note $24 $09
	rest $09
	vol $3
	note $2a $0a
	note $2e $09
	rest $09
	vol $3
	note $2a $0a
	vol $6
	note $24 $09
	rest $09
	vol $3
	note $2a $0a
	note $2e $09
	rest $13
	vol $6
	note $24 $09
	rest $09
	vol $3
	note $2a $0a
	note $2e $09
	rest $09
	vol $3
	note $2a $0a
	vol $6
	note $24 $09
	rest $09
	vol $3
	note $2a $0a
	note $2e $09
	rest $13
	vol $6
	note $24 $09
	rest $09
	vol $3
	note $2a $0a
	note $2e $09
	rest $09
	vol $3
	note $2a $0a
	vol $6
	note $24 $09
	rest $09
	vol $3
	note $2a $0a
	note $2e $09
	rest $13
	vol $6
	note $24 $09
	rest $09
	vol $3
	note $2a $0a
	note $2e $09
	rest $09
	vol $3
	note $2a $0a
	vol $6
	note $24 $09
	rest $09
	vol $3
	note $2a $0a
	note $2e $09
	rest $13
	vol $6
	note $24 $09
	rest $09
	vol $3
	note $2a $0a
	note $2e $09
	rest $09
	vol $3
	note $2a $0a
	vol $6
	note $24 $09
	rest $09
	vol $3
	note $2a $0a
	note $2e $09
	rest $13
	vol $6
	note $24 $09
	rest $09
	vol $3
	note $2a $0a
	note $2e $09
	rest $09
	vol $3
	note $2a $0a
	vol $6
	note $24 $09
	rest $09
	vol $3
	note $2a $0a
	note $2e $09
	rest $13
	vol $6
	note $24 $09
	rest $09
	vol $3
	note $2a $0a
	note $2e $09
	rest $09
	vol $3
	note $2a $0a
	vol $6
	note $24 $09
	rest $09
	vol $3
	note $2a $0a
	note $2e $09
	rest $13
	goto musicf2659
	cmdff
