musJabuJabusBellyStart:

musJabuJabusBellyChannel1:
	vibrato $e1
	env $0 $00
	cmdf2
	duty $01
musicf3770:
	vol $7
	note e4  $2c
	vol $7
	note ds4 $2c
	note f4  $2c
	note e4  $2c
	note d4  $42
	note cs4 $0b
	note c4  $0b
	note as3 $21
	vibrato $01
	vol $3
	note as3 $0b
	vibrato $e1
	vol $7
	note g3  $2c
	vibrato $01
	vol $3
	note g3  $2c
	vibrato $e1
	vol $7
	note a3  $2c
	note e4  $2c
	note a4  $2c
	note as4 $58
	note ds4 $2c
	note e4  $16
	vibrato $01
	vol $3
	note e4  $16
	vibrato $e1
	vol $7
	note a3  $16
	note e3  $16
	note f3  $16
	note cs3 $16
	note a3  $16
	note e3  $16
	note f3  $16
	note cs3 $16
	note cs4 $58
	note e3  $42
	vibrato $01
	vol $3
	note e3  $16
	vibrato $e1
	vol $7
	note b3  $16
	note fs3 $16
	note g3  $16
	note ds3 $16
	note b3  $16
	note fs3 $16
	note g3  $16
	note ds3 $16
	note d4  $58
	note f3  $42
	vibrato $01
	vol $3
	note f3  $15
	rest $01
	vibrato $e1
	goto musicf3770
	cmdff

musJabuJabusBellyChannel0:
	vibrato $00
	env $0 $00
	cmdf2
	duty $02
musicf37ec:
	vol $5
	note a4  $0b
	rest $0b
	note as4 $0b
	vol $2
	note a4  $0b
	vol $5
	note e5  $0b
	vol $2
	note as4 $0b
	vol $5
	note a4  $0b
	vol $2
	note e5  $0b
	vol $5
	note as4 $0b
	vol $2
	note a4  $0b
	vol $5
	note e5  $0b
	vol $2
	note as4 $0b
	vol $5
	note a4  $0b
	vol $2
	note e5  $0b
	vol $5
	note as4 $0b
	vol $2
	note a4  $0b
	vol $5
	note g4  $0b
	vol $2
	note as4 $0b
	vol $5
	note gs4 $0b
	vol $2
	note g4  $0b
	vol $5
	note d5  $0b
	vol $2
	note gs4 $0b
	vol $5
	note g4  $0b
	vol $2
	note d5  $0b
	vol $5
	note gs4 $0b
	vol $2
	note g4  $0b
	vol $5
	note d5  $0b
	vol $2
	note gs4 $0b
	vol $5
	note g4  $0b
	vol $2
	note d5  $0b
	vol $5
	note gs4 $0b
	vol $2
	note g4  $0b
	vol $5
	note a4  $0b
	vol $2
	note gs4 $0b
	vol $5
	note as4 $0b
	vol $2
	note a4  $0b
	vol $5
	note e5  $0b
	vol $2
	note as4 $0b
	vol $5
	note a4  $0b
	vol $2
	note e5  $0b
	vol $5
	note as4 $0b
	vol $2
	note a4  $0b
	vol $5
	note e5  $0b
	vol $2
	note as4 $0b
	vol $5
	note a4  $0b
	vol $2
	note e5  $0b
	vol $5
	note as4 $0b
	vol $2
	note a4  $0b
	vol $5
	note g4  $0b
	vol $2
	note as4 $0b
	vol $5
	note gs4 $0b
	vol $2
	note g4  $0b
	vol $5
	note d5  $0b
	vol $2
	note gs4 $0b
	vol $5
	note g4  $0b
	vol $2
	note d5  $0b
	vol $5
	note gs4 $0b
	vol $2
	note g4  $0b
	vol $5
	note d5  $0b
	vol $2
	note gs4 $0b
	vol $5
	note g4  $0b
	vol $2
	note d5  $0b
	vol $5
	note gs4 $0b
	vol $2
	note g4  $0b
	vol $5
	note a4  $0b
	vol $2
	note gs4 $0b
	vol $5
	note as4 $0b
	vol $2
	note a4  $0b
	vol $5
	note e5  $0b
	vol $2
	note as4 $0b
	vol $5
	note a4  $0b
	vol $2
	note e5  $0b
	vol $5
	note as4 $0b
	vol $2
	note a4  $0b
	vol $5
	note e5  $0b
	vol $2
	note as4 $0b
	vol $5
	note a4  $0b
	vol $2
	note e5  $0b
	vol $5
	note as4 $0b
	vol $2
	note a4  $0b
	vol $5
	note g4  $0b
	vol $2
	note as4 $0b
	vol $5
	note gs4 $0b
	vol $2
	note g4  $0b
	vol $5
	note d5  $0b
	vol $2
	note gs4 $0b
	vol $5
	note g4  $0b
	vol $2
	note d5  $0b
	vol $5
	note gs4 $0b
	vol $2
	note g4  $0b
	vol $5
	note d5  $0b
	vol $2
	note gs4 $0b
	vol $5
	note g4  $0b
	vol $2
	note d5  $0b
	vol $5
	note gs4 $0b
	vol $2
	note g4  $0b
	vol $5
	note b4  $0b
	rest $0b
	note c5  $0b
	vol $2
	note b4  $0b
	vol $5
	note fs5 $0b
	vol $2
	note c5  $0b
	vol $5
	note b4  $0b
	vol $2
	note fs5 $0b
	vol $5
	note c5  $0b
	vol $2
	note b4  $0b
	vol $5
	note fs5 $0b
	vol $2
	note c5  $0b
	vol $5
	note b4  $0b
	vol $2
	note fs5 $0b
	vol $5
	note c5  $0b
	vol $2
	note b4  $0b
	vol $5
	note cs5 $0b
	vol $2
	note c5  $0b
	vol $5
	note d5  $0b
	vol $2
	note cs5 $0b
	vol $5
	note gs5 $0b
	vol $2
	note d5  $0b
	vol $5
	note cs5 $0b
	vol $2
	note gs5 $0b
	vol $5
	note d5  $0b
	vol $2
	note cs5 $0b
	vol $5
	note gs5 $0b
	vol $2
	note d5  $0b
	vol $5
	note cs5 $0b
	vol $2
	note gs5 $0b
	vol $5
	note d5  $0b
	vol $2
	note cs5 $0b
	goto musicf37ec
	cmdff

musJabuJabusBellyChannel4:
	cmdf2
musicf396d:
	duty $0e
	note a2  $0b
	duty $0f
	note a2  $0b
	duty $0e
	note a2  $0b
	duty $0f
	note a2  $0b
	rest $2c
	duty $0e
	note a2  $0b
	duty $0f
	note a2  $0b
	duty $0e
	note a2  $0b
	duty $0f
	note a2  $0b
	rest $2c
	duty $0e
	note g2  $0b
	duty $0f
	note g2  $0b
	duty $0e
	note g2  $0b
	duty $0f
	note g2  $0b
	rest $2c
	duty $0e
	note g2  $0b
	duty $0f
	note g2  $0b
	duty $0e
	note g2  $0b
	duty $0f
	note g2  $0b
	rest $2c
	duty $0e
	note a2  $0b
	duty $0f
	note a2  $0b
	duty $0e
	note a2  $0b
	duty $0f
	note a2  $0b
	rest $2c
	duty $0e
	note a2  $0b
	duty $0f
	note a2  $0b
	duty $0e
	note a2  $0b
	duty $0f
	note a2  $0b
	rest $2c
	duty $0e
	note g2  $0b
	duty $0f
	note g2  $0b
	duty $0e
	note g2  $0b
	duty $0f
	note g2  $0b
	rest $2c
	duty $0e
	note g2  $0b
	duty $0f
	note g2  $0b
	duty $0e
	note g2  $0b
	duty $0f
	note g2  $0b
	rest $2c
	duty $0e
	note a2  $0b
	duty $0f
	note a2  $0b
	duty $0e
	note a2  $0b
	duty $0f
	note a2  $0b
	rest $2c
	duty $0e
	note a2  $0b
	duty $0f
	note a2  $0b
	duty $0e
	note a2  $0b
	duty $0f
	note a2  $0b
	rest $2c
	duty $0e
	note gs2 $0b
	duty $0f
	note gs2 $0b
	duty $0e
	note gs2 $0b
	duty $0f
	note gs2 $0b
	rest $2c
	duty $0e
	note gs2 $0b
	duty $0f
	note gs2 $0b
	duty $0e
	note gs2 $0b
	duty $0f
	note gs2 $0b
	rest $2c
	duty $0e
	note as2 $0b
	duty $0f
	note as2 $0b
	duty $0e
	note as2 $0b
	duty $0f
	note as2 $0b
	rest $2c
	duty $0e
	note as2 $0b
	duty $0f
	note as2 $0b
	duty $0e
	note as2 $0b
	duty $0f
	note as2 $0b
	rest $2c
	duty $0e
	note b2  $0b
	duty $0f
	note b2  $0b
	duty $0e
	note b2  $0b
	duty $0f
	note b2  $0b
	rest $2c
	duty $0e
	note b2  $0b
	duty $0f
	note b2  $0b
	duty $0e
	note b2  $0b
	duty $0f
	note b2  $0b
	rest $2c
	goto musicf396d
	cmdff

.define musJabuJabusBellyChannel6 MUSIC_CHANNEL_FALLBACK EXPORT
