musLynnaCityStart:

musLynnaCityChannel1:
	vibrato $e1
	env $0 $00
	cmdf2
	duty $02
musicef079:
	vol $6
	note g5  $24
	vol $6
	note c6  $24
	note a5  $24
	rest $12
	note b5  $09
	note c6  $09
	note b5  $12
	note a5  $09
	rest $03
	vol $3
	note a5  $03
	rest $03
	vol $6
	note g5  $09
	rest $03
	vol $3
	note g5  $03
	rest $03
	vol $6
	note f5  $09
	rest $03
	vol $3
	note f5  $03
	rest $03
	vol $6
	note e5  $12
	note f5  $09
	rest $03
	vol $3
	note f5  $03
	rest $03
	vol $6
	note g5  $09
	vol $3
	note g5  $09
	rest $12
	vol $6
	note a5  $12
	note e6  $09
	rest $09
	note e6  $09
	rest $03
	vol $5
	note e6  $03
	rest $06
	vol $3
	note e6  $03
	rest $06
	vol $2
	note e6  $03
	rest $27
	vol $6
	note d6  $09
	note c6  $09
	note b5  $09
	note a5  $09
	note g5  $12
	note a5  $09
	rest $03
	vol $3
	note a5  $03
	rest $03
	vol $6
	note g5  $09
	rest $09
	note a5  $09
	rest $03
	vol $3
	note a5  $03
	rest $03
	vol $6
	note g5  $12
	vol $3
	note g5  $09
	rest $09
	vol $6
	note f5  $12
	note g5  $12
	note a5  $24
	note f5  $24
	note b5  $24
	vibrato $01
	vol $3
	note b5  $09
	rest $09
	vibrato $e1
	vol $6
	note a5  $12
	note g5  $24
	note e5  $12
	note g5  $12
	note c6  $24
	rest $12
	note a5  $09
	note g5  $09
	note fs5 $12
	note g5  $12
	note a5  $12
	note b5  $12
	vol $6
	note c6  $12
	vol $6
	note b5  $12
	note c6  $12
	note a5  $12
	note d6  $09
	rest $03
	vol $5
	note d6  $03
	rest $03
	vol $3
	note d6  $03
	rest $03
	vol $2
	note d6  $03
	rest $09
	vol $6
	note g5  $09
	rest $03
	vol $3
	note g5  $03
	rest $03
	vol $6
	note b5  $09
	vol $6
	note a5  $09
	note g5  $24
	vibrato $01
	vol $3
	note g5  $0f
	rest $03
	vibrato $e1
	vol $6
	note g5  $09
	rest $09
	goto musicef079
	cmdff

musLynnaCityChannel0:
	vibrato $00
	env $0 $00
	cmdf2
	duty $02
musicef173:
	vol $6
	note e4  $15
	vol $3
	note e4  $09
	rest $06
	vol $6
	note c4  $15
	vol $3
	note c4  $09
	rest $06
	vol $6
	note f4  $15
	vol $3
	note f4  $09
	rest $06
	vol $6
	note d4  $18
	vol $3
	note d4  $09
	rest $03
	vol $6
	note g4  $12
	note f4  $09
	rest $03
	vol $3
	note f4  $03
	rest $03
	vol $6
	note e4  $09
	rest $03
	vol $3
	note e4  $03
	rest $03
	vol $6
	note d4  $09
	rest $03
	vol $3
	note d4  $03
	rest $03
	vol $6
	note c4  $12
	note d4  $09
	rest $03
	vol $3
	note d4  $03
	rest $03
	vol $6
	note e4  $09
	rest $03
	vol $3
	note e4  $03
	rest $03
	vol $2
	note e4  $03
	rest $0f
	vol $6
	note f4  $15
	vol $3
	note f4  $09
	rest $06
	vol $6
	note d4  $15
	vol $3
	note d4  $09
	rest $06
	vol $6
	note fs4 $15
	vol $3
	note fs4 $09
	rest $06
	vol $6
	note d4  $15
	vol $3
	note d4  $09
	rest $06
	vol $6
	note b3  $12
	note c4  $09
	rest $03
	vol $3
	note c4  $03
	rest $03
	vol $6
	note b3  $09
	rest $03
	vol $3
	note b3  $03
	rest $03
	vol $6
	note d4  $09
	rest $03
	vol $3
	note d4  $03
	rest $03
	vol $6
	note g4  $09
	rest $03
	vol $3
	note g4  $03
	rest $03
	vol $6
	note d4  $09
	rest $03
	vol $3
	note d4  $03
	rest $03
	vol $6
	note b3  $09
	rest $03
	vol $3
	note b3  $03
	rest $15
	vol $6
	note f4  $15
	vol $3
	note f4  $09
	rest $06
	vol $6
	note d4  $15
	vol $3
	note d4  $09
	rest $06
	vol $6
	note g4  $15
	vol $3
	note g4  $09
	rest $06
	vol $6
	note f4  $15
	vol $3
	note f4  $09
	rest $06
	vol $6
	note e4  $15
	vol $3
	note e4  $09
	rest $06
	vol $6
	note d4  $15
	vol $3
	note d4  $09
	rest $06
	vol $6
	note c4  $15
	vol $3
	note c4  $09
	rest $06
	vol $6
	note b3  $15
	vol $3
	note b3  $09
	rest $06
	vol $6
	note a3  $12
	note d4  $09
	rest $09
	note d4  $09
	rest $03
	vol $4
	note d4  $03
	rest $03
	vol $3
	note d4  $03
	rest $0f
	vol $6
	note c4  $12
	note d4  $09
	rest $09
	note d4  $09
	rest $03
	vol $4
	note d4  $03
	rest $03
	vol $3
	note d4  $03
	rest $0f
	vol $6
	note b3  $12
	vol $3
	note b3  $12
	vol $6
	note g4  $12
	vol $3
	note g4  $12
	vol $6
	note g4  $12
	note f4  $12
	note e4  $12
	note d4  $12
	goto musicef173
	cmdff

musLynnaCityChannel4:
	cmdf2
musicef2b0:
	rest $0d
	duty $2b
	note g5  $24
	duty $2b
	note c6  $24
	note a5  $24
	rest $12
	note b5  $09
	note c6  $09
	note b5  $12
	note a5  $09
	rest $03
	duty $2c
	note a5  $03
	rest $03
	duty $2b
	note g5  $09
	rest $03
	duty $2c
	note g5  $03
	rest $03
	duty $2b
	note f5  $09
	rest $03
	duty $2c
	note f5  $03
	rest $03
	duty $2b
	note e5  $12
	note f5  $09
	rest $03
	duty $2c
	note f5  $03
	rest $03
	duty $2b
	note g5  $09
	duty $2c
	note g5  $09
	rest $12
	duty $2b
	note a5  $12
	note e6  $09
	rest $09
	note e6  $09
	rest $03
	vol $3
	note e6  $03
	rest $06
	duty $2c
	note e6  $03
	rest $06
	duty $2c
	note e6  $03
	rest $27
	duty $2b
	note d6  $09
	note c6  $09
	note b5  $09
	note a5  $09
	note g5  $12
	note a5  $09
	rest $03
	duty $2c
	note a5  $03
	rest $03
	duty $2b
	note g5  $09
	rest $09
	note a5  $09
	rest $03
	duty $2c
	note a5  $03
	rest $03
	duty $2b
	note g5  $12
	duty $2c
	note g5  $09
	rest $09
	duty $2b
	note f5  $12
	note g5  $12
	note a5  $24
	note f5  $24
	note b5  $24
	duty $2c
	note b5  $09
	rest $09
	duty $2b
	note a5  $12
	note g5  $24
	note e5  $12
	note g5  $12
	note c6  $24
	rest $12
	note a5  $09
	note g5  $09
	note fs5 $12
	note g5  $12
	note a5  $12
	note b5  $12
	duty $2b
	note c6  $12
	duty $2b
	note b5  $12
	note c6  $12
	note a5  $12
	note d6  $09
	rest $03
	vol $3
	note d6  $03
	rest $03
	duty $2c
	note d6  $03
	rest $03
	duty $2c
	note d6  $03
	rest $09
	duty $2b
	note g5  $09
	rest $03
	duty $2c
	note g5  $03
	rest $03
	duty $2b
	note b5  $09
	duty $2b
	note a5  $09
	note g5  $24
	duty $2c
	note g5  $0f
	rest $03
	duty $2b
	note g5  $05
	goto musicef2b0
	cmdff

.define musLynnaCityChannel6 MUSIC_CHANNEL_FALLBACK EXPORT
