musMakuTreeStart:

musMakuTreeChannel1:
	vol $0
	note gs3 $14
musice7c68:
	vibrato $e1
	env $0 $00
	duty $02
	vol $6
	note e3  $1c
	note g3  $1c
	note d4  $1c
	note b3  $1c
	note g4  $1c
	note e4  $1c
	note d4  $1c
	note e4  $1c
	env $0 $00
	note a3  $09
	note d4  $09
	note e4  $0a
	note g4  $09
	note a4  $09
	note e4  $0a
	note fs4 $09
	note a4  $09
	note d5  $0a
	note b4  $09
	note fs5 $09
	note e5  $0a
	note b4  $09
	note d5  $09
	note g5  $0a
	note fs5 $09
	note a5  $09
	note e5  $0a
	note fs5 $09
	note a5  $09
	note d6  $0a
	note b5  $09
	note cs6 $09
	note a5  $0a
	env $0 $00
	vol $1
	note b6  $04
	note a6  $04
	note b6  $04
	note a6  $04
	vol $2
	note b6  $04
	note a6  $04
	note b6  $04
	note a6  $04
	vol $3
	note b6  $04
	note a6  $04
	note b6  $04
	note a6  $04
	vol $3
	note b6  $04
	note a6  $04
	vol $4
	note b6  $04
	note a6  $04
	env $0 $05
	note b6  $0e
	vol $3
	note b6  $0e
	vol $2
	note b6  $0e
	vol $1
	note b6  $5a
	env $0 $00
	vol $6
	note a3  $1c
	note gs3 $1c
	note fs3 $1c
	note e3  $1c
	note d3  $1c
	note fs3 $1c
	note e3  $1c
	note a2  $1c
	note d3  $1c
	note b2  $1c
	note e3  $1c
	env $0 $06
	note fs3 $70
	env $0 $00
	env $0 $00
	note d4  $09
	note e4  $09
	note g4  $0a
	note fs4 $09
	note e4  $09
	note d4  $0a
	note e4  $09
	note b4  $09
	note d5  $0a
	note cs5 $09
	note b4  $09
	note a4  $0a
	note b4  $09
	note e5  $09
	note a5  $0a
	note g5  $09
	note fs5 $09
	note e5  $0a
	note fs5 $09
	note a5  $09
	note d6  $0a
	note cs6 $09
	note b5  $09
	note a5  $0a
	env $0 $00
	vol $6
	note e5  $04
	note fs5 $04
	note a5  $06
	note b5  $04
	env $0 $06
	vol $4
	note d6  $0a
	vol $4
	note d6  $09
	vol $2
	note d6  $09
	vol $1
	note d6  $0a
	env $0 $00
	vol $6
	note e5  $04
	vol $6
	note fs5 $04
	note a5  $06
	note b5  $04
	env $0 $06
	vol $5
	note d6  $0a
	vol $4
	note d6  $09
	vol $2
	note d6  $09
	vol $1
	note d6  $0a
	env $0 $00
	vol $6
	note e5  $04
	vol $6
	note fs5 $04
	note a5  $06
	note b5  $04
	env $0 $06
	vol $4
	note d6  $0a
	vol $3
	note d6  $09
	vol $2
	note d6  $09
	vol $1
	note d6  $0a
	env $0 $00
	vol $1
	note g6  $04
	note a6  $04
	vol $1
	note g6  $04
	note a6  $04
	vol $2
	note g6  $04
	note a6  $04
	vol $2
	note g6  $04
	note a6  $04
	vol $3
	note g6  $04
	note a6  $04
	vol $3
	note g6  $04
	note a6  $04
	vol $4
	note g6  $04
	note a6  $04
	env $0 $07
	vol $2
	note g6  $0e
	vol $2
	note g6  $0e
	vol $1
	note g6  $0e
	vol $1
	note g6  $46
	env $0 $00
	goto musice7c68
	cmdff

musMakuTreeChannel0:
	vol $0
	note gs3 $14
musice7dbf:
	vibrato $e1
	env $0 $00
	duty $02
	vol $6
	note a2  $1c
	note d3  $1c
	note g3  $1c
	note e3  $1c
	vol $6
	note c4  $1c
	note b3  $1c
	note g3  $1c
	env $0 $04
	note a3  $2e
	env $0 $00
	env $0 $00
	vol $6
	note a3  $0a
	note d4  $09
	note e4  $09
	note g4  $0a
	note a4  $09
	vol $4
	note e4  $09
	note fs4 $0a
	note a4  $09
	note d5  $09
	note b4  $0a
	note fs5 $09
	note e5  $09
	note b4  $0a
	note d5  $09
	note g5  $09
	vol $4
	note fs5 $0a
	note a5  $09
	note e5  $09
	vol $4
	note fs5 $0a
	note a5  $09
	note d6  $09
	note b5  $0a
	env $0 $00
	vol $1
	note g6  $04
	note f6  $04
	note g6  $04
	note f6  $04
	vol $2
	note g6  $04
	note f6  $04
	note g6  $04
	note f6  $04
	vol $3
	note g6  $04
	note f6  $04
	note g6  $04
	note f6  $04
	vol $3
	note g6  $04
	note f6  $04
	vol $4
	note g6  $04
	note f6  $04
	env $0 $06
	vol $2
	note g6  $0e
	vol $2
	note g6  $0e
	vol $2
	note g6  $0e
	vol $1
	note g6  $5a
	env $0 $00
	vol $6
	note d3  $1c
	note cs3 $1c
	note b2  $1c
	note a2  $1c
	note g2  $1c
	note b2  $1c
	note a2  $1c
	note e2  $1c
	note g2  $1c
	note e2  $1c
	note a2  $1c
	note b2  $1c
	note d3  $1c
	note e3  $1c
	env $0 $06
	note g3  $31
	env $0 $00
	env $0 $00
	vol $6
	note b3  $09
	note d4  $09
	vol $4
	note g4  $0a
	note fs4 $09
	note e4  $09
	note d4  $0a
	note e4  $09
	note b4  $09
	note d5  $0a
	note cs5 $09
	note b4  $09
	note a4  $0a
	note b4  $09
	note e5  $09
	vol $4
	note a5  $0a
	note g5  $09
	note fs5 $09
	note e5  $0a
	note fs5 $09
	note a5  $09
	note d6  $0a
	note cs6 $09
	note b5  $09
	note a5  $0a
	env $0 $00
	vol $4
	note e5  $04
	note fs5 $05
	note a5  $04
	note b5  $04
	env $0 $06
	vol $3
	note d6  $0d
	vol $2
	note d6  $0e
	vol $1
	note d6  $0c
	env $0 $00
	vol $3
	note e5  $04
	note fs5 $05
	note a5  $04
	note b5  $04
	env $0 $06
	vol $2
	note d6  $0d
	vol $1
	note d6  $0e
	vol $1
	note d6  $0c
	env $0 $00
	vol $3
	note e5  $04
	note fs5 $05
	note a5  $04
	note b5  $04
	env $0 $06
	vol $2
	note d6  $0c
	vol $1
	note d6  $05
	env $0 $00
	vol $1
	note b6  $04
	note cs7 $04
	vol $1
	note b6  $04
	note cs7 $04
	vol $2
	note b6  $04
	note cs7 $04
	vol $2
	note b6  $04
	note cs7 $04
	vol $3
	note b6  $04
	note cs7 $04
	vol $3
	note b6  $04
	note cs7 $04
	vol $4
	note b6  $04
	note cs7 $04
	env $0 $06
	vol $2
	note b6  $0e
	vol $2
	note b6  $0e
	vol $2
	note b6  $0e
	vol $1
	note b6  $47
	env $0 $00
	goto musice7dbf
	cmdff

musMakuTreeChannel4:
	rest $14
musice7f16:
	duty $17
	note a3  $1c
	note d4  $1c
	note g4  $1c
	note e4  $1c
	note c5  $1c
	note b4  $1c
	note g4  $1c
	note a4  $1c
	note e4  $70
	duty $0f
	note e4  $38
	duty $0c
	note e4  $38
	rest $c4
	duty $17
	note d4  $1c
	note cs4 $1c
	note b3  $1c
	note a3  $1c
	note g3  $1c
	note b3  $1c
	note a3  $1c
	note e3  $1c
	note g3  $1c
	note e3  $1c
	note a3  $1c
	note b3  $70
	duty $0f
	note b3  $38
	duty $0c
	note b3  $38
	rest $ff
	rest $c1
	goto musice7f16
	cmdff

.define musMakuTreeChannel6 MUSIC_CHANNEL_FALLBACK EXPORT
