musMermaidsCaveStart:

musMermaidsCaveChannel1:
	cmdf2
	vibrato $00
	env $0 $00
	duty $01
musicf1539:
	vol $6
	note ds4 $21
	vol $4
	note ds4 $0b
	vol $6
	note f4  $21
	vol $4
	note f4  $0b
	vol $6
	note as4 $42
	vol $4
	note as4 $16
	vol $6
	note ds4 $21
	vol $4
	note ds4 $0b
	vol $6
	note f4  $21
	vol $4
	note f4  $0b
	vol $6
	note b4  $42
	vol $4
	note b4  $16
	vol $6
	note ds4 $21
	vol $4
	note ds4 $0b
	vol $6
	note f4  $21
	vol $4
	note f4  $0b
	vol $6
	note cs5 $21
	vol $4
	note cs5 $0b
	vol $6
	note b4  $21
	vol $4
	note b4  $0b
	vol $6
	note gs4 $21
	vol $4
	note gs4 $0b
	vol $6
	note as4 $21
	vol $4
	note as4 $0b
	rest $0e
	vol $4
	note as3 $0b
	note b3  $0b
	vol $4
	note as3 $0b
	note b3  $0b
	note ds4 $0b
	note e4  $0b
	note ds4 $0b
	vol $4
	note e4  $0b
	note as4 $0b
	note b4  $0b
	note ds5 $0b
	note e5  $0b
	note as5 $0b
	note b5  $0b
	note ds6 $08
	vol $6
	note e4  $21
	vol $2
	note e4  $0b
	vol $6
	note fs4 $21
	vol $4
	note fs4 $0b
	vol $6
	note b4  $42
	vol $3
	note b4  $16
	vol $6
	note e4  $21
	vol $4
	note e4  $0b
	vol $6
	note fs4 $21
	vol $4
	note fs4 $0b
	vol $6
	note cs5 $42
	vol $3
	note cs5 $16
	vol $6
	note b4  $21
	vol $4
	note b4  $0b
	vol $6
	note cs5 $21
	vol $4
	note cs5 $0b
	vol $6
	note ds5 $21
	vol $4
	note ds5 $0b
	vol $6
	note fs5 $21
	vol $4
	note fs5 $0b
	vol $6
	note e5  $21
	vol $4
	note e5  $0b
	vol $6
	note a5  $2c
	rest $0b
	vol $4
	note f3  $0b
	note fs3 $0b
	note f3  $0b
	note fs3 $0b
	note as3 $0b
	note b3  $0b
	note as3 $0b
	note b3  $0b
	note f4  $0b
	note fs4 $0b
	note as4 $0b
	note b4  $0b
	note f5  $0b
	note fs5 $0b
	note c6  $0b
	note cs6 $0b
	rest $05
	vol $2
	note cs6 $0b
	rest $06
	vol $1
	note cs6 $0b
	rest $2c
	goto musicf1539
	cmdff

musMermaidsCaveChannel0:
	cmdf2
	vibrato $00
	env $0 $00
	duty $02
musicf1623:
	vol $6
	note as5 $05
	rest $06
	note f5  $05
	vol $2
	note as5 $06
	vol $6
	note ds5 $05
	vol $2
	note f5  $06
	vol $6
	note f5  $05
	vol $2
	note ds5 $06
	vol $6
	note as4 $05
	vol $2
	note f5  $06
	vol $6
	note ds5 $05
	vol $2
	note as4 $06
	vol $6
	note f5  $05
	vol $2
	note ds5 $06
	vol $6
	note ds5 $05
	vol $2
	note f5  $06
	vol $6
	note as5 $05
	vol $2
	note ds5 $06
	vol $6
	note f5  $05
	vol $2
	note as5 $06
	vol $6
	note ds5 $05
	vol $2
	note f5  $06
	vol $6
	note f5  $05
	vol $2
	note ds5 $06
	vol $6
	note as4 $05
	vol $2
	note f5  $06
	vol $6
	note ds5 $05
	vol $2
	note as4 $06
	vol $6
	note f5  $05
	vol $2
	note ds5 $06
	vol $6
	note ds5 $05
	vol $2
	note f5  $06
	vol $6
	note as5 $05
	vol $2
	note ds5 $06
	vol $6
	note f5  $05
	vol $2
	note as5 $06
	vol $6
	note ds5 $05
	vol $2
	note f5  $06
	vol $6
	note f5  $05
	vol $2
	note ds5 $06
	vol $6
	note as4 $05
	vol $2
	note f5  $06
	vol $6
	note ds5 $05
	vol $2
	note as4 $06
	vol $6
	note f5  $05
	vol $2
	note ds5 $06
	vol $6
	note ds5 $05
	vol $2
	note f5  $06
	vol $6
	note b5  $05
	vol $2
	note ds5 $06
	vol $6
	note f5  $05
	vol $2
	note b5  $06
	vol $6
	note ds5 $05
	vol $2
	note f5  $06
	vol $6
	note f5  $05
	vol $2
	note ds5 $06
	vol $6
	note b4  $05
	vol $2
	note f5  $06
	vol $6
	note ds5 $05
	vol $2
	note b4  $06
	vol $6
	note f5  $05
	vol $2
	note ds5 $06
	vol $6
	note ds5 $05
	vol $2
	note f5  $06
	vol $6
	note as5 $05
	vol $2
	note ds5 $06
	vol $6
	note f5  $05
	vol $2
	note as5 $06
	vol $6
	note ds5 $05
	vol $2
	note f5  $06
	vol $6
	note f5  $05
	vol $2
	note ds5 $06
	vol $6
	note as4 $05
	vol $2
	note f5  $06
	vol $6
	note ds5 $05
	vol $2
	note as4 $06
	vol $6
	note f5  $05
	vol $2
	note ds5 $06
	vol $6
	note ds5 $05
	vol $2
	note f5  $06
	vol $6
	note as5 $05
	vol $2
	note ds5 $06
	vol $6
	note f5  $05
	vol $2
	note as5 $06
	vol $6
	note ds5 $05
	vol $2
	note f5  $06
	vol $6
	note f5  $05
	vol $2
	note ds5 $06
	vol $6
	note as4 $05
	vol $2
	note f5  $06
	vol $6
	note ds5 $05
	vol $2
	note as4 $06
	vol $6
	note f5  $05
	vol $2
	note ds5 $06
	vol $6
	note ds5 $05
	vol $2
	note f5  $06
	vol $6
	note as5 $05
	rest $06
	note f5  $05
	vol $2
	note as5 $06
	vol $6
	note ds5 $05
	vol $2
	note f5  $06
	vol $6
	note f5  $05
	vol $2
	note ds5 $06
	vol $6
	note as4 $05
	vol $2
	note f5  $06
	vol $6
	note ds5 $05
	vol $2
	note as4 $06
	vol $6
	note e5  $05
	vol $2
	note ds5 $06
	vol $6
	note ds5 $05
	vol $2
	note e5  $06
	vol $5
	note as3 $0b
	note b3  $0b
	note as3 $0b
	note b3  $0b
	note ds4 $0b
	note e4  $0b
	note ds4 $0b
	note e4  $0b
	note as4 $0b
	note b4  $0b
	note ds5 $0b
	note e5  $0b
	note as5 $0b
	note b5  $0b
	note ds6 $0b
	note e6  $0b
	vol $6
	note b5  $05
	rest $06
	note fs5 $05
	vol $2
	note b5  $06
	vol $6
	note e5  $05
	vol $2
	note fs5 $06
	vol $6
	note fs5 $05
	vol $2
	note e5  $06
	vol $6
	note b4  $05
	vol $2
	note fs5 $06
	vol $6
	note e5  $05
	vol $2
	note b4  $06
	vol $6
	note fs5 $05
	vol $2
	note e5  $06
	vol $6
	note e5  $05
	vol $2
	note fs5 $06
	vol $6
	note b5  $05
	vol $2
	note e5  $06
	vol $6
	note fs5 $05
	vol $2
	note b5  $06
	vol $6
	note e5  $05
	vol $2
	note fs5 $06
	vol $6
	note fs5 $05
	vol $2
	note e5  $06
	vol $6
	note b4  $05
	vol $2
	note fs5 $06
	vol $6
	note e5  $05
	vol $2
	note b4  $06
	vol $6
	note fs5 $05
	vol $2
	note e5  $06
	vol $6
	note e5  $05
	vol $2
	note fs5 $06
	vol $6
	note b5  $05
	vol $2
	note e5  $06
	vol $6
	note fs5 $05
	vol $2
	note b5  $06
	vol $6
	note e5  $05
	vol $2
	note fs5 $06
	vol $6
	note fs5 $05
	vol $2
	note e5  $06
	vol $6
	note b4  $05
	vol $2
	note fs5 $06
	vol $6
	note e5  $05
	vol $2
	note b4  $06
	vol $6
	note fs5 $05
	vol $2
	note e5  $06
	vol $6
	note e5  $05
	vol $2
	note fs5 $06
	vol $6
	note b5  $05
	vol $2
	note e5  $06
	vol $6
	note fs5 $05
	vol $2
	note b5  $06
	vol $6
	note e5  $05
	vol $2
	note fs5 $06
	vol $6
	note fs5 $05
	vol $2
	note e5  $06
	vol $6
	note b4  $05
	vol $2
	note fs5 $06
	vol $6
	note e5  $05
	vol $2
	note b4  $06
	vol $6
	note fs5 $05
	vol $2
	note e5  $06
	vol $6
	note e5  $05
	vol $2
	note fs5 $06
	vol $6
	note cs6 $05
	vol $2
	note e5  $06
	vol $6
	note gs5 $05
	vol $2
	note cs6 $06
	vol $6
	note fs5 $05
	vol $2
	note gs5 $06
	vol $6
	note gs5 $05
	vol $2
	note fs5 $06
	vol $6
	note cs5 $05
	vol $2
	note gs5 $06
	vol $6
	note fs5 $05
	vol $2
	note cs5 $06
	vol $6
	note gs5 $05
	vol $2
	note fs5 $06
	vol $6
	note fs5 $05
	vol $2
	note gs5 $06
	vol $6
	note ds6 $05
	vol $2
	note fs5 $06
	vol $6
	note a5  $05
	vol $2
	note ds6 $06
	vol $6
	note gs5 $05
	vol $2
	note a5  $06
	vol $6
	note a5  $05
	vol $2
	note gs5 $06
	vol $6
	note d5  $05
	vol $2
	note a5  $06
	vol $6
	note gs5 $05
	vol $2
	note d5  $06
	vol $6
	note a5  $05
	vol $2
	note gs5 $06
	vol $6
	note gs5 $05
	vol $2
	note a5  $06
	vol $6
	note e6  $05
	vol $2
	note gs5 $06
	vol $6
	note b5  $05
	vol $2
	note e6  $06
	vol $6
	note a5  $05
	vol $2
	note b5  $06
	vol $6
	note b5  $05
	vol $2
	note a5  $06
	vol $6
	note e5  $05
	vol $2
	note b5  $06
	vol $6
	note a5  $05
	vol $2
	note e5  $06
	vol $6
	note b5  $05
	vol $2
	note a5  $06
	vol $6
	note a5  $05
	vol $2
	note b5  $06
	vol $5
	note f3  $0b
	note fs3 $0b
	note f3  $0b
	note fs3 $0b
	note as3 $0b
	note b3  $0b
	note as3 $0b
	note b3  $0b
	note f4  $0b
	note fs4 $0b
	note as4 $0b
	note b4  $0b
	note f5  $0b
	note fs5 $0b
	note c6  $0b
	note cs6 $0b
	rest $58
	goto musicf1623
	cmdff

musMermaidsCaveChannel4:
musicf1905:
	duty $0e
	note as3 $2c
	note b3  $2c
	note f4  $42
	rest $16
	note as3 $2c
	note b3  $2c
	note fs4 $42
	rest $16
	note as3 $2c
	note b3  $2c
	note gs4 $2c
	note fs4 $2c
	note ds4 $2c
	note e4  $58
	rest $84
	note b3  $2c
	note cs4 $2c
	note e4  $42
	rest $16
	note b3  $2c
	note cs4 $2c
	note g4  $42
	rest $16
	note fs4 $2c
	note gs4 $2c
	note a4  $2c
	note d5  $2c
	note c5  $2c
	note e5  $2c
	note fs5 $58
	rest $b0
	goto musicf1905
	cmdff

musMermaidsCaveChannel6:
musicf1949:
	vol $3
	note $2a $0b
	vol $1
	note $2a $0b
	note $2a $0b
	vol $1
	note $2a $0b
	vol $2
	note $2a $0b
	vol $2
	note $2a $0b
	vol $3
	note $2a $0b
	vol $4
	note $2a $0b
	rest $58
	vol $3
	note $2a $0b
	vol $1
	note $2a $0b
	note $2a $0b
	vol $1
	note $2a $0b
	vol $2
	note $2a $0b
	vol $2
	note $2a $0b
	vol $3
	note $2a $0b
	vol $4
	note $2a $0b
	rest $58
	vol $3
	note $2a $0b
	vol $1
	note $2a $0b
	note $2a $0b
	vol $1
	note $2a $0b
	vol $2
	note $2a $0b
	vol $2
	note $2a $0b
	vol $3
	note $2a $0b
	vol $4
	note $2a $0b
	rest $58
	vol $3
	note $2a $0b
	vol $1
	note $2a $0b
	note $2a $0b
	vol $1
	note $2a $0b
	vol $2
	note $2a $0b
	vol $2
	note $2a $0b
	vol $3
	note $2a $0b
	vol $4
	note $2a $0b
	rest $b0
	vol $3
	note $2a $0b
	vol $1
	note $2a $0b
	note $2a $0b
	vol $1
	note $2a $0b
	vol $2
	note $2a $0b
	vol $2
	note $2a $0b
	vol $3
	note $2a $0b
	vol $4
	note $2a $0b
	rest $58
	vol $3
	note $2a $0b
	vol $1
	note $2a $0b
	note $2a $0b
	vol $1
	note $2a $0b
	vol $2
	note $2a $0b
	vol $2
	note $2a $0b
	vol $3
	note $2a $0b
	vol $4
	note $2a $0b
	rest $58
	vol $3
	note $2a $0b
	vol $1
	note $2a $0b
	note $2a $0b
	vol $1
	note $2a $0b
	vol $2
	note $2a $0b
	vol $2
	note $2a $0b
	vol $3
	note $2a $0b
	vol $4
	note $2a $0b
	rest $58
	vol $3
	note $2a $0b
	vol $1
	note $2a $0b
	note $2a $0b
	vol $1
	note $2a $0b
	vol $2
	note $2a $0b
	vol $2
	note $2a $0b
	vol $3
	note $2a $0b
	vol $4
	note $2a $0b
	rest $b0
	vol $3
	note $2a $0b
	vol $1
	note $2a $0b
	note $2a $0b
	vol $1
	note $2a $0b
	vol $2
	note $2a $0b
	vol $2
	note $2a $0b
	vol $3
	note $2a $0b
	vol $4
	note $2a $0b
	goto musicf1949
	cmdff
