musOverworldPastStart:

musOverworldPastChannel1:
	vibrato $e1
	env $0 $00
	cmdf2
	duty $01
musicee3c8:
; Measure 1
	vol $5
	note a4  $0e
	vol $3
	note a4  $0e

	vol $5
	note e4  $0e
	vol $3
	note e4  $0e
	rest $15

	vol $5
	note a4  $03
	rest $04

	note a4  $05
	rest $02
	note b4  $05
	rest $02
	note cs5 $05
	rest $02
	note d5  $05
	rest $02
; Measure 2
	note e5  $38
	vibrato $01
	vol $3
	note e5  $0e
	rest $04

	vibrato $e1
	vol $5
	note e5  $06
	rest $04
	note e5  $05
	rest $04
	note f5  $06
	rest $03
	note g5  $06
	rest $04
; Measure 3
	note a5  $38

	vibrato $01
	vol $3
	note a5  $0e
	rest $04

	vibrato $e1
	vol $5
	note a5  $06
	rest $04
	note a5  $05
	rest $04
	note g5  $06
	rest $03
	note f5  $06
	rest $04
; Measure 4
	note g5  $09
	rest $05
	vol $3
	note g5  $03
	rest $01

	vol $5
	note f5  $0a
	note e5  $1c
	vibrato $01
	vol $3
	note e5  $1c

	vibrato $e1
	vol $5
	note e5  $09
	note f5  $09
	note e5  $0a
; Measure 5
	note d5  $07
	vol $3
	note d5  $07

	vol $5
	note d5  $07
	note e5  $07
	note f5  $1c
	vibrato $01
	vol $3
	note f5  $1c

	vibrato $e1
	vol $5
	note e5  $0e
	note d5  $0e
; Measure 6
	note c5  $07
	vol $3
	note c5  $07

	vol $5
	note c5  $07
	note d5  $07
	note e5  $1c
	vibrato $01
	vol $3
	note e5  $1c

	vibrato $e1
	vol $5
	note d5  $0e
	note c5  $0e
; Measure 7
	note b4  $07
	vol $3
	note b4  $07

	vol $5
	note b4  $07
	note cs5 $07
	note ds5 $1c
	vibrato $01
	vol $3
	note ds5 $1c

	vibrato $e1
	vol $5
	note fs5 $1c
; Measure 8
	note e5  $0e

	note e4  $01
	rest $02
	note e4  $01
	rest $05
	note e4  $01
	rest $04

	note fs4 $05
	rest $04
	note fs4 $06
	rest $03
	note fs4 $06
	rest $04

	note gs4 $1c
	vibrato $01
	vol $3
	note gs4 $1c
; Measure 9		Repeat of Measure 1
	vibrato $e1
	vol $5
	note a4  $0e
	vol $3
	note a4  $0e

	vol $5
	note e4  $0e
	vol $3
	note e4  $0e	
	rest $15

	vol $5
	note a4  $03
	rest $04

	note a4  $05
	rest $02
	note b4  $05
	rest $02

	note cs5 $05
	rest $02
	note d5  $05
	rest $02
; Measure 10
	note e5  $38
	vibrato $01
	vol $3
	note e5  $0e
	rest $04

	vibrato $e1
	vol $5
	note e5  $06
	rest $04
	note e5  $05
	rest $04
	note f5  $06
	rest $03
	note g5  $06
	rest $04
; Measure 11
	note a5  $38

	vibrato $01
	vol $3
	note a5  $0e
	rest $04

	vibrato $e1
	vol $5
	note a5  $06
	rest $04
	note a5  $05
	rest $04
	note g5  $06
	rest $03
	note f5  $06
	rest $04
; Measure 12
	note g5  $07
	rest $03
	vol $3
	note g5  $07
	rest $01

	vol $5
	note f5  $0a
	note e5  $1c
	vol $3
	note e5  $0e
	rest $0e

	vol $5
	note e5  $09
	note f5  $09
	note e5  $0a
; Measure 13
	note d5  $07
	vol $3
	note d5  $07

	vol $5
	note d5  $07
	note e5  $07
	note f5  $1c
	vibrato $01
	vol $3
	note f5  $1c

	vibrato $e1
	vol $5
	note e5  $0e
	note d5  $0e
; Measure 14
	note c5  $09
	note b4  $09
	note c5  $0a

	note d5  $09
	note c5  $09
	note d5  $0a

	note e5  $07
	vol $3
	note e5  $07
	rest $04

	vol $5
	note e5  $04
	rest $06

	note e5  $09
	note d5  $09
	note c5  $0a
; Measure 15	
	note e5  $38
	note e6  $38
; Measure 16
	note a5  $46
	rest $0e

	note e5  $03
	vol $3
	note e5  $04
	rest $02

	vol $5
	note c5  $03
	vol $3
	note c5  $04
	rest $02

	vol $5
	note a4  $04
	vol $3
	note a4  $03
	rest $03

	goto musicee3c8
	cmdff

musOverworldPastChannel0:
	vibrato $e1
	env $0 $00
	cmdf2
	duty $01
musicee57d:
	vol $5
	note cs4 $0e
	vol $3
	note cs4 $0e

	vol $5
	note d4  $09
	note cs4 $09
	note b3  $0a

	note cs4 $0e
	vol $3
	note cs4 $07

	vol $5
	note cs4 $07

	note cs4 $05
	rest $02
	note d4  $05
	rest $02
	note e4  $05
	rest $02
	note fs4 $05
	rest $02
; Measure 2	
	note g4  $15

	note a4  $05
	rest $02

	note a4  $05
	rest $02
	note b4  $05
	rest $02
	note cs5 $05
	rest $02
	note d5  $05
	rest $02

	note e5  $07
	rest $03
	vol $3
	note e5  $07
	rest $04
	vol $2
	note e5  $07

	vol $5
	note g4  $09
	note a4  $09
	note b4  $0a
; Measure 3
	note c5  $12
	note f4  $06
	rest $04

	note f4  $05
	rest $02
	note g4  $05
	rest $02
	note a4  $05
	rest $02
	note b4  $05
	rest $02

	note c5  $07
	rest $07
	vol $3
	note c5  $03
	rest $01
	vol $5
	note c5  $06
	rest $04

	note c5  $05
	rest $04	
	note b4  $06
	rest $03
	note a4  $06
	rest $04
; Measure 4
	note c5  $07
	rest $03
	vol $3
	note c5  $07
	rest $01
	vol $5
	note g4  $06
	rest $04

	note g4  $05
	rest $04
	note g4  $06
	rest $03
	note f4  $06
	rest $04

	note g4  $05
	rest $05
	vol $3
	note g4  $06
	rest $02
	vol $5
	note g4  $06
	rest $04

	note g4  $05
	rest $04
	note f4  $06
	rest $03
	note g4  $06
	rest $04
; Measure 5
	note f4  $0b
	rest $03
	note f4  $07
	note e4  $07

	note f4  $0b
	rest $03
	note f4  $07
	note g4  $07

	note a4  $1c
	note g4  $0e
	note f4  $0e
; Measure 6
	note e4  $0b
	rest $03
	note e4  $07
	note d4  $07

	note e4  $0b
	rest $03
	note e4  $07
	note f4  $07

	note g4  $1c
	note f4  $0e
	note e4  $0e
; Measure 7
	note ds4 $15
	rest $07
	note ds4 $07
	rest $03
	vol $3
	note ds4 $04

	vol $5
	note ds4 $07
	note e4  $07
	note fs4 $07
	rest $03
	vol $3
	note fs4 $04

	vol $5
	note fs4 $07
	note g4  $07

	note a4  $07
	note b4  $07
	note cs5 $07
	note d5  $07
; Measure 8
	note b4  $1c

	note d4  $05
	rest $04
	note d4  $06
	rest $03
	note d4  $06
	rest $04

	note e4  $1c
	vibrato $01
	vol $3
	note e4  $1c
; Measure 9		Repeat of M1
	vibrato $e1
	vol $5
	note cs4 $0e
	vol $3
	note cs4 $0e

	vol $5
	note d4  $09
	note cs4 $09
	note b3  $0a

	note cs4 $0e
	vol $3
	note cs4 $07

	vol $5
	note cs4 $07

	note cs4 $05
	rest $02
	note d4  $05
	rest $02
	note e4  $05
	rest $02
	note fs4 $05
	rest $02
; Measure 10		same as M2 except for beat 3
	note g4  $15

	note a4  $05
	rest $02

	note a4  $05
	rest $02
	note b4  $05
	rest $02
	note cs5 $05
	rest $02
	note d5  $05
	rest $02

	note e5  $1c		;different than M2
	note g4  $09
	note a4  $09
	note b4  $0a
; Measure 11
	note c5  $12
	note f4  $06
	rest $04

	note f4  $05
	rest $02
	note g4  $05
	rest $02
	note a4  $05
	rest $02
	note b4  $05
	rest $02

	note c5  $07		;different than M3
	rest $03
	vol $3
	note c5  $07
	rest $01

	vol $5
	note c5  $06
	rest $04

	note c5  $05
	rest $04
	note b4  $06
	rest $03
	note a4  $06
	rest $04
; Measure 12
	note c5  $07
	rest $03
	vol $3
	note c5  $07
	rest $01
	vol $5
	note g4  $06
	rest $04

	note g4  $05
	rest $04
	note g4  $06
	rest $03
	note f4  $06
	rest $04

	note g4  $05
	rest $05
	vol $3
	note g4  $06
	rest $02
	vol $5
	note g4  $06
	rest $04

	note g4  $05
	rest $04
	note f4  $06
	rest $03
	note g4  $06
	rest $04
; Measure 13
	note f4  $0b
	rest $03
	note f4  $07
	note e4  $07

	note f4  $0b
	rest $03
	note f4  $07
	note g4  $07

	note a4  $1c
	note g4  $0e
	note f4  $0e
; Measure 14	
	note a3  $1c
	note gs3 $1c
	note g3  $38
; Measure 15
	note fs3 $1c
	note d3  $1c
	note e3  $15
	rest $07

	vol $8
	note e3  $04
	rest $05
	note e4  $05
	rest $04
	note d4  $05
	rest $05
; Measure 16
	note c4  $04
	rest $05
	note b3  $05
	rest $04
	note a3  $05
	rest $05

	note b3  $04
	rest $06
	vol $5
	note b3  $05
	rest $06
	vol $3
	note b3  $04
	rest $03

	vol $8
	note a3  $04
	rest $06
	vol $5
	note a3  $05
	rest $06
	vol $3
	note a3  $04

	rest $1f		;$03+$1c
	goto musicee57d
	cmdff

musOverworldPastChannel4:
musicee79b:
; Measure 1
.rept 4
	duty $0e
	note a2  $04
	duty $0f
	note a2  $04
	rest $14
.endr
; Measure 2	
.rept 4
	duty $0e
	note g2  $04
	duty $0f
	note g2  $04
	rest $14
.endr
; Measure 3
.rept 4
	duty $0e
	note f2  $04
	duty $0f
	note f2  $04
	rest $14
.endr
; Measure 4
.rept 4
	duty $0e
	note c3  $04
	duty $0f
	note c3  $04
	rest $14
.endr
; Measure 5
.rept 4
	duty $0e
	note as2 $04
	duty $0f
	note as2 $04
	rest $14
.endr
; Measure 6
.rept 4
	duty $0e
	note a2  $04
	duty $0f
	note a2  $04
	rest $14
.endr
; Measure 7
.rept 4
	duty $0e
	note b2  $04
	duty $0f
	note b2  $04
	rest $14
.endr
; Measure 8
	duty $0e
	note e3  $04
	duty $0f
	note e3  $04
	rest $14

	duty $0e
	note a3  $04
	duty $0f
	note a3  $04
	rest $14

	duty $0e
	note b3  $1c

	note fs3 $04
	duty $0f
	note fs3 $04
	rest $06

	duty $0e
	note gs3 $04
	duty $0f
	note gs3 $04
	rest $06
; Measure 9
.rept 4
	duty $0e
	note a2  $04
	duty $0f
	note a2  $04
	rest $14
.endr
; Measure 10
.rept 4
	duty $0e
	note g2  $04
	duty $0f
	note g2  $04
	rest $14
.endr
; Measure 11
.rept 4
	duty $0e
	note f2  $04
	duty $0f
	note f2  $04
	rest $14
.endr
; Measure 12
.rept 4
	duty $0e
	note c3  $04
	duty $0f
	note c3  $04
	rest $14
.endr
; Measure 13
.rept 4
	duty $0e
	note as2 $04
	duty $0f
	note as2 $04
	rest $14
.endr
; Measure 14
	duty $17
	note e4  $09
	note ds4 $09
	note e4  $0a

	note gs4 $09
	note a4  $09
	note b4  $0a

	note c5  $09
	rest $09
	note c5  $0a

	note c5  $09
	note b4  $09
	note a4  $0a
; Measure 15	
	note e5  $0e
	rest $04
	note c5  $0e
	rest $05

	note a4  $13
	note gs4 $12
	rest $0a

	note gs4 $09
	note fs4 $09
	note gs4 $0a
; Measure 16
	note a4  $09
	note b4  $09
	note c5  $0a

	note d5  $09
	note c5  $09
	note b4  $0a

	note c5  $1c
	rest $1c
	goto musicee79b
	cmdff

.define musOverworldPastChannel6 MUSIC_CHANNEL_FALLBACK EXPORT
