musSpiritsGraveStart:

musSpiritsGraveChannel1:
	vibrato $00
	env $0 $00
	duty $02
musicf2d27:
	vol $5
	note as4 $07
	rest $03
	vol $3
	note as4 $07
	rest $04
	vol $1
	note as4 $07
	vol $5
	note f5  $07
	rest $03
	vol $2
	note f5  $07
	rest $04
	vol $1
	note f5  $07
	rest $1c
	vol $5
	note e5  $07
	rest $03
	vol $2
	note e5  $07
	rest $04
	vol $1
	note e5  $07
	vol $5
	note f5  $07
	rest $03
	vol $2
	note f5  $07
	rest $04
	vol $1
	note f5  $07
	rest $1c
	vol $5
	note gs5 $07
	rest $03
	vol $2
	note gs5 $07
	rest $04
	vol $1
	note gs5 $07
	vol $5
	note b6  $02
	rest $01
	vol $2
	note b6  $02
	rest $02
	vol $1
	note b6  $02
	rest $01
	vol $0
	note b6  $02
	rest $2c
	vol $5
	note g5  $07
	rest $03
	vol $2
	note g5  $07
	rest $04
	vol $1
	note g5  $07
	vol $5
	note as6 $02
	rest $01
	vol $2
	note as6 $02
	rest $02
	vol $1
	note as6 $02
	rest $01
	vol $0
	note as6 $02
	rest $2c
	vol $5
	note e5  $38
	note f5  $07
	rest $03
	vol $3
	note f5  $07
	rest $04
	vol $1
	note f5  $07
	vol $5
	note b7  $02
	rest $01
	vol $2
	note b7  $02
	rest $02
	vol $1
	note b7  $02
	rest $01
	vol $0
	note b7  $02
	rest $48
	vol $5
	note f5  $07
	rest $03
	vol $3
	note f5  $07
	rest $04
	vol $1
	note f5  $07
	vol $5
	note e5  $07
	rest $03
	vol $3
	note e5  $07
	rest $04
	vol $2
	note e5  $07
	rest $03
	vol $2
	note e5  $07
	rest $12
	vol $5
	note ds5 $07
	rest $03
	vol $3
	note ds5 $07
	rest $04
	vol $1
	note ds5 $07
	vol $5
	note d5  $07
	rest $03
	vol $3
	note d5  $07
	rest $04
	vol $2
	note d5  $07
	rest $03
	vol $2
	note d5  $07
	rest $12
	vol $5
	note cs5 $07
	rest $03
	vol $2
	note cs5 $07
	rest $04
	vol $1
	note cs5 $07
	vol $4
	note f6  $02
	rest $02
	vol $4
	note b6  $03
	rest $02
	vol $3
	note b6  $02
	rest $03
	vol $3
	note b6  $02
	rest $28
	vol $5
	note c5  $07
	rest $03
	vol $3
	note c5  $07
	rest $04
	vol $2
	note c5  $07
	rest $03
	vol $2
	note c5  $07
	rest $12
	vol $5
	note as6 $02
	rest $02
	vol $5
	note e6  $03
	rest $02
	vol $3
	note e6  $02
	rest $03
	vol $3
	note e6  $02
	rest $02
	vol $2
	note e6  $03
	rest $07
	vol $5
	note e3  $07
	note f3  $07
	note e4  $07
	note f4  $07
	note e5  $07
	note f5  $07
	note e6  $07
	note f6  $07
	note e7  $07
	note f7  $07
	note b6  $07
	note c7  $07
	note a6  $03
	note gs6 $04
	note g6  $03
	note fs6 $04
	note f6  $03
	rest $01
	vol $3
	note f6  $04
	rest $01
	vol $2
	note f6  $03
	rest $72
	goto musicf2d27
	cmdff

musSpiritsGraveChannel0:
	vibrato $00
	env $0 $00
	duty $02
musicf2e8d:
	vol $0
	note gs3 $1c
	vol $5
	note cs5 $07
	rest $03
	vol $2
	note cs5 $07
	rest $04
	vol $1
	note cs5 $07
	rest $1c
	vol $5
	note c5  $07
	rest $03
	vol $2
	note c5  $07
	rest $04
	vol $1
	note c5  $07
	vol $5
	note cs5 $07
	rest $03
	vol $2
	note cs5 $07
	rest $04
	vol $1
	note cs5 $07
	rest $1c
	vol $5
	note d5  $07
	rest $03
	vol $2
	note d5  $07
	rest $04
	vol $1
	note d5  $07
	vol $5
	note f7  $02
	rest $02
	vol $3
	note f7  $03
	rest $02
	vol $2
	note f7  $02
	rest $03
	vol $1
	note f7  $02
	rest $28
	vol $5
	note cs5 $07
	rest $03
	vol $2
	note cs5 $07
	rest $04
	vol $1
	note cs5 $07
	vol $5
	note e7  $02
	rest $02
	vol $3
	note e7  $03
	rest $02
	vol $2
	note e7  $02
	rest $03
	vol $1
	note e7  $02
	rest $28
	vol $5
	note cs5 $38
	note d5  $07
	rest $03
	vol $2
	note d5  $07
	rest $04
	vol $1
	note d5  $07
	vol $5
	note f6  $02
	rest $02
	vol $3
	note f6  $03
	rest $02
	vol $2
	note f6  $02
	rest $03
	vol $1
	note f6  $02
	rest $44
	vol $5
	note d5  $07
	rest $03
	vol $2
	note d5  $07
	rest $04
	vol $1
	note d5  $07
	vol $5
	note cs5 $07
	rest $03
	vol $3
	note cs5 $07
	rest $04
	vol $3
	note cs5 $07
	rest $03
	vol $2
	note cs5 $07
	rest $12
	vol $5
	note c5  $07
	rest $03
	vol $2
	note c5  $07
	rest $04
	vol $1
	note c5  $07
	vol $5
	note b4  $07
	rest $03
	vol $3
	note b4  $07
	rest $04
	vol $3
	note b4  $07
	rest $03
	vol $2
	note b4  $07
	rest $12
	vol $5
	note as4 $07
	rest $03
	vol $3
	note as4 $07
	rest $04
	vol $3
	note as4 $07
	rest $03
	vol $2
	note as4 $04
	vol $4
	note f7  $03
	rest $01
	vol $4
	note b7  $03
	rest $02
	vol $2
	note b7  $02
	rest $03
	vol $2
	note b7  $02
	rest $21
	vol $5
	note a4  $07
	rest $03
	vol $3
	note a4  $07
	rest $04
	vol $3
	note a4  $07
	rest $03
	vol $2
	note a4  $07
	rest $19
	vol $5
	note as5 $02
	rest $02
	vol $5
	note e5  $03
	rest $02
	vol $3
	note e5  $02
	rest $03
	vol $2
	note e5  $02
	rest $02
	vol $2
	note e5  $03
	rest $0b
	vol $4
	note e3  $07
	note f3  $07
	note e4  $07
	note f4  $07
	note e5  $07
	note f5  $07
	note e6  $07
	note f6  $07
	note e7  $07
	note f7  $07
	note b6  $07
	note c7  $07
	note a6  $04
	note gs6 $03
	note g6  $04
	vol $2
	note fs6 $03
	vol $2
	note f6  $03
	rest $70
	goto musicf2e8d
	cmdff

musSpiritsGraveChannel4:
musicf2fe0:
	rest $c4
	duty $0e
	note d2  $54
	note cs2 $2a
	note c2  $07
	note b1  $07
	note as1 $3f
	note a1  $07
	note gs1 $07
	note g1  $07
	note fs1 $46
	duty $0f
	note fs1 $07
	rest $07
	duty $0e
	note cs2 $38
	note a2  $38
	note gs2 $38
	note a1  $38
	note cs3 $38
	note c3  $38
	note fs1 $38
	note f1  $38
	rest $70
	goto musicf2fe0
	cmdff

musSpiritsGraveChannel6:
musicf3014:
	rest $38
	vol $2
	note $2a $0e
	note $2a $0e
	rest $38
	note $2e $0e
	rest $0e
	note $2a $0e
	rest $46
	note $2a $0e
	rest $62
	note $2a $0e
	note $2a $0e
	note $2e $0e
	rest $0e
	note $2a $0e
	rest $62
	note $2a $0e
	rest $0e
	note $2e $0e
	rest $0e
	note $2a $0e
	rest $46
	note $2a $0e
	note $2a $0e
	note $2e $0e
	rest $2a
	note $2a $0e
	rest $46
	note $2a $0e
	note $2a $0e
	rest $38
	note $2a $07
	note $2a $0e
	rest $23
	note $2a $0e
	note $2a $0e
	rest $1c
	note $2e $0e
	rest $0e
	goto musicf3014
	cmdff
